<svg width="1920" height="1080" viewBox="0 0 1920 1080" fill="none" xmlns="http://www.w3.org/2000/svg">
<g clip-path="url(#clip0_222_496)">
<rect width="1920" height="1080" fill="#151515"/>
<path d="M446.523 260.293C443.919 260.293 442.031 260.065 440.859 259.609C439.688 259.089 439.102 258.34 439.102 257.363C439.102 256.908 439.264 256.126 439.59 255.02L480.703 140.859C481.354 138.971 483.665 138.027 487.637 138.027H492.715C496.686 138.027 498.997 138.971 499.648 140.859L540.762 255.117C541.087 255.833 541.25 256.582 541.25 257.363C541.25 259.316 538.809 260.293 533.926 260.293H532.461C528.424 260.293 526.081 259.382 525.43 257.559L515.273 229.043H464.297L454.336 257.559C453.75 259.382 451.439 260.293 447.402 260.293H446.523ZM510.586 215.859L492.422 164.199C491.901 162.767 491.478 161.139 491.152 159.316C490.827 157.493 490.534 155.736 490.273 154.043H489.883C489.102 158.405 488.223 161.79 487.246 164.199L469.082 215.859H510.586ZM605.215 260.977C595.124 260.977 586.53 259.414 579.434 256.289C572.337 253.099 566.966 248.509 563.32 242.52C559.674 236.53 557.852 229.368 557.852 221.035V141.934C557.852 139.329 560.163 138.027 564.785 138.027H566.152C570.775 138.027 573.086 139.329 573.086 141.934V221.621C573.086 226.699 574.486 231.224 577.285 235.195C580.085 239.167 583.926 242.259 588.809 244.473C593.691 246.686 599.16 247.793 605.215 247.793C611.335 247.793 616.836 246.686 621.719 244.473C626.602 242.194 630.41 239.069 633.145 235.098C635.944 231.126 637.344 226.634 637.344 221.621V141.934C637.344 139.329 639.655 138.027 644.277 138.027H645.742C650.299 138.027 652.578 139.329 652.578 141.934V221.035C652.578 229.368 650.755 236.53 647.109 242.52C643.464 248.509 638.092 253.099 630.996 256.289C623.9 259.414 615.306 260.977 605.215 260.977ZM714.297 260.293C711.888 260.293 710.13 260 709.023 259.414C707.917 258.763 707.363 257.786 707.363 256.484V151.699H673.965C672.728 151.699 671.849 151.276 671.328 150.43C670.807 149.583 670.547 148.281 670.547 146.523V143.691C670.547 141.868 670.807 140.566 671.328 139.785C671.849 138.939 672.728 138.516 673.965 138.516H755.41C756.647 138.516 757.526 138.939 758.047 139.785C758.568 140.566 758.828 141.868 758.828 143.691V146.523C758.828 148.281 758.568 149.583 758.047 150.43C757.526 151.276 756.647 151.699 755.41 151.699H722.695V256.484C722.695 259.023 720.352 260.293 715.664 260.293H714.297ZM825.723 260.977C808.34 260.977 795.091 255.703 785.977 245.156C776.862 234.609 772.305 219.18 772.305 198.867C772.305 178.62 776.829 163.32 785.879 152.969C794.993 142.552 808.275 137.344 825.723 137.344C843.236 137.344 856.549 142.552 865.664 152.969C874.779 163.32 879.336 178.62 879.336 198.867C879.336 219.18 874.779 234.609 865.664 245.156C856.549 255.703 843.236 260.977 825.723 260.977ZM825.723 247.793C837.962 247.793 847.337 243.626 853.848 235.293C860.358 226.895 863.613 214.753 863.613 198.867C863.613 182.982 860.358 170.97 853.848 162.832C847.402 154.629 838.027 150.527 825.723 150.527C813.483 150.527 804.141 154.629 797.695 162.832C791.25 170.97 788.027 182.982 788.027 198.867C788.027 214.818 791.25 226.96 797.695 235.293C804.141 243.626 813.483 247.793 825.723 247.793ZM911.953 260.293C909.479 260.293 907.689 260 906.582 259.414C905.475 258.763 904.922 257.786 904.922 256.484V141.934C904.922 139.329 907.266 138.027 911.953 138.027H918.105C921.947 138.027 924.388 139.102 925.43 141.25L958.242 198.184L962.734 209.121L967.227 199.16L1000.14 141.25C1001.24 139.102 1003.65 138.027 1007.36 138.027H1013.12C1017.75 138.027 1020.06 139.329 1020.06 141.934V256.484C1020.06 259.023 1017.75 260.293 1013.12 260.293H1011.95C1009.48 260.293 1007.69 260 1006.58 259.414C1005.48 258.763 1004.92 257.786 1004.92 256.484V163.027L1004.63 163.809L970.059 223.867C969.603 224.648 969.082 225.234 968.496 225.625C967.91 225.951 967.161 226.113 966.25 226.113H959.316C957.559 226.113 956.257 225.365 955.41 223.867L920.059 162.051V256.484C920.059 259.023 917.747 260.293 913.125 260.293H911.953ZM1045.16 260.293C1042.55 260.293 1040.66 260.065 1039.49 259.609C1038.32 259.089 1037.73 258.34 1037.73 257.363C1037.73 256.908 1037.9 256.126 1038.22 255.02L1079.34 140.859C1079.99 138.971 1082.3 138.027 1086.27 138.027H1091.35C1095.32 138.027 1097.63 138.971 1098.28 140.859L1139.39 255.117C1139.72 255.833 1139.88 256.582 1139.88 257.363C1139.88 259.316 1137.44 260.293 1132.56 260.293H1131.09C1127.06 260.293 1124.71 259.382 1124.06 257.559L1113.91 229.043H1062.93L1052.97 257.559C1052.38 259.382 1050.07 260.293 1046.04 260.293H1045.16ZM1109.22 215.859L1091.05 164.199C1090.53 162.767 1090.11 161.139 1089.79 159.316C1089.46 157.493 1089.17 155.736 1088.91 154.043H1088.52C1087.73 158.405 1086.86 161.79 1085.88 164.199L1067.71 215.859H1109.22ZM1243.79 248.477C1243.79 250.104 1242.19 251.895 1239 253.848C1235.81 255.801 1231.52 257.461 1226.11 258.828C1220.71 260.195 1214.88 260.911 1208.63 260.977L1206.48 268.496H1207.17C1210.49 268.496 1213.78 269.375 1217.03 271.133C1220.29 272.891 1221.91 276.178 1221.91 280.996C1221.91 287.051 1219.99 291.152 1216.15 293.301C1212.38 295.449 1207.66 296.523 1201.99 296.523C1199.26 296.523 1196.3 296.198 1193.11 295.547C1189.98 294.961 1187.34 294.082 1185.2 292.91C1183.05 291.803 1181.97 290.501 1181.97 289.004C1181.97 287.767 1182.23 286.693 1182.75 285.781C1183.27 284.935 1184.12 284.512 1185.29 284.512C1185.88 284.512 1186.63 284.674 1187.54 285C1188.52 285.326 1189.23 285.553 1189.69 285.684C1191.58 286.4 1193.27 286.953 1194.77 287.344C1196.33 287.734 1197.96 287.93 1199.65 287.93C1202.45 287.93 1204.79 287.539 1206.68 286.758C1208.63 285.977 1209.61 284.382 1209.61 281.973C1209.61 280.02 1209.02 278.587 1207.85 277.676C1206.68 276.829 1204.99 276.048 1202.77 275.332C1201.21 274.811 1200.04 274.323 1199.26 273.867C1198.54 273.411 1198.18 272.728 1198.18 271.816C1198.18 271.1 1198.41 269.928 1198.87 268.301C1199.32 266.673 1200.1 264.167 1201.21 260.781C1184.41 259.674 1172.01 254.108 1164 244.082C1156 234.056 1151.99 219.082 1151.99 199.16C1151.99 157.949 1170.71 137.344 1208.14 137.344C1213.61 137.344 1218.92 137.93 1224.06 139.102C1229.21 140.208 1233.37 141.608 1236.56 143.301C1239.75 144.993 1241.35 146.621 1241.35 148.184C1241.35 149.16 1240.99 150.462 1240.27 152.09C1239.62 153.717 1238.84 155.15 1237.93 156.387C1237.02 157.624 1236.2 158.242 1235.49 158.242C1235.16 158.242 1234.25 157.819 1232.75 156.973C1229.37 155.15 1225.82 153.62 1222.11 152.383C1218.4 151.146 1213.87 150.527 1208.54 150.527C1194.54 150.527 1184.22 154.434 1177.58 162.246C1171 169.993 1167.71 182.363 1167.71 199.355C1167.71 215.957 1170.97 228.197 1177.48 236.074C1184.06 243.887 1194.18 247.793 1207.85 247.793C1213.58 247.793 1218.5 247.109 1222.6 245.742C1226.7 244.375 1230.64 242.682 1234.41 240.664C1236.24 239.688 1237.34 239.199 1237.73 239.199C1238.45 239.199 1239.26 239.818 1240.18 241.055C1241.15 242.292 1242 243.691 1242.71 245.254C1243.43 246.751 1243.79 247.826 1243.79 248.477ZM1259.22 260.293C1256.61 260.293 1254.73 260.065 1253.55 259.609C1252.38 259.089 1251.8 258.34 1251.8 257.363C1251.8 256.908 1251.96 256.126 1252.29 255.02L1293.4 140.859C1294.05 138.971 1296.36 138.027 1300.33 138.027H1305.41C1309.38 138.027 1311.69 138.971 1312.34 140.859L1353.46 255.117C1353.78 255.833 1353.95 256.582 1353.95 257.363C1353.95 259.316 1351.5 260.293 1346.62 260.293H1345.16C1341.12 260.293 1338.78 259.382 1338.12 257.559L1327.97 229.043H1276.99L1267.03 257.559C1266.45 259.382 1264.13 260.293 1260.1 260.293H1259.22ZM1323.28 215.859L1305.12 164.199C1304.6 162.767 1304.17 161.139 1303.85 159.316C1303.52 157.493 1303.23 155.736 1302.97 154.043H1302.58C1301.8 158.405 1300.92 161.79 1299.94 164.199L1281.78 215.859H1323.28ZM1274.65 125.82C1273.54 125.365 1272.99 124.681 1272.99 123.77C1272.99 122.988 1273.18 122.24 1273.57 121.523C1275.4 117.227 1277.58 114.167 1280.12 112.344C1282.72 110.456 1285.88 109.512 1289.59 109.512C1291.93 109.512 1294.34 109.87 1296.82 110.586C1299.29 111.237 1302.38 112.214 1306.09 113.516C1309.15 114.688 1311.76 115.566 1313.91 116.152C1316.05 116.738 1318.01 117.031 1319.77 117.031C1321.33 117.031 1322.66 116.673 1323.77 115.957C1324.94 115.176 1326.11 113.841 1327.29 111.953C1328.46 110.26 1329.6 109.414 1330.7 109.414C1331.09 109.414 1331.68 109.577 1332.46 109.902L1333.83 110.391C1334.54 110.651 1335.07 110.944 1335.39 111.27C1335.72 111.595 1335.88 112.018 1335.88 112.539C1335.88 113.255 1335.62 114.036 1335.1 114.883C1333.27 119.115 1331.06 122.142 1328.46 123.965C1325.92 125.788 1322.86 126.699 1319.28 126.699C1316.8 126.699 1314.3 126.374 1311.76 125.723C1309.28 125.007 1306.03 123.965 1301.99 122.598C1298.8 121.426 1296.2 120.579 1294.18 120.059C1292.16 119.473 1290.31 119.18 1288.61 119.18C1287.18 119.18 1285.91 119.603 1284.8 120.449C1283.7 121.23 1282.53 122.565 1281.29 124.453C1280.7 125.365 1280.18 126.016 1279.73 126.406C1279.27 126.797 1278.75 126.992 1278.16 126.992C1277.77 126.992 1277.19 126.829 1276.41 126.504L1274.65 125.82ZM1419.47 260.977C1402.09 260.977 1388.84 255.703 1379.73 245.156C1370.61 234.609 1366.05 219.18 1366.05 198.867C1366.05 178.62 1370.58 163.32 1379.63 152.969C1388.74 142.552 1402.02 137.344 1419.47 137.344C1436.99 137.344 1450.3 142.552 1459.41 152.969C1468.53 163.32 1473.09 178.62 1473.09 198.867C1473.09 219.18 1468.53 234.609 1459.41 245.156C1450.3 255.703 1436.99 260.977 1419.47 260.977ZM1419.47 247.793C1431.71 247.793 1441.09 243.626 1447.6 235.293C1454.11 226.895 1457.36 214.753 1457.36 198.867C1457.36 182.982 1454.11 170.97 1447.6 162.832C1441.15 154.629 1431.78 150.527 1419.47 150.527C1407.23 150.527 1397.89 154.629 1391.45 162.832C1385 170.97 1381.78 182.982 1381.78 198.867C1381.78 214.818 1385 226.96 1391.45 235.293C1397.89 243.626 1407.23 247.793 1419.47 247.793ZM510.879 495.293C506.191 495.293 503.848 494.023 503.848 491.484V376.934C503.848 374.329 506.191 373.027 510.879 373.027H512.246C516.868 373.027 519.18 374.329 519.18 376.934V491.484C519.18 494.023 516.868 495.293 512.246 495.293H510.879ZM558.73 495.293C556.257 495.293 554.466 495 553.359 494.414C552.253 493.763 551.699 492.786 551.699 491.484V376.934C551.699 374.329 554.043 373.027 558.73 373.027H562.344C564.167 373.027 565.599 373.288 566.641 373.809C567.747 374.329 568.724 375.176 569.57 376.348L625.039 460.039L630.215 469.805V376.934C630.215 374.329 632.493 373.027 637.051 373.027H638.418C642.975 373.027 645.254 374.329 645.254 376.934V491.484C645.254 492.786 644.701 493.763 643.594 494.414C642.487 495 640.762 495.293 638.418 495.293H634.902C633.275 495.293 631.973 495.098 630.996 494.707C630.02 494.316 629.271 493.698 628.75 492.852L571.523 406.523L566.836 397.539V491.484C566.836 494.023 564.525 495.293 559.902 495.293H558.73ZM682.949 495C681.126 495 679.792 494.577 678.945 493.73C678.099 492.884 677.676 491.582 677.676 489.824V378.691C677.676 376.868 678.099 375.566 678.945 374.785C679.792 373.939 681.126 373.516 682.949 373.516H718.008C734.284 373.516 747.305 378.333 757.07 387.969C766.836 397.604 771.719 413.001 771.719 434.16C771.719 455.449 766.836 470.911 757.07 480.547C747.305 490.182 734.284 495 718.008 495H682.949ZM716.836 481.816C728.555 481.816 737.995 478.008 745.156 470.391C752.318 462.708 755.898 450.632 755.898 434.16C755.898 423.092 754.206 414.043 750.82 407.012C747.435 399.915 742.812 394.772 736.953 391.582C731.094 388.327 724.388 386.699 716.836 386.699H693.008V481.816H716.836ZM843.398 495.977C833.307 495.977 824.714 494.414 817.617 491.289C810.521 488.099 805.15 483.509 801.504 477.52C797.858 471.53 796.035 464.368 796.035 456.035V376.934C796.035 374.329 798.346 373.027 802.969 373.027H804.336C808.958 373.027 811.27 374.329 811.27 376.934V456.621C811.27 461.699 812.669 466.224 815.469 470.195C818.268 474.167 822.109 477.259 826.992 479.473C831.875 481.686 837.344 482.793 843.398 482.793C849.518 482.793 855.02 481.686 859.902 479.473C864.785 477.194 868.594 474.069 871.328 470.098C874.128 466.126 875.527 461.634 875.527 456.621V376.934C875.527 374.329 877.839 373.027 882.461 373.027H883.926C888.483 373.027 890.762 374.329 890.762 376.934V456.035C890.762 464.368 888.939 471.53 885.293 477.52C881.647 483.509 876.276 488.099 869.18 491.289C862.083 494.414 853.49 495.977 843.398 495.977ZM947.598 495.977C941.217 495.977 935.26 495.293 929.727 493.926C924.258 492.493 919.863 490.801 916.543 488.848C913.288 486.829 911.66 485.007 911.66 483.379C911.66 482.467 912.018 481.263 912.734 479.766C913.516 478.268 914.395 476.934 915.371 475.762C916.348 474.59 917.129 474.004 917.715 474.004C918.236 474.004 919.375 474.525 921.133 475.566C925.169 477.65 929.173 479.375 933.145 480.742C937.116 482.109 941.934 482.793 947.598 482.793C952.025 482.793 955.964 481.947 959.414 480.254C962.865 478.561 965.534 476.185 967.422 473.125C969.375 470 970.352 466.419 970.352 462.383C970.352 458.086 969.18 454.538 966.836 451.738C964.557 448.874 961.758 446.628 958.438 445C955.182 443.307 950.43 441.224 944.18 438.75C937.409 436.146 932.038 433.737 928.066 431.523C924.16 429.245 920.807 425.957 918.008 421.66C915.273 417.363 913.906 411.667 913.906 404.57C913.906 398.385 915.501 392.852 918.691 387.969C921.882 383.021 926.406 379.18 932.266 376.445C938.125 373.711 944.863 372.344 952.48 372.344C955.931 372.344 959.87 372.832 964.297 373.809C968.724 374.72 972.5 375.99 975.625 377.617C978.815 379.245 980.41 381.035 980.41 382.988C980.41 383.835 980.052 385.007 979.336 386.504C978.685 387.936 977.904 389.238 976.992 390.41C976.081 391.582 975.365 392.168 974.844 392.168C974.258 392.168 973.086 391.68 971.328 390.703C968.398 389.141 965.501 387.904 962.637 386.992C959.772 386.016 956.289 385.527 952.188 385.527C945.482 385.527 940.046 387.253 935.879 390.703C931.777 394.154 929.727 398.971 929.727 405.156C929.727 408.867 930.638 411.927 932.461 414.336C934.284 416.745 936.595 418.665 939.395 420.098C942.194 421.53 946.1 423.19 951.113 425.078C951.439 425.143 952.188 425.404 953.359 425.859C960.26 428.529 965.892 431.133 970.254 433.672C974.681 436.146 978.424 439.727 981.484 444.414C984.609 449.102 986.172 455.091 986.172 462.383C986.172 469.219 984.577 475.176 981.387 480.254C978.262 485.332 973.77 489.238 967.91 491.973C962.116 494.642 955.345 495.977 947.598 495.977ZM1039.39 495.293C1036.99 495.293 1035.23 495 1034.12 494.414C1033.01 493.763 1032.46 492.786 1032.46 491.484V386.699H999.062C997.826 386.699 996.947 386.276 996.426 385.43C995.905 384.583 995.645 383.281 995.645 381.523V378.691C995.645 376.868 995.905 375.566 996.426 374.785C996.947 373.939 997.826 373.516 999.062 373.516H1080.51C1081.74 373.516 1082.62 373.939 1083.14 374.785C1083.67 375.566 1083.93 376.868 1083.93 378.691V381.523C1083.93 383.281 1083.67 384.583 1083.14 385.43C1082.62 386.276 1081.74 386.699 1080.51 386.699H1047.79V491.484C1047.79 494.023 1045.45 495.293 1040.76 495.293H1039.39ZM1111.27 495.293C1106.58 495.293 1104.24 494.023 1104.24 491.484V378.691C1104.24 376.868 1104.66 375.566 1105.51 374.785C1106.35 373.939 1107.69 373.516 1109.51 373.516H1138.71C1152.58 373.516 1162.99 375.957 1169.96 380.84C1176.99 385.723 1180.51 393.503 1180.51 404.18C1180.51 411.406 1178.75 417.493 1175.23 422.441C1171.78 427.324 1166.9 431.003 1160.59 433.477V434.16C1163.97 435.332 1166.74 437.611 1168.89 440.996C1171.1 444.316 1173.54 449.264 1176.21 455.84L1189.79 490.117C1190.11 491.289 1190.27 492.103 1190.27 492.559C1190.27 494.382 1187.83 495.293 1182.95 495.293H1181.19C1179.43 495.293 1177.9 495.065 1176.6 494.609C1175.36 494.089 1174.58 493.405 1174.26 492.559L1161.07 458.477C1159.38 454.049 1157.4 450.599 1155.12 448.125C1152.84 445.651 1150.14 443.926 1147.01 442.949C1143.89 441.973 1139.95 441.484 1135.2 441.484H1119.57V491.484C1119.57 494.023 1117.26 495.293 1112.64 495.293H1111.27ZM1142.42 428.301C1146.52 428.301 1150.27 427.324 1153.65 425.371C1157.1 423.418 1159.8 420.814 1161.76 417.559C1163.78 414.238 1164.79 410.723 1164.79 407.012C1164.79 400.176 1162.7 395.098 1158.54 391.777C1154.37 388.392 1148.61 386.699 1141.25 386.699H1119.57V428.301H1142.42ZM1217.32 495.293C1212.64 495.293 1210.29 494.023 1210.29 491.484V376.934C1210.29 374.329 1212.64 373.027 1217.32 373.027H1218.69C1223.31 373.027 1225.62 374.329 1225.62 376.934V491.484C1225.62 494.023 1223.31 495.293 1218.69 495.293H1217.32ZM1252.09 495.293C1249.49 495.293 1247.6 495.065 1246.43 494.609C1245.25 494.089 1244.67 493.34 1244.67 492.363C1244.67 491.908 1244.83 491.126 1245.16 490.02L1286.27 375.859C1286.92 373.971 1289.23 373.027 1293.2 373.027H1298.28C1302.25 373.027 1304.56 373.971 1305.21 375.859L1346.33 490.117C1346.65 490.833 1346.82 491.582 1346.82 492.363C1346.82 494.316 1344.38 495.293 1339.49 495.293H1338.03C1333.99 495.293 1331.65 494.382 1331 492.559L1320.84 464.043H1269.86L1259.9 492.559C1259.32 494.382 1257.01 495.293 1252.97 495.293H1252.09ZM1316.15 450.859L1297.99 399.199C1297.47 397.767 1297.04 396.139 1296.72 394.316C1296.39 392.493 1296.1 390.736 1295.84 389.043H1295.45C1294.67 393.405 1293.79 396.79 1292.81 399.199L1274.65 450.859H1316.15ZM1371.04 495C1369.21 495 1367.88 494.577 1367.03 493.73C1366.18 492.884 1365.76 491.582 1365.76 489.824V376.934C1365.76 374.329 1368.11 373.027 1372.79 373.027H1374.16C1378.78 373.027 1381.09 374.329 1381.09 376.934V481.816H1428.85C1430.08 481.816 1430.96 482.24 1431.48 483.086C1432.01 483.867 1432.27 485.169 1432.27 486.992V489.824C1432.27 491.582 1432.01 492.884 1431.48 493.73C1430.96 494.577 1430.08 495 1428.85 495H1371.04Z" fill="white"/>
<path d="M1309.55 568.209H1174.51V631.46H1309.55V568.209Z" fill="#999999"/>
<path d="M1266.47 584.323H1204.43V615.346H1266.47V584.323Z" fill="#808080"/>
<path d="M1205.87 629.99L1090.59 745.276L1038.88 693.568L1154.17 578.282C1168.45 564.003 1191.6 564.003 1205.87 578.282C1220.15 592.561 1220.15 615.711 1205.87 629.99Z" fill="#CCCCCC"/>
<path d="M1159.07 738.605C1118.23 738.605 1085.12 771.715 1085.12 812.558V926.397H1233.02V812.558C1233.02 771.715 1199.91 738.605 1159.07 738.605Z" fill="#999999"/>
<path d="M1159.07 874.065C1192.38 874.065 1219.38 847.066 1219.38 813.76C1219.38 780.455 1192.38 753.455 1159.07 753.455C1125.77 753.455 1098.77 780.455 1098.77 813.76C1098.77 847.066 1125.77 874.065 1159.07 874.065Z" fill="#CCCCCC"/>
<path d="M1159.07 876.281C1142.37 876.281 1126.67 869.778 1114.86 857.969C1090.48 833.593 1090.48 793.928 1114.86 769.552C1126.67 757.744 1142.37 751.24 1159.07 751.24C1175.77 751.24 1191.47 757.743 1203.28 769.552C1215.09 781.36 1221.59 797.061 1221.59 813.761C1221.59 830.461 1215.09 846.161 1203.28 857.97C1191.47 869.777 1175.77 876.281 1159.07 876.281ZM1159.07 755.672C1143.55 755.672 1128.97 761.714 1118 772.685C1095.35 795.334 1095.35 832.186 1118 854.835C1128.97 865.807 1143.55 871.848 1159.07 871.848C1174.59 871.848 1189.17 865.806 1200.15 854.835C1211.12 843.863 1217.16 829.276 1217.16 813.76C1217.16 798.244 1211.12 783.656 1200.15 772.685C1189.17 761.714 1174.59 755.672 1159.07 755.672Z" fill="#808080"/>
<path d="M1038.88 693.568C1023.63 708.82 1023.63 733.547 1038.88 748.799L1131.71 841.634C1146.97 856.886 1171.69 856.886 1186.94 841.634C1202.2 826.382 1202.2 801.655 1186.94 786.403L1094.11 693.568C1078.86 678.317 1054.13 678.317 1038.88 693.568Z" fill="#999999"/>
<path d="M1159.07 829.109C1167.55 829.109 1174.42 822.237 1174.42 813.76C1174.42 805.283 1167.55 798.411 1159.07 798.411C1150.59 798.411 1143.72 805.283 1143.72 813.76C1143.72 822.237 1150.59 829.109 1159.07 829.109Z" fill="#CCCCCC"/>
<path d="M1066.73 736.768C1075.21 736.768 1082.08 729.896 1082.08 721.419C1082.08 712.942 1075.21 706.07 1066.73 706.07C1058.25 706.07 1051.38 712.942 1051.38 721.419C1051.38 729.896 1058.25 736.768 1066.73 736.768Z" fill="#CCCCCC"/>
<path d="M1364.9 926.397H1024V950.46H1364.9V926.397Z" fill="#808080"/>
<path d="M1398.32 618.112C1398.32 641.058 1379.72 659.661 1356.77 659.661H1328.2C1300.84 659.661 1278.66 637.49 1278.66 610.123V589.549C1278.66 562.182 1300.84 540 1328.2 540H1356.77C1368.25 540 1378.63 544.653 1386.16 552.166C1393.67 559.689 1398.32 570.071 1398.32 581.549H1336.28V618.112H1398.32Z" fill="#CCCCCC"/>
<path d="M1308.27 615.184C1316.74 615.184 1323.62 608.312 1323.62 599.835C1323.62 591.358 1316.74 584.486 1308.27 584.486C1299.79 584.486 1292.92 591.358 1292.92 599.835C1292.92 608.312 1299.79 615.184 1308.27 615.184Z" fill="#999999"/>
<path d="M1114.07 915.58C1122.55 915.58 1129.42 908.708 1129.42 900.231C1129.42 891.754 1122.55 884.882 1114.07 884.882C1105.6 884.882 1098.72 891.754 1098.72 900.231C1098.72 908.708 1105.6 915.58 1114.07 915.58Z" fill="#CCCCCC"/>
<path d="M1204.07 915.58C1212.55 915.58 1219.42 908.708 1219.42 900.231C1219.42 891.754 1212.55 884.882 1204.07 884.882C1195.59 884.882 1188.72 891.754 1188.72 900.231C1188.72 908.708 1195.59 915.58 1204.07 915.58Z" fill="#CCCCCC"/>
<path d="M1184.48 615.184C1192.96 615.184 1199.83 608.312 1199.83 599.835C1199.83 591.358 1192.96 584.486 1184.48 584.486C1176.01 584.486 1169.14 591.358 1169.14 599.835C1169.14 608.312 1176.01 615.184 1184.48 615.184Z" fill="#999999"/>
<path d="M1351.79 618.112H1336.28V659.661H1351.79V618.112Z" fill="#999999"/>
<path d="M1098.74 657.997L1090.12 666.615L1117.54 694.035L1126.16 685.417L1098.74 657.997Z" fill="#808080"/>
<path d="M1116.17 640.567L1107.55 649.185L1134.97 676.606L1143.59 667.988L1116.17 640.567Z" fill="#808080"/>
<path d="M1133.6 623.138L1124.98 631.756L1152.4 659.176L1161.02 650.558L1133.6 623.138Z" fill="#808080"/>
<path d="M1151.03 605.708L1142.41 614.326L1169.83 641.747L1178.45 633.129L1151.03 605.708Z" fill="#808080"/>
<path d="M1105.2 721.499L1066.81 759.888L1119.3 812.379L1157.69 773.989L1105.2 721.499Z" fill="#808080"/>
<path d="M477.556 879.389L456.279 948.842H473.021L476.862 935.9H497.617L501.353 948.842H519.56L498.285 879.389H477.556ZM481.067 921.93L487.388 900.329L493.637 921.93H481.067Z" fill="#00979C"/>
<path d="M559.564 917.156C559.312 916.887 559.056 916.632 558.795 916.394C559.319 916.196 559.829 915.985 560.329 915.755C562.355 914.825 564.13 913.578 565.605 912.059C567.097 910.526 568.269 908.677 569.088 906.565C569.898 904.479 570.31 902.081 570.31 899.444C570.31 895.808 569.653 892.663 568.363 890.093C567.058 887.495 565.169 885.355 562.752 883.732C560.407 882.16 557.553 881.023 554.271 880.357C551.116 879.717 547.563 879.389 543.713 879.389H521.993V948.842H538.65V921.705H539.144C540.966 921.705 542.485 922.105 543.787 922.932C545.079 923.75 546.07 924.958 546.82 926.631L556.887 948.842H576.267L564.036 924.066C562.555 921.058 561.091 918.8 559.564 917.156ZM552.319 903.832C551.837 904.75 551.17 905.502 550.276 906.131C549.335 906.792 548.166 907.3 546.798 907.64C545.353 908.001 543.704 908.183 541.895 908.183H538.65V893.562H542.31C546.123 893.562 548.957 894.161 550.732 895.342C552.278 896.372 553.031 898.106 553.031 900.648C553.031 901.877 552.797 902.919 552.319 903.832Z" fill="#00979C"/>
<path d="M625.069 887.637C622.264 884.818 618.727 882.708 614.556 881.367C610.49 880.055 605.705 879.389 600.334 879.389H578.305V948.842H597.481C603.669 948.842 609.081 947.999 613.567 946.337C618.122 944.653 621.927 942.208 624.872 939.073C627.813 935.944 630.005 932.122 631.383 927.714C632.735 923.399 633.419 918.545 633.419 913.288C633.419 907.557 632.733 902.53 631.378 898.346C629.994 894.06 627.871 890.458 625.069 887.637ZM611.45 929.846C608.558 933.059 604.362 934.62 598.624 934.62H594.96V893.611H599.504C602.715 893.611 605.411 894.065 607.514 894.961C609.553 895.829 611.13 897.054 612.337 898.704C613.569 900.397 614.462 902.521 614.99 905.012C615.546 907.648 615.83 910.702 615.83 914.09C615.83 921.317 614.356 926.618 611.45 929.846Z" fill="#00979C"/>
<path d="M673.543 923.572C673.543 925.966 673.322 928.007 672.883 929.638C672.474 931.16 671.873 932.404 671.092 933.333C670.343 934.226 669.427 934.856 668.294 935.26C667.06 935.701 665.483 935.923 663.602 935.923C661.613 935.923 659.973 935.669 658.726 935.164C657.528 934.678 656.565 933.983 655.78 933.041C654.993 932.093 654.428 930.903 654.103 929.499C653.739 927.949 653.556 926.125 653.556 924.073V879.389H636.901V924.825C636.901 928.58 637.366 932.026 638.281 935.067C639.232 938.227 640.801 940.958 642.946 943.181C645.091 945.402 647.899 947.12 651.292 948.282C654.589 949.419 658.574 949.994 663.134 949.994C667.211 949.994 670.952 949.419 674.25 948.282C677.621 947.127 680.528 945.374 682.89 943.072C685.253 940.767 687.087 937.865 688.34 934.448C689.572 931.092 690.198 927.163 690.198 922.768V879.389H673.543V923.572Z" fill="#00979C"/>
<path d="M698.715 893.361H713.662V934.771H698.715V948.842H745.472V934.771H730.526V893.361H745.472V879.389H698.715V893.361Z" fill="#00979C"/>
<path d="M791.822 918.963L773.203 879.389H754.351V948.842H769.863V908.515L788.582 948.842H807.338V879.389H791.822V918.963Z" fill="#00979C"/>
<path d="M861.259 887.606C856.396 881.422 849.106 878.287 839.595 878.287C835.526 878.287 831.645 879.008 828.059 880.43C824.423 881.871 821.21 884.114 818.507 887.104C815.829 890.067 813.702 893.878 812.19 898.429C810.694 902.921 809.935 908.308 809.935 914.442C809.935 925.773 812.346 934.589 817.099 940.648C821.962 946.851 829.252 949.994 838.763 949.994C842.834 949.994 846.718 949.273 850.304 947.851C853.941 946.408 857.153 944.163 859.852 941.179C862.527 938.217 864.653 934.407 866.171 929.854C867.664 925.363 868.422 919.976 868.422 913.839C868.422 902.475 866.012 893.648 861.259 887.606ZM850.297 923.693C849.82 926.256 849.076 928.417 848.086 930.118C847.146 931.737 845.982 932.924 844.531 933.743C843.085 934.558 841.284 934.971 839.18 934.971C835.017 934.971 832.115 933.422 830.309 930.236C828.325 926.736 827.318 921.221 827.318 913.839C827.318 910.373 827.568 907.259 828.064 904.589C828.54 902.031 829.289 899.873 830.294 898.173C831.251 896.547 832.418 895.357 833.862 894.535C835.287 893.723 837.075 893.311 839.18 893.311C843.375 893.311 846.285 894.857 848.073 898.038C850.043 901.54 851.041 907.059 851.041 914.442C851.041 917.918 850.791 921.03 850.297 923.693Z" fill="#00979C"/>
<path d="M844.362 677.305H847.317V685.075H849.414V677.305H852.393V675.376H844.362V677.305Z" fill="#00979C"/>
<path d="M859.686 675.376L857.665 681.987L855.574 675.376H852.839V685.075H854.81V678.879L856.765 685.075H858.565L860.419 679.04V685.075H862.381V675.376H859.686Z" fill="#00979C"/>
<path d="M763.243 863.061C736.838 863.061 714.263 854.158 694.395 835.949C682.122 824.703 672.003 810.925 662.693 796.6C653.384 810.925 643.264 824.703 630.992 835.949C609.644 855.514 585.169 864.336 556.18 862.914C500.899 862.674 456 819.047 456 765.457C456 711.719 501.146 668 556.638 668C587.004 668 612.57 678.049 634.79 698.72C645.464 708.649 654.474 720.167 662.693 732.218C670.912 720.167 679.923 708.649 690.595 698.72C712.815 678.049 738.382 668 768.748 668C824.241 668 869.385 711.719 869.385 765.457C869.385 819.047 824.488 862.674 769.205 862.914C767.197 863.013 765.207 863.061 763.243 863.061ZM682.909 764.157C693.923 782.026 704.613 798.659 717.633 810.59C732.33 824.059 747.821 829.6 767.847 828.542L768.748 828.517C805.273 828.517 834.989 800.229 834.989 765.457C834.989 730.686 805.273 702.396 768.748 702.396C747.186 702.396 729.796 709.231 714.023 723.903C702.243 734.864 692.516 748.906 682.909 764.157ZM556.638 702.396C520.113 702.396 490.396 730.686 490.396 765.457C490.396 800.229 520.113 828.517 556.638 828.517L557.54 828.542C577.567 829.6 593.055 824.059 607.752 810.59C620.773 798.659 631.464 782.026 642.476 764.157C632.869 748.906 623.143 734.864 611.364 723.903C595.589 709.231 578.2 702.396 556.638 702.396Z" fill="#00979C"/>
<path d="M773.297 752.957V734.304H753.882V752.957H735.232V772.277H753.882V791.067H773.297V772.277H791.949V752.957H773.297Z" fill="#00979C"/>
<path d="M528.709 752.723H590.014V772.65H528.709V752.723Z" fill="#00979C"/>
</g>
<defs>
<clipPath id="clip0_222_496">
<rect width="1920" height="1080" fill="white"/>
</clipPath>
</defs>
</svg>
