<svg width="1920" height="1080" viewBox="0 0 1920 1080" fill="none" xmlns="http://www.w3.org/2000/svg">
<g clip-path="url(#clip0_222_538)">
<rect width="1920" height="1080" fill="#151515"/>
<path d="M275.625 378.977C256.615 378.977 242.552 373.964 233.438 363.938C224.323 353.911 219.766 338.319 219.766 317.16C219.766 275.949 238.483 255.344 275.918 255.344C281.387 255.344 286.693 255.93 291.836 257.102C296.979 258.208 301.146 259.608 304.336 261.301C307.526 262.993 309.121 264.621 309.121 266.184C309.121 267.16 308.763 268.462 308.047 270.09C307.396 271.717 306.615 273.15 305.703 274.387C304.792 275.624 303.978 276.242 303.262 276.242C302.936 276.242 302.025 275.819 300.527 274.973C297.142 273.15 293.594 271.62 289.883 270.383C286.172 269.146 281.647 268.527 276.309 268.527C262.311 268.527 251.992 272.434 245.352 280.246C238.776 287.993 235.488 300.363 235.488 317.355C235.488 333.957 238.743 346.197 245.254 354.074C251.829 361.887 261.953 365.793 275.625 365.793C281.354 365.793 286.27 365.109 290.371 363.742C294.473 362.375 298.411 360.682 302.188 358.664C304.01 357.688 305.117 357.199 305.508 357.199C306.224 357.199 307.038 357.818 307.949 359.055C308.926 360.292 309.772 361.691 310.488 363.254C311.204 364.751 311.562 365.826 311.562 366.477C311.562 368.104 309.902 369.927 306.582 371.945C303.327 373.898 298.932 375.559 293.398 376.926C287.93 378.293 282.005 378.977 275.625 378.977ZM341.25 378.293C336.562 378.293 334.219 377.023 334.219 374.484V259.934C334.219 257.329 336.562 256.027 341.25 256.027H342.617C347.24 256.027 349.551 257.329 349.551 259.934V374.484C349.551 377.023 347.24 378.293 342.617 378.293H341.25ZM388.516 378C386.693 378 385.358 377.577 384.512 376.73C383.665 375.884 383.242 374.582 383.242 372.824V261.691C383.242 259.868 383.665 258.566 384.512 257.785C385.358 256.939 386.693 256.516 388.516 256.516H449.062C450.299 256.516 451.178 256.906 451.699 257.688C452.285 258.469 452.578 259.803 452.578 261.691V264.523C452.578 266.281 452.285 267.583 451.699 268.43C451.178 269.276 450.299 269.699 449.062 269.699H398.574V309.25H443.887C445.124 309.25 446.003 309.673 446.523 310.52C447.109 311.366 447.402 312.701 447.402 314.523V317.16C447.402 318.983 447.109 320.318 446.523 321.164C446.003 321.945 445.124 322.336 443.887 322.336H398.574V364.816H449.258C450.495 364.816 451.374 365.24 451.895 366.086C452.48 366.867 452.773 368.169 452.773 369.992V372.824C452.773 374.582 452.48 375.884 451.895 376.73C451.374 377.577 450.495 378 449.258 378H388.516ZM400.82 247.336C398.151 247.336 396.816 246.522 396.816 244.895C396.816 244.113 397.174 243.072 397.891 241.77L407.559 226.535C409.251 223.996 411.921 222.727 415.566 222.727H419.863C423.574 222.727 426.243 223.996 427.871 226.535L437.832 241.77C438.548 242.876 438.906 243.853 438.906 244.699C438.906 246.457 437.507 247.336 434.707 247.336H434.316C433.21 247.336 432.201 247.173 431.289 246.848C430.378 246.457 429.466 245.839 428.555 244.992L417.715 232.199L407.07 244.992C405.508 246.555 403.555 247.336 401.211 247.336H400.82ZM484.023 378.293C481.549 378.293 479.759 378 478.652 377.414C477.546 376.763 476.992 375.786 476.992 374.484V259.934C476.992 257.329 479.336 256.027 484.023 256.027H487.637C489.46 256.027 490.892 256.288 491.934 256.809C493.04 257.329 494.017 258.176 494.863 259.348L550.332 343.039L555.508 352.805V259.934C555.508 257.329 557.786 256.027 562.344 256.027H563.711C568.268 256.027 570.547 257.329 570.547 259.934V374.484C570.547 375.786 569.993 376.763 568.887 377.414C567.78 378 566.055 378.293 563.711 378.293H560.195C558.568 378.293 557.266 378.098 556.289 377.707C555.312 377.316 554.564 376.698 554.043 375.852L496.816 289.523L492.129 280.539V374.484C492.129 377.023 489.818 378.293 485.195 378.293H484.023ZM651.992 378.977C632.982 378.977 618.919 373.964 609.805 363.938C600.69 353.911 596.133 338.319 596.133 317.16C596.133 275.949 614.85 255.344 652.285 255.344C657.754 255.344 663.06 255.93 668.203 257.102C673.346 258.208 677.513 259.608 680.703 261.301C683.893 262.993 685.488 264.621 685.488 266.184C685.488 267.16 685.13 268.462 684.414 270.09C683.763 271.717 682.982 273.15 682.07 274.387C681.159 275.624 680.345 276.242 679.629 276.242C679.303 276.242 678.392 275.819 676.895 274.973C673.509 273.15 669.961 271.62 666.25 270.383C662.539 269.146 658.014 268.527 652.676 268.527C638.678 268.527 628.359 272.434 621.719 280.246C615.143 287.993 611.855 300.363 611.855 317.355C611.855 333.957 615.111 346.197 621.621 354.074C628.197 361.887 638.32 365.793 651.992 365.793C657.721 365.793 662.637 365.109 666.738 363.742C670.84 362.375 674.779 360.682 678.555 358.664C680.378 357.688 681.484 357.199 681.875 357.199C682.591 357.199 683.405 357.818 684.316 359.055C685.293 360.292 686.139 361.691 686.855 363.254C687.572 364.751 687.93 365.826 687.93 366.477C687.93 368.104 686.27 369.927 682.949 371.945C679.694 373.898 675.299 375.559 669.766 376.926C664.297 378.293 658.372 378.977 651.992 378.977ZM717.617 378.293C712.93 378.293 710.586 377.023 710.586 374.484V259.934C710.586 257.329 712.93 256.027 717.617 256.027H718.984C723.607 256.027 725.918 257.329 725.918 259.934V374.484C725.918 377.023 723.607 378.293 718.984 378.293H717.617ZM752.383 378.293C749.779 378.293 747.891 378.065 746.719 377.609C745.547 377.089 744.961 376.34 744.961 375.363C744.961 374.908 745.124 374.126 745.449 373.02L786.562 258.859C787.214 256.971 789.525 256.027 793.496 256.027H798.574C802.546 256.027 804.857 256.971 805.508 258.859L846.621 373.117C846.947 373.833 847.109 374.582 847.109 375.363C847.109 377.316 844.668 378.293 839.785 378.293H838.32C834.284 378.293 831.94 377.382 831.289 375.559L821.133 347.043H770.156L760.195 375.559C759.609 377.382 757.298 378.293 753.262 378.293H752.383ZM816.445 333.859L798.281 282.199C797.76 280.767 797.337 279.139 797.012 277.316C796.686 275.493 796.393 273.736 796.133 272.043H795.742C794.961 276.405 794.082 279.79 793.105 282.199L774.941 333.859H816.445ZM913.125 378C911.302 378 909.967 377.577 909.121 376.73C908.275 375.884 907.852 374.582 907.852 372.824V261.691C907.852 259.868 908.275 258.566 909.121 257.785C909.967 256.939 911.302 256.516 913.125 256.516H948.184C964.46 256.516 977.48 261.333 987.246 270.969C997.012 280.604 1001.89 296.001 1001.89 317.16C1001.89 338.449 997.012 353.911 987.246 363.547C977.48 373.182 964.46 378 948.184 378H913.125ZM947.012 364.816C958.73 364.816 968.171 361.008 975.332 353.391C982.493 345.708 986.074 333.632 986.074 317.16C986.074 306.092 984.382 297.043 980.996 290.012C977.611 282.915 972.988 277.772 967.129 274.582C961.27 271.327 954.564 269.699 947.012 269.699H923.184V364.816H947.012ZM1033.83 378C1032.01 378 1030.67 377.577 1029.82 376.73C1028.98 375.884 1028.55 374.582 1028.55 372.824V261.691C1028.55 259.868 1028.98 258.566 1029.82 257.785C1030.67 256.939 1032.01 256.516 1033.83 256.516H1094.38C1095.61 256.516 1096.49 256.906 1097.01 257.688C1097.6 258.469 1097.89 259.803 1097.89 261.691V264.523C1097.89 266.281 1097.6 267.583 1097.01 268.43C1096.49 269.276 1095.61 269.699 1094.38 269.699H1043.89V309.25H1089.2C1090.44 309.25 1091.32 309.673 1091.84 310.52C1092.42 311.366 1092.71 312.701 1092.71 314.523V317.16C1092.71 318.983 1092.42 320.318 1091.84 321.164C1091.32 321.945 1090.44 322.336 1089.2 322.336H1043.89V364.816H1094.57C1095.81 364.816 1096.69 365.24 1097.21 366.086C1097.79 366.867 1098.09 368.169 1098.09 369.992V372.824C1098.09 374.582 1097.79 375.884 1097.21 376.73C1096.69 377.577 1095.81 378 1094.57 378H1033.83ZM1170.55 378C1168.72 378 1167.39 377.577 1166.54 376.73C1165.7 375.884 1165.27 374.582 1165.27 372.824V261.691C1165.27 259.868 1165.7 258.566 1166.54 257.785C1167.39 256.939 1168.72 256.516 1170.55 256.516H1205.61C1221.88 256.516 1234.9 261.333 1244.67 270.969C1254.43 280.604 1259.32 296.001 1259.32 317.16C1259.32 338.449 1254.43 353.911 1244.67 363.547C1234.9 373.182 1221.88 378 1205.61 378H1170.55ZM1204.43 364.816C1216.15 364.816 1225.59 361.008 1232.75 353.391C1239.92 345.708 1243.5 333.632 1243.5 317.16C1243.5 306.092 1241.8 297.043 1238.42 290.012C1235.03 282.915 1230.41 277.772 1224.55 274.582C1218.69 271.327 1211.99 269.699 1204.43 269.699H1180.61V364.816H1204.43ZM1278.75 378.293C1276.15 378.293 1274.26 378.065 1273.09 377.609C1271.91 377.089 1271.33 376.34 1271.33 375.363C1271.33 374.908 1271.49 374.126 1271.82 373.02L1312.93 258.859C1313.58 256.971 1315.89 256.027 1319.86 256.027H1324.94C1328.91 256.027 1331.22 256.971 1331.88 258.859L1372.99 373.117C1373.31 373.833 1373.48 374.582 1373.48 375.363C1373.48 377.316 1371.04 378.293 1366.15 378.293H1364.69C1360.65 378.293 1358.31 377.382 1357.66 375.559L1347.5 347.043H1296.52L1286.56 375.559C1285.98 377.382 1283.67 378.293 1279.63 378.293H1278.75ZM1342.81 333.859L1324.65 282.199C1324.13 280.767 1323.7 279.139 1323.38 277.316C1323.05 275.493 1322.76 273.736 1322.5 272.043H1322.11C1321.33 276.405 1320.45 279.79 1319.47 282.199L1301.31 333.859H1342.81ZM1397.7 378C1395.87 378 1394.54 377.577 1393.69 376.73C1392.85 375.884 1392.42 374.582 1392.42 372.824V261.691C1392.42 259.868 1392.85 258.566 1393.69 257.785C1394.54 256.939 1395.87 256.516 1397.7 256.516H1432.75C1449.03 256.516 1462.05 261.333 1471.82 270.969C1481.58 280.604 1486.46 296.001 1486.46 317.16C1486.46 338.449 1481.58 353.911 1471.82 363.547C1462.05 373.182 1449.03 378 1432.75 378H1397.7ZM1431.58 364.816C1443.3 364.816 1452.74 361.008 1459.9 353.391C1467.06 345.708 1470.64 333.632 1470.64 317.16C1470.64 306.092 1468.95 297.043 1465.57 290.012C1462.18 282.915 1457.56 277.772 1451.7 274.582C1445.84 271.327 1439.13 269.699 1431.58 269.699H1407.75V364.816H1431.58ZM1559.71 378.977C1542.32 378.977 1529.08 373.703 1519.96 363.156C1510.85 352.609 1506.29 337.18 1506.29 316.867C1506.29 296.62 1510.81 281.32 1519.86 270.969C1528.98 260.552 1542.26 255.344 1559.71 255.344C1577.22 255.344 1590.53 260.552 1599.65 270.969C1608.76 281.32 1613.32 296.62 1613.32 316.867C1613.32 337.18 1608.76 352.609 1599.65 363.156C1590.53 373.703 1577.22 378.977 1559.71 378.977ZM1559.71 365.793C1571.95 365.793 1581.32 361.626 1587.83 353.293C1594.34 344.895 1597.6 332.753 1597.6 316.867C1597.6 300.982 1594.34 288.97 1587.83 280.832C1581.39 272.629 1572.01 268.527 1559.71 268.527C1547.47 268.527 1538.12 272.629 1531.68 280.832C1525.23 288.97 1522.01 300.982 1522.01 316.867C1522.01 332.818 1525.23 344.96 1531.68 353.293C1538.12 361.626 1547.47 365.793 1559.71 365.793ZM1665.66 378.977C1659.28 378.977 1653.33 378.293 1647.79 376.926C1642.32 375.493 1637.93 373.801 1634.61 371.848C1631.35 369.829 1629.73 368.007 1629.73 366.379C1629.73 365.467 1630.08 364.263 1630.8 362.766C1631.58 361.268 1632.46 359.934 1633.44 358.762C1634.41 357.59 1635.2 357.004 1635.78 357.004C1636.3 357.004 1637.44 357.525 1639.2 358.566C1643.24 360.65 1647.24 362.375 1651.21 363.742C1655.18 365.109 1660 365.793 1665.66 365.793C1670.09 365.793 1674.03 364.947 1677.48 363.254C1680.93 361.561 1683.6 359.185 1685.49 356.125C1687.44 353 1688.42 349.419 1688.42 345.383C1688.42 341.086 1687.25 337.538 1684.9 334.738C1682.62 331.874 1679.82 329.628 1676.5 328C1673.25 326.307 1668.5 324.224 1662.25 321.75C1655.48 319.146 1650.1 316.737 1646.13 314.523C1642.23 312.245 1638.87 308.957 1636.07 304.66C1633.34 300.363 1631.97 294.667 1631.97 287.57C1631.97 281.385 1633.57 275.852 1636.76 270.969C1639.95 266.021 1644.47 262.18 1650.33 259.445C1656.19 256.711 1662.93 255.344 1670.55 255.344C1674 255.344 1677.94 255.832 1682.36 256.809C1686.79 257.72 1690.57 258.99 1693.69 260.617C1696.88 262.245 1698.48 264.035 1698.48 265.988C1698.48 266.835 1698.12 268.007 1697.4 269.504C1696.75 270.936 1695.97 272.238 1695.06 273.41C1694.15 274.582 1693.43 275.168 1692.91 275.168C1692.32 275.168 1691.15 274.68 1689.39 273.703C1686.46 272.141 1683.57 270.904 1680.7 269.992C1677.84 269.016 1674.36 268.527 1670.25 268.527C1663.55 268.527 1658.11 270.253 1653.95 273.703C1649.84 277.154 1647.79 281.971 1647.79 288.156C1647.79 291.867 1648.7 294.927 1650.53 297.336C1652.35 299.745 1654.66 301.665 1657.46 303.098C1660.26 304.53 1664.17 306.19 1669.18 308.078C1669.51 308.143 1670.25 308.404 1671.43 308.859C1678.33 311.529 1683.96 314.133 1688.32 316.672C1692.75 319.146 1696.49 322.727 1699.55 327.414C1702.68 332.102 1704.24 338.091 1704.24 345.383C1704.24 352.219 1702.64 358.176 1699.45 363.254C1696.33 368.332 1691.84 372.238 1685.98 374.973C1680.18 377.642 1673.41 378.977 1665.66 378.977Z" fill="white"/>
<path d="M645.229 862.393C641.801 862.393 638.996 859.588 638.996 856.159V805.979C638.996 802.55 641.801 799.745 645.229 799.745C648.658 799.745 651.463 802.55 651.463 805.979V856.159C651.463 859.588 648.658 862.393 645.229 862.393ZM622.788 913.509H577.594C574.166 913.509 571.361 910.704 571.361 907.275C571.361 903.847 574.166 901.041 577.594 901.041H622.788C626.217 901.041 629.022 903.847 629.022 907.275C629.022 910.704 626.217 913.509 622.788 913.509ZM711.929 913.509H666.735C663.307 913.509 660.502 910.704 660.502 907.275C660.502 903.847 663.307 901.041 666.735 901.041H711.929C715.357 901.041 718.163 903.847 718.163 907.275C718.163 910.704 715.357 913.509 711.929 913.509Z" fill="#131313"/>
<path d="M593.801 912.263C592.243 912.263 590.685 911.64 589.438 910.393C586.945 907.9 586.945 904.16 589.438 901.666L640.865 850.239C643.359 847.745 647.099 847.745 649.592 850.239L701.02 901.666C703.513 904.16 703.513 907.9 701.02 910.393C698.526 912.887 694.786 912.887 692.293 910.393L645.229 863.329L598.165 910.393C596.918 911.64 595.36 912.263 593.801 912.263Z" fill="#131313"/>
<path d="M461.96 519.232H829.744C834.731 519.232 838.471 523.284 838.471 527.959V796.94C838.471 801.927 834.419 805.667 829.744 805.667H461.96C457.285 805.978 453.233 801.927 453.233 797.251V527.959C453.233 523.284 457.285 519.232 461.96 519.232Z" fill="#7CB0F1"/>
<path d="M829.744 812.214H461.961C453.857 812.214 447 805.357 447 797.253V527.961C447 519.857 453.857 513 461.961 513H829.744C838.16 513 844.705 519.857 844.705 527.961V796.941C845.017 805.357 838.16 812.214 829.744 812.214ZM461.961 525.467C460.714 525.467 459.467 526.714 459.467 527.961V796.941C459.467 798.5 460.714 799.746 461.961 799.746H829.744C831.303 799.746 832.238 798.5 832.238 797.253V527.961C832.238 526.402 830.991 525.467 829.744 525.467H461.961Z" fill="#131313"/>
<path d="M475.986 543.233H814.783V782.293H475.986V543.233Z" fill="#EBF4FF"/>
<path d="M814.784 788.217H475.987C472.558 788.217 469.753 785.412 469.753 781.984V543.236C469.753 539.808 472.558 537.002 475.987 537.002H814.784C818.212 537.002 821.017 539.808 821.017 543.236V782.295C821.017 785.412 818.212 788.217 814.784 788.217ZM482.22 775.75H808.55V549.47H482.22V775.75Z" fill="#131313"/>
<path d="M789.849 738.032H726.89C723.461 738.032 720.656 735.227 720.656 731.798C720.656 728.37 723.461 725.565 726.89 725.565H789.849C793.278 725.565 796.083 728.37 796.083 731.798C796.083 735.227 793.278 738.032 789.849 738.032ZM750.266 764.836H726.89C723.461 764.836 720.656 762.031 720.656 758.603C720.656 755.174 723.461 752.369 726.89 752.369H750.266C753.694 752.369 756.499 755.174 756.499 758.603C756.499 762.031 753.694 764.836 750.266 764.836ZM631.515 724.318C629.957 724.318 628.398 723.694 627.152 722.448L543.31 638.917C540.816 636.424 540.816 632.684 543.31 630.19C545.803 627.697 549.543 627.697 552.037 630.19L635.567 713.721C638.061 716.214 638.061 719.954 635.567 722.448C634.632 724.006 633.074 724.318 631.515 724.318ZM645.229 723.383C644.294 723.383 643.047 723.071 642.112 722.448C638.996 720.889 638.061 716.837 639.619 714.032L702.578 602.451C704.137 599.334 708.189 598.399 710.994 599.957C714.111 601.516 715.046 605.567 713.487 608.372L650.839 720.266C649.593 722.136 647.411 723.383 645.229 723.383Z" fill="#131313"/>
<path d="M557.958 735.54C556.4 735.54 554.841 734.917 553.595 733.67C551.101 731.176 551.101 727.125 553.595 724.943L632.762 647.646C635.255 645.153 639.307 645.153 641.489 647.646C643.982 650.139 643.982 654.191 641.489 656.373L562.322 733.67C561.075 734.917 559.517 735.54 557.958 735.54ZM739.357 650.451H656.761C653.333 650.451 650.527 647.646 650.527 644.218C650.527 640.789 653.333 637.984 656.761 637.984H739.045C742.473 637.984 745.278 640.789 745.278 644.218C745.278 647.646 742.785 650.451 739.357 650.451Z" fill="#131313"/>
<path d="M527.726 626.765C527.726 629.823 528.941 632.756 531.103 634.919C533.266 637.082 536.199 638.297 539.258 638.297C542.316 638.297 545.25 637.082 547.412 634.919C549.575 632.756 550.79 629.823 550.79 626.765C550.79 623.706 549.575 620.773 547.412 618.61C545.25 616.447 542.316 615.232 539.258 615.232C536.199 615.232 533.266 616.447 531.103 618.61C528.941 620.773 527.726 623.706 527.726 626.765Z" fill="#EBF4FF"/>
<path d="M539.258 644.526C529.595 644.526 521.492 636.734 521.492 626.76C521.492 617.098 529.284 608.995 539.258 608.995C548.92 608.995 557.023 616.787 557.023 626.76C557.023 636.734 549.231 644.526 539.258 644.526ZM539.258 621.774C536.452 621.774 533.959 623.955 533.959 627.072C533.959 629.877 536.141 632.371 539.258 632.371C542.063 632.371 544.556 630.189 544.556 627.072C544.556 623.955 542.374 621.774 539.258 621.774Z" fill="#131313"/>
<path d="M627.463 726.502C627.463 728.016 627.762 729.516 628.341 730.915C628.921 732.314 629.77 733.586 630.841 734.656C631.912 735.727 633.183 736.577 634.582 737.156C635.982 737.736 637.481 738.034 638.996 738.034C640.51 738.034 642.01 737.736 643.409 737.156C644.808 736.577 646.079 735.727 647.15 734.656C648.221 733.586 649.07 732.314 649.65 730.915C650.229 729.516 650.528 728.016 650.528 726.502C650.528 724.987 650.229 723.488 649.65 722.089C649.07 720.69 648.221 719.418 647.15 718.347C646.079 717.277 644.808 716.427 643.409 715.848C642.01 715.268 640.51 714.97 638.996 714.97C637.481 714.97 635.982 715.268 634.582 715.848C633.183 716.427 631.912 717.277 630.841 718.347C629.77 719.418 628.921 720.69 628.341 722.089C627.762 723.488 627.463 724.987 627.463 726.502Z" fill="#EBF4FF"/>
<path d="M638.996 744.269C629.334 744.269 621.23 736.477 621.23 726.503C621.23 716.529 629.022 708.737 638.996 708.737C648.658 708.737 656.762 716.529 656.762 726.503C656.762 736.477 648.97 744.269 638.996 744.269ZM638.996 721.516C636.191 721.516 633.697 723.698 633.697 726.815C633.697 729.932 635.879 732.113 638.996 732.113C641.801 732.113 644.294 729.932 644.294 726.815C644.294 723.698 642.113 721.516 638.996 721.516Z" fill="#131313"/>
<path d="M634.009 643.903C634.009 646.962 635.224 649.895 637.386 652.058C639.549 654.22 642.482 655.435 645.541 655.435C648.6 655.435 651.533 654.22 653.695 652.058C655.858 649.895 657.073 646.962 657.073 643.903C657.073 640.845 655.858 637.911 653.695 635.749C651.533 633.586 648.6 632.371 645.541 632.371C642.482 632.371 639.549 633.586 637.386 635.749C635.224 637.911 634.009 640.845 634.009 643.903Z" fill="#EBF4FF"/>
<path d="M645.541 661.671C635.879 661.671 627.775 653.879 627.775 643.905C627.775 634.243 635.567 626.139 645.541 626.139C655.514 626.139 663.307 633.931 663.307 643.905C662.995 653.879 655.203 661.671 645.541 661.671ZM645.541 638.918C642.736 638.918 640.242 641.1 640.242 644.217C640.242 647.022 642.424 649.515 645.541 649.515C648.658 649.515 650.839 647.333 650.839 644.217C650.528 641.1 648.346 638.918 645.541 638.918Z" fill="#131313"/>
<path d="M738.733 643.903C738.733 646.962 739.948 649.895 742.111 652.058C744.273 654.22 747.207 655.435 750.265 655.435C753.324 655.435 756.257 654.22 758.42 652.058C760.582 649.895 761.797 646.962 761.797 643.903C761.797 640.845 760.582 637.911 758.42 635.749C756.257 633.586 753.324 632.371 750.265 632.371C747.207 632.371 744.273 633.586 742.111 635.749C739.948 637.911 738.733 640.845 738.733 643.903Z" fill="#EBF4FF"/>
<path d="M750.265 661.671C740.603 661.671 732.5 653.879 732.5 643.905C732.5 634.243 740.292 626.139 750.265 626.139C760.239 626.139 768.031 633.931 768.031 643.905C768.031 653.879 760.239 661.671 750.265 661.671ZM750.265 638.918C747.46 638.918 744.967 641.1 744.967 644.217C744.967 647.022 747.149 649.515 750.265 649.515C753.382 649.515 755.564 647.022 755.564 644.217C755.564 641.1 753.07 638.918 750.265 638.918Z" fill="#131313"/>
<path d="M701.332 594.035C701.332 597.093 702.547 600.026 704.71 602.189C706.872 604.352 709.806 605.567 712.864 605.567C715.923 605.567 718.856 604.352 721.019 602.189C723.181 600.026 724.396 597.093 724.396 594.035C724.396 590.976 723.181 588.043 721.019 585.88C718.856 583.717 715.923 582.502 712.864 582.502C709.806 582.502 706.872 583.717 704.71 585.88C702.547 588.043 701.332 590.976 701.332 594.035Z" fill="#EBF4FF"/>
<path d="M712.864 611.802C703.202 611.802 695.098 604.01 695.098 594.036C695.098 584.063 702.89 576.271 712.864 576.271C722.838 576.271 730.63 584.374 730.63 594.036C730.63 603.698 722.838 611.802 712.864 611.802ZM712.864 589.049C710.059 589.049 707.565 591.231 707.565 594.348C707.565 597.465 709.747 599.647 712.864 599.647C715.981 599.647 718.163 597.153 718.163 594.036C718.163 590.92 715.981 589.049 712.864 589.049Z" fill="#131313"/>
<path d="M539.257 738.033C539.257 741.092 540.472 744.025 542.635 746.188C544.798 748.35 547.731 749.565 550.79 749.565C553.848 749.565 556.781 748.35 558.944 746.188C561.107 744.025 562.322 741.092 562.322 738.033C562.322 734.975 561.107 732.041 558.944 729.879C556.781 727.716 553.848 726.501 550.79 726.501C547.731 726.501 544.798 727.716 542.635 729.879C540.472 732.041 539.257 734.975 539.257 738.033Z" fill="#EBF4FF"/>
<path d="M550.79 755.801C541.128 755.801 533.024 748.009 533.024 738.035C533.024 728.373 540.816 720.269 550.79 720.269C560.764 720.269 568.556 728.061 568.556 738.035C568.556 747.697 560.452 755.801 550.79 755.801ZM550.79 733.048C547.985 733.048 545.491 735.23 545.491 738.347C545.491 741.463 547.673 743.645 550.79 743.645C553.907 743.645 556.088 741.463 556.088 738.347C556.088 735.23 553.595 733.048 550.79 733.048Z" fill="#131313"/>
<path d="M1164.7 542.71H1503.24C1507.81 542.71 1511.24 546.421 1511.24 550.703V889.245C1511.24 893.813 1507.53 897.238 1503.24 897.238H1164.7C1160.13 897.238 1156.71 893.527 1156.71 889.245V550.703C1156.71 546.421 1160.42 542.71 1164.7 542.71Z" fill="#7CB0F1"/>
<path d="M1503.24 903.231H1164.7C1156.99 903.231 1151 896.951 1151 889.529V550.702C1151 543.28 1157.28 537 1164.7 537H1503.24C1510.95 537 1516.95 543.28 1516.95 550.702V889.244C1517.23 896.951 1510.95 903.231 1503.24 903.231ZM1164.7 548.418C1163.56 548.418 1162.42 549.56 1162.42 550.702V889.244C1162.42 890.671 1163.56 891.527 1164.7 891.527H1503.24C1504.67 891.527 1505.53 890.386 1505.53 889.244V550.702C1505.53 549.274 1504.39 548.418 1503.24 548.418H1164.7Z" fill="#131313"/>
<path d="M1179.54 564.688H1489.26V874.399H1179.54V564.688Z" fill="#F3F3F3"/>
<path d="M1489.26 880.393H1179.54C1176.4 880.393 1173.84 877.824 1173.84 874.684V564.687C1173.84 561.547 1176.4 558.978 1179.54 558.978H1489.26C1492.4 558.978 1494.97 561.547 1494.97 564.687V874.399C1494.97 877.824 1492.4 880.393 1489.26 880.393ZM1185.25 868.975H1483.55V570.395H1185.25V868.975Z" fill="#131313"/>
<path d="M1346.82 625.488H1343.11V711.408H1429.31V708.268C1429.6 662.596 1392.49 625.488 1346.82 625.488Z" fill="#FB7E7E"/>
<path d="M1429.6 717.116H1343.39C1340.25 717.116 1337.68 714.547 1337.68 711.407V625.487C1337.68 622.347 1340.25 619.778 1343.39 619.778H1347.1C1395.92 619.778 1435.59 659.741 1435.31 708.552V711.692C1435.31 714.547 1432.74 717.116 1429.6 717.116ZM1349.1 705.698H1423.89C1422.46 665.164 1389.64 632.338 1349.1 631.196V705.698Z" fill="#131313"/>
<path d="M1324.27 634.912C1273.17 637.195 1233.78 680.298 1236.06 731.108C1236.92 753.658 1246.34 775.352 1262.04 791.338L1324.27 729.11V634.912Z" fill="#7CB0F1"/>
<path d="M1262.04 797.331C1260.61 797.331 1258.9 796.76 1258.04 795.618C1241.2 778.491 1231.5 755.655 1230.35 731.392C1228.07 677.442 1270.03 631.485 1323.98 629.201C1325.69 629.201 1327.12 629.772 1328.26 630.914C1329.41 632.056 1329.98 633.483 1329.98 634.91V729.394C1329.98 730.821 1329.41 732.248 1328.26 733.39L1266.04 795.618C1265.18 796.76 1263.75 797.331 1262.04 797.331ZM1318.56 641.19C1273.74 646.328 1239.77 685.149 1241.77 730.821C1242.63 750.232 1249.77 768.5 1262.33 783.058L1318.56 726.825V641.19Z" fill="#131313"/>
<path d="M1328.26 819.593C1377.93 819.593 1418.47 780.201 1420.46 730.819H1324.27V729.677L1262.04 791.619C1279.45 809.317 1303.14 819.593 1328.26 819.593Z" fill="#FFD28B"/>
<path d="M1328.26 825.304C1302 825.304 1276.31 814.457 1258.04 795.617C1255.76 793.333 1256.05 789.908 1258.04 787.624L1320.27 725.397C1321.98 723.684 1324.27 723.398 1326.55 724.255C1327.12 724.54 1327.41 724.826 1327.98 725.111H1420.75C1422.18 725.111 1423.89 725.682 1424.75 726.824C1425.6 727.966 1426.46 729.393 1426.46 731.105C1424.17 783.914 1381.07 825.304 1328.26 825.304ZM1270.32 791.335C1286.02 805.608 1306.86 813.6 1328.26 813.886C1373.08 813.886 1409.62 780.203 1414.47 736.529H1325.41L1270.32 791.335Z" fill="#131313"/>
<path d="M1269.46 607.507H1214.94C1211.8 607.507 1209.23 604.938 1209.23 601.798C1209.23 598.658 1211.8 596.089 1214.94 596.089H1269.46C1272.6 596.089 1275.17 598.658 1275.17 601.798C1275.17 604.938 1272.6 607.507 1269.46 607.507Z" fill="#131313"/>
<path d="M1269.46 631.196H1227.79C1224.65 631.196 1222.08 628.627 1222.08 625.487C1222.08 622.347 1224.65 619.778 1227.79 619.778H1269.46C1272.6 619.778 1275.17 622.347 1275.17 625.487C1275.17 628.627 1272.6 631.196 1269.46 631.196Z" fill="#131313"/>
<path d="M1453 825.303H1395.06C1391.92 825.303 1389.35 822.734 1389.35 819.594C1389.35 816.454 1391.92 813.885 1395.06 813.885H1453C1456.14 813.885 1458.71 816.454 1458.71 819.594C1458.71 822.734 1456.14 825.303 1453 825.303Z" fill="#131313"/>
<path d="M1442.16 847.566H1395.06C1391.92 847.566 1389.35 844.997 1389.35 841.857C1389.35 838.717 1391.92 836.148 1395.06 836.148H1442.16C1445.3 836.148 1447.87 838.717 1447.87 841.857C1447.87 844.997 1445.3 847.566 1442.16 847.566Z" fill="#131313"/>
<path d="M1457.29 607.507H1395.06C1391.92 607.507 1389.35 604.938 1389.35 601.798C1389.35 598.658 1391.92 596.089 1395.06 596.089H1457.29C1460.43 596.089 1463 598.658 1463 601.798C1463 604.938 1460.43 607.507 1457.29 607.507Z" fill="#131313"/>
</g>
<defs>
<clipPath id="clip0_222_538">
<rect width="1920" height="1080" fill="white"/>
</clipPath>
</defs>
</svg>
