<svg width="1920" height="1080" viewBox="0 0 1920 1080" fill="none" xmlns="http://www.w3.org/2000/svg">
<g clip-path="url(#clip0_222_35)">
<rect width="1920" height="1080" fill="#E8E8E8"/>
<path d="M267.227 366C265.404 366 264.069 365.577 263.223 364.73C262.376 363.884 261.953 362.582 261.953 360.824V249.691C261.953 247.868 262.376 246.566 263.223 245.785C264.069 244.939 265.404 244.516 267.227 244.516H298.281C306.745 244.516 313.874 245.785 319.668 248.324C325.462 250.863 329.824 254.444 332.754 259.066C335.684 263.689 337.148 269.06 337.148 275.18C337.148 278.956 336.27 282.732 334.512 286.508C332.754 290.219 330.41 293.441 327.48 296.176C324.551 298.845 321.426 300.635 318.105 301.547V302.23C318.105 301.775 320.352 302.654 324.844 304.867C329.336 307.016 333.372 310.238 336.953 314.535C340.599 318.767 342.422 324.268 342.422 331.039C342.422 354.346 327.318 366 297.109 366H267.227ZM297.5 296.859C302.057 296.859 306.159 295.98 309.805 294.223C313.451 292.4 316.283 289.958 318.301 286.898C320.384 283.773 321.426 280.323 321.426 276.547C321.426 270.036 319.473 265.284 315.566 262.289C311.66 259.229 305.41 257.699 296.816 257.699H277.285V296.859H297.5ZM302.676 352.816C310.293 352.816 316.185 350.831 320.352 346.859C324.518 342.823 326.602 337.322 326.602 330.355C326.602 323.91 324.323 318.93 319.766 315.414C315.208 311.833 308.503 310.043 299.648 310.043H277.285V352.816H302.676ZM357.656 366.293C355.052 366.293 353.164 366.065 351.992 365.609C350.82 365.089 350.234 364.34 350.234 363.363C350.234 362.908 350.397 362.126 350.723 361.02L391.836 246.859C392.487 244.971 394.798 244.027 398.77 244.027H403.848C407.819 244.027 410.13 244.971 410.781 246.859L451.895 361.117C452.22 361.833 452.383 362.582 452.383 363.363C452.383 365.316 449.941 366.293 445.059 366.293H443.594C439.557 366.293 437.214 365.382 436.562 363.559L426.406 335.043H375.43L365.469 363.559C364.883 365.382 362.572 366.293 358.535 366.293H357.656ZM421.719 321.859L403.555 270.199C403.034 268.767 402.611 267.139 402.285 265.316C401.96 263.493 401.667 261.736 401.406 260.043H401.016C400.234 264.405 399.355 267.79 398.379 270.199L380.215 321.859H421.719ZM477.188 366.293C474.714 366.293 472.923 366 471.816 365.414C470.71 364.763 470.156 363.786 470.156 362.484V247.934C470.156 245.329 472.5 244.027 477.188 244.027H480.801C482.624 244.027 484.056 244.288 485.098 244.809C486.204 245.329 487.181 246.176 488.027 247.348L543.496 331.039L548.672 340.805V247.934C548.672 245.329 550.951 244.027 555.508 244.027H556.875C561.432 244.027 563.711 245.329 563.711 247.934V362.484C563.711 363.786 563.158 364.763 562.051 365.414C560.944 366 559.219 366.293 556.875 366.293H553.359C551.732 366.293 550.43 366.098 549.453 365.707C548.477 365.316 547.728 364.698 547.207 363.852L489.98 277.523L485.293 268.539V362.484C485.293 365.023 482.982 366.293 478.359 366.293H477.188ZM645.156 366.977C626.146 366.977 612.083 361.964 602.969 351.938C593.854 341.911 589.297 326.319 589.297 305.16C589.297 263.949 608.014 243.344 645.449 243.344C650.918 243.344 656.224 243.93 661.367 245.102C666.51 246.208 670.677 247.608 673.867 249.301C677.057 250.993 678.652 252.621 678.652 254.184C678.652 255.16 678.294 256.462 677.578 258.09C676.927 259.717 676.146 261.15 675.234 262.387C674.323 263.624 673.509 264.242 672.793 264.242C672.467 264.242 671.556 263.819 670.059 262.973C666.673 261.15 663.125 259.62 659.414 258.383C655.703 257.146 651.178 256.527 645.84 256.527C631.842 256.527 621.523 260.434 614.883 268.246C608.307 275.993 605.02 288.363 605.02 305.355C605.02 321.957 608.275 334.197 614.785 342.074C621.361 349.887 631.484 353.793 645.156 353.793C650.885 353.793 655.801 353.109 659.902 351.742C664.004 350.375 667.943 348.682 671.719 346.664C673.542 345.688 674.648 345.199 675.039 345.199C675.755 345.199 676.569 345.818 677.48 347.055C678.457 348.292 679.303 349.691 680.02 351.254C680.736 352.751 681.094 353.826 681.094 354.477C681.094 356.104 679.434 357.927 676.113 359.945C672.858 361.898 668.464 363.559 662.93 364.926C657.461 366.293 651.536 366.977 645.156 366.977ZM750.332 366.977C732.949 366.977 719.701 361.703 710.586 351.156C701.471 340.609 696.914 325.18 696.914 304.867C696.914 284.62 701.439 269.32 710.488 258.969C719.603 248.552 732.884 243.344 750.332 243.344C767.845 243.344 781.159 248.552 790.273 258.969C799.388 269.32 803.945 284.62 803.945 304.867C803.945 325.18 799.388 340.609 790.273 351.156C781.159 361.703 767.845 366.977 750.332 366.977ZM750.332 353.793C762.572 353.793 771.947 349.626 778.457 341.293C784.967 332.895 788.223 320.753 788.223 304.867C788.223 288.982 784.967 276.97 778.457 268.832C772.012 260.629 762.637 256.527 750.332 256.527C738.092 256.527 728.75 260.629 722.305 268.832C715.859 276.97 712.637 288.982 712.637 304.867C712.637 320.818 715.859 332.96 722.305 341.293C728.75 349.626 738.092 353.793 750.332 353.793ZM877.773 366C875.951 366 874.616 365.577 873.77 364.73C872.923 363.884 872.5 362.582 872.5 360.824V249.691C872.5 247.868 872.923 246.566 873.77 245.785C874.616 244.939 875.951 244.516 877.773 244.516H912.832C929.108 244.516 942.129 249.333 951.895 258.969C961.66 268.604 966.543 284.001 966.543 305.16C966.543 326.449 961.66 341.911 951.895 351.547C942.129 361.182 929.108 366 912.832 366H877.773ZM911.66 352.816C923.379 352.816 932.819 349.008 939.98 341.391C947.142 333.708 950.723 321.632 950.723 305.16C950.723 294.092 949.03 285.043 945.645 278.012C942.259 270.915 937.637 265.772 931.777 262.582C925.918 259.327 919.212 257.699 911.66 257.699H887.832V352.816H911.66ZM998.477 366C996.654 366 995.319 365.577 994.473 364.73C993.626 363.884 993.203 362.582 993.203 360.824V249.691C993.203 247.868 993.626 246.566 994.473 245.785C995.319 244.939 996.654 244.516 998.477 244.516H1059.02C1060.26 244.516 1061.14 244.906 1061.66 245.688C1062.25 246.469 1062.54 247.803 1062.54 249.691V252.523C1062.54 254.281 1062.25 255.583 1061.66 256.43C1061.14 257.276 1060.26 257.699 1059.02 257.699H1008.54V297.25H1053.85C1055.08 297.25 1055.96 297.673 1056.48 298.52C1057.07 299.366 1057.36 300.701 1057.36 302.523V305.16C1057.36 306.983 1057.07 308.318 1056.48 309.164C1055.96 309.945 1055.08 310.336 1053.85 310.336H1008.54V352.816H1059.22C1060.46 352.816 1061.33 353.24 1061.86 354.086C1062.44 354.867 1062.73 356.169 1062.73 357.992V360.824C1062.73 362.582 1062.44 363.884 1061.86 364.73C1061.33 365.577 1060.46 366 1059.22 366H998.477ZM1135.2 366C1133.37 366 1132.04 365.577 1131.19 364.73C1130.35 363.884 1129.92 362.582 1129.92 360.824V249.691C1129.92 247.868 1130.35 246.566 1131.19 245.785C1132.04 244.939 1133.37 244.516 1135.2 244.516H1170.25C1186.53 244.516 1199.55 249.333 1209.32 258.969C1219.08 268.604 1223.96 284.001 1223.96 305.16C1223.96 326.449 1219.08 341.911 1209.32 351.547C1199.55 361.182 1186.53 366 1170.25 366H1135.2ZM1169.08 352.816C1180.8 352.816 1190.24 349.008 1197.4 341.391C1204.56 333.708 1208.14 321.632 1208.14 305.16C1208.14 294.092 1206.45 285.043 1203.07 278.012C1199.68 270.915 1195.06 265.772 1189.2 262.582C1183.34 259.327 1176.63 257.699 1169.08 257.699H1145.25V352.816H1169.08ZM1243.4 366.293C1240.79 366.293 1238.91 366.065 1237.73 365.609C1236.56 365.089 1235.98 364.34 1235.98 363.363C1235.98 362.908 1236.14 362.126 1236.46 361.02L1277.58 246.859C1278.23 244.971 1280.54 244.027 1284.51 244.027H1289.59C1293.56 244.027 1295.87 244.971 1296.52 246.859L1337.64 361.117C1337.96 361.833 1338.12 362.582 1338.12 363.363C1338.12 365.316 1335.68 366.293 1330.8 366.293H1329.34C1325.3 366.293 1322.96 365.382 1322.3 363.559L1312.15 335.043H1261.17L1251.21 363.559C1250.62 365.382 1248.31 366.293 1244.28 366.293H1243.4ZM1307.46 321.859L1289.3 270.199C1288.78 268.767 1288.35 267.139 1288.03 265.316C1287.7 263.493 1287.41 261.736 1287.15 260.043H1286.76C1285.98 264.405 1285.1 267.79 1284.12 270.199L1265.96 321.859H1307.46ZM1362.34 366C1360.52 366 1359.19 365.577 1358.34 364.73C1357.49 363.884 1357.07 362.582 1357.07 360.824V249.691C1357.07 247.868 1357.49 246.566 1358.34 245.785C1359.19 244.939 1360.52 244.516 1362.34 244.516H1397.4C1413.68 244.516 1426.7 249.333 1436.46 258.969C1446.23 268.604 1451.11 284.001 1451.11 305.16C1451.11 326.449 1446.23 341.911 1436.46 351.547C1426.7 361.182 1413.68 366 1397.4 366H1362.34ZM1396.23 352.816C1407.95 352.816 1417.39 349.008 1424.55 341.391C1431.71 333.708 1435.29 321.632 1435.29 305.16C1435.29 294.092 1433.6 285.043 1430.21 278.012C1426.83 270.915 1422.21 265.772 1416.35 262.582C1410.49 259.327 1403.78 257.699 1396.23 257.699H1372.4V352.816H1396.23ZM1524.36 366.977C1506.97 366.977 1493.72 361.703 1484.61 351.156C1475.49 340.609 1470.94 325.18 1470.94 304.867C1470.94 284.62 1475.46 269.32 1484.51 258.969C1493.63 248.552 1506.91 243.344 1524.36 243.344C1541.87 243.344 1555.18 248.552 1564.3 258.969C1573.41 269.32 1577.97 284.62 1577.97 304.867C1577.97 325.18 1573.41 340.609 1564.3 351.156C1555.18 361.703 1541.87 366.977 1524.36 366.977ZM1524.36 353.793C1536.6 353.793 1545.97 349.626 1552.48 341.293C1558.99 332.895 1562.25 320.753 1562.25 304.867C1562.25 288.982 1558.99 276.97 1552.48 268.832C1546.04 260.629 1536.66 256.527 1524.36 256.527C1512.12 256.527 1502.77 260.629 1496.33 268.832C1489.88 276.97 1486.66 288.982 1486.66 304.867C1486.66 320.818 1489.88 332.96 1496.33 341.293C1502.77 349.626 1512.12 353.793 1524.36 353.793ZM1630.31 366.977C1623.93 366.977 1617.98 366.293 1612.44 364.926C1606.97 363.493 1602.58 361.801 1599.26 359.848C1596 357.829 1594.38 356.007 1594.38 354.379C1594.38 353.467 1594.73 352.263 1595.45 350.766C1596.23 349.268 1597.11 347.934 1598.09 346.762C1599.06 345.59 1599.84 345.004 1600.43 345.004C1600.95 345.004 1602.09 345.525 1603.85 346.566C1607.88 348.65 1611.89 350.375 1615.86 351.742C1619.83 353.109 1624.65 353.793 1630.31 353.793C1634.74 353.793 1638.68 352.947 1642.13 351.254C1645.58 349.561 1648.25 347.185 1650.14 344.125C1652.09 341 1653.07 337.419 1653.07 333.383C1653.07 329.086 1651.89 325.538 1649.55 322.738C1647.27 319.874 1644.47 317.628 1641.15 316C1637.9 314.307 1633.14 312.224 1626.89 309.75C1620.12 307.146 1614.75 304.737 1610.78 302.523C1606.88 300.245 1603.52 296.957 1600.72 292.66C1597.99 288.363 1596.62 282.667 1596.62 275.57C1596.62 269.385 1598.22 263.852 1601.41 258.969C1604.6 254.021 1609.12 250.18 1614.98 247.445C1620.84 244.711 1627.58 243.344 1635.2 243.344C1638.65 243.344 1642.58 243.832 1647.01 244.809C1651.44 245.72 1655.21 246.99 1658.34 248.617C1661.53 250.245 1663.12 252.035 1663.12 253.988C1663.12 254.835 1662.77 256.007 1662.05 257.504C1661.4 258.936 1660.62 260.238 1659.71 261.41C1658.8 262.582 1658.08 263.168 1657.56 263.168C1656.97 263.168 1655.8 262.68 1654.04 261.703C1651.11 260.141 1648.22 258.904 1645.35 257.992C1642.49 257.016 1639 256.527 1634.9 256.527C1628.2 256.527 1622.76 258.253 1618.59 261.703C1614.49 265.154 1612.44 269.971 1612.44 276.156C1612.44 279.867 1613.35 282.927 1615.18 285.336C1617 287.745 1619.31 289.665 1622.11 291.098C1624.91 292.53 1628.82 294.19 1633.83 296.078C1634.15 296.143 1634.9 296.404 1636.07 296.859C1642.98 299.529 1648.61 302.133 1652.97 304.672C1657.4 307.146 1661.14 310.727 1664.2 315.414C1667.32 320.102 1668.89 326.091 1668.89 333.383C1668.89 340.219 1667.29 346.176 1664.1 351.254C1660.98 356.332 1656.48 360.238 1650.62 362.973C1644.83 365.642 1638.06 366.977 1630.31 366.977Z" fill="black"/>
<path d="M1585.77 704.311C1584 704.182 1581.95 704.095 1579.88 704.095C1569.44 704.095 1559.46 706.039 1550.27 709.58L1550.83 709.386C1548.14 710.465 1543.83 710.466 1543.46 713.899C1544.95 715.324 1545.16 717.678 1546.41 719.664C1548.94 723.94 1552.04 727.568 1555.66 730.591L1555.73 730.656C1559.5 733.614 1563.28 736.486 1567.24 739.012C1574.25 743.331 1582.21 745.901 1589.06 750.241C1592.97 752.768 1596.96 755.985 1600.92 758.684C1602.89 760.023 1604.16 762.463 1606.68 763.327V762.787C1605.45 761.168 1605.06 758.814 1603.86 757.022C1602.05 755.208 1600.26 753.588 1598.47 751.818C1593.12 744.8 1586.93 738.796 1579.99 733.787L1579.73 733.614C1573.97 729.684 1561.36 724.178 1558.98 717.548L1558.64 717.16C1563.34 716.49 1567.52 715.497 1571.56 714.158L1571.04 714.309C1577.16 712.69 1582.77 713.035 1589.09 711.459C1591.93 710.725 1594.82 709.839 1597.71 708.932V707.313C1594.48 704.074 1592.06 699.669 1588.72 696.646C1579.9 688.872 1570.18 681.573 1559.93 675.009L1558.96 674.426C1553.31 670.819 1546.13 668.487 1540.18 665.421C1538.03 664.341 1534.43 663.801 1533.17 661.988C1530.37 657.993 1527.89 653.415 1525.93 648.578L1525.76 648.103C1520.47 637.824 1515.55 627.366 1511.01 616.727C1507.9 608.457 1504.82 601.676 1501.35 595.112L1501.84 596.127C1484.9 567.644 1461.29 544.755 1433.1 529.143L1432.18 528.668C1425.51 525.364 1417.77 522.794 1409.64 521.347L1409.1 521.261C1404.6 521.045 1400.11 520.721 1395.63 520.527C1392.48 518.497 1389.76 516.424 1387.22 514.135L1387.28 514.2C1377.04 507.722 1350.54 493.686 1342.99 512.256C1338.14 523.96 1350.2 535.513 1354.36 541.451C1357.68 545.403 1360.7 549.83 1363.31 554.515L1363.52 554.947C1364.79 558.078 1365.14 561.296 1366.41 564.557C1369.54 574.317 1372.71 582.328 1376.31 590.08L1375.75 588.742C1377.88 593.039 1380.1 596.688 1382.58 600.143L1382.41 599.884C1383.85 601.849 1386.33 602.777 1386.92 606.017C1385.06 609.925 1383.62 614.46 1382.82 619.189L1382.78 619.491C1380.45 626.66 1379.09 634.931 1379.09 643.503C1379.09 656.913 1382.39 669.545 1388.21 680.645L1387.99 680.213C1390.88 684.683 1397.74 694.616 1406.93 690.815C1415.01 687.576 1413.22 677.319 1415.55 668.293C1416.09 666.134 1415.75 664.708 1416.84 663.24V663.65C1419.37 668.725 1421.91 673.562 1424.22 678.636C1430.73 688.03 1438.47 696.019 1447.31 702.605L1447.59 702.8C1451.91 706.039 1455.33 711.653 1460.72 713.64V713.1H1460.31C1459.09 711.761 1457.73 710.573 1456.24 709.559L1456.15 709.515C1452.81 706.233 1449.71 702.692 1446.9 698.956L1446.73 698.719C1439.7 689.217 1433.02 678.464 1427.22 667.17L1426.59 665.853C1423.64 660.195 1421.16 654.084 1418.79 648.491C1417.71 646.332 1417.71 643.093 1415.9 642.013C1412.7 645.598 1409.84 649.593 1407.44 653.89L1407.27 654.235C1404.51 662.29 1402.7 671.597 1402.23 681.249V681.487C1401.49 681.681 1401.86 681.487 1401.49 681.875C1395.74 680.472 1393.75 674.49 1391.6 669.459C1388.66 661.556 1386.96 652.4 1386.96 642.877C1386.96 635.19 1388.06 627.761 1390.13 620.743L1390 621.305C1391.27 617.526 1396.66 605.606 1394.51 601.979C1393.38 598.545 1389.83 596.58 1387.84 593.794C1385.49 590.469 1383.34 586.69 1381.55 582.695L1381.37 582.263C1377.06 572.179 1374.91 560.994 1370.23 550.909C1367.4 545.64 1364.43 541.106 1361.08 536.873L1361.24 537.068C1357.68 532.943 1354.4 528.344 1351.55 523.464L1351.32 523.032C1350.43 521.067 1349.16 517.806 1350.58 515.647C1350.84 514.394 1351.83 513.423 1353.11 513.228C1355.48 511.285 1362.16 513.811 1364.49 514.891C1371.33 517.482 1377.21 520.527 1382.67 524.111L1382.32 523.896C1384.85 525.666 1387.58 529.1 1390.82 529.985H1394.59C1400.35 531.259 1406.86 530.374 1412.25 531.95C1422.15 535.297 1430.71 539.486 1438.62 544.626L1438.17 544.345C1461.98 559.741 1481.04 580.558 1493.93 605.153L1494.36 606.038C1496.52 610.184 1497.47 614.006 1499.43 618.325C1503.2 627.222 1507.86 636.226 1511.7 644.821C1515.34 654.063 1519.65 662.052 1524.79 669.416L1524.53 669.027C1527.22 672.806 1538.05 674.771 1542.9 676.736C1548.01 678.528 1552.11 680.234 1556.07 682.156L1555.28 681.811C1561.46 685.59 1567.5 689.908 1573.32 694.054C1576.28 696.106 1585.27 700.619 1585.81 704.246L1585.77 704.311ZM1332.97 862.226C1332.97 862.55 1332.99 862.917 1332.99 863.284C1332.99 875.334 1327.62 886.109 1319.12 893.365L1319.06 893.408C1309.74 901.009 1297.73 905.63 1284.65 905.63C1283.63 905.63 1282.62 905.608 1281.63 905.543H1281.76C1265.82 905.328 1251.16 900.145 1239.15 891.486L1239.36 891.637L1245.75 878.789C1255 883.971 1265.99 887.189 1277.68 887.642H1277.81C1278.39 887.685 1279.06 887.707 1279.75 887.707C1286.91 887.707 1293.57 885.461 1299.03 881.639L1298.92 881.704C1303.86 877.947 1307.01 872.073 1307.01 865.465C1307.01 865.336 1307.01 865.228 1307.01 865.098V865.12C1307.01 856.223 1300.82 848.666 1289.54 842.317C1279.08 836.573 1258.21 824.588 1258.21 824.588C1247.9 818.197 1241.15 806.946 1241.15 794.12C1241.15 793.666 1241.15 793.213 1241.17 792.759V792.824C1241.15 792.414 1241.15 791.939 1241.15 791.464C1241.15 780.343 1246.05 770.367 1253.79 763.586L1253.83 763.543C1262.07 756.547 1272.83 752.293 1284.58 752.293C1285.34 752.293 1286.07 752.314 1286.8 752.336H1286.69C1286.89 752.336 1287.12 752.336 1287.36 752.336C1301.14 752.336 1313.97 756.46 1324.67 763.565L1324.41 763.413L1318.67 776.262C1310.24 772.461 1300.41 770.172 1290.06 770.064H1290.01C1289.5 770.021 1288.91 769.999 1288.31 769.999C1282.27 769.999 1276.71 772.116 1272.35 775.657L1272.4 775.614C1268.32 779.004 1265.73 784.079 1265.71 789.758C1265.71 798.611 1272.01 806.212 1283.65 812.69C1294.24 818.499 1315.63 830.764 1315.63 830.764C1326.15 836.962 1333.12 848.234 1333.12 861.147C1333.12 861.535 1333.12 861.946 1333.1 862.334V862.27L1332.97 862.226ZM1377.64 873.693C1371.76 861.924 1368.33 848.061 1368.33 833.399C1368.33 831.088 1368.42 828.799 1368.59 826.553L1368.57 826.856C1368.57 789.268 1379.97 770.467 1402.79 770.453C1403.35 770.41 1404.02 770.388 1404.71 770.388C1414.95 770.388 1423.94 775.743 1429.05 783.819L1429.11 783.927C1434.96 795.631 1438.39 809.451 1438.39 824.049C1438.39 826.294 1438.3 828.519 1438.15 830.721L1438.17 830.419C1438.17 868.309 1426.76 887.268 1403.95 887.297C1403.37 887.34 1402.7 887.361 1402.03 887.361C1391.79 887.361 1382.78 882.006 1377.67 873.93L1377.6 873.822L1377.64 873.693ZM1466.35 907.206L1438.97 893.71C1441.47 891.615 1443.71 889.413 1445.78 887.038L1445.85 886.973C1456.91 872.03 1463.55 853.222 1463.55 832.88C1463.55 830.527 1463.46 828.195 1463.29 825.884L1463.31 826.186C1463.31 776.809 1443.96 752.105 1405.24 752.077C1404.38 752.033 1403.37 752.012 1402.35 752.012C1385.82 752.012 1370.96 759.289 1360.85 770.842L1360.8 770.906C1349.79 785.849 1343.17 804.636 1343.17 824.977C1343.17 827.266 1343.25 829.533 1343.42 831.779L1343.4 831.477C1343.21 833.658 1343.1 836.206 1343.1 838.776C1343.1 857.648 1349.01 875.139 1359.06 889.499L1358.86 889.219C1368.54 899.54 1382.28 905.975 1397.48 905.975C1398.9 905.975 1400.31 905.911 1401.69 905.803L1401.49 905.824C1401.69 905.824 1401.94 905.824 1402.18 905.824C1408.89 905.824 1415.38 904.852 1421.52 903.06L1421.05 903.19L1456.76 924.028L1466.46 907.249L1466.35 907.206ZM1555.79 903.557H1484.92V754.344H1508.77V885.224H1555.79V903.557ZM1223.71 793.472C1217.52 838.473 1203.35 879.091 1182.63 915.477L1183.5 913.814C1175.19 929.815 1159.5 940.957 1141.06 942.749L1140.84 942.771C1135.26 942.469 1130.06 941.13 1125.34 938.949L1125.6 939.057V925.734C1128.55 926.187 1131.96 926.446 1135.43 926.446C1135.63 926.446 1135.82 926.446 1136.04 926.446C1136.38 926.468 1136.75 926.468 1137.14 926.468C1143.37 926.468 1149.08 924.2 1153.48 920.422L1153.44 920.443C1158.18 916.535 1161.22 910.704 1161.39 904.14C1160.25 894.682 1158.07 886.044 1154.95 877.903L1155.21 878.638L1127.89 793.472H1152.4L1172 857.152C1175.5 866.135 1177.52 876.543 1177.52 887.405C1177.52 887.426 1177.52 887.448 1177.52 887.448C1187.92 860.197 1195.81 828.411 1199.82 795.437L1200.01 793.45L1223.71 793.472ZM1115.47 903.557H1090.5C1089.79 863.81 1087.37 824.142 1083.23 784.554H1083.01L1045.02 903.557H1026.02L988.29 784.554H988.031C985.084 824.157 983.331 863.824 982.77 903.557H960C961.481 850.508 965.161 800.763 971.04 754.322H1002.03L1037.99 863.997H1038.21L1074.5 754.322H1103.99C1110.52 808.695 1114.37 858.44 1115.53 903.557H1115.47ZM1402.03 547.541C1401.99 547.541 1401.92 547.541 1401.86 547.541C1399.29 547.541 1396.81 547.865 1394.44 548.469L1394.66 548.426V548.772H1395.02C1396.88 551.536 1398.78 553.932 1400.82 556.178L1400.78 556.135C1402.23 559.029 1403.48 561.901 1404.92 564.772L1405.29 564.362C1407.64 562.505 1409.13 559.655 1409.13 556.459C1409.13 556.07 1409.1 555.703 1409.06 555.314V555.358C1407.98 554.084 1407.83 552.831 1406.9 551.579C1405.83 549.765 1403.52 548.879 1402.05 547.454L1402.03 547.541Z" fill="black"/>
<path d="M713.567 803.709V890.452C713.567 919.499 643.394 943 556.783 943C501.925 943 453.603 933.56 425.613 919.234C411.222 911.907 402.243 903.325 400.396 894.017C400.131 892.829 400 891.641 400 890.452V803.709C400 803.445 400 803.182 400.065 802.918C400 802.786 400 802.72 400.065 802.654C400.065 802.191 400.131 801.729 400.197 801.268C400.264 801.069 400.264 800.871 400.33 800.673C400.396 800.144 400.527 799.617 400.726 799.089V799.023C400.99 797.967 401.386 796.976 401.849 795.92C410.563 776.974 449.445 761.329 501.596 754.793C508.395 753.934 515.459 753.209 522.654 752.681H523.05C533.943 751.822 545.232 751.427 556.784 751.427C568.336 751.427 579.625 751.822 590.517 752.681H590.913C598.108 753.209 605.171 753.934 611.971 754.793C664.122 761.329 703.004 776.974 711.718 795.92C712.18 796.976 712.576 797.967 712.84 799.023V799.089C713.039 799.617 713.17 800.144 713.236 800.673C713.368 801.333 713.434 801.927 713.5 802.654V802.918C713.567 803.182 713.567 803.445 713.567 803.709Z" fill="#4D638E"/>
<path opacity="0.1" d="M713.567 803.974V808.132C713.567 837.179 643.394 860.745 556.783 860.745C470.172 860.745 400 837.179 400 808.132V803.974C400 804.634 400.065 805.227 400.131 805.822C402.178 826.287 439.212 843.847 491.825 851.834C493.674 852.098 495.456 852.362 497.305 852.626C500.275 853.088 503.246 853.484 506.282 853.815C507.537 853.881 508.857 854.013 510.177 854.21C517.505 855.002 525.096 855.597 532.885 855.993C538.101 856.256 543.382 856.454 548.729 856.521C551.37 856.587 554.077 856.587 556.783 856.587C559.49 856.587 562.196 856.587 564.837 856.521C570.184 856.454 575.464 856.256 580.68 855.993C588.47 855.597 596.062 855.002 603.389 854.21C604.709 854.013 606.03 853.881 607.283 853.815C610.32 853.484 613.291 853.088 616.261 852.626C618.109 852.362 619.892 852.098 621.74 851.834C674.354 843.847 711.388 826.287 713.434 805.822C713.501 805.227 713.567 804.634 713.567 803.974Z" fill="#E8E8E9"/>
<path d="M713.567 803.445V803.974C713.567 804.634 713.501 805.228 713.435 805.823C710.662 826.353 673.826 843.715 621.741 851.834C619.893 852.099 618.11 852.363 616.262 852.626C614.413 852.891 612.565 853.088 610.717 853.353C609.594 853.485 608.406 853.617 607.284 853.815C606.03 853.881 604.71 854.013 603.39 854.211C598.504 854.672 593.488 855.135 588.404 855.465C585.829 855.664 583.255 855.861 580.68 855.993C575.465 856.191 570.184 856.389 564.837 856.521C562.196 856.587 559.489 856.587 556.783 856.587C554.077 856.587 551.37 856.587 548.729 856.521C543.382 856.389 538.101 856.191 532.885 855.993C530.311 855.861 527.736 855.664 525.162 855.465C520.079 855.135 515.062 854.672 510.176 854.211C508.856 854.013 507.535 853.881 506.282 853.815C505.16 853.617 503.971 853.485 502.849 853.353C501 853.088 499.152 852.891 497.304 852.626C495.455 852.363 493.673 852.099 491.825 851.834C439.74 843.715 402.904 826.353 400.131 805.823C400.065 805.228 400 804.634 400 803.974V803.445C400 803.248 400 803.116 400.065 802.918C400 802.786 400 802.72 400.065 802.654C400.131 801.927 400.197 801.333 400.33 800.673C400.396 800.343 400.461 800.013 400.461 799.683C400.396 799.552 400.461 799.42 400.527 799.287C400.527 799.155 400.527 798.957 400.593 798.759C400.725 798.363 400.791 797.901 400.99 797.505C401.188 796.91 401.452 796.251 401.716 795.59C409.902 776.776 447.2 761.197 497.568 754.265C503.576 753.408 509.781 752.681 516.184 752.153C516.25 752.087 516.382 752.087 516.448 752.087C529.321 750.899 542.854 750.305 556.783 750.305C570.712 750.305 584.245 750.899 597.118 752.087C597.184 752.087 597.316 752.087 597.382 752.153C603.786 752.681 609.992 753.408 615.998 754.265C666.367 761.197 703.665 776.776 711.851 795.59C712.313 796.647 712.709 797.703 712.973 798.759C713.106 799.42 713.106 800.014 713.237 800.673C713.369 801.333 713.435 801.927 713.501 802.654V802.918C713.501 803.05 713.567 803.248 713.567 803.445Z" fill="#6BCAFF"/>
<path d="M661.729 876.499V900.744C649.098 904.563 634.608 907.7 618.755 909.985V885.74C634.609 883.455 649.098 880.318 661.729 876.499Z" fill="#6BCAFF"/>
<path opacity="0.3" d="M712.973 798.759C712.907 798.891 712.907 798.957 712.841 799.023V799.089C705.448 825.759 638.443 846.619 556.784 846.619C475.124 846.619 408.12 825.759 400.726 799.089V799.023C400.66 798.957 400.66 798.891 400.66 798.825L400.594 798.759C400.726 798.363 400.792 797.901 400.99 797.505C401.189 796.91 401.453 796.251 401.716 795.59C409.903 776.776 447.2 761.197 497.569 754.265C503.576 753.408 509.782 752.681 516.185 752.153C516.251 752.087 516.383 752.087 516.449 752.087C529.322 750.899 542.855 750.305 556.784 750.305C570.713 750.305 584.246 750.899 597.119 752.087C597.185 752.087 597.317 752.087 597.383 752.153C603.787 752.681 609.993 753.408 615.999 754.265C666.368 761.197 703.666 776.776 711.852 795.59C712.313 796.647 712.709 797.703 712.973 798.759Z" fill="#040000"/>
<path d="M713.567 701.123V787.801C713.567 790.441 712.973 793.081 711.851 795.59C711.785 795.722 711.719 795.854 711.719 795.92C700.034 821.137 635.143 840.348 556.783 840.348C478.424 840.348 413.532 821.137 401.848 795.92C401.848 795.854 401.782 795.722 401.716 795.59C401.451 794.93 401.188 794.27 400.99 793.675C400.791 793.016 400.593 792.421 400.461 791.761C400.461 791.761 400.461 791.695 400.461 791.629C400.264 791.101 400.197 790.507 400.131 789.913C400.065 789.186 400 788.526 400 787.8V701.058C400 699.539 400.264 697.955 400.66 696.503C400.726 696.37 400.726 696.238 400.792 696.172C401.056 695.183 401.452 694.192 401.849 693.268C410.629 674.322 449.577 658.677 501.662 652.141C508.461 651.283 515.459 650.557 522.654 650.028C533.613 649.237 545.033 648.774 556.784 648.774C568.534 648.774 579.954 649.237 590.913 650.028C598.108 650.557 605.106 651.283 611.905 652.141C663.991 658.676 702.939 674.322 711.719 693.268C712.115 694.192 712.511 695.183 712.775 696.172C712.841 696.238 712.841 696.37 712.907 696.503C713.303 698.02 713.567 699.539 713.567 701.123Z" fill="#4D638E"/>
<path opacity="0.1" d="M713.567 701.388V705.547C713.567 727.529 673.232 746.344 615.998 754.265C614.677 754.397 613.291 754.595 611.972 754.794C594.808 756.906 576.191 758.094 556.784 758.094C537.376 758.094 518.759 756.906 501.596 754.794C500.275 754.595 498.889 754.397 497.569 754.265C440.335 746.344 400 727.529 400 705.547V701.388C400 701.982 400.065 702.642 400.131 703.236C402.244 724.163 441.06 742.053 495.721 749.777C496.248 749.843 496.776 749.909 497.305 749.975C501.53 750.634 505.755 751.096 510.178 751.559C512.158 751.757 514.139 751.955 516.185 752.153C518.298 752.35 520.476 752.549 522.654 752.681H523.05C531.368 753.341 539.95 753.737 548.73 753.869C551.371 753.935 554.077 753.935 556.784 753.935C559.491 753.935 562.197 753.935 564.837 753.869C573.617 753.737 582.199 753.341 590.517 752.681H590.913C593.091 752.549 595.27 752.35 597.382 752.153C599.428 751.955 601.408 751.757 603.389 751.559C607.812 751.096 612.037 750.634 616.262 749.975L617.847 749.777C672.506 742.053 711.322 724.163 713.435 703.236C713.501 702.642 713.567 701.982 713.567 701.388Z" fill="#E8E8E9"/>
<path d="M713.567 700.793V701.387C713.567 701.982 713.501 702.642 713.435 703.236C710.596 724.162 671.978 741.92 617.847 749.776L616.262 749.974C614.413 750.238 612.565 750.436 610.717 750.699C608.274 750.964 605.897 751.228 603.39 751.558C601.343 751.757 599.231 751.954 597.118 752.086C594.939 752.284 592.761 752.482 590.517 752.68C589.791 752.68 589.13 752.746 588.404 752.812C585.829 753.01 583.255 753.143 580.68 753.275C575.465 753.538 570.184 753.737 564.837 753.869H548.729C543.382 753.737 538.101 753.538 532.885 753.275C530.311 753.143 527.736 753.01 525.162 752.812C524.436 752.746 523.776 752.68 523.049 752.68C520.805 752.482 518.626 752.284 516.448 752.086C514.335 751.954 512.223 751.757 510.176 751.558C507.668 751.228 505.291 750.964 502.849 750.699C501 750.436 499.152 750.238 497.304 749.974C496.776 749.908 496.248 749.842 495.72 749.776C441.589 741.919 402.97 724.162 400.131 703.236C400.065 702.642 400 701.982 400 701.387V700.793C400 700.133 400.065 699.472 400.131 698.813C400.197 698.153 400.264 697.493 400.462 696.833C400.462 696.634 400.528 696.37 400.594 696.172H712.973C713.117 696.722 713.097 697.293 713.189 697.845C713.35 698.649 713.455 699.464 713.503 700.288C713.507 700.458 713.567 700.62 713.567 700.793Z" fill="#6BCAFF"/>
<path d="M661.729 773.858V798.103C649.098 801.922 634.608 805.059 618.755 807.344V783.099C634.609 780.814 649.098 777.677 661.729 773.858Z" fill="#6BCAFF"/>
<path opacity="0.3" d="M712.907 696.172V696.502C705.316 723.172 638.377 744.032 556.784 744.032C475.19 744.032 408.252 723.172 400.66 696.502V696.172H712.907Z" fill="#040000"/>
<path d="M713.567 598.471V685.148C713.567 687.92 712.907 690.627 711.719 693.267C711.257 694.257 710.728 695.182 710.135 696.171C695.083 719.937 632.172 737.761 556.784 737.761C481.396 737.761 418.484 719.937 403.433 696.171C402.839 695.182 402.31 694.257 401.849 693.267C401.849 693.201 401.782 693.069 401.716 692.937C401.452 692.344 401.189 691.683 400.99 691.023C400.792 690.495 400.66 689.967 400.528 689.439C400.462 689.241 400.396 688.977 400.396 688.779C400.264 688.25 400.198 687.788 400.132 687.261C400.065 686.534 400 685.874 400 685.148V598.405C400.528 569.491 470.504 546.188 556.784 546.188C610.123 546.188 657.257 555.1 685.577 568.765C702.081 576.687 712.247 586.259 713.436 596.623C713.501 597.216 713.567 597.877 713.567 598.471Z" fill="#4D638E"/>
<path opacity="0.1" d="M713.567 598.735V602.894C713.567 625.404 671.318 644.615 611.905 652.14C594.742 654.253 576.192 655.441 556.784 655.441C537.376 655.441 518.826 654.253 501.662 652.14C442.249 644.615 400 625.404 400 602.895V598.736C400 622.369 446.342 642.305 510.178 648.907C514.271 649.303 518.429 649.699 522.654 650.028C533.613 650.821 545.033 651.283 556.784 651.283C568.534 651.283 579.954 650.821 590.913 650.028C595.138 649.699 599.297 649.303 603.39 648.907C667.225 642.305 713.567 622.368 713.567 598.735Z" fill="#E8E8E9"/>
<path d="M713.567 598.142V598.471C713.171 622.17 666.961 642.173 603.39 648.906C599.296 649.302 595.138 649.698 590.913 650.028C579.954 650.821 568.534 651.282 556.783 651.282C545.032 651.282 533.612 650.821 522.653 650.028C518.428 649.698 514.27 649.302 510.177 648.906C446.606 642.173 400.396 622.17 400 598.471V598.142C400 568.831 470.172 545 556.784 545C609.067 545 655.343 553.714 683.861 567.049C701.685 575.366 712.577 585.598 713.435 596.623C713.567 597.085 713.567 597.613 713.567 598.142Z" fill="#6BCAFF"/>
<path d="M661.729 671.218V695.462C649.098 699.281 634.608 702.419 618.755 704.703V680.459C634.609 678.174 649.098 675.037 661.729 671.218Z" fill="#6BCAFF"/>
<path opacity="0.2" d="M556.784 545V943C501.926 943 453.604 933.56 425.613 919.234C411.223 911.907 402.244 903.325 400.396 894.017C400.131 892.829 400 891.641 400 890.452V803.445C400 803.248 400 803.115 400.065 802.918C400 802.786 400 802.72 400.065 802.654C400.065 802.191 400.131 801.729 400.197 801.268C400.197 800.739 400.264 800.21 400.462 799.683C400.396 799.551 400.462 799.419 400.528 799.287C400.528 799.089 400.528 798.957 400.66 798.825C400.726 798.363 400.857 797.967 400.99 797.505C401.189 796.91 401.453 796.251 401.716 795.59C401.452 794.93 401.189 794.27 400.99 793.675C400.792 793.016 400.594 792.422 400.462 791.762C400.462 791.762 400.462 791.695 400.462 791.629C400.264 791.102 400.197 790.507 400.131 789.913C400.065 789.186 400 788.526 400 787.8V700.794C400 700.134 400.065 699.473 400.131 698.814C400.197 698.153 400.264 697.493 400.462 696.833C400.462 696.635 400.528 696.437 400.66 696.172C400.857 695.117 401.254 693.995 401.716 692.938C401.452 692.345 401.189 691.684 400.99 691.024C400.792 690.496 400.66 689.968 400.528 689.44C400.462 689.242 400.396 688.978 400.396 688.78C400.264 688.251 400.198 687.789 400.132 687.262C400.065 686.534 400 685.874 400 685.148V598.142C400 568.831 470.172 545 556.784 545Z" fill="white"/>
</g>
<defs>
<clipPath id="clip0_222_35">
<rect width="1920" height="1080" fill="white"/>
</clipPath>
</defs>
</svg>
