<svg width="1920" height="1080" viewBox="0 0 1920 1080" fill="none" xmlns="http://www.w3.org/2000/svg">
<g clip-path="url(#clip0_222_7)">
<rect width="1920" height="1080" fill="#E8E8E8"/>
<path d="M372.012 260C370.189 260 368.854 259.577 368.008 258.73C367.161 257.884 366.738 256.582 366.738 254.824V141.934C366.738 139.329 369.082 138.027 373.77 138.027H375.137C379.759 138.027 382.07 139.329 382.07 141.934V246.816H429.824C431.061 246.816 431.94 247.24 432.461 248.086C432.982 248.867 433.242 250.169 433.242 251.992V254.824C433.242 256.582 432.982 257.884 432.461 258.73C431.94 259.577 431.061 260 429.824 260H372.012ZM457.754 260.293C453.066 260.293 450.723 259.023 450.723 256.484V141.934C450.723 139.329 453.066 138.027 457.754 138.027H459.121C463.743 138.027 466.055 139.329 466.055 141.934V256.484C466.055 259.023 463.743 260.293 459.121 260.293H457.754ZM505.605 260.293C503.132 260.293 501.341 260 500.234 259.414C499.128 258.763 498.574 257.786 498.574 256.484V141.934C498.574 139.329 500.918 138.027 505.605 138.027H509.219C511.042 138.027 512.474 138.288 513.516 138.809C514.622 139.329 515.599 140.176 516.445 141.348L571.914 225.039L577.09 234.805V141.934C577.09 139.329 579.368 138.027 583.926 138.027H585.293C589.85 138.027 592.129 139.329 592.129 141.934V256.484C592.129 257.786 591.576 258.763 590.469 259.414C589.362 260 587.637 260.293 585.293 260.293H581.777C580.15 260.293 578.848 260.098 577.871 259.707C576.895 259.316 576.146 258.698 575.625 257.852L518.398 171.523L513.711 162.539V256.484C513.711 259.023 511.4 260.293 506.777 260.293H505.605ZM671.23 260.977C653.783 260.977 640.501 255.964 631.387 245.938C622.272 235.846 617.715 220.612 617.715 200.234C617.715 158.307 636.432 137.344 673.867 137.344C679.336 137.344 684.642 137.93 689.785 139.102C694.928 140.208 699.095 141.608 702.285 143.301C705.475 144.993 707.07 146.621 707.07 148.184C707.07 149.16 706.712 150.462 705.996 152.09C705.345 153.717 704.564 155.15 703.652 156.387C702.741 157.624 701.927 158.242 701.211 158.242C700.885 158.242 699.974 157.819 698.477 156.973C695.091 155.15 691.543 153.62 687.832 152.383C684.121 151.146 679.596 150.527 674.258 150.527C659.544 150.527 649.062 154.596 642.812 162.734C636.562 170.807 633.438 182.786 633.438 198.672C633.438 213.646 636.335 225.592 642.129 234.512C647.988 243.366 658.079 247.793 672.402 247.793C676.764 247.793 680.964 247.598 685 247.207C689.102 246.751 692.357 246.198 694.766 245.547V210.488H674.453C673.216 210.488 672.305 210.098 671.719 209.316C671.198 208.47 670.938 207.135 670.938 205.312V202.48C670.938 200.658 671.198 199.355 671.719 198.574C672.305 197.728 673.216 197.305 674.453 197.305H704.824C706.647 197.305 707.982 197.728 708.828 198.574C709.674 199.355 710.098 200.658 710.098 202.48V248.477C710.098 252.969 706.452 256.191 699.16 258.145C691.868 260.033 682.559 260.977 671.23 260.977ZM786.367 260.977C776.276 260.977 767.682 259.414 760.586 256.289C753.49 253.099 748.118 248.509 744.473 242.52C740.827 236.53 739.004 229.368 739.004 221.035V141.934C739.004 139.329 741.315 138.027 745.938 138.027H747.305C751.927 138.027 754.238 139.329 754.238 141.934V221.621C754.238 226.699 755.638 231.224 758.438 235.195C761.237 239.167 765.078 242.259 769.961 244.473C774.844 246.686 780.312 247.793 786.367 247.793C792.487 247.793 797.988 246.686 802.871 244.473C807.754 242.194 811.562 239.069 814.297 235.098C817.096 231.126 818.496 226.634 818.496 221.621V141.934C818.496 139.329 820.807 138.027 825.43 138.027H826.895C831.452 138.027 833.73 139.329 833.73 141.934V221.035C833.73 229.368 831.908 236.53 828.262 242.52C824.616 248.509 819.245 253.099 812.148 256.289C805.052 259.414 796.458 260.977 786.367 260.977ZM857.754 260.293C855.15 260.293 853.262 260.065 852.09 259.609C850.918 259.089 850.332 258.34 850.332 257.363C850.332 256.908 850.495 256.126 850.82 255.02L891.934 140.859C892.585 138.971 894.896 138.027 898.867 138.027H903.945C907.917 138.027 910.228 138.971 910.879 140.859L951.992 255.117C952.318 255.833 952.48 256.582 952.48 257.363C952.48 259.316 950.039 260.293 945.156 260.293H943.691C939.655 260.293 937.311 259.382 936.66 257.559L926.504 229.043H875.527L865.566 257.559C864.98 259.382 862.669 260.293 858.633 260.293H857.754ZM921.816 215.859L903.652 164.199C903.132 162.767 902.708 161.139 902.383 159.316C902.057 157.493 901.764 155.736 901.504 154.043H901.113C900.332 158.405 899.453 161.79 898.477 164.199L880.312 215.859H921.816ZM1018.11 260.977C1000.66 260.977 987.376 255.964 978.262 245.938C969.147 235.846 964.59 220.612 964.59 200.234C964.59 158.307 983.307 137.344 1020.74 137.344C1026.21 137.344 1031.52 137.93 1036.66 139.102C1041.8 140.208 1045.97 141.608 1049.16 143.301C1052.35 144.993 1053.95 146.621 1053.95 148.184C1053.95 149.16 1053.59 150.462 1052.87 152.09C1052.22 153.717 1051.44 155.15 1050.53 156.387C1049.62 157.624 1048.8 158.242 1048.09 158.242C1047.76 158.242 1046.85 157.819 1045.35 156.973C1041.97 155.15 1038.42 153.62 1034.71 152.383C1031 151.146 1026.47 150.527 1021.13 150.527C1006.42 150.527 995.938 154.596 989.688 162.734C983.438 170.807 980.312 182.786 980.312 198.672C980.312 213.646 983.21 225.592 989.004 234.512C994.863 243.366 1004.95 247.793 1019.28 247.793C1023.64 247.793 1027.84 247.598 1031.88 247.207C1035.98 246.751 1039.23 246.198 1041.64 245.547V210.488H1021.33C1020.09 210.488 1019.18 210.098 1018.59 209.316C1018.07 208.47 1017.81 207.135 1017.81 205.312V202.48C1017.81 200.658 1018.07 199.355 1018.59 198.574C1019.18 197.728 1020.09 197.305 1021.33 197.305H1051.7C1053.52 197.305 1054.86 197.728 1055.7 198.574C1056.55 199.355 1056.97 200.658 1056.97 202.48V248.477C1056.97 252.969 1053.33 256.191 1046.04 258.145C1038.74 260.033 1029.43 260.977 1018.11 260.977ZM1093.5 260C1091.67 260 1090.34 259.577 1089.49 258.73C1088.65 257.884 1088.22 256.582 1088.22 254.824V143.691C1088.22 141.868 1088.65 140.566 1089.49 139.785C1090.34 138.939 1091.67 138.516 1093.5 138.516H1154.04C1155.28 138.516 1156.16 138.906 1156.68 139.688C1157.27 140.469 1157.56 141.803 1157.56 143.691V146.523C1157.56 148.281 1157.27 149.583 1156.68 150.43C1156.16 151.276 1155.28 151.699 1154.04 151.699H1103.55V191.25H1148.87C1150.1 191.25 1150.98 191.673 1151.5 192.52C1152.09 193.366 1152.38 194.701 1152.38 196.523V199.16C1152.38 200.983 1152.09 202.318 1151.5 203.164C1150.98 203.945 1150.1 204.336 1148.87 204.336H1103.55V246.816H1154.24C1155.48 246.816 1156.35 247.24 1156.88 248.086C1157.46 248.867 1157.75 250.169 1157.75 251.992V254.824C1157.75 256.582 1157.46 257.884 1156.88 258.73C1156.35 259.577 1155.48 260 1154.24 260H1093.5ZM1189 260.293C1186.53 260.293 1184.74 260 1183.63 259.414C1182.53 258.763 1181.97 257.786 1181.97 256.484V141.934C1181.97 139.329 1184.32 138.027 1189 138.027H1195.16C1199 138.027 1201.44 139.102 1202.48 141.25L1235.29 198.184L1239.79 209.121L1244.28 199.16L1277.19 141.25C1278.29 139.102 1280.7 138.027 1284.41 138.027H1290.18C1294.8 138.027 1297.11 139.329 1297.11 141.934V256.484C1297.11 259.023 1294.8 260.293 1290.18 260.293H1289C1286.53 260.293 1284.74 260 1283.63 259.414C1282.53 258.763 1281.97 257.786 1281.97 256.484V163.027L1281.68 163.809L1247.11 223.867C1246.65 224.648 1246.13 225.234 1245.55 225.625C1244.96 225.951 1244.21 226.113 1243.3 226.113H1236.37C1234.61 226.113 1233.31 225.365 1232.46 223.867L1197.11 162.051V256.484C1197.11 259.023 1194.8 260.293 1190.18 260.293H1189ZM1376.5 260C1374.68 260 1373.35 259.577 1372.5 258.73C1371.65 257.884 1371.23 256.582 1371.23 254.824V143.691C1371.23 141.868 1371.65 140.566 1372.5 139.785C1373.35 138.939 1374.68 138.516 1376.5 138.516H1411.56C1427.84 138.516 1440.86 143.333 1450.62 152.969C1460.39 162.604 1465.27 178.001 1465.27 199.16C1465.27 220.449 1460.39 235.911 1450.62 245.547C1440.86 255.182 1427.84 260 1411.56 260H1376.5ZM1410.39 246.816C1422.11 246.816 1431.55 243.008 1438.71 235.391C1445.87 227.708 1449.45 215.632 1449.45 199.16C1449.45 188.092 1447.76 179.043 1444.38 172.012C1440.99 164.915 1436.37 159.772 1430.51 156.582C1424.65 153.327 1417.94 151.699 1410.39 151.699H1386.56V246.816H1410.39ZM1497.21 260C1495.38 260 1494.05 259.577 1493.2 258.73C1492.36 257.884 1491.93 256.582 1491.93 254.824V143.691C1491.93 141.868 1492.36 140.566 1493.2 139.785C1494.05 138.939 1495.38 138.516 1497.21 138.516H1557.75C1558.99 138.516 1559.87 138.906 1560.39 139.688C1560.98 140.469 1561.27 141.803 1561.27 143.691V146.523C1561.27 148.281 1560.98 149.583 1560.39 150.43C1559.87 151.276 1558.99 151.699 1557.75 151.699H1507.27V191.25H1552.58C1553.82 191.25 1554.69 191.673 1555.21 192.52C1555.8 193.366 1556.09 194.701 1556.09 196.523V199.16C1556.09 200.983 1555.8 202.318 1555.21 203.164C1554.69 203.945 1553.82 204.336 1552.58 204.336H1507.27V246.816H1557.95C1559.19 246.816 1560.07 247.24 1560.59 248.086C1561.17 248.867 1561.46 250.169 1561.46 251.992V254.824C1561.46 256.582 1561.17 257.884 1560.59 258.73C1560.07 259.577 1559.19 260 1557.95 260H1497.21ZM354.141 495.293C351.732 495.293 349.974 495 348.867 494.414C347.826 493.763 347.305 492.786 347.305 491.484V378.691C347.305 376.803 347.695 375.469 348.477 374.688C349.323 373.906 350.658 373.516 352.48 373.516H387.637C397.793 373.516 406.777 375.957 414.59 380.84C422.467 385.658 426.406 394.544 426.406 407.5C426.406 417.135 424.16 424.622 419.668 429.961C415.176 435.234 410.13 438.783 404.531 440.605C398.932 442.363 393.887 443.242 389.395 443.242H362.441V491.484C362.441 492.786 361.888 493.763 360.781 494.414C359.674 495 357.949 495.293 355.605 495.293H354.141ZM389.59 430.059C392.52 430.059 395.579 429.44 398.77 428.203C401.96 426.901 404.727 424.59 407.07 421.27C409.414 417.884 410.586 413.294 410.586 407.5C410.586 399.753 408.275 394.349 403.652 391.289C399.095 388.229 393.594 386.699 387.148 386.699H362.441V430.059H389.59ZM455.312 495.293C450.625 495.293 448.281 494.023 448.281 491.484V378.691C448.281 376.868 448.704 375.566 449.551 374.785C450.397 373.939 451.732 373.516 453.555 373.516H482.754C496.621 373.516 507.038 375.957 514.004 380.84C521.035 385.723 524.551 393.503 524.551 404.18C524.551 411.406 522.793 417.493 519.277 422.441C515.827 427.324 510.944 431.003 504.629 433.477V434.16C508.014 435.332 510.781 437.611 512.93 440.996C515.143 444.316 517.585 449.264 520.254 455.84L533.828 490.117C534.154 491.289 534.316 492.103 534.316 492.559C534.316 494.382 531.875 495.293 526.992 495.293H525.234C523.477 495.293 521.947 495.065 520.645 494.609C519.408 494.089 518.626 493.405 518.301 492.559L505.117 458.477C503.424 454.049 501.439 450.599 499.16 448.125C496.882 445.651 494.18 443.926 491.055 442.949C487.93 441.973 483.991 441.484 479.238 441.484H463.613V491.484C463.613 494.023 461.302 495.293 456.68 495.293H455.312ZM486.465 428.301C490.566 428.301 494.31 427.324 497.695 425.371C501.146 423.418 503.848 420.814 505.801 417.559C507.819 414.238 508.828 410.723 508.828 407.012C508.828 400.176 506.745 395.098 502.578 391.777C498.411 388.392 492.65 386.699 485.293 386.699H463.613V428.301H486.465ZM600.918 495.977C583.535 495.977 570.286 490.703 561.172 480.156C552.057 469.609 547.5 454.18 547.5 433.867C547.5 413.62 552.025 398.32 561.074 387.969C570.189 377.552 583.47 372.344 600.918 372.344C618.431 372.344 631.745 377.552 640.859 387.969C649.974 398.32 654.531 413.62 654.531 433.867C654.531 454.18 649.974 469.609 640.859 480.156C631.745 490.703 618.431 495.977 600.918 495.977ZM600.918 482.793C613.158 482.793 622.533 478.626 629.043 470.293C635.553 461.895 638.809 449.753 638.809 433.867C638.809 417.982 635.553 405.97 629.043 397.832C622.598 389.629 613.223 385.527 600.918 385.527C588.678 385.527 579.336 389.629 572.891 397.832C566.445 405.97 563.223 417.982 563.223 433.867C563.223 449.818 566.445 461.96 572.891 470.293C579.336 478.626 588.678 482.793 600.918 482.793ZM727.969 495.977C710.521 495.977 697.24 490.964 688.125 480.938C679.01 470.846 674.453 455.612 674.453 435.234C674.453 393.307 693.171 372.344 730.605 372.344C736.074 372.344 741.38 372.93 746.523 374.102C751.667 375.208 755.833 376.608 759.023 378.301C762.214 379.993 763.809 381.621 763.809 383.184C763.809 384.16 763.451 385.462 762.734 387.09C762.083 388.717 761.302 390.15 760.391 391.387C759.479 392.624 758.665 393.242 757.949 393.242C757.624 393.242 756.712 392.819 755.215 391.973C751.829 390.15 748.281 388.62 744.57 387.383C740.859 386.146 736.335 385.527 730.996 385.527C716.283 385.527 705.801 389.596 699.551 397.734C693.301 405.807 690.176 417.786 690.176 433.672C690.176 448.646 693.073 460.592 698.867 469.512C704.727 478.366 714.818 482.793 729.141 482.793C733.503 482.793 737.702 482.598 741.738 482.207C745.84 481.751 749.095 481.198 751.504 480.547V445.488H731.191C729.954 445.488 729.043 445.098 728.457 444.316C727.936 443.47 727.676 442.135 727.676 440.312V437.48C727.676 435.658 727.936 434.355 728.457 433.574C729.043 432.728 729.954 432.305 731.191 432.305H761.562C763.385 432.305 764.72 432.728 765.566 433.574C766.413 434.355 766.836 435.658 766.836 437.48V483.477C766.836 487.969 763.19 491.191 755.898 493.145C748.607 495.033 739.297 495.977 727.969 495.977ZM805.117 495.293C800.43 495.293 798.086 494.023 798.086 491.484V378.691C798.086 376.868 798.509 375.566 799.355 374.785C800.202 373.939 801.536 373.516 803.359 373.516H832.559C846.426 373.516 856.842 375.957 863.809 380.84C870.84 385.723 874.355 393.503 874.355 404.18C874.355 411.406 872.598 417.493 869.082 422.441C865.632 427.324 860.749 431.003 854.434 433.477V434.16C857.819 435.332 860.586 437.611 862.734 440.996C864.948 444.316 867.389 449.264 870.059 455.84L883.633 490.117C883.958 491.289 884.121 492.103 884.121 492.559C884.121 494.382 881.68 495.293 876.797 495.293H875.039C873.281 495.293 871.751 495.065 870.449 494.609C869.212 494.089 868.431 493.405 868.105 492.559L854.922 458.477C853.229 454.049 851.243 450.599 848.965 448.125C846.686 445.651 843.984 443.926 840.859 442.949C837.734 441.973 833.796 441.484 829.043 441.484H813.418V491.484C813.418 494.023 811.107 495.293 806.484 495.293H805.117ZM836.27 428.301C840.371 428.301 844.115 427.324 847.5 425.371C850.951 423.418 853.652 420.814 855.605 417.559C857.624 414.238 858.633 410.723 858.633 407.012C858.633 400.176 856.549 395.098 852.383 391.777C848.216 388.392 842.454 386.699 835.098 386.699H813.418V428.301H836.27ZM896.914 495.293C894.31 495.293 892.422 495.065 891.25 494.609C890.078 494.089 889.492 493.34 889.492 492.363C889.492 491.908 889.655 491.126 889.98 490.02L931.094 375.859C931.745 373.971 934.056 373.027 938.027 373.027H943.105C947.077 373.027 949.388 373.971 950.039 375.859L991.152 490.117C991.478 490.833 991.641 491.582 991.641 492.363C991.641 494.316 989.199 495.293 984.316 495.293H982.852C978.815 495.293 976.471 494.382 975.82 492.559L965.664 464.043H914.688L904.727 492.559C904.141 494.382 901.829 495.293 897.793 495.293H896.914ZM960.977 450.859L942.812 399.199C942.292 397.767 941.868 396.139 941.543 394.316C941.217 392.493 940.924 390.736 940.664 389.043H940.273C939.492 393.405 938.613 396.79 937.637 399.199L919.473 450.859H960.977ZM1016.45 495.293C1013.97 495.293 1012.18 495 1011.07 494.414C1009.97 493.763 1009.41 492.786 1009.41 491.484V376.934C1009.41 374.329 1011.76 373.027 1016.45 373.027H1022.6C1026.44 373.027 1028.88 374.102 1029.92 376.25L1062.73 433.184L1067.23 444.121L1071.72 434.16L1104.63 376.25C1105.74 374.102 1108.14 373.027 1111.86 373.027H1117.62C1122.24 373.027 1124.55 374.329 1124.55 376.934V491.484C1124.55 494.023 1122.24 495.293 1117.62 495.293H1116.45C1113.97 495.293 1112.18 495 1111.07 494.414C1109.97 493.763 1109.41 492.786 1109.41 491.484V398.027L1109.12 398.809L1074.55 458.867C1074.1 459.648 1073.57 460.234 1072.99 460.625C1072.4 460.951 1071.65 461.113 1070.74 461.113H1063.81C1062.05 461.113 1060.75 460.365 1059.9 458.867L1024.55 397.051V491.484C1024.55 494.023 1022.24 495.293 1017.62 495.293H1016.45ZM1149.65 495.293C1147.04 495.293 1145.16 495.065 1143.98 494.609C1142.81 494.089 1142.23 493.34 1142.23 492.363C1142.23 491.908 1142.39 491.126 1142.71 490.02L1183.83 375.859C1184.48 373.971 1186.79 373.027 1190.76 373.027H1195.84C1199.81 373.027 1202.12 373.971 1202.77 375.859L1243.89 490.117C1244.21 490.833 1244.38 491.582 1244.38 492.363C1244.38 494.316 1241.93 495.293 1237.05 495.293H1235.59C1231.55 495.293 1229.21 494.382 1228.55 492.559L1218.4 464.043H1167.42L1157.46 492.559C1156.88 494.382 1154.56 495.293 1150.53 495.293H1149.65ZM1213.71 450.859L1195.55 399.199C1195.03 397.767 1194.6 396.139 1194.28 394.316C1193.95 392.493 1193.66 390.736 1193.4 389.043H1193.01C1192.23 393.405 1191.35 396.79 1190.37 399.199L1172.21 450.859H1213.71ZM1348.28 483.477C1348.28 485.104 1346.69 486.895 1343.5 488.848C1340.31 490.801 1336.01 492.461 1330.61 493.828C1325.2 495.195 1319.38 495.911 1313.12 495.977L1310.98 503.496H1311.66C1314.98 503.496 1318.27 504.375 1321.52 506.133C1324.78 507.891 1326.41 511.178 1326.41 515.996C1326.41 522.051 1324.49 526.152 1320.64 528.301C1316.87 530.449 1312.15 531.523 1306.48 531.523C1303.75 531.523 1300.79 531.198 1297.6 530.547C1294.47 529.961 1291.84 529.082 1289.69 527.91C1287.54 526.803 1286.46 525.501 1286.46 524.004C1286.46 522.767 1286.73 521.693 1287.25 520.781C1287.77 519.935 1288.61 519.512 1289.79 519.512C1290.37 519.512 1291.12 519.674 1292.03 520C1293.01 520.326 1293.72 520.553 1294.18 520.684C1296.07 521.4 1297.76 521.953 1299.26 522.344C1300.82 522.734 1302.45 522.93 1304.14 522.93C1306.94 522.93 1309.28 522.539 1311.17 521.758C1313.12 520.977 1314.1 519.382 1314.1 516.973C1314.1 515.02 1313.52 513.587 1312.34 512.676C1311.17 511.829 1309.48 511.048 1307.27 510.332C1305.7 509.811 1304.53 509.323 1303.75 508.867C1303.03 508.411 1302.68 507.728 1302.68 506.816C1302.68 506.1 1302.9 504.928 1303.36 503.301C1303.82 501.673 1304.6 499.167 1305.7 495.781C1288.91 494.674 1276.5 489.108 1268.5 479.082C1260.49 469.056 1256.48 454.082 1256.48 434.16C1256.48 392.949 1275.2 372.344 1312.64 372.344C1318.11 372.344 1323.41 372.93 1328.55 374.102C1333.7 375.208 1337.86 376.608 1341.05 378.301C1344.24 379.993 1345.84 381.621 1345.84 383.184C1345.84 384.16 1345.48 385.462 1344.77 387.09C1344.11 388.717 1343.33 390.15 1342.42 391.387C1341.51 392.624 1340.7 393.242 1339.98 393.242C1339.65 393.242 1338.74 392.819 1337.25 391.973C1333.86 390.15 1330.31 388.62 1326.6 387.383C1322.89 386.146 1318.37 385.527 1313.03 385.527C1299.03 385.527 1288.71 389.434 1282.07 397.246C1275.49 404.993 1272.21 417.363 1272.21 434.355C1272.21 450.957 1275.46 463.197 1281.97 471.074C1288.55 478.887 1298.67 482.793 1312.34 482.793C1318.07 482.793 1322.99 482.109 1327.09 480.742C1331.19 479.375 1335.13 477.682 1338.91 475.664C1340.73 474.688 1341.84 474.199 1342.23 474.199C1342.94 474.199 1343.76 474.818 1344.67 476.055C1345.64 477.292 1346.49 478.691 1347.21 480.254C1347.92 481.751 1348.28 482.826 1348.28 483.477ZM1363.71 495.293C1361.11 495.293 1359.22 495.065 1358.05 494.609C1356.88 494.089 1356.29 493.34 1356.29 492.363C1356.29 491.908 1356.45 491.126 1356.78 490.02L1397.89 375.859C1398.54 373.971 1400.85 373.027 1404.82 373.027H1409.9C1413.87 373.027 1416.18 373.971 1416.84 375.859L1457.95 490.117C1458.27 490.833 1458.44 491.582 1458.44 492.363C1458.44 494.316 1456 495.293 1451.11 495.293H1449.65C1445.61 495.293 1443.27 494.382 1442.62 492.559L1432.46 464.043H1381.48L1371.52 492.559C1370.94 494.382 1368.63 495.293 1364.59 495.293H1363.71ZM1427.77 450.859L1409.61 399.199C1409.09 397.767 1408.67 396.139 1408.34 394.316C1408.01 392.493 1407.72 390.736 1407.46 389.043H1407.07C1406.29 393.405 1405.41 396.79 1404.43 399.199L1386.27 450.859H1427.77ZM1379.14 360.82C1378.03 360.365 1377.48 359.681 1377.48 358.77C1377.48 357.988 1377.68 357.24 1378.07 356.523C1379.89 352.227 1382.07 349.167 1384.61 347.344C1387.21 345.456 1390.37 344.512 1394.08 344.512C1396.43 344.512 1398.83 344.87 1401.31 345.586C1403.78 346.237 1406.88 347.214 1410.59 348.516C1413.65 349.688 1416.25 350.566 1418.4 351.152C1420.55 351.738 1422.5 352.031 1424.26 352.031C1425.82 352.031 1427.15 351.673 1428.26 350.957C1429.43 350.176 1430.61 348.841 1431.78 346.953C1432.95 345.26 1434.09 344.414 1435.2 344.414C1435.59 344.414 1436.17 344.577 1436.95 344.902L1438.32 345.391C1439.04 345.651 1439.56 345.944 1439.88 346.27C1440.21 346.595 1440.37 347.018 1440.37 347.539C1440.37 348.255 1440.11 349.036 1439.59 349.883C1437.77 354.115 1435.55 357.142 1432.95 358.965C1430.41 360.788 1427.35 361.699 1423.77 361.699C1421.3 361.699 1418.79 361.374 1416.25 360.723C1413.78 360.007 1410.52 358.965 1406.48 357.598C1403.29 356.426 1400.69 355.579 1398.67 355.059C1396.65 354.473 1394.8 354.18 1393.11 354.18C1391.67 354.18 1390.4 354.603 1389.3 355.449C1388.19 356.23 1387.02 357.565 1385.78 359.453C1385.2 360.365 1384.67 361.016 1384.22 361.406C1383.76 361.797 1383.24 361.992 1382.66 361.992C1382.27 361.992 1381.68 361.829 1380.9 361.504L1379.14 360.82ZM1523.96 495.977C1506.58 495.977 1493.33 490.703 1484.22 480.156C1475.1 469.609 1470.55 454.18 1470.55 433.867C1470.55 413.62 1475.07 398.32 1484.12 387.969C1493.24 377.552 1506.52 372.344 1523.96 372.344C1541.48 372.344 1554.79 377.552 1563.91 387.969C1573.02 398.32 1577.58 413.62 1577.58 433.867C1577.58 454.18 1573.02 469.609 1563.91 480.156C1554.79 490.703 1541.48 495.977 1523.96 495.977ZM1523.96 482.793C1536.2 482.793 1545.58 478.626 1552.09 470.293C1558.6 461.895 1561.86 449.753 1561.86 433.867C1561.86 417.982 1558.6 405.97 1552.09 397.832C1545.64 389.629 1536.27 385.527 1523.96 385.527C1511.73 385.527 1502.38 389.629 1495.94 397.832C1489.49 405.97 1486.27 417.982 1486.27 433.867C1486.27 449.818 1489.49 461.96 1495.94 470.293C1502.38 478.626 1511.73 482.793 1523.96 482.793Z" fill="black"/>
<path d="M279.882 670.473C342.693 621.711 310.457 590 310.457 590C315.254 640.41 258.557 652.313 243.359 686.954C232.989 710.592 250.461 731.288 279.861 757.374C277.262 751.597 273.253 745.983 269.195 740.3C255.353 720.915 240.934 700.721 279.882 670.473Z" fill="#E76F00"/>
<path d="M289.911 768.067C289.911 768.067 308.807 752.821 293.842 735.878C243.114 678.398 349.325 652.312 349.325 652.312C284.478 683.552 294.159 702.095 310.458 724.622C327.91 748.778 289.911 768.067 289.911 768.067Z" fill="#E76F00"/>
<path d="M345.547 813.532C403.755 783.788 376.842 755.205 358.057 759.056C353.452 759.998 351.4 760.815 351.4 760.815C351.4 760.815 353.109 758.181 356.374 757.041C393.536 744.194 422.117 794.934 344.377 815.031C344.377 815.031 345.278 814.24 345.547 813.532Z" fill="#5382A1"/>
<path d="M224.425 775.885C188.006 771.103 244.394 757.932 244.394 757.932C244.394 757.932 222.496 756.48 195.565 769.282C163.72 784.43 274.337 791.32 331.597 776.511C337.551 772.513 345.778 769.048 345.778 769.048C345.778 769.048 322.347 773.163 299.011 775.099C270.457 777.452 239.803 777.91 224.425 775.885Z" fill="#5382A1"/>
<path d="M238.283 804.285C217.974 802.22 231.271 792.54 231.271 792.54C178.719 809.692 260.51 829.142 333.943 808.026C326.137 805.32 321.174 800.371 321.174 800.371C285.285 807.167 264.545 806.95 238.283 804.285Z" fill="#5382A1"/>
<path d="M247.131 835.017C226.838 832.723 238.694 825.943 238.694 825.943C190.989 839.051 267.71 866.13 328.445 840.533C318.498 836.729 311.375 832.338 311.375 832.338C284.282 837.379 271.716 837.775 247.131 835.017Z" fill="#5382A1"/>
<path d="M374.165 850.649C374.165 850.649 382.938 857.757 364.502 863.257C329.444 873.7 218.59 876.854 187.795 863.673C176.725 858.938 197.485 852.366 204.015 850.986C210.825 849.534 214.717 849.805 214.717 849.805C202.406 841.277 135.144 866.551 180.551 873.789C304.383 893.537 406.285 864.896 374.165 850.649Z" fill="#5382A1"/>
<path d="M393.818 866.181C391.786 892.178 305.987 897.647 250.115 894.13C213.665 891.831 206.36 886.087 206.253 886.003C241.138 891.659 299.954 892.688 347.642 883.863C389.912 876.036 393.818 866.181 393.818 866.181Z" fill="#5382A1"/>
<path d="M789.439 623.637H1084.53V918.728H789.439V623.637Z" fill="#F7DF1E"/>
<path d="M867.029 870.237L889.612 856.57C893.968 864.295 897.931 870.83 907.438 870.83C916.55 870.83 922.295 867.266 922.295 853.401V759.112H950.026V853.793C950.026 882.515 933.19 895.589 908.626 895.589C886.443 895.589 873.565 884.099 867.029 870.234" fill="white"/>
<path d="M965.089 867.265L987.669 854.191C993.612 863.898 1001.34 871.029 1015 871.029C1026.5 871.029 1033.82 865.284 1033.82 857.36C1033.82 847.852 1026.3 844.485 1013.62 838.94L1006.69 835.967C986.679 827.451 973.407 816.754 973.407 794.172C973.407 773.374 989.254 757.526 1014.01 757.526C1031.64 757.526 1044.32 763.668 1053.43 779.713L1031.84 793.578C1027.09 785.061 1021.94 781.694 1014.02 781.694C1005.89 781.694 1000.74 786.844 1000.74 793.578C1000.74 801.897 1005.89 805.266 1017.78 810.416L1024.71 813.387C1048.28 823.49 1061.55 833.789 1061.55 856.964C1061.55 881.924 1041.94 895.591 1015.6 895.591C989.849 895.591 973.209 883.31 965.089 867.265Z" fill="white"/>
<path d="M499.412 874.818L480.969 644.278H702.288L683.845 874.818L591.628 902.483L499.412 874.818Z" fill="#1172B8"/>
<path d="M683.844 662.722H591.628V888.651L665.401 865.597L683.844 662.722Z" fill="#33AADD"/>
<path d="M623.904 777.992H531.688L527.077 745.716L600.85 722.662H527.077L522.466 694.997H665.401L660.79 727.273L600.85 750.327H656.18L646.958 837.932L591.628 856.375L536.299 837.932L531.688 791.824H559.353L563.964 814.878L591.628 824.1L619.293 814.878L623.904 777.992Z" fill="white"/>
<path d="M1190.12 872.524L1171.68 641.984H1393L1374.56 872.524L1282.34 900.189L1190.12 872.524Z" fill="#E44D26"/>
<path d="M1374.56 660.428H1282.34V886.357L1356.11 863.303L1374.56 660.428Z" fill="#F16529"/>
<path d="M1222.4 775.698L1213.18 688.093H1356.11L1351.5 715.758H1240.84L1245.45 748.033H1346.89L1337.67 835.638L1282.34 854.082L1227.01 835.638L1222.4 789.53H1250.07L1254.68 812.584L1282.34 821.806L1310.01 812.584L1314.62 775.698H1222.4Z" fill="white"/>
<path fill-rule="evenodd" clip-rule="evenodd" d="M1579.49 645C1559.65 645 1543.56 660.575 1543.56 679.787V703.87H1605.75V710.56H1515.93C1496.09 710.56 1480 726.135 1480 745.347V797.528C1480 816.74 1496.09 832.314 1515.93 832.314H1536.66V802.88C1536.66 783.668 1552.74 768.092 1572.58 768.092H1638.91C1655.7 768.092 1669.31 754.914 1669.31 738.658V679.787C1669.31 660.575 1653.23 645 1633.38 645H1579.49ZM1571.2 687.815C1578.07 687.815 1583.64 682.424 1583.64 675.773C1583.64 669.123 1578.07 663.731 1571.2 663.731C1564.33 663.731 1558.76 669.123 1558.76 675.773C1558.76 682.424 1564.33 687.815 1571.2 687.815Z" fill="url(#paint0_linear_222_7)"/>
<path fill-rule="evenodd" clip-rule="evenodd" d="M1633.38 897.875C1653.22 897.875 1669.31 882.301 1669.31 863.089V839.005H1607.13V832.316H1696.95C1716.79 832.316 1732.87 816.74 1732.87 797.528V745.347C1732.87 726.135 1716.79 710.561 1696.95 710.561H1676.22V739.995C1676.22 759.208 1660.13 774.783 1640.29 774.783H1573.96C1557.17 774.783 1543.56 787.961 1543.56 804.218V863.089C1543.56 882.301 1559.65 897.875 1579.49 897.875H1633.38ZM1641.67 855.061C1634.8 855.061 1629.24 860.451 1629.24 867.102C1629.24 873.753 1634.8 879.143 1641.67 879.143C1648.54 879.143 1654.11 873.753 1654.11 867.102C1654.11 860.451 1648.54 855.061 1641.67 855.061Z" fill="url(#paint1_linear_222_7)"/>
</g>
<defs>
<linearGradient id="paint0_linear_222_7" x1="1574.66" y1="645" x2="1574.66" y2="832.314" gradientUnits="userSpaceOnUse">
<stop stop-color="#327EBD"/>
<stop offset="1" stop-color="#1565A7"/>
</linearGradient>
<linearGradient id="paint1_linear_222_7" x1="1638.22" y1="710.561" x2="1638.22" y2="897.875" gradientUnits="userSpaceOnUse">
<stop stop-color="#FFDA4B"/>
<stop offset="1" stop-color="#F9C600"/>
</linearGradient>
<clipPath id="clip0_222_7">
<rect width="1920" height="1080" fill="white"/>
</clipPath>
</defs>
</svg>
