<svg width="1920" height="1080" viewBox="0 0 1920 1080" fill="none" xmlns="http://www.w3.org/2000/svg">
<g clip-path="url(#clip0_222_459)">
<rect width="1920" height="1080" fill="#151515"/>
<path d="M603.359 260.293C598.672 260.293 596.328 259.023 596.328 256.484V143.691C596.328 141.868 596.751 140.566 597.598 139.785C598.444 138.939 599.779 138.516 601.602 138.516H630.801C644.668 138.516 655.085 140.957 662.051 145.84C669.082 150.723 672.598 158.503 672.598 169.18C672.598 176.406 670.84 182.493 667.324 187.441C663.874 192.324 658.991 196.003 652.676 198.477V199.16C656.061 200.332 658.828 202.611 660.977 205.996C663.19 209.316 665.632 214.264 668.301 220.84L681.875 255.117C682.201 256.289 682.363 257.103 682.363 257.559C682.363 259.382 679.922 260.293 675.039 260.293H673.281C671.523 260.293 669.993 260.065 668.691 259.609C667.454 259.089 666.673 258.405 666.348 257.559L653.164 223.477C651.471 219.049 649.486 215.599 647.207 213.125C644.928 210.651 642.227 208.926 639.102 207.949C635.977 206.973 632.038 206.484 627.285 206.484H611.66V256.484C611.66 259.023 609.349 260.293 604.727 260.293H603.359ZM634.512 193.301C638.613 193.301 642.357 192.324 645.742 190.371C649.193 188.418 651.895 185.814 653.848 182.559C655.866 179.238 656.875 175.723 656.875 172.012C656.875 165.176 654.792 160.098 650.625 156.777C646.458 153.392 640.697 151.699 633.34 151.699H611.66V193.301H634.512ZM707.656 260C705.833 260 704.499 259.577 703.652 258.73C702.806 257.884 702.383 256.582 702.383 254.824V143.691C702.383 141.868 702.806 140.566 703.652 139.785C704.499 138.939 705.833 138.516 707.656 138.516H768.203C769.44 138.516 770.319 138.906 770.84 139.688C771.426 140.469 771.719 141.803 771.719 143.691V146.523C771.719 148.281 771.426 149.583 770.84 150.43C770.319 151.276 769.44 151.699 768.203 151.699H717.715V191.25H763.027C764.264 191.25 765.143 191.673 765.664 192.52C766.25 193.366 766.543 194.701 766.543 196.523V199.16C766.543 200.983 766.25 202.318 765.664 203.164C765.143 203.945 764.264 204.336 763.027 204.336H717.715V246.816H768.398C769.635 246.816 770.514 247.24 771.035 248.086C771.621 248.867 771.914 250.169 771.914 251.992V254.824C771.914 256.582 771.621 257.884 771.035 258.73C770.514 259.577 769.635 260 768.398 260H707.656ZM802.578 260C800.755 260 799.421 259.577 798.574 258.73C797.728 257.884 797.305 256.582 797.305 254.824V143.691C797.305 141.868 797.728 140.566 798.574 139.785C799.421 138.939 800.755 138.516 802.578 138.516H837.637C853.913 138.516 866.934 143.333 876.699 152.969C886.465 162.604 891.348 178.001 891.348 199.16C891.348 220.449 886.465 235.911 876.699 245.547C866.934 255.182 853.913 260 837.637 260H802.578ZM836.465 246.816C848.184 246.816 857.624 243.008 864.785 235.391C871.947 227.708 875.527 215.632 875.527 199.16C875.527 188.092 873.835 179.043 870.449 172.012C867.064 164.915 862.441 159.772 856.582 156.582C850.723 153.327 844.017 151.699 836.465 151.699H812.637V246.816H836.465ZM923.281 260C921.458 260 920.124 259.577 919.277 258.73C918.431 257.884 918.008 256.582 918.008 254.824V143.691C918.008 141.868 918.431 140.566 919.277 139.785C920.124 138.939 921.458 138.516 923.281 138.516H983.828C985.065 138.516 985.944 138.906 986.465 139.688C987.051 140.469 987.344 141.803 987.344 143.691V146.523C987.344 148.281 987.051 149.583 986.465 150.43C985.944 151.276 985.065 151.699 983.828 151.699H933.34V191.25H978.652C979.889 191.25 980.768 191.673 981.289 192.52C981.875 193.366 982.168 194.701 982.168 196.523V199.16C982.168 200.983 981.875 202.318 981.289 203.164C980.768 203.945 979.889 204.336 978.652 204.336H933.34V246.816H984.023C985.26 246.816 986.139 247.24 986.66 248.086C987.246 248.867 987.539 250.169 987.539 251.992V254.824C987.539 256.582 987.246 257.884 986.66 258.73C986.139 259.577 985.26 260 984.023 260H923.281ZM1038.52 260.977C1032.14 260.977 1026.18 260.293 1020.64 258.926C1015.18 257.493 1010.78 255.801 1007.46 253.848C1004.21 251.829 1002.58 250.007 1002.58 248.379C1002.58 247.467 1002.94 246.263 1003.65 244.766C1004.43 243.268 1005.31 241.934 1006.29 240.762C1007.27 239.59 1008.05 239.004 1008.63 239.004C1009.15 239.004 1010.29 239.525 1012.05 240.566C1016.09 242.65 1020.09 244.375 1024.06 245.742C1028.03 247.109 1032.85 247.793 1038.52 247.793C1042.94 247.793 1046.88 246.947 1050.33 245.254C1053.78 243.561 1056.45 241.185 1058.34 238.125C1060.29 235 1061.27 231.419 1061.27 227.383C1061.27 223.086 1060.1 219.538 1057.75 216.738C1055.48 213.874 1052.68 211.628 1049.36 210C1046.1 208.307 1041.35 206.224 1035.1 203.75C1028.33 201.146 1022.96 198.737 1018.98 196.523C1015.08 194.245 1011.73 190.957 1008.93 186.66C1006.19 182.363 1004.82 176.667 1004.82 169.57C1004.82 163.385 1006.42 157.852 1009.61 152.969C1012.8 148.021 1017.32 144.18 1023.18 141.445C1029.04 138.711 1035.78 137.344 1043.4 137.344C1046.85 137.344 1050.79 137.832 1055.21 138.809C1059.64 139.72 1063.42 140.99 1066.54 142.617C1069.73 144.245 1071.33 146.035 1071.33 147.988C1071.33 148.835 1070.97 150.007 1070.25 151.504C1069.6 152.936 1068.82 154.238 1067.91 155.41C1067 156.582 1066.28 157.168 1065.76 157.168C1065.18 157.168 1064 156.68 1062.25 155.703C1059.32 154.141 1056.42 152.904 1053.55 151.992C1050.69 151.016 1047.21 150.527 1043.11 150.527C1036.4 150.527 1030.96 152.253 1026.8 155.703C1022.7 159.154 1020.64 163.971 1020.64 170.156C1020.64 173.867 1021.56 176.927 1023.38 179.336C1025.2 181.745 1027.51 183.665 1030.31 185.098C1033.11 186.53 1037.02 188.19 1042.03 190.078C1042.36 190.143 1043.11 190.404 1044.28 190.859C1051.18 193.529 1056.81 196.133 1061.17 198.672C1065.6 201.146 1069.34 204.727 1072.4 209.414C1075.53 214.102 1077.09 220.091 1077.09 227.383C1077.09 234.219 1075.49 240.176 1072.3 245.254C1069.18 250.332 1064.69 254.238 1058.83 256.973C1053.03 259.642 1046.26 260.977 1038.52 260.977ZM1146.91 260C1145.09 260 1143.76 259.577 1142.91 258.73C1142.06 257.884 1141.64 256.582 1141.64 254.824V143.691C1141.64 141.868 1142.06 140.566 1142.91 139.785C1143.76 138.939 1145.09 138.516 1146.91 138.516H1181.97C1198.25 138.516 1211.27 143.333 1221.04 152.969C1230.8 162.604 1235.68 178.001 1235.68 199.16C1235.68 220.449 1230.8 235.911 1221.04 245.547C1211.27 255.182 1198.25 260 1181.97 260H1146.91ZM1180.8 246.816C1192.52 246.816 1201.96 243.008 1209.12 235.391C1216.28 227.708 1219.86 215.632 1219.86 199.16C1219.86 188.092 1218.17 179.043 1214.79 172.012C1211.4 164.915 1206.78 159.772 1200.92 156.582C1195.06 153.327 1188.35 151.699 1180.8 151.699H1156.97V246.816H1180.8ZM1267.62 260C1265.79 260 1264.46 259.577 1263.61 258.73C1262.77 257.884 1262.34 256.582 1262.34 254.824V143.691C1262.34 141.868 1262.77 140.566 1263.61 139.785C1264.46 138.939 1265.79 138.516 1267.62 138.516H1328.16C1329.4 138.516 1330.28 138.906 1330.8 139.688C1331.39 140.469 1331.68 141.803 1331.68 143.691V146.523C1331.68 148.281 1331.39 149.583 1330.8 150.43C1330.28 151.276 1329.4 151.699 1328.16 151.699H1277.68V191.25H1322.99C1324.23 191.25 1325.1 191.673 1325.62 192.52C1326.21 193.366 1326.5 194.701 1326.5 196.523V199.16C1326.5 200.983 1326.21 202.318 1325.62 203.164C1325.1 203.945 1324.23 204.336 1322.99 204.336H1277.68V246.816H1328.36C1329.6 246.816 1330.48 247.24 1331 248.086C1331.58 248.867 1331.88 250.169 1331.88 251.992V254.824C1331.88 256.582 1331.58 257.884 1331 258.73C1330.48 259.577 1329.6 260 1328.36 260H1267.62ZM358.926 495.977C339.915 495.977 325.853 490.964 316.738 480.938C307.624 470.911 303.066 455.319 303.066 434.16C303.066 392.949 321.784 372.344 359.219 372.344C364.688 372.344 369.993 372.93 375.137 374.102C380.28 375.208 384.447 376.608 387.637 378.301C390.827 379.993 392.422 381.621 392.422 383.184C392.422 384.16 392.064 385.462 391.348 387.09C390.697 388.717 389.915 390.15 389.004 391.387C388.092 392.624 387.279 393.242 386.562 393.242C386.237 393.242 385.326 392.819 383.828 391.973C380.443 390.15 376.895 388.62 373.184 387.383C369.473 386.146 364.948 385.527 359.609 385.527C345.612 385.527 335.293 389.434 328.652 397.246C322.077 404.993 318.789 417.363 318.789 434.355C318.789 450.957 322.044 463.197 328.555 471.074C335.13 478.887 345.254 482.793 358.926 482.793C364.655 482.793 369.57 482.109 373.672 480.742C377.773 479.375 381.712 477.682 385.488 475.664C387.311 474.688 388.418 474.199 388.809 474.199C389.525 474.199 390.339 474.818 391.25 476.055C392.227 477.292 393.073 478.691 393.789 480.254C394.505 481.751 394.863 482.826 394.863 483.477C394.863 485.104 393.203 486.927 389.883 488.945C386.628 490.898 382.233 492.559 376.699 493.926C371.23 495.293 365.306 495.977 358.926 495.977ZM464.102 495.977C446.719 495.977 433.47 490.703 424.355 480.156C415.241 469.609 410.684 454.18 410.684 433.867C410.684 413.62 415.208 398.32 424.258 387.969C433.372 377.552 446.654 372.344 464.102 372.344C481.615 372.344 494.928 377.552 504.043 387.969C513.158 398.32 517.715 413.62 517.715 433.867C517.715 454.18 513.158 469.609 504.043 480.156C494.928 490.703 481.615 495.977 464.102 495.977ZM464.102 482.793C476.341 482.793 485.716 478.626 492.227 470.293C498.737 461.895 501.992 449.753 501.992 433.867C501.992 417.982 498.737 405.97 492.227 397.832C485.781 389.629 476.406 385.527 464.102 385.527C451.862 385.527 442.52 389.629 436.074 397.832C429.629 405.97 426.406 417.982 426.406 433.867C426.406 449.818 429.629 461.96 436.074 470.293C442.52 478.626 451.862 482.793 464.102 482.793ZM550.332 495.293C547.858 495.293 546.068 495 544.961 494.414C543.854 493.763 543.301 492.786 543.301 491.484V376.934C543.301 374.329 545.645 373.027 550.332 373.027H556.484C560.326 373.027 562.767 374.102 563.809 376.25L596.621 433.184L601.113 444.121L605.605 434.16L638.516 376.25C639.622 374.102 642.031 373.027 645.742 373.027H651.504C656.126 373.027 658.438 374.329 658.438 376.934V491.484C658.438 494.023 656.126 495.293 651.504 495.293H650.332C647.858 495.293 646.068 495 644.961 494.414C643.854 493.763 643.301 492.786 643.301 491.484V398.027L643.008 398.809L608.438 458.867C607.982 459.648 607.461 460.234 606.875 460.625C606.289 460.951 605.54 461.113 604.629 461.113H597.695C595.938 461.113 594.635 460.365 593.789 458.867L558.438 397.051V491.484C558.438 494.023 556.126 495.293 551.504 495.293H550.332ZM695.645 495.293C693.236 495.293 691.478 495 690.371 494.414C689.329 493.763 688.809 492.786 688.809 491.484V378.691C688.809 376.803 689.199 375.469 689.98 374.688C690.827 373.906 692.161 373.516 693.984 373.516H729.141C739.297 373.516 748.281 375.957 756.094 380.84C763.971 385.658 767.91 394.544 767.91 407.5C767.91 417.135 765.664 424.622 761.172 429.961C756.68 435.234 751.634 438.783 746.035 440.605C740.436 442.363 735.391 443.242 730.898 443.242H703.945V491.484C703.945 492.786 703.392 493.763 702.285 494.414C701.178 495 699.453 495.293 697.109 495.293H695.645ZM731.094 430.059C734.023 430.059 737.083 429.44 740.273 428.203C743.464 426.901 746.23 424.59 748.574 421.27C750.918 417.884 752.09 413.294 752.09 407.5C752.09 399.753 749.779 394.349 745.156 391.289C740.599 388.229 735.098 386.699 728.652 386.699H703.945V430.059H731.094ZM834.805 495.977C824.714 495.977 816.12 494.414 809.023 491.289C801.927 488.099 796.556 483.509 792.91 477.52C789.264 471.53 787.441 464.368 787.441 456.035V376.934C787.441 374.329 789.753 373.027 794.375 373.027H795.742C800.365 373.027 802.676 374.329 802.676 376.934V456.621C802.676 461.699 804.076 466.224 806.875 470.195C809.674 474.167 813.516 477.259 818.398 479.473C823.281 481.686 828.75 482.793 834.805 482.793C840.924 482.793 846.426 481.686 851.309 479.473C856.191 477.194 860 474.069 862.734 470.098C865.534 466.126 866.934 461.634 866.934 456.621V376.934C866.934 374.329 869.245 373.027 873.867 373.027H875.332C879.889 373.027 882.168 374.329 882.168 376.934V456.035C882.168 464.368 880.345 471.53 876.699 477.52C873.053 483.509 867.682 488.099 860.586 491.289C853.49 494.414 844.896 495.977 834.805 495.977ZM943.887 495.293C941.478 495.293 939.72 495 938.613 494.414C937.507 493.763 936.953 492.786 936.953 491.484V386.699H903.555C902.318 386.699 901.439 386.276 900.918 385.43C900.397 384.583 900.137 383.281 900.137 381.523V378.691C900.137 376.868 900.397 375.566 900.918 374.785C901.439 373.939 902.318 373.516 903.555 373.516H985C986.237 373.516 987.116 373.939 987.637 374.785C988.158 375.566 988.418 376.868 988.418 378.691V381.523C988.418 383.281 988.158 384.583 987.637 385.43C987.116 386.276 986.237 386.699 985 386.699H952.285V491.484C952.285 494.023 949.941 495.293 945.254 495.293H943.887ZM994.473 495.293C991.868 495.293 989.98 495.065 988.809 494.609C987.637 494.089 987.051 493.34 987.051 492.363C987.051 491.908 987.214 491.126 987.539 490.02L1028.65 375.859C1029.3 373.971 1031.61 373.027 1035.59 373.027H1040.66C1044.64 373.027 1046.95 373.971 1047.6 375.859L1088.71 490.117C1089.04 490.833 1089.2 491.582 1089.2 492.363C1089.2 494.316 1086.76 495.293 1081.88 495.293H1080.41C1076.37 495.293 1074.03 494.382 1073.38 492.559L1063.22 464.043H1012.25L1002.29 492.559C1001.7 494.382 999.388 495.293 995.352 495.293H994.473ZM1058.54 450.859L1040.37 399.199C1039.85 397.767 1039.43 396.139 1039.1 394.316C1038.78 392.493 1038.48 390.736 1038.22 389.043H1037.83C1037.05 393.405 1036.17 396.79 1035.2 399.199L1017.03 450.859H1058.54ZM1113.42 495C1111.6 495 1110.26 494.577 1109.41 493.73C1108.57 492.884 1108.14 491.582 1108.14 489.824V378.691C1108.14 376.868 1108.57 375.566 1109.41 374.785C1110.26 373.939 1111.6 373.516 1113.42 373.516H1148.48C1164.75 373.516 1177.77 378.333 1187.54 387.969C1197.3 397.604 1202.19 413.001 1202.19 434.16C1202.19 455.449 1197.3 470.911 1187.54 480.547C1177.77 490.182 1164.75 495 1148.48 495H1113.42ZM1147.3 481.816C1159.02 481.816 1168.46 478.008 1175.62 470.391C1182.79 462.708 1186.37 450.632 1186.37 434.16C1186.37 423.092 1184.67 414.043 1181.29 407.012C1177.9 399.915 1173.28 394.772 1167.42 391.582C1161.56 388.327 1154.86 386.699 1147.3 386.699H1123.48V481.816H1147.3ZM1275.43 495.977C1258.05 495.977 1244.8 490.703 1235.68 480.156C1226.57 469.609 1222.01 454.18 1222.01 433.867C1222.01 413.62 1226.54 398.32 1235.59 387.969C1244.7 377.552 1257.98 372.344 1275.43 372.344C1292.94 372.344 1306.26 377.552 1315.37 387.969C1324.49 398.32 1329.04 413.62 1329.04 433.867C1329.04 454.18 1324.49 469.609 1315.37 480.156C1306.26 490.703 1292.94 495.977 1275.43 495.977ZM1275.43 482.793C1287.67 482.793 1297.04 478.626 1303.55 470.293C1310.07 461.895 1313.32 449.753 1313.32 433.867C1313.32 417.982 1310.07 405.97 1303.55 397.832C1297.11 389.629 1287.73 385.527 1275.43 385.527C1263.19 385.527 1253.85 389.629 1247.4 397.832C1240.96 405.97 1237.73 417.982 1237.73 433.867C1237.73 449.818 1240.96 461.96 1247.4 470.293C1253.85 478.626 1263.19 482.793 1275.43 482.793ZM1362.83 495.293C1358.14 495.293 1355.8 494.023 1355.8 491.484V378.691C1355.8 376.868 1356.22 375.566 1357.07 374.785C1357.92 373.939 1359.25 373.516 1361.07 373.516H1390.27C1404.14 373.516 1414.56 375.957 1421.52 380.84C1428.55 385.723 1432.07 393.503 1432.07 404.18C1432.07 411.406 1430.31 417.493 1426.8 422.441C1423.35 427.324 1418.46 431.003 1412.15 433.477V434.16C1415.53 435.332 1418.3 437.611 1420.45 440.996C1422.66 444.316 1425.1 449.264 1427.77 455.84L1441.35 490.117C1441.67 491.289 1441.84 492.103 1441.84 492.559C1441.84 494.382 1439.39 495.293 1434.51 495.293H1432.75C1431 495.293 1429.47 495.065 1428.16 494.609C1426.93 494.089 1426.15 493.405 1425.82 492.559L1412.64 458.477C1410.94 454.049 1408.96 450.599 1406.68 448.125C1404.4 445.651 1401.7 443.926 1398.57 442.949C1395.45 441.973 1391.51 441.484 1386.76 441.484H1371.13V491.484C1371.13 494.023 1368.82 495.293 1364.2 495.293H1362.83ZM1393.98 428.301C1398.09 428.301 1401.83 427.324 1405.21 425.371C1408.67 423.418 1411.37 420.814 1413.32 417.559C1415.34 414.238 1416.35 410.723 1416.35 407.012C1416.35 400.176 1414.26 395.098 1410.1 391.777C1405.93 388.392 1400.17 386.699 1392.81 386.699H1371.13V428.301H1393.98ZM1467.13 495C1465.31 495 1463.97 494.577 1463.12 493.73C1462.28 492.884 1461.86 491.582 1461.86 489.824V378.691C1461.86 376.868 1462.28 375.566 1463.12 374.785C1463.97 373.939 1465.31 373.516 1467.13 373.516H1527.68C1528.91 373.516 1529.79 373.906 1530.31 374.688C1530.9 375.469 1531.19 376.803 1531.19 378.691V381.523C1531.19 383.281 1530.9 384.583 1530.31 385.43C1529.79 386.276 1528.91 386.699 1527.68 386.699H1477.19V426.25H1522.5C1523.74 426.25 1524.62 426.673 1525.14 427.52C1525.72 428.366 1526.02 429.701 1526.02 431.523V434.16C1526.02 435.983 1525.72 437.318 1525.14 438.164C1524.62 438.945 1523.74 439.336 1522.5 439.336H1477.19V481.816H1527.87C1529.11 481.816 1529.99 482.24 1530.51 483.086C1531.09 483.867 1531.39 485.169 1531.39 486.992V489.824C1531.39 491.582 1531.09 492.884 1530.51 493.73C1529.99 494.577 1529.11 495 1527.87 495H1467.13ZM1582.36 495.977C1575.98 495.977 1570.03 495.293 1564.49 493.926C1559.02 492.493 1554.63 490.801 1551.31 488.848C1548.05 486.829 1546.43 485.007 1546.43 483.379C1546.43 482.467 1546.78 481.263 1547.5 479.766C1548.28 478.268 1549.16 476.934 1550.14 475.762C1551.11 474.59 1551.89 474.004 1552.48 474.004C1553 474.004 1554.14 474.525 1555.9 475.566C1559.93 477.65 1563.94 479.375 1567.91 480.742C1571.88 482.109 1576.7 482.793 1582.36 482.793C1586.79 482.793 1590.73 481.947 1594.18 480.254C1597.63 478.561 1600.3 476.185 1602.19 473.125C1604.14 470 1605.12 466.419 1605.12 462.383C1605.12 458.086 1603.95 454.538 1601.6 451.738C1599.32 448.874 1596.52 446.628 1593.2 445C1589.95 443.307 1585.2 441.224 1578.95 438.75C1572.17 436.146 1566.8 433.737 1562.83 431.523C1558.93 429.245 1555.57 425.957 1552.77 421.66C1550.04 417.363 1548.67 411.667 1548.67 404.57C1548.67 398.385 1550.27 392.852 1553.46 387.969C1556.65 383.021 1561.17 379.18 1567.03 376.445C1572.89 373.711 1579.63 372.344 1587.25 372.344C1590.7 372.344 1594.64 372.832 1599.06 373.809C1603.49 374.72 1607.27 375.99 1610.39 377.617C1613.58 379.245 1615.18 381.035 1615.18 382.988C1615.18 383.835 1614.82 385.007 1614.1 386.504C1613.45 387.936 1612.67 389.238 1611.76 390.41C1610.85 391.582 1610.13 392.168 1609.61 392.168C1609.02 392.168 1607.85 391.68 1606.09 390.703C1603.16 389.141 1600.27 387.904 1597.4 386.992C1594.54 386.016 1591.05 385.527 1586.95 385.527C1580.25 385.527 1574.81 387.253 1570.64 390.703C1566.54 394.154 1564.49 398.971 1564.49 405.156C1564.49 408.867 1565.4 411.927 1567.23 414.336C1569.05 416.745 1571.36 418.665 1574.16 420.098C1576.96 421.53 1580.87 423.19 1585.88 425.078C1586.2 425.143 1586.95 425.404 1588.12 425.859C1595.03 428.529 1600.66 431.133 1605.02 433.672C1609.45 436.146 1613.19 439.727 1616.25 444.414C1619.38 449.102 1620.94 455.091 1620.94 462.383C1620.94 469.219 1619.34 475.176 1616.15 480.254C1613.03 485.332 1608.54 489.238 1602.68 491.973C1596.88 494.642 1590.11 495.977 1582.36 495.977Z" fill="white"/>
<path d="M1312.44 991.663C1261.98 991.663 1215.98 961.802 1195.25 915.598L1193.29 911.213H1080.42V637.422H1429.24V810.157L1429.88 811.591C1437.19 828.081 1440.9 845.497 1440.9 863.349C1440.9 934.101 1383.27 991.663 1312.44 991.663Z" fill="white"/>
<path d="M1436.66 808.584V637.422C1436.66 633.304 1433.33 630 1429.24 630H1080.42C1079.45 629.997 1078.48 630.187 1077.58 630.559C1076.68 630.931 1075.86 631.477 1075.17 632.167C1074.48 632.857 1073.93 633.676 1073.56 634.578C1073.19 635.48 1073 636.446 1073 637.422V911.213C1073 915.301 1076.31 918.634 1080.42 918.634H1188.49C1209.72 965.976 1257.24 999.084 1312.44 999.084C1387.38 999.084 1448.32 938.202 1448.32 863.348C1448.32 843.867 1444.1 825.355 1436.66 808.584Z" fill="#27323A"/>
<path d="M1373.46 642.35H1403.15V672.037H1373.46V642.35ZM1322.15 642.35H1351.84V672.037H1322.15V642.35Z" fill="white"/>
<path d="M1244.54 802.148C1239.7 818.499 1236.8 836.938 1236.22 856.622H1199.17C1200.36 836.647 1206.68 818.065 1216.94 802.148H1244.54ZM1228.36 787.304C1238.31 776.375 1250.31 767.387 1263.79 760.981C1258.4 768.547 1253.7 777.449 1249.73 787.304H1228.36ZM1199.26 871.465H1236.28C1236.92 890.745 1239.81 908.807 1244.63 924.837H1217.09C1207 909.241 1200.65 891.035 1199.26 871.465ZM1228.62 939.681H1249.85C1253.79 949.422 1258.46 958.235 1263.79 965.744C1250.4 959.366 1238.51 950.496 1228.62 939.681ZM1305.02 976.442C1301.59 976.238 1298.23 975.862 1294.87 975.341C1283.74 968.731 1273.88 956.12 1266.31 939.681H1305.02V976.442ZM1305.02 924.837H1260.46C1255.18 909.008 1251.85 890.831 1251.12 871.465H1305.02V924.837ZM1305.02 856.621H1251.06C1251.7 836.88 1255.03 818.268 1260.37 802.148H1305.02V856.621ZM1305.02 787.304H1266.17C1273.76 770.721 1283.68 758.024 1294.87 751.385C1298.23 750.861 1301.62 750.483 1305.02 750.253V787.304Z" fill="#79CCBF"/>
<path d="M1176.58 863.349C1176.58 874.929 1178.21 886.12 1180.95 896.862H1095.12V685.779H1414.78V774.346C1389.84 745.775 1353.27 727.612 1312.44 727.612C1237.52 727.612 1176.58 788.522 1176.58 863.349Z" fill="#F4CE73"/>
<path d="M1319.86 856.622V802.148H1365.03C1370.39 818.268 1373.72 836.88 1374.33 856.622H1319.86ZM1374.3 871.465C1373.58 890.831 1370.22 909.008 1364.94 924.837H1319.86V871.465H1374.3ZM1319.86 787.304V750.254C1323.57 750.485 1327.19 750.921 1330.76 751.501C1341.86 758.169 1351.72 770.837 1359.26 787.304H1319.86ZM1361.9 761.358C1374.99 767.707 1386.74 776.516 1396.51 787.305H1375.7C1371.78 777.622 1367.17 768.866 1361.9 761.358ZM1330.76 975.225C1327.15 975.81 1323.51 976.216 1319.86 976.442V939.681H1359.11C1351.6 956.004 1341.8 968.585 1330.76 975.225ZM1361.9 965.367C1367.11 957.918 1371.69 949.277 1375.58 939.681H1396.28C1386.55 950.347 1374.88 959.064 1361.9 965.367ZM1407.79 924.837H1380.8C1385.58 908.807 1388.48 890.745 1389.15 871.465H1425.65C1424.26 891.035 1417.91 909.241 1407.79 924.837ZM1389.18 856.622C1388.63 836.937 1385.73 818.499 1380.85 802.148H1407.96C1418.22 818.064 1424.54 836.647 1425.7 856.622H1389.18Z" fill="#79CCBF"/>
<path d="M654.729 984.523L516 937.103V660.337L654.729 695.687V984.523Z" fill="#37BBEF"/>
<path d="M654.729 984.523L849.21 881.059V622.4L654.729 695.687V984.523Z" fill="#2481BA"/>
<path d="M516 660.337L654.729 695.687L849.21 622.4L700.367 598L516 660.337Z" fill="#3ED6FF"/>
<path d="M634.331 720.949V755.437L531.04 729.571V695.083L634.331 720.949ZM531.04 741.772L634.331 767.637V763.326L531.04 737.461V741.772ZM531.04 751.687L634.331 777.553V773.242L531.04 747.376V751.687ZM531.04 761.602L634.331 787.468V783.157L531.04 757.291V761.602Z" fill="#D4F7FF"/>
<path d="M537.263 703.49V718.147L628.107 740.995V726.338L537.263 703.49ZM537.263 727.2L628.107 750.048V744.315L537.263 721.467V727.2Z" fill="#113B42"/>
<path d="M654.729 955.985V953.743L579.357 929.903L578.795 931.973L654.729 955.985ZM578.795 919.428L654.729 943.009V940.724L579.357 917.315L578.795 919.428ZM578.795 906.839L654.729 929.99V927.748L579.357 904.727L578.795 906.839ZM654.729 875.714L579.357 854.461L578.795 856.53L654.729 877.956V875.714ZM578.795 869.118L654.729 890.975V888.733L579.357 867.006L578.795 869.118ZM578.795 894.251L654.729 916.97V914.729L579.357 892.182L578.795 894.251ZM578.795 881.706L654.729 903.994V901.709L579.357 879.594L578.795 881.706Z" fill="#0071BC"/>
<path d="M625.341 803.677C621.279 802.212 617.994 804.367 617.994 808.506C617.994 812.644 621.279 817.171 625.341 818.507C629.404 819.844 632.688 817.688 632.688 813.679C632.688 809.67 629.404 805.143 625.341 803.677ZM625.341 830.75C623.656 830.233 622.316 831.181 622.316 832.863C622.316 834.544 623.656 836.355 625.341 836.872C627.027 837.389 628.366 836.441 628.366 834.76C628.366 833.078 626.983 831.311 625.341 830.75Z" fill="white"/>
<path d="M711.085 895.545C711.085 918.411 720.192 940.342 736.402 956.511C752.612 972.681 774.597 981.764 797.521 981.764C820.445 981.764 842.431 972.681 858.64 956.511C874.85 940.342 883.957 918.411 883.957 895.545C883.957 872.678 874.85 850.747 858.64 834.578C842.431 818.409 820.445 809.325 797.521 809.325C774.597 809.325 752.612 818.409 736.402 834.578C720.192 850.747 711.085 872.678 711.085 895.545Z" fill="#37BBEF"/>
<path d="M824.23 813.55C847.351 829.414 861.959 852.607 861.959 878.473C861.959 926.282 812.085 965.038 750.543 965.038C749.074 965.038 747.648 964.995 746.221 964.952C760.57 975.557 778.332 981.808 797.564 981.808C845.32 981.808 884 943.224 884 895.588C883.957 857.22 858.89 824.758 824.23 813.55Z" fill="#3495C6"/>
<path d="M826.304 898.174C826.304 898.174 823.063 896.234 820.902 895.588C818.741 894.941 819.821 891.708 819.821 891.708C819.821 891.708 821.118 893.648 824.791 894.294C828.465 894.941 834.515 895.803 836.244 897.959C837.973 900.114 838.189 901.407 839.053 902.27C839.918 903.132 840.566 905.287 840.566 905.287C840.566 905.287 836.979 904.727 836.244 903.132C835.509 901.537 834.731 899.036 834.083 899.683C833.435 900.33 833.867 902.701 831.49 902.701C829.113 902.701 828.465 900.545 826.736 900.114C825.007 899.683 826.304 898.174 826.304 898.174ZM816.58 853.34L822.63 852.262L825.656 849.029L824.791 846.011L826.088 841.269L824.359 838.683C824.359 838.683 824.359 833.725 822.414 832.863C820.47 832.001 821.118 826.612 821.118 826.612L821.334 825.534L819.173 827.474L820.47 833.078L822.414 838.683L822.63 848.382L818.093 851.184L814.635 855.711L816.58 853.34ZM821.118 842.347L819.821 840.622L818.309 840.838L817.876 843.64L819.389 843.856L821.118 842.347ZM838.189 916.711C838.189 916.711 837.973 912.832 836.244 912.832C834.515 912.832 833.867 908.521 833.867 908.521L830.41 904.856C830.41 904.856 830.41 910.245 830.626 911.107C830.842 911.969 828.249 913.263 827.601 912.832C826.952 912.401 824.575 908.736 824.575 908.736C824.575 908.736 825.526 906.667 824.143 906.796C824.013 906.796 823.927 906.839 823.841 906.839C823.495 906.796 822.933 906.71 821.982 906.581L817.488 906.02L817.012 907.874C817.012 907.874 814.419 910.029 812.906 910.676C811.394 911.323 809.665 917.574 807.72 917.574C805.775 917.574 802.966 917.789 802.966 917.789C802.966 917.789 799.509 923.609 800.589 925.765C801.67 927.92 802.102 930.076 801.886 932.662C801.67 935.249 802.102 934.818 805.775 934.171C809.449 933.524 812.474 928.567 816.58 929.429C820.686 930.291 821.982 934.387 821.982 934.387L825.44 931.369C825.44 931.369 825.007 933.524 824.359 933.74C823.711 933.955 825.007 934.171 825.872 935.68C826.736 937.189 831.447 939.301 837.541 933.524C843.634 927.748 841.43 922.747 841.43 922.747L838.189 916.711ZM743.326 911.538C743.758 907.443 741.381 908.521 741.597 902.701C741.813 896.881 749.808 883.301 749.16 883.301C748.512 883.301 744.838 886.103 743.542 885.888C742.245 885.672 736.627 872.955 736.627 871.015C736.627 869.075 735.114 861.746 735.114 861.746C735.114 861.746 736.843 866.704 738.14 866.92C739.436 867.135 739.868 872.524 740.949 875.11C742.029 877.697 745.487 882.008 747.647 881.792C749.808 881.577 756.507 869.506 756.507 869.506L752.834 867.351L748.944 869.722C748.944 869.722 747.864 867.135 746.567 865.626C745.271 864.117 745.487 860.453 746.351 860.453C747.215 860.453 748.209 862.953 752.618 865.842C757.026 868.73 761.045 865.842 761.909 866.488C762.774 867.135 766.231 869.937 766.447 871.662C766.663 873.386 770.985 885.241 771.633 886.103C772.282 886.966 774.875 883.086 775.955 878.128C777.036 873.17 782.222 870.799 783.95 869.506C785.679 868.213 785.463 871.015 786.544 873.602C787.624 876.188 790.433 877.697 791.73 878.775C793.026 879.853 791.946 883.301 794.107 883.301C796.268 883.301 797.996 879.637 797.996 879.637L796.484 875.542C794.971 871.446 797.132 871.015 799.077 870.153C801.022 869.291 804.479 866.057 806.856 862.393C809.233 858.729 804.911 855.28 803.615 852.047C802.318 848.813 805.127 849.029 806.64 848.813C808.152 848.598 809.665 857.22 809.665 857.22L812.474 855.711C812.474 855.711 811.826 852.909 810.529 850.322C809.233 847.736 812.258 847.736 815.932 843.856C819.605 839.976 817.488 838.122 817.66 833.294C817.833 828.465 813.123 828.983 813.123 828.983C813.123 828.983 812.042 830.707 813.339 824.672C814.635 818.636 823.495 822.085 825.656 821.87C827.341 821.697 829.459 817.516 830.28 815.748C820.167 811.61 809.146 809.325 797.521 809.325C751.364 809.325 713.635 845.408 711.215 890.889C712.252 891.449 713.635 892.053 715.234 892.354C718.692 893.001 717.179 898.39 717.395 901.192C717.611 903.994 718.259 907.012 719.556 909.814C720.852 912.616 719.124 914.34 718.475 916.28C717.827 918.22 719.34 921.238 720.636 921.238C721.933 921.238 718.259 927.92 722.365 934.818C726.471 941.715 732.521 934.171 735.33 924.256C738.14 914.34 742.894 915.634 743.326 911.538ZM799.077 892.785L800.805 896.234L804.479 897.959C804.479 897.959 805.775 892.785 807.936 890.199C810.097 887.612 806.64 885.241 805.127 884.81L799.077 892.785ZM835.034 833.725C835.164 834.156 835.38 834.372 835.38 834.372C835.38 834.372 835.25 834.113 835.034 833.725ZM809.06 903.477C807.936 903.132 806.121 902.615 803.355 901.839C796.44 899.899 798.169 900.545 795.792 899.036C793.415 897.528 795.576 896.881 796.008 894.941C796.44 893.001 793.847 886.75 793.847 886.75L791.254 884.595L790.606 888.474L787.797 889.337L791.254 897.528C791.254 897.528 797.089 902.485 800.762 904.21C802.966 905.244 806.553 904.339 809.06 903.477ZM746.567 926.627C746.567 926.627 750.024 920.376 750.673 917.358C751.321 914.34 750.241 909.598 750.241 909.598C750.241 909.598 745.703 913.047 746.567 913.478C747.431 913.909 745.271 915.849 744.838 919.298C744.406 922.747 746.567 926.627 746.567 926.627ZM833.565 817.171C831.663 819.499 829.113 822.818 829.113 824.025C829.113 825.965 832.138 825.965 832.354 827.474C832.527 828.638 834.299 832.216 835.034 833.725C834.861 833.164 834.775 832.259 835.38 831.138C836.46 829.198 836.676 824.672 835.596 822.732C835.077 821.827 835.725 820.145 836.547 818.593L833.565 817.171ZM811.048 902.701C811.653 902.442 811.999 902.27 811.999 902.27C811.999 902.27 811.567 902.442 811.048 902.701ZM810.313 903.779C809.665 903.52 810.4 903.046 811.091 902.701C810.573 902.916 809.881 903.175 809.103 903.477C810.832 903.994 810.962 904.037 810.313 903.779Z" fill="#D4F7FF"/>
</g>
<defs>
<clipPath id="clip0_222_459">
<rect width="1920" height="1080" fill="white"/>
</clipPath>
</defs>
</svg>
