<svg width="1920" height="1080" viewBox="0 0 1920 1080" fill="none" xmlns="http://www.w3.org/2000/svg">
<g clip-path="url(#clip0_222_24)">
<rect width="1920" height="1080" fill="#E8E8E8"/>
<path d="M603.359 260.293C598.672 260.293 596.328 259.023 596.328 256.484V143.691C596.328 141.868 596.751 140.566 597.598 139.785C598.444 138.939 599.779 138.516 601.602 138.516H630.801C644.668 138.516 655.085 140.957 662.051 145.84C669.082 150.723 672.598 158.503 672.598 169.18C672.598 176.406 670.84 182.493 667.324 187.441C663.874 192.324 658.991 196.003 652.676 198.477V199.16C656.061 200.332 658.828 202.611 660.977 205.996C663.19 209.316 665.632 214.264 668.301 220.84L681.875 255.117C682.201 256.289 682.363 257.103 682.363 257.559C682.363 259.382 679.922 260.293 675.039 260.293H673.281C671.523 260.293 669.993 260.065 668.691 259.609C667.454 259.089 666.673 258.405 666.348 257.559L653.164 223.477C651.471 219.049 649.486 215.599 647.207 213.125C644.928 210.651 642.227 208.926 639.102 207.949C635.977 206.973 632.038 206.484 627.285 206.484H611.66V256.484C611.66 259.023 609.349 260.293 604.727 260.293H603.359ZM634.512 193.301C638.613 193.301 642.357 192.324 645.742 190.371C649.193 188.418 651.895 185.814 653.848 182.559C655.866 179.238 656.875 175.723 656.875 172.012C656.875 165.176 654.792 160.098 650.625 156.777C646.458 153.392 640.697 151.699 633.34 151.699H611.66V193.301H634.512ZM707.656 260C705.833 260 704.499 259.577 703.652 258.73C702.806 257.884 702.383 256.582 702.383 254.824V143.691C702.383 141.868 702.806 140.566 703.652 139.785C704.499 138.939 705.833 138.516 707.656 138.516H768.203C769.44 138.516 770.319 138.906 770.84 139.688C771.426 140.469 771.719 141.803 771.719 143.691V146.523C771.719 148.281 771.426 149.583 770.84 150.43C770.319 151.276 769.44 151.699 768.203 151.699H717.715V191.25H763.027C764.264 191.25 765.143 191.673 765.664 192.52C766.25 193.366 766.543 194.701 766.543 196.523V199.16C766.543 200.983 766.25 202.318 765.664 203.164C765.143 203.945 764.264 204.336 763.027 204.336H717.715V246.816H768.398C769.635 246.816 770.514 247.24 771.035 248.086C771.621 248.867 771.914 250.169 771.914 251.992V254.824C771.914 256.582 771.621 257.884 771.035 258.73C770.514 259.577 769.635 260 768.398 260H707.656ZM802.578 260C800.755 260 799.421 259.577 798.574 258.73C797.728 257.884 797.305 256.582 797.305 254.824V143.691C797.305 141.868 797.728 140.566 798.574 139.785C799.421 138.939 800.755 138.516 802.578 138.516H837.637C853.913 138.516 866.934 143.333 876.699 152.969C886.465 162.604 891.348 178.001 891.348 199.16C891.348 220.449 886.465 235.911 876.699 245.547C866.934 255.182 853.913 260 837.637 260H802.578ZM836.465 246.816C848.184 246.816 857.624 243.008 864.785 235.391C871.947 227.708 875.527 215.632 875.527 199.16C875.527 188.092 873.835 179.043 870.449 172.012C867.064 164.915 862.441 159.772 856.582 156.582C850.723 153.327 844.017 151.699 836.465 151.699H812.637V246.816H836.465ZM923.281 260C921.458 260 920.124 259.577 919.277 258.73C918.431 257.884 918.008 256.582 918.008 254.824V143.691C918.008 141.868 918.431 140.566 919.277 139.785C920.124 138.939 921.458 138.516 923.281 138.516H983.828C985.065 138.516 985.944 138.906 986.465 139.688C987.051 140.469 987.344 141.803 987.344 143.691V146.523C987.344 148.281 987.051 149.583 986.465 150.43C985.944 151.276 985.065 151.699 983.828 151.699H933.34V191.25H978.652C979.889 191.25 980.768 191.673 981.289 192.52C981.875 193.366 982.168 194.701 982.168 196.523V199.16C982.168 200.983 981.875 202.318 981.289 203.164C980.768 203.945 979.889 204.336 978.652 204.336H933.34V246.816H984.023C985.26 246.816 986.139 247.24 986.66 248.086C987.246 248.867 987.539 250.169 987.539 251.992V254.824C987.539 256.582 987.246 257.884 986.66 258.73C986.139 259.577 985.26 260 984.023 260H923.281ZM1038.52 260.977C1032.14 260.977 1026.18 260.293 1020.64 258.926C1015.18 257.493 1010.78 255.801 1007.46 253.848C1004.21 251.829 1002.58 250.007 1002.58 248.379C1002.58 247.467 1002.94 246.263 1003.65 244.766C1004.43 243.268 1005.31 241.934 1006.29 240.762C1007.27 239.59 1008.05 239.004 1008.63 239.004C1009.15 239.004 1010.29 239.525 1012.05 240.566C1016.09 242.65 1020.09 244.375 1024.06 245.742C1028.03 247.109 1032.85 247.793 1038.52 247.793C1042.94 247.793 1046.88 246.947 1050.33 245.254C1053.78 243.561 1056.45 241.185 1058.34 238.125C1060.29 235 1061.27 231.419 1061.27 227.383C1061.27 223.086 1060.1 219.538 1057.75 216.738C1055.48 213.874 1052.68 211.628 1049.36 210C1046.1 208.307 1041.35 206.224 1035.1 203.75C1028.33 201.146 1022.96 198.737 1018.98 196.523C1015.08 194.245 1011.73 190.957 1008.93 186.66C1006.19 182.363 1004.82 176.667 1004.82 169.57C1004.82 163.385 1006.42 157.852 1009.61 152.969C1012.8 148.021 1017.32 144.18 1023.18 141.445C1029.04 138.711 1035.78 137.344 1043.4 137.344C1046.85 137.344 1050.79 137.832 1055.21 138.809C1059.64 139.72 1063.42 140.99 1066.54 142.617C1069.73 144.245 1071.33 146.035 1071.33 147.988C1071.33 148.835 1070.97 150.007 1070.25 151.504C1069.6 152.936 1068.82 154.238 1067.91 155.41C1067 156.582 1066.28 157.168 1065.76 157.168C1065.18 157.168 1064 156.68 1062.25 155.703C1059.32 154.141 1056.42 152.904 1053.55 151.992C1050.69 151.016 1047.21 150.527 1043.11 150.527C1036.4 150.527 1030.96 152.253 1026.8 155.703C1022.7 159.154 1020.64 163.971 1020.64 170.156C1020.64 173.867 1021.56 176.927 1023.38 179.336C1025.2 181.745 1027.51 183.665 1030.31 185.098C1033.11 186.53 1037.02 188.19 1042.03 190.078C1042.36 190.143 1043.11 190.404 1044.28 190.859C1051.18 193.529 1056.81 196.133 1061.17 198.672C1065.6 201.146 1069.34 204.727 1072.4 209.414C1075.53 214.102 1077.09 220.091 1077.09 227.383C1077.09 234.219 1075.49 240.176 1072.3 245.254C1069.18 250.332 1064.69 254.238 1058.83 256.973C1053.03 259.642 1046.26 260.977 1038.52 260.977ZM1146.91 260C1145.09 260 1143.76 259.577 1142.91 258.73C1142.06 257.884 1141.64 256.582 1141.64 254.824V143.691C1141.64 141.868 1142.06 140.566 1142.91 139.785C1143.76 138.939 1145.09 138.516 1146.91 138.516H1181.97C1198.25 138.516 1211.27 143.333 1221.04 152.969C1230.8 162.604 1235.68 178.001 1235.68 199.16C1235.68 220.449 1230.8 235.911 1221.04 245.547C1211.27 255.182 1198.25 260 1181.97 260H1146.91ZM1180.8 246.816C1192.52 246.816 1201.96 243.008 1209.12 235.391C1216.28 227.708 1219.86 215.632 1219.86 199.16C1219.86 188.092 1218.17 179.043 1214.79 172.012C1211.4 164.915 1206.78 159.772 1200.92 156.582C1195.06 153.327 1188.35 151.699 1180.8 151.699H1156.97V246.816H1180.8ZM1267.62 260C1265.79 260 1264.46 259.577 1263.61 258.73C1262.77 257.884 1262.34 256.582 1262.34 254.824V143.691C1262.34 141.868 1262.77 140.566 1263.61 139.785C1264.46 138.939 1265.79 138.516 1267.62 138.516H1328.16C1329.4 138.516 1330.28 138.906 1330.8 139.688C1331.39 140.469 1331.68 141.803 1331.68 143.691V146.523C1331.68 148.281 1331.39 149.583 1330.8 150.43C1330.28 151.276 1329.4 151.699 1328.16 151.699H1277.68V191.25H1322.99C1324.23 191.25 1325.1 191.673 1325.62 192.52C1326.21 193.366 1326.5 194.701 1326.5 196.523V199.16C1326.5 200.983 1326.21 202.318 1325.62 203.164C1325.1 203.945 1324.23 204.336 1322.99 204.336H1277.68V246.816H1328.36C1329.6 246.816 1330.48 247.24 1331 248.086C1331.58 248.867 1331.88 250.169 1331.88 251.992V254.824C1331.88 256.582 1331.58 257.884 1331 258.73C1330.48 259.577 1329.6 260 1328.36 260H1267.62ZM358.926 495.977C339.915 495.977 325.853 490.964 316.738 480.938C307.624 470.911 303.066 455.319 303.066 434.16C303.066 392.949 321.784 372.344 359.219 372.344C364.688 372.344 369.993 372.93 375.137 374.102C380.28 375.208 384.447 376.608 387.637 378.301C390.827 379.993 392.422 381.621 392.422 383.184C392.422 384.16 392.064 385.462 391.348 387.09C390.697 388.717 389.915 390.15 389.004 391.387C388.092 392.624 387.279 393.242 386.562 393.242C386.237 393.242 385.326 392.819 383.828 391.973C380.443 390.15 376.895 388.62 373.184 387.383C369.473 386.146 364.948 385.527 359.609 385.527C345.612 385.527 335.293 389.434 328.652 397.246C322.077 404.993 318.789 417.363 318.789 434.355C318.789 450.957 322.044 463.197 328.555 471.074C335.13 478.887 345.254 482.793 358.926 482.793C364.655 482.793 369.57 482.109 373.672 480.742C377.773 479.375 381.712 477.682 385.488 475.664C387.311 474.688 388.418 474.199 388.809 474.199C389.525 474.199 390.339 474.818 391.25 476.055C392.227 477.292 393.073 478.691 393.789 480.254C394.505 481.751 394.863 482.826 394.863 483.477C394.863 485.104 393.203 486.927 389.883 488.945C386.628 490.898 382.233 492.559 376.699 493.926C371.23 495.293 365.306 495.977 358.926 495.977ZM464.102 495.977C446.719 495.977 433.47 490.703 424.355 480.156C415.241 469.609 410.684 454.18 410.684 433.867C410.684 413.62 415.208 398.32 424.258 387.969C433.372 377.552 446.654 372.344 464.102 372.344C481.615 372.344 494.928 377.552 504.043 387.969C513.158 398.32 517.715 413.62 517.715 433.867C517.715 454.18 513.158 469.609 504.043 480.156C494.928 490.703 481.615 495.977 464.102 495.977ZM464.102 482.793C476.341 482.793 485.716 478.626 492.227 470.293C498.737 461.895 501.992 449.753 501.992 433.867C501.992 417.982 498.737 405.97 492.227 397.832C485.781 389.629 476.406 385.527 464.102 385.527C451.862 385.527 442.52 389.629 436.074 397.832C429.629 405.97 426.406 417.982 426.406 433.867C426.406 449.818 429.629 461.96 436.074 470.293C442.52 478.626 451.862 482.793 464.102 482.793ZM550.332 495.293C547.858 495.293 546.068 495 544.961 494.414C543.854 493.763 543.301 492.786 543.301 491.484V376.934C543.301 374.329 545.645 373.027 550.332 373.027H556.484C560.326 373.027 562.767 374.102 563.809 376.25L596.621 433.184L601.113 444.121L605.605 434.16L638.516 376.25C639.622 374.102 642.031 373.027 645.742 373.027H651.504C656.126 373.027 658.438 374.329 658.438 376.934V491.484C658.438 494.023 656.126 495.293 651.504 495.293H650.332C647.858 495.293 646.068 495 644.961 494.414C643.854 493.763 643.301 492.786 643.301 491.484V398.027L643.008 398.809L608.438 458.867C607.982 459.648 607.461 460.234 606.875 460.625C606.289 460.951 605.54 461.113 604.629 461.113H597.695C595.938 461.113 594.635 460.365 593.789 458.867L558.438 397.051V491.484C558.438 494.023 556.126 495.293 551.504 495.293H550.332ZM695.645 495.293C693.236 495.293 691.478 495 690.371 494.414C689.329 493.763 688.809 492.786 688.809 491.484V378.691C688.809 376.803 689.199 375.469 689.98 374.688C690.827 373.906 692.161 373.516 693.984 373.516H729.141C739.297 373.516 748.281 375.957 756.094 380.84C763.971 385.658 767.91 394.544 767.91 407.5C767.91 417.135 765.664 424.622 761.172 429.961C756.68 435.234 751.634 438.783 746.035 440.605C740.436 442.363 735.391 443.242 730.898 443.242H703.945V491.484C703.945 492.786 703.392 493.763 702.285 494.414C701.178 495 699.453 495.293 697.109 495.293H695.645ZM731.094 430.059C734.023 430.059 737.083 429.44 740.273 428.203C743.464 426.901 746.23 424.59 748.574 421.27C750.918 417.884 752.09 413.294 752.09 407.5C752.09 399.753 749.779 394.349 745.156 391.289C740.599 388.229 735.098 386.699 728.652 386.699H703.945V430.059H731.094ZM834.805 495.977C824.714 495.977 816.12 494.414 809.023 491.289C801.927 488.099 796.556 483.509 792.91 477.52C789.264 471.53 787.441 464.368 787.441 456.035V376.934C787.441 374.329 789.753 373.027 794.375 373.027H795.742C800.365 373.027 802.676 374.329 802.676 376.934V456.621C802.676 461.699 804.076 466.224 806.875 470.195C809.674 474.167 813.516 477.259 818.398 479.473C823.281 481.686 828.75 482.793 834.805 482.793C840.924 482.793 846.426 481.686 851.309 479.473C856.191 477.194 860 474.069 862.734 470.098C865.534 466.126 866.934 461.634 866.934 456.621V376.934C866.934 374.329 869.245 373.027 873.867 373.027H875.332C879.889 373.027 882.168 374.329 882.168 376.934V456.035C882.168 464.368 880.345 471.53 876.699 477.52C873.053 483.509 867.682 488.099 860.586 491.289C853.49 494.414 844.896 495.977 834.805 495.977ZM943.887 495.293C941.478 495.293 939.72 495 938.613 494.414C937.507 493.763 936.953 492.786 936.953 491.484V386.699H903.555C902.318 386.699 901.439 386.276 900.918 385.43C900.397 384.583 900.137 383.281 900.137 381.523V378.691C900.137 376.868 900.397 375.566 900.918 374.785C901.439 373.939 902.318 373.516 903.555 373.516H985C986.237 373.516 987.116 373.939 987.637 374.785C988.158 375.566 988.418 376.868 988.418 378.691V381.523C988.418 383.281 988.158 384.583 987.637 385.43C987.116 386.276 986.237 386.699 985 386.699H952.285V491.484C952.285 494.023 949.941 495.293 945.254 495.293H943.887ZM994.473 495.293C991.868 495.293 989.98 495.065 988.809 494.609C987.637 494.089 987.051 493.34 987.051 492.363C987.051 491.908 987.214 491.126 987.539 490.02L1028.65 375.859C1029.3 373.971 1031.61 373.027 1035.59 373.027H1040.66C1044.64 373.027 1046.95 373.971 1047.6 375.859L1088.71 490.117C1089.04 490.833 1089.2 491.582 1089.2 492.363C1089.2 494.316 1086.76 495.293 1081.88 495.293H1080.41C1076.37 495.293 1074.03 494.382 1073.38 492.559L1063.22 464.043H1012.25L1002.29 492.559C1001.7 494.382 999.388 495.293 995.352 495.293H994.473ZM1058.54 450.859L1040.37 399.199C1039.85 397.767 1039.43 396.139 1039.1 394.316C1038.78 392.493 1038.48 390.736 1038.22 389.043H1037.83C1037.05 393.405 1036.17 396.79 1035.2 399.199L1017.03 450.859H1058.54ZM1113.42 495C1111.6 495 1110.26 494.577 1109.41 493.73C1108.57 492.884 1108.14 491.582 1108.14 489.824V378.691C1108.14 376.868 1108.57 375.566 1109.41 374.785C1110.26 373.939 1111.6 373.516 1113.42 373.516H1148.48C1164.75 373.516 1177.77 378.333 1187.54 387.969C1197.3 397.604 1202.19 413.001 1202.19 434.16C1202.19 455.449 1197.3 470.911 1187.54 480.547C1177.77 490.182 1164.75 495 1148.48 495H1113.42ZM1147.3 481.816C1159.02 481.816 1168.46 478.008 1175.62 470.391C1182.79 462.708 1186.37 450.632 1186.37 434.16C1186.37 423.092 1184.67 414.043 1181.29 407.012C1177.9 399.915 1173.28 394.772 1167.42 391.582C1161.56 388.327 1154.86 386.699 1147.3 386.699H1123.48V481.816H1147.3ZM1275.43 495.977C1258.05 495.977 1244.8 490.703 1235.68 480.156C1226.57 469.609 1222.01 454.18 1222.01 433.867C1222.01 413.62 1226.54 398.32 1235.59 387.969C1244.7 377.552 1257.98 372.344 1275.43 372.344C1292.94 372.344 1306.26 377.552 1315.37 387.969C1324.49 398.32 1329.04 413.62 1329.04 433.867C1329.04 454.18 1324.49 469.609 1315.37 480.156C1306.26 490.703 1292.94 495.977 1275.43 495.977ZM1275.43 482.793C1287.67 482.793 1297.04 478.626 1303.55 470.293C1310.07 461.895 1313.32 449.753 1313.32 433.867C1313.32 417.982 1310.07 405.97 1303.55 397.832C1297.11 389.629 1287.73 385.527 1275.43 385.527C1263.19 385.527 1253.85 389.629 1247.4 397.832C1240.96 405.97 1237.73 417.982 1237.73 433.867C1237.73 449.818 1240.96 461.96 1247.4 470.293C1253.85 478.626 1263.19 482.793 1275.43 482.793ZM1362.83 495.293C1358.14 495.293 1355.8 494.023 1355.8 491.484V378.691C1355.8 376.868 1356.22 375.566 1357.07 374.785C1357.92 373.939 1359.25 373.516 1361.07 373.516H1390.27C1404.14 373.516 1414.56 375.957 1421.52 380.84C1428.55 385.723 1432.07 393.503 1432.07 404.18C1432.07 411.406 1430.31 417.493 1426.8 422.441C1423.35 427.324 1418.46 431.003 1412.15 433.477V434.16C1415.53 435.332 1418.3 437.611 1420.45 440.996C1422.66 444.316 1425.1 449.264 1427.77 455.84L1441.35 490.117C1441.67 491.289 1441.84 492.103 1441.84 492.559C1441.84 494.382 1439.39 495.293 1434.51 495.293H1432.75C1431 495.293 1429.47 495.065 1428.16 494.609C1426.93 494.089 1426.15 493.405 1425.82 492.559L1412.64 458.477C1410.94 454.049 1408.96 450.599 1406.68 448.125C1404.4 445.651 1401.7 443.926 1398.57 442.949C1395.45 441.973 1391.51 441.484 1386.76 441.484H1371.13V491.484C1371.13 494.023 1368.82 495.293 1364.2 495.293H1362.83ZM1393.98 428.301C1398.09 428.301 1401.83 427.324 1405.21 425.371C1408.67 423.418 1411.37 420.814 1413.32 417.559C1415.34 414.238 1416.35 410.723 1416.35 407.012C1416.35 400.176 1414.26 395.098 1410.1 391.777C1405.93 388.392 1400.17 386.699 1392.81 386.699H1371.13V428.301H1393.98ZM1467.13 495C1465.31 495 1463.97 494.577 1463.12 493.73C1462.28 492.884 1461.86 491.582 1461.86 489.824V378.691C1461.86 376.868 1462.28 375.566 1463.12 374.785C1463.97 373.939 1465.31 373.516 1467.13 373.516H1527.68C1528.91 373.516 1529.79 373.906 1530.31 374.688C1530.9 375.469 1531.19 376.803 1531.19 378.691V381.523C1531.19 383.281 1530.9 384.583 1530.31 385.43C1529.79 386.276 1528.91 386.699 1527.68 386.699H1477.19V426.25H1522.5C1523.74 426.25 1524.62 426.673 1525.14 427.52C1525.72 428.366 1526.02 429.701 1526.02 431.523V434.16C1526.02 435.983 1525.72 437.318 1525.14 438.164C1524.62 438.945 1523.74 439.336 1522.5 439.336H1477.19V481.816H1527.87C1529.11 481.816 1529.99 482.24 1530.51 483.086C1531.09 483.867 1531.39 485.169 1531.39 486.992V489.824C1531.39 491.582 1531.09 492.884 1530.51 493.73C1529.99 494.577 1529.11 495 1527.87 495H1467.13ZM1582.36 495.977C1575.98 495.977 1570.03 495.293 1564.49 493.926C1559.02 492.493 1554.63 490.801 1551.31 488.848C1548.05 486.829 1546.43 485.007 1546.43 483.379C1546.43 482.467 1546.78 481.263 1547.5 479.766C1548.28 478.268 1549.16 476.934 1550.14 475.762C1551.11 474.59 1551.89 474.004 1552.48 474.004C1553 474.004 1554.14 474.525 1555.9 475.566C1559.93 477.65 1563.94 479.375 1567.91 480.742C1571.88 482.109 1576.7 482.793 1582.36 482.793C1586.79 482.793 1590.73 481.947 1594.18 480.254C1597.63 478.561 1600.3 476.185 1602.19 473.125C1604.14 470 1605.12 466.419 1605.12 462.383C1605.12 458.086 1603.95 454.538 1601.6 451.738C1599.32 448.874 1596.52 446.628 1593.2 445C1589.95 443.307 1585.2 441.224 1578.95 438.75C1572.17 436.146 1566.8 433.737 1562.83 431.523C1558.93 429.245 1555.57 425.957 1552.77 421.66C1550.04 417.363 1548.67 411.667 1548.67 404.57C1548.67 398.385 1550.27 392.852 1553.46 387.969C1556.65 383.021 1561.17 379.18 1567.03 376.445C1572.89 373.711 1579.63 372.344 1587.25 372.344C1590.7 372.344 1594.64 372.832 1599.06 373.809C1603.49 374.72 1607.27 375.99 1610.39 377.617C1613.58 379.245 1615.18 381.035 1615.18 382.988C1615.18 383.835 1614.82 385.007 1614.1 386.504C1613.45 387.936 1612.67 389.238 1611.76 390.41C1610.85 391.582 1610.13 392.168 1609.61 392.168C1609.02 392.168 1607.85 391.68 1606.09 390.703C1603.16 389.141 1600.27 387.904 1597.4 386.992C1594.54 386.016 1591.05 385.527 1586.95 385.527C1580.25 385.527 1574.81 387.253 1570.64 390.703C1566.54 394.154 1564.49 398.971 1564.49 405.156C1564.49 408.867 1565.4 411.927 1567.23 414.336C1569.05 416.745 1571.36 418.665 1574.16 420.098C1576.96 421.53 1580.87 423.19 1585.88 425.078C1586.2 425.143 1586.95 425.404 1588.12 425.859C1595.03 428.529 1600.66 431.133 1605.02 433.672C1609.45 436.146 1613.19 439.727 1616.25 444.414C1619.38 449.102 1620.94 455.091 1620.94 462.383C1620.94 469.219 1619.34 475.176 1616.15 480.254C1613.03 485.332 1608.54 489.238 1602.68 491.973C1596.88 494.642 1590.11 495.977 1582.36 495.977Z" fill="black"/>
<path d="M1312.44 991.663C1261.98 991.663 1215.98 961.802 1195.25 915.598L1193.29 911.213H1080.42V637.422H1429.24V810.157L1429.88 811.591C1437.19 828.081 1440.9 845.497 1440.9 863.349C1440.9 934.101 1383.27 991.663 1312.44 991.663Z" fill="white"/>
<path d="M1436.66 808.584V637.422C1436.66 633.304 1433.33 630 1429.24 630H1080.42C1079.45 629.997 1078.48 630.187 1077.58 630.559C1076.68 630.931 1075.86 631.477 1075.17 632.167C1074.48 632.857 1073.93 633.676 1073.56 634.578C1073.19 635.48 1073 636.446 1073 637.422V911.213C1073 915.301 1076.31 918.634 1080.42 918.634H1188.49C1209.72 965.976 1257.24 999.084 1312.44 999.084C1387.38 999.084 1448.32 938.202 1448.32 863.348C1448.32 843.867 1444.1 825.355 1436.66 808.584Z" fill="#27323A"/>
<path d="M1373.46 642.35H1403.15V672.036H1373.46V642.35ZM1322.15 642.35H1351.84V672.036H1322.15V642.35Z" fill="white"/>
<path d="M1244.54 802.149C1239.7 818.5 1236.8 836.938 1236.22 856.622H1199.17C1200.36 836.648 1206.68 818.066 1216.94 802.149H1244.54ZM1228.36 787.305C1238.31 776.375 1250.31 767.388 1263.79 760.982C1258.4 768.548 1253.7 777.449 1249.73 787.305H1228.36ZM1199.26 871.465H1236.28C1236.92 890.745 1239.81 908.807 1244.63 924.838H1217.09C1207 909.242 1200.65 891.035 1199.26 871.465ZM1228.62 939.681H1249.85C1253.79 949.423 1258.46 958.236 1263.79 965.745C1250.4 959.366 1238.51 950.496 1228.62 939.681ZM1305.02 976.442C1301.59 976.239 1298.23 975.862 1294.87 975.341C1283.74 968.731 1273.88 956.12 1266.31 939.681H1305.02V976.442ZM1305.02 924.838H1260.46C1255.18 909.009 1251.85 890.832 1251.12 871.465H1305.02V924.838ZM1305.02 856.622H1251.06C1251.7 836.88 1255.03 818.268 1260.37 802.148H1305.02V856.622ZM1305.02 787.305H1266.17C1273.76 770.722 1283.68 758.025 1294.87 751.385C1298.23 750.861 1301.62 750.484 1305.02 750.254V787.305Z" fill="#79CCBF"/>
<path d="M1176.58 863.349C1176.58 874.93 1178.21 886.12 1180.95 896.863H1095.12V685.779H1414.78V774.347C1389.84 745.776 1353.27 727.612 1312.44 727.612C1237.52 727.612 1176.58 788.522 1176.58 863.349Z" fill="#F4CE73"/>
<path d="M1319.86 856.622V802.148H1365.03C1370.39 818.268 1373.72 836.88 1374.33 856.622H1319.86ZM1374.3 871.465C1373.58 890.831 1370.22 909.008 1364.94 924.837H1319.86V871.465H1374.3ZM1319.86 787.304V750.254C1323.57 750.485 1327.19 750.921 1330.76 751.501C1341.86 758.169 1351.72 770.837 1359.26 787.304H1319.86ZM1361.9 761.358C1374.99 767.707 1386.74 776.516 1396.51 787.305H1375.7C1371.78 777.622 1367.17 768.866 1361.9 761.358ZM1330.76 975.225C1327.15 975.81 1323.51 976.216 1319.86 976.442V939.681H1359.11C1351.6 956.004 1341.8 968.585 1330.76 975.225ZM1361.9 965.367C1367.11 957.918 1371.69 949.277 1375.58 939.681H1396.28C1386.55 950.347 1374.88 959.064 1361.9 965.367ZM1407.79 924.837H1380.8C1385.58 908.807 1388.48 890.745 1389.15 871.465H1425.65C1424.26 891.035 1417.91 909.241 1407.79 924.837ZM1389.18 856.622C1388.63 836.937 1385.73 818.499 1380.85 802.148H1407.96C1418.22 818.064 1424.54 836.647 1425.7 856.622H1389.18Z" fill="#79CCBF"/>
<path d="M673.729 975.523L535 928.103V651.337L673.729 686.687V975.523Z" fill="#37BBEF"/>
<path d="M673.729 975.524L868.21 872.06V613.4L673.729 686.687V975.524Z" fill="#2481BA"/>
<path d="M535 651.337L673.729 686.687L868.21 613.4L719.367 589L535 651.337Z" fill="#3ED6FF"/>
<path d="M653.331 711.95V746.438L550.04 720.572V686.084L653.331 711.95ZM550.04 732.772L653.331 758.638V754.327L550.04 728.461V732.772ZM550.04 742.687L653.331 768.553V764.242L550.04 738.376V742.687ZM550.04 752.603L653.331 778.469V774.158L550.04 748.292V752.603Z" fill="#D4F7FF"/>
<path d="M556.263 694.49V709.148L647.107 731.996V717.338L556.263 694.49ZM556.263 718.201L647.107 741.049V735.315L556.263 712.467V718.201Z" fill="#113B42"/>
<path d="M673.729 946.985V944.743L598.357 920.903L597.795 922.973L673.729 946.985ZM597.795 910.428L673.729 934.009V931.724L598.357 908.315L597.795 910.428ZM597.795 897.839L673.729 920.99V918.748L598.357 895.727L597.795 897.839ZM673.729 866.714L598.357 845.461L597.795 847.53L673.729 868.956V866.714ZM597.795 860.118L673.729 881.975V879.733L598.357 858.006L597.795 860.118ZM597.795 885.251L673.729 907.97V905.729L598.357 883.182L597.795 885.251ZM597.795 872.706L673.729 894.994V892.709L598.357 870.594L597.795 872.706Z" fill="#0071BC"/>
<path d="M644.341 794.677C640.279 793.212 636.994 795.367 636.994 799.506C636.994 803.644 640.279 808.171 644.341 809.507C648.404 810.844 651.688 808.688 651.688 804.679C651.688 800.67 648.404 796.143 644.341 794.677ZM644.341 821.75C642.656 821.233 641.316 822.181 641.316 823.863C641.316 825.544 642.656 827.355 644.341 827.872C646.027 828.389 647.366 827.441 647.366 825.76C647.366 824.078 645.983 822.311 644.341 821.75Z" fill="white"/>
<path d="M730.085 886.544C730.085 909.411 739.192 931.341 755.402 947.511C771.612 963.68 793.597 972.764 816.521 972.764C839.445 972.764 861.431 963.68 877.64 947.511C893.85 931.341 902.957 909.411 902.957 886.544C902.957 863.677 893.85 841.747 877.64 825.577C861.431 809.408 839.445 800.324 816.521 800.324C793.597 800.324 771.612 809.408 755.402 825.577C739.192 841.747 730.085 863.677 730.085 886.544Z" fill="#37BBEF"/>
<path d="M843.23 804.55C866.351 820.414 880.959 843.607 880.959 869.473C880.959 917.282 831.085 956.038 769.543 956.038C768.074 956.038 766.648 955.995 765.221 955.952C779.57 966.557 797.332 972.808 816.564 972.808C864.32 972.808 903 934.224 903 886.588C902.957 848.22 877.89 815.758 843.23 804.55Z" fill="#3495C6"/>
<path d="M845.304 889.174C845.304 889.174 842.063 887.234 839.902 886.587C837.741 885.94 838.821 882.707 838.821 882.707C838.821 882.707 840.118 884.647 843.791 885.294C847.465 885.94 853.515 886.803 855.244 888.958C856.973 891.114 857.189 892.407 858.053 893.269C858.918 894.131 859.566 896.287 859.566 896.287C859.566 896.287 855.979 895.726 855.244 894.131C854.509 892.536 853.731 890.036 853.083 890.683C852.435 891.329 852.867 893.7 850.49 893.7C848.113 893.7 847.465 891.545 845.736 891.114C844.007 890.683 845.304 889.174 845.304 889.174ZM835.58 844.339L841.63 843.262L844.656 840.028L843.791 837.011L845.088 832.269L843.359 829.682C843.359 829.682 843.359 824.724 841.414 823.862C839.47 823 840.118 817.611 840.118 817.611L840.334 816.534L838.173 818.473L839.47 824.078L841.414 829.682L841.63 839.382L837.093 842.184L833.635 846.71L835.58 844.339ZM840.118 833.346L838.821 831.622L837.309 831.838L836.876 834.64L838.389 834.855L840.118 833.346ZM857.189 907.711C857.189 907.711 856.973 903.831 855.244 903.831C853.515 903.831 852.867 899.52 852.867 899.52L849.41 895.856C849.41 895.856 849.41 901.245 849.626 902.107C849.842 902.969 847.249 904.262 846.601 903.831C845.952 903.4 843.575 899.736 843.575 899.736C843.575 899.736 844.526 897.666 843.143 897.796C843.013 897.796 842.927 897.839 842.841 897.839C842.495 897.796 841.933 897.71 840.982 897.58L836.488 897.02L836.012 898.873C836.012 898.873 833.419 901.029 831.906 901.676C830.394 902.322 828.665 908.573 826.72 908.573C824.775 908.573 821.966 908.789 821.966 908.789C821.966 908.789 818.509 914.609 819.589 916.764C820.67 918.92 821.102 921.075 820.886 923.662C820.67 926.248 821.102 925.817 824.775 925.171C828.449 924.524 831.474 919.566 835.58 920.428C839.686 921.291 840.982 925.386 840.982 925.386L844.44 922.368C844.44 922.368 844.007 924.524 843.359 924.739C842.711 924.955 844.007 925.171 844.872 926.679C845.736 928.188 850.447 930.301 856.541 924.524C862.634 918.747 860.43 913.746 860.43 913.746L857.189 907.711ZM762.326 902.538C762.758 898.442 760.381 899.52 760.597 893.7C760.813 887.88 768.808 874.301 768.16 874.301C767.512 874.301 763.838 877.103 762.542 876.887C761.245 876.672 755.627 863.954 755.627 862.014C755.627 860.075 754.114 852.746 754.114 852.746C754.114 852.746 755.843 857.704 757.14 857.919C758.436 858.135 758.868 863.523 759.949 866.11C761.029 868.697 764.487 873.008 766.647 872.792C768.808 872.576 775.507 860.506 775.507 860.506L771.834 858.35L767.944 860.721C767.944 860.721 766.864 858.135 765.567 856.626C764.271 855.117 764.487 851.453 765.351 851.453C766.215 851.453 767.209 853.953 771.618 856.841C776.026 859.73 780.045 856.841 780.909 857.488C781.774 858.135 785.231 860.937 785.447 862.661C785.663 864.386 789.985 876.241 790.633 877.103C791.282 877.965 793.875 874.085 794.955 869.128C796.036 864.17 801.222 861.799 802.95 860.506C804.679 859.212 804.463 862.014 805.544 864.601C806.624 867.188 809.433 868.697 810.73 869.774C812.026 870.852 810.946 874.301 813.107 874.301C815.268 874.301 816.996 870.636 816.996 870.636L815.484 866.541C813.971 862.446 816.132 862.014 818.077 861.152C820.022 860.29 823.479 857.057 825.856 853.393C828.233 849.728 823.911 846.279 822.615 843.046C821.318 839.813 824.127 840.028 825.64 839.813C827.152 839.597 828.665 848.219 828.665 848.219L831.474 846.71C831.474 846.71 830.826 843.908 829.529 841.322C828.233 838.735 831.258 838.735 834.932 834.855C838.605 830.975 836.488 829.122 836.66 824.293C836.833 819.465 832.123 819.982 832.123 819.982C832.123 819.982 831.042 821.707 832.339 815.671C833.635 809.636 842.495 813.085 844.656 812.869C846.341 812.697 848.459 808.515 849.28 806.748C839.167 802.609 828.146 800.324 816.521 800.324C770.364 800.324 732.635 836.407 730.215 881.888C731.252 882.449 732.635 883.052 734.234 883.354C737.692 884.001 736.179 889.389 736.395 892.191C736.611 894.994 737.259 898.011 738.556 900.813C739.852 903.616 738.124 905.34 737.475 907.28C736.827 909.22 738.34 912.238 739.636 912.238C740.933 912.238 737.259 918.92 741.365 925.817C745.471 932.715 751.521 925.171 754.33 915.255C757.14 905.34 761.894 906.633 762.326 902.538ZM818.077 883.785L819.805 887.234L823.479 888.958C823.479 888.958 824.775 883.785 826.936 881.198C829.097 878.612 825.64 876.241 824.127 875.81L818.077 883.785ZM854.034 824.724C854.164 825.156 854.38 825.371 854.38 825.371C854.38 825.371 854.25 825.112 854.034 824.724ZM828.06 894.476C826.936 894.131 825.121 893.614 822.355 892.838C815.44 890.898 817.169 891.545 814.792 890.036C812.415 888.527 814.576 887.88 815.008 885.94C815.44 884.001 812.847 877.75 812.847 877.75L810.254 875.594L809.606 879.474L806.797 880.336L810.254 888.527C810.254 888.527 816.089 893.485 819.762 895.209C821.966 896.244 825.553 895.338 828.06 894.476ZM765.567 917.626C765.567 917.626 769.024 911.375 769.673 908.358C770.321 905.34 769.241 900.598 769.241 900.598C769.241 900.598 764.703 904.047 765.567 904.478C766.431 904.909 764.271 906.849 763.838 910.298C763.406 913.746 765.567 917.626 765.567 917.626ZM852.565 808.17C850.663 810.498 848.113 813.818 848.113 815.025C848.113 816.965 851.138 816.965 851.354 818.473C851.527 819.637 853.299 823.216 854.034 824.724C853.861 824.164 853.775 823.259 854.38 822.138C855.46 820.198 855.676 815.671 854.596 813.731C854.077 812.826 854.725 811.145 855.547 809.593L852.565 808.17ZM830.048 893.7C830.653 893.442 830.999 893.269 830.999 893.269C830.999 893.269 830.567 893.442 830.048 893.7ZM829.313 894.778C828.665 894.519 829.4 894.045 830.091 893.7C829.573 893.916 828.881 894.174 828.103 894.476C829.832 894.994 829.962 895.037 829.313 894.778Z" fill="#D4F7FF"/>
</g>
<defs>
<clipPath id="clip0_222_24">
<rect width="1920" height="1080" fill="white"/>
</clipPath>
</defs>
</svg>
