<svg width="1920" height="1080" viewBox="0 0 1920 1080" fill="none" xmlns="http://www.w3.org/2000/svg">
<g clip-path="url(#clip0_219_323)">
<rect width="1920" height="1080" fill="#E8E8E8"/>
<rect width="1920" height="1080" fill="#151515"/>
<path d="M241.152 378.977C222.142 378.977 208.079 373.964 198.965 363.938C189.85 353.911 185.293 338.319 185.293 317.16C185.293 275.949 204.01 255.344 241.445 255.344C246.914 255.344 252.22 255.93 257.363 257.102C262.507 258.208 266.673 259.608 269.863 261.301C273.053 262.993 274.648 264.621 274.648 266.184C274.648 267.16 274.29 268.462 273.574 270.09C272.923 271.717 272.142 273.15 271.23 274.387C270.319 275.624 269.505 276.242 268.789 276.242C268.464 276.242 267.552 275.819 266.055 274.973C262.669 273.15 259.121 271.62 255.41 270.383C251.699 269.146 247.174 268.527 241.836 268.527C227.839 268.527 217.52 272.434 210.879 280.246C204.303 287.993 201.016 300.363 201.016 317.355C201.016 333.957 204.271 346.197 210.781 354.074C217.357 361.887 227.48 365.793 241.152 365.793C246.882 365.793 251.797 365.109 255.898 363.742C260 362.375 263.939 360.682 267.715 358.664C269.538 357.688 270.645 357.199 271.035 357.199C271.751 357.199 272.565 357.818 273.477 359.055C274.453 360.292 275.299 361.691 276.016 363.254C276.732 364.751 277.09 365.826 277.09 366.477C277.09 368.104 275.43 369.927 272.109 371.945C268.854 373.898 264.46 375.559 258.926 376.926C253.457 378.293 247.533 378.977 241.152 378.977ZM292.52 378.293C289.915 378.293 288.027 378.065 286.855 377.609C285.684 377.089 285.098 376.34 285.098 375.363C285.098 374.908 285.26 374.126 285.586 373.02L326.699 258.859C327.35 256.971 329.661 256.027 333.633 256.027H338.711C342.682 256.027 344.993 256.971 345.645 258.859L386.758 373.117C387.083 373.833 387.246 374.582 387.246 375.363C387.246 377.316 384.805 378.293 379.922 378.293H378.457C374.421 378.293 372.077 377.382 371.426 375.559L361.27 347.043H310.293L300.332 375.559C299.746 377.382 297.435 378.293 293.398 378.293H292.52ZM356.582 333.859L338.418 282.199C337.897 280.767 337.474 279.139 337.148 277.316C336.823 275.493 336.53 273.736 336.27 272.043H335.879C335.098 276.405 334.219 279.79 333.242 282.199L315.078 333.859H356.582ZM411.465 378C409.642 378 408.307 377.577 407.461 376.73C406.615 375.884 406.191 374.582 406.191 372.824V259.934C406.191 257.329 408.535 256.027 413.223 256.027H414.59C419.212 256.027 421.523 257.329 421.523 259.934V364.816H469.277C470.514 364.816 471.393 365.24 471.914 366.086C472.435 366.867 472.695 368.169 472.695 369.992V372.824C472.695 374.582 472.435 375.884 471.914 376.73C471.393 377.577 470.514 378 469.277 378H411.465ZM539.199 378.977C520.189 378.977 506.126 373.964 497.012 363.938C487.897 353.911 483.34 338.319 483.34 317.16C483.34 275.949 502.057 255.344 539.492 255.344C544.961 255.344 550.267 255.93 555.41 257.102C560.553 258.208 564.72 259.608 567.91 261.301C571.1 262.993 572.695 264.621 572.695 266.184C572.695 267.16 572.337 268.462 571.621 270.09C570.97 271.717 570.189 273.15 569.277 274.387C568.366 275.624 567.552 276.242 566.836 276.242C566.51 276.242 565.599 275.819 564.102 274.973C560.716 273.15 557.168 271.62 553.457 270.383C549.746 269.146 545.221 268.527 539.883 268.527C525.885 268.527 515.566 272.434 508.926 280.246C502.35 287.993 499.062 300.363 499.062 317.355C499.062 333.957 502.318 346.197 508.828 354.074C515.404 361.887 525.527 365.793 539.199 365.793C544.928 365.793 549.844 365.109 553.945 363.742C558.047 362.375 561.986 360.682 565.762 358.664C567.585 357.688 568.691 357.199 569.082 357.199C569.798 357.199 570.612 357.818 571.523 359.055C572.5 360.292 573.346 361.691 574.062 363.254C574.779 364.751 575.137 365.826 575.137 366.477C575.137 368.104 573.477 369.927 570.156 371.945C566.901 373.898 562.507 375.559 556.973 376.926C551.504 378.293 545.579 378.977 539.199 378.977ZM642.812 378.977C632.721 378.977 624.128 377.414 617.031 374.289C609.935 371.099 604.564 366.509 600.918 360.52C597.272 354.53 595.449 347.368 595.449 339.035V259.934C595.449 257.329 597.76 256.027 602.383 256.027H603.75C608.372 256.027 610.684 257.329 610.684 259.934V339.621C610.684 344.699 612.083 349.224 614.883 353.195C617.682 357.167 621.523 360.259 626.406 362.473C631.289 364.686 636.758 365.793 642.812 365.793C648.932 365.793 654.434 364.686 659.316 362.473C664.199 360.194 668.008 357.069 670.742 353.098C673.542 349.126 674.941 344.634 674.941 339.621V259.934C674.941 257.329 677.253 256.027 681.875 256.027H683.34C687.897 256.027 690.176 257.329 690.176 259.934V339.035C690.176 347.368 688.353 354.53 684.707 360.52C681.061 366.509 675.69 371.099 668.594 374.289C661.497 377.414 652.904 378.977 642.812 378.977ZM726.699 378C724.876 378 723.542 377.577 722.695 376.73C721.849 375.884 721.426 374.582 721.426 372.824V259.934C721.426 257.329 723.77 256.027 728.457 256.027H729.824C734.447 256.027 736.758 257.329 736.758 259.934V364.816H784.512C785.749 364.816 786.628 365.24 787.148 366.086C787.669 366.867 787.93 368.169 787.93 369.992V372.824C787.93 374.582 787.669 375.884 787.148 376.73C786.628 377.577 785.749 378 784.512 378H726.699ZM798.184 378.293C795.579 378.293 793.691 378.065 792.52 377.609C791.348 377.089 790.762 376.34 790.762 375.363C790.762 374.908 790.924 374.126 791.25 373.02L832.363 258.859C833.014 256.971 835.326 256.027 839.297 256.027H844.375C848.346 256.027 850.658 256.971 851.309 258.859L892.422 373.117C892.747 373.833 892.91 374.582 892.91 375.363C892.91 377.316 890.469 378.293 885.586 378.293H884.121C880.085 378.293 877.741 377.382 877.09 375.559L866.934 347.043H815.957L805.996 375.559C805.41 377.382 803.099 378.293 799.062 378.293H798.184ZM862.246 333.859L844.082 282.199C843.561 280.767 843.138 279.139 842.812 277.316C842.487 275.493 842.194 273.736 841.934 272.043H841.543C840.762 276.405 839.883 279.79 838.906 282.199L820.742 333.859H862.246ZM917.129 378C915.306 378 913.971 377.577 913.125 376.73C912.279 375.884 911.855 374.582 911.855 372.824V261.691C911.855 259.868 912.279 258.566 913.125 257.785C913.971 256.939 915.306 256.516 917.129 256.516H952.188C968.464 256.516 981.484 261.333 991.25 270.969C1001.02 280.604 1005.9 296.001 1005.9 317.16C1005.9 338.449 1001.02 353.911 991.25 363.547C981.484 373.182 968.464 378 952.188 378H917.129ZM951.016 364.816C962.734 364.816 972.174 361.008 979.336 353.391C986.497 345.708 990.078 333.632 990.078 317.16C990.078 306.092 988.385 297.043 985 290.012C981.615 282.915 976.992 277.772 971.133 274.582C965.273 271.327 958.568 269.699 951.016 269.699H927.188V364.816H951.016ZM1079.14 378.977C1061.76 378.977 1048.51 373.703 1039.39 363.156C1030.28 352.609 1025.72 337.18 1025.72 316.867C1025.72 296.62 1030.25 281.32 1039.3 270.969C1048.41 260.552 1061.69 255.344 1079.14 255.344C1096.65 255.344 1109.97 260.552 1119.08 270.969C1128.2 281.32 1132.75 296.62 1132.75 316.867C1132.75 337.18 1128.2 352.609 1119.08 363.156C1109.97 373.703 1096.65 378.977 1079.14 378.977ZM1079.14 365.793C1091.38 365.793 1100.76 361.626 1107.27 353.293C1113.78 344.895 1117.03 332.753 1117.03 316.867C1117.03 300.982 1113.78 288.97 1107.27 280.832C1100.82 272.629 1091.45 268.527 1079.14 268.527C1066.9 268.527 1057.56 272.629 1051.11 280.832C1044.67 288.97 1041.45 300.982 1041.45 316.867C1041.45 332.818 1044.67 344.96 1051.11 353.293C1057.56 361.626 1066.9 365.793 1079.14 365.793ZM1166.54 378.293C1161.86 378.293 1159.51 377.023 1159.51 374.484V261.691C1159.51 259.868 1159.93 258.566 1160.78 257.785C1161.63 256.939 1162.96 256.516 1164.79 256.516H1193.98C1207.85 256.516 1218.27 258.957 1225.23 263.84C1232.27 268.723 1235.78 276.503 1235.78 287.18C1235.78 294.406 1234.02 300.493 1230.51 305.441C1227.06 310.324 1222.17 314.003 1215.86 316.477V317.16C1219.24 318.332 1222.01 320.611 1224.16 323.996C1226.37 327.316 1228.82 332.264 1231.48 338.84L1245.06 373.117C1245.38 374.289 1245.55 375.103 1245.55 375.559C1245.55 377.382 1243.11 378.293 1238.22 378.293H1236.46C1234.71 378.293 1233.18 378.065 1231.88 377.609C1230.64 377.089 1229.86 376.405 1229.53 375.559L1216.35 341.477C1214.65 337.049 1212.67 333.599 1210.39 331.125C1208.11 328.651 1205.41 326.926 1202.29 325.949C1199.16 324.973 1195.22 324.484 1190.47 324.484H1174.84V374.484C1174.84 377.023 1172.53 378.293 1167.91 378.293H1166.54ZM1197.7 311.301C1201.8 311.301 1205.54 310.324 1208.93 308.371C1212.38 306.418 1215.08 303.814 1217.03 300.559C1219.05 297.238 1220.06 293.723 1220.06 290.012C1220.06 283.176 1217.98 278.098 1213.81 274.777C1209.64 271.392 1203.88 269.699 1196.52 269.699H1174.84V311.301H1197.7ZM1258.34 378.293C1255.74 378.293 1253.85 378.065 1252.68 377.609C1251.5 377.089 1250.92 376.34 1250.92 375.363C1250.92 374.908 1251.08 374.126 1251.41 373.02L1292.52 258.859C1293.17 256.971 1295.48 256.027 1299.45 256.027H1304.53C1308.5 256.027 1310.81 256.971 1311.46 258.859L1352.58 373.117C1352.9 373.833 1353.07 374.582 1353.07 375.363C1353.07 377.316 1350.62 378.293 1345.74 378.293H1344.28C1340.24 378.293 1337.9 377.382 1337.25 375.559L1327.09 347.043H1276.11L1266.15 375.559C1265.57 377.382 1263.26 378.293 1259.22 378.293H1258.34ZM1322.4 333.859L1304.24 282.199C1303.72 280.767 1303.29 279.139 1302.97 277.316C1302.64 275.493 1302.35 273.736 1302.09 272.043H1301.7C1300.92 276.405 1300.04 279.79 1299.06 282.199L1280.9 333.859H1322.4ZM1420.84 378.293C1416.15 378.293 1413.81 377.023 1413.81 374.484V259.934C1413.81 257.329 1416.15 256.027 1420.84 256.027H1422.21C1426.83 256.027 1429.14 257.329 1429.14 259.934V374.484C1429.14 377.023 1426.83 378.293 1422.21 378.293H1420.84ZM1468.69 378.293C1466.22 378.293 1464.43 378 1463.32 377.414C1462.21 376.763 1461.66 375.786 1461.66 374.484V259.934C1461.66 257.329 1464 256.027 1468.69 256.027H1472.3C1474.13 256.027 1475.56 256.288 1476.6 256.809C1477.71 257.329 1478.68 258.176 1479.53 259.348L1535 343.039L1540.18 352.805V259.934C1540.18 257.329 1542.45 256.027 1547.01 256.027H1548.38C1552.94 256.027 1555.21 257.329 1555.21 259.934V374.484C1555.21 375.786 1554.66 376.763 1553.55 377.414C1552.45 378 1550.72 378.293 1548.38 378.293H1544.86C1543.24 378.293 1541.93 378.098 1540.96 377.707C1539.98 377.316 1539.23 376.698 1538.71 375.852L1481.48 289.523L1476.8 280.539V374.484C1476.8 377.023 1474.49 378.293 1469.86 378.293H1468.69ZM1613.22 378.977C1606.84 378.977 1600.89 378.293 1595.35 376.926C1589.88 375.493 1585.49 373.801 1582.17 371.848C1578.91 369.829 1577.29 368.007 1577.29 366.379C1577.29 365.467 1577.64 364.263 1578.36 362.766C1579.14 361.268 1580.02 359.934 1581 358.762C1581.97 357.59 1582.75 357.004 1583.34 357.004C1583.86 357.004 1585 357.525 1586.76 358.566C1590.79 360.65 1594.8 362.375 1598.77 363.742C1602.74 365.109 1607.56 365.793 1613.22 365.793C1617.65 365.793 1621.59 364.947 1625.04 363.254C1628.49 361.561 1631.16 359.185 1633.05 356.125C1635 353 1635.98 349.419 1635.98 345.383C1635.98 341.086 1634.8 337.538 1632.46 334.738C1630.18 331.874 1627.38 329.628 1624.06 328C1620.81 326.307 1616.05 324.224 1609.8 321.75C1603.03 319.146 1597.66 316.737 1593.69 314.523C1589.79 312.245 1586.43 308.957 1583.63 304.66C1580.9 300.363 1579.53 294.667 1579.53 287.57C1579.53 281.385 1581.13 275.852 1584.32 270.969C1587.51 266.021 1592.03 262.18 1597.89 259.445C1603.75 256.711 1610.49 255.344 1618.11 255.344C1621.56 255.344 1625.49 255.832 1629.92 256.809C1634.35 257.72 1638.12 258.99 1641.25 260.617C1644.44 262.245 1646.04 264.035 1646.04 265.988C1646.04 266.835 1645.68 268.007 1644.96 269.504C1644.31 270.936 1643.53 272.238 1642.62 273.41C1641.71 274.582 1640.99 275.168 1640.47 275.168C1639.88 275.168 1638.71 274.68 1636.95 273.703C1634.02 272.141 1631.13 270.904 1628.26 269.992C1625.4 269.016 1621.91 268.527 1617.81 268.527C1611.11 268.527 1605.67 270.253 1601.5 273.703C1597.4 277.154 1595.35 281.971 1595.35 288.156C1595.35 291.867 1596.26 294.927 1598.09 297.336C1599.91 299.745 1602.22 301.665 1605.02 303.098C1607.82 304.53 1611.73 306.19 1616.74 308.078C1617.06 308.143 1617.81 308.404 1618.98 308.859C1625.89 311.529 1631.52 314.133 1635.88 316.672C1640.31 319.146 1644.05 322.727 1647.11 327.414C1650.23 332.102 1651.8 338.091 1651.8 345.383C1651.8 352.219 1650.2 358.176 1647.01 363.254C1643.89 368.332 1639.39 372.238 1633.54 374.973C1627.74 377.642 1620.97 378.977 1613.22 378.977ZM1700.14 378.977C1693.76 378.977 1687.8 378.293 1682.27 376.926C1676.8 375.493 1672.4 373.801 1669.08 371.848C1665.83 369.829 1664.2 368.007 1664.2 366.379C1664.2 365.467 1664.56 364.263 1665.27 362.766C1666.05 361.268 1666.93 359.934 1667.91 358.762C1668.89 357.59 1669.67 357.004 1670.25 357.004C1670.77 357.004 1671.91 357.525 1673.67 358.566C1677.71 360.65 1681.71 362.375 1685.68 363.742C1689.65 365.109 1694.47 365.793 1700.14 365.793C1704.56 365.793 1708.5 364.947 1711.95 363.254C1715.4 361.561 1718.07 359.185 1719.96 356.125C1721.91 353 1722.89 349.419 1722.89 345.383C1722.89 341.086 1721.72 337.538 1719.38 334.738C1717.1 331.874 1714.3 329.628 1710.98 328C1707.72 326.307 1702.97 324.224 1696.72 321.75C1689.95 319.146 1684.58 316.737 1680.61 314.523C1676.7 312.245 1673.35 308.957 1670.55 304.66C1667.81 300.363 1666.45 294.667 1666.45 287.57C1666.45 281.385 1668.04 275.852 1671.23 270.969C1674.42 266.021 1678.95 262.18 1684.8 259.445C1690.66 256.711 1697.4 255.344 1705.02 255.344C1708.47 255.344 1712.41 255.832 1716.84 256.809C1721.26 257.72 1725.04 258.99 1728.16 260.617C1731.35 262.245 1732.95 264.035 1732.95 265.988C1732.95 266.835 1732.59 268.007 1731.88 269.504C1731.22 270.936 1730.44 272.238 1729.53 273.41C1728.62 274.582 1727.9 275.168 1727.38 275.168C1726.8 275.168 1725.62 274.68 1723.87 273.703C1720.94 272.141 1718.04 270.904 1715.18 269.992C1712.31 269.016 1708.83 268.527 1704.73 268.527C1698.02 268.527 1692.58 270.253 1688.42 273.703C1684.32 277.154 1682.27 281.971 1682.27 288.156C1682.27 291.867 1683.18 294.927 1685 297.336C1686.82 299.745 1689.13 301.665 1691.93 303.098C1694.73 304.53 1698.64 306.19 1703.65 308.078C1703.98 308.143 1704.73 308.404 1705.9 308.859C1712.8 311.529 1718.43 314.133 1722.79 316.672C1727.22 319.146 1730.96 322.727 1734.02 327.414C1737.15 332.102 1738.71 338.091 1738.71 345.383C1738.71 352.219 1737.12 358.176 1733.93 363.254C1730.8 368.332 1726.31 372.238 1720.45 374.973C1714.65 377.642 1707.88 378.977 1700.14 378.977Z" fill="white"/>
<path d="M729 540H1115V926H729V540Z" fill="#F7DF1E"/>
<path d="M830.494 862.569L860.033 844.693C865.732 854.797 870.916 863.346 883.351 863.346C895.27 863.346 902.785 858.683 902.785 840.547V717.211H939.059V841.06C939.059 878.631 917.036 895.732 884.906 895.732C855.888 895.732 839.043 880.703 830.493 862.566" fill="white"/>
<path d="M958.762 858.683L988.298 841.582C996.073 854.279 1006.18 863.606 1024.06 863.606C1039.09 863.606 1048.67 856.092 1048.67 845.727C1048.67 833.29 1038.82 828.885 1022.24 821.632L1013.18 817.743C987.004 806.603 969.643 792.612 969.643 763.073C969.643 735.867 990.371 715.137 1022.76 715.137C1045.82 715.137 1062.4 723.17 1074.32 744.158L1046.08 762.295C1039.86 751.154 1033.13 746.75 1022.76 746.75C1012.14 746.75 1005.4 753.487 1005.4 762.295C1005.4 773.178 1012.14 777.583 1027.68 784.321L1036.75 788.207C1067.58 801.422 1084.95 814.894 1084.95 845.209C1084.95 877.858 1059.29 895.735 1024.83 895.735C991.15 895.735 969.384 879.671 958.762 858.683Z" fill="white"/>
<path d="M240.125 868.562L216 567H505.5L481.375 868.562L360.75 904.75L240.125 868.562Z" fill="#1172B8"/>
<path d="M481.375 591.125H360.75V886.656L457.25 856.5L481.375 591.125Z" fill="#33AADD"/>
<path d="M402.969 741.906H282.344L276.312 699.688L372.812 669.531H276.312L270.281 633.344H457.25L451.219 675.562L372.812 705.719H445.188L433.125 820.312L360.75 844.438L288.375 820.312L282.344 760H318.531L324.562 790.156L360.75 802.219L396.938 790.156L402.969 741.906Z" fill="white"/>
<path d="M1363.12 865.562L1339 564H1628.5L1604.38 865.562L1483.75 901.75L1363.12 865.562Z" fill="#E44D26"/>
<path d="M1604.38 588.125H1483.75V883.656L1580.25 853.5L1604.38 588.125Z" fill="#F16529"/>
<path d="M1405.34 738.906L1393.28 624.312H1580.25L1574.22 660.5H1429.47L1435.5 702.719H1568.19L1556.12 817.312L1483.75 841.438L1411.38 817.312L1405.34 757H1441.53L1447.56 787.156L1483.75 799.219L1519.94 787.156L1525.97 738.906H1405.34Z" fill="white"/>
</g>
<defs>
<clipPath id="clip0_219_323">
<rect width="1920" height="1080" fill="white"/>
</clipPath>
</defs>
</svg>
