<svg width="1920" height="1080" viewBox="0 0 1920 1080" fill="none" xmlns="http://www.w3.org/2000/svg">
<g clip-path="url(#clip0_216_123)">
<rect width="1920" height="1080" fill="#151515"/>
<path d="M317.617 260.977C300.169 260.977 286.888 255.964 277.773 245.938C268.659 235.846 264.102 220.612 264.102 200.234C264.102 158.307 282.819 137.344 320.254 137.344C325.723 137.344 331.029 137.93 336.172 139.102C341.315 140.208 345.482 141.608 348.672 143.301C351.862 144.993 353.457 146.621 353.457 148.184C353.457 149.16 353.099 150.462 352.383 152.09C351.732 153.717 350.951 155.15 350.039 156.387C349.128 157.624 348.314 158.242 347.598 158.242C347.272 158.242 346.361 157.819 344.863 156.973C341.478 155.15 337.93 153.62 334.219 152.383C330.508 151.146 325.983 150.527 320.645 150.527C305.931 150.527 295.449 154.596 289.199 162.734C282.949 170.807 279.824 182.786 279.824 198.672C279.824 213.646 282.721 225.592 288.516 234.512C294.375 243.366 304.466 247.793 318.789 247.793C323.151 247.793 327.35 247.598 331.387 247.207C335.488 246.751 338.743 246.198 341.152 245.547V210.488H320.84C319.603 210.488 318.691 210.098 318.105 209.316C317.585 208.47 317.324 207.135 317.324 205.312V202.48C317.324 200.658 317.585 199.355 318.105 198.574C318.691 197.728 319.603 197.305 320.84 197.305H351.211C353.034 197.305 354.368 197.728 355.215 198.574C356.061 199.355 356.484 200.658 356.484 202.48V248.477C356.484 252.969 352.839 256.191 345.547 258.145C338.255 260.033 328.945 260.977 317.617 260.977ZM393.008 260C391.185 260 389.85 259.577 389.004 258.73C388.158 257.884 387.734 256.582 387.734 254.824V143.691C387.734 141.868 388.158 140.566 389.004 139.785C389.85 138.939 391.185 138.516 393.008 138.516H453.555C454.792 138.516 455.671 138.906 456.191 139.688C456.777 140.469 457.07 141.803 457.07 143.691V146.523C457.07 148.281 456.777 149.583 456.191 150.43C455.671 151.276 454.792 151.699 453.555 151.699H403.066V191.25H448.379C449.616 191.25 450.495 191.673 451.016 192.52C451.602 193.366 451.895 194.701 451.895 196.523V199.16C451.895 200.983 451.602 202.318 451.016 203.164C450.495 203.945 449.616 204.336 448.379 204.336H403.066V246.816H453.75C454.987 246.816 455.866 247.24 456.387 248.086C456.973 248.867 457.266 250.169 457.266 251.992V254.824C457.266 256.582 456.973 257.884 456.387 258.73C455.866 259.577 454.987 260 453.75 260H393.008ZM489.688 260.293C485 260.293 482.656 259.023 482.656 256.484V143.691C482.656 141.868 483.079 140.566 483.926 139.785C484.772 138.939 486.107 138.516 487.93 138.516H517.129C530.996 138.516 541.413 140.957 548.379 145.84C555.41 150.723 558.926 158.503 558.926 169.18C558.926 176.406 557.168 182.493 553.652 187.441C550.202 192.324 545.319 196.003 539.004 198.477V199.16C542.389 200.332 545.156 202.611 547.305 205.996C549.518 209.316 551.96 214.264 554.629 220.84L568.203 255.117C568.529 256.289 568.691 257.103 568.691 257.559C568.691 259.382 566.25 260.293 561.367 260.293H559.609C557.852 260.293 556.322 260.065 555.02 259.609C553.783 259.089 553.001 258.405 552.676 257.559L539.492 223.477C537.799 219.049 535.814 215.599 533.535 213.125C531.257 210.651 528.555 208.926 525.43 207.949C522.305 206.973 518.366 206.484 513.613 206.484H497.988V256.484C497.988 259.023 495.677 260.293 491.055 260.293H489.688ZM520.84 193.301C524.941 193.301 528.685 192.324 532.07 190.371C535.521 188.418 538.223 185.814 540.176 182.559C542.194 179.238 543.203 175.723 543.203 172.012C543.203 165.176 541.12 160.098 536.953 156.777C532.786 153.392 527.025 151.699 519.668 151.699H497.988V193.301H520.84ZM593.984 260C592.161 260 590.827 259.577 589.98 258.73C589.134 257.884 588.711 256.582 588.711 254.824V143.691C588.711 141.868 589.134 140.566 589.98 139.785C590.827 138.939 592.161 138.516 593.984 138.516H654.531C655.768 138.516 656.647 138.906 657.168 139.688C657.754 140.469 658.047 141.803 658.047 143.691V146.523C658.047 148.281 657.754 149.583 657.168 150.43C656.647 151.276 655.768 151.699 654.531 151.699H604.043V191.25H649.355C650.592 191.25 651.471 191.673 651.992 192.52C652.578 193.366 652.871 194.701 652.871 196.523V199.16C652.871 200.983 652.578 202.318 651.992 203.164C651.471 203.945 650.592 204.336 649.355 204.336H604.043V246.816H654.727C655.964 246.816 656.842 247.24 657.363 248.086C657.949 248.867 658.242 250.169 658.242 251.992V254.824C658.242 256.582 657.949 257.884 657.363 258.73C656.842 259.577 655.964 260 654.727 260H593.984ZM689.492 260.293C687.018 260.293 685.228 260 684.121 259.414C683.014 258.763 682.461 257.786 682.461 256.484V141.934C682.461 139.329 684.805 138.027 689.492 138.027H693.105C694.928 138.027 696.361 138.288 697.402 138.809C698.509 139.329 699.486 140.176 700.332 141.348L755.801 225.039L760.977 234.805V141.934C760.977 139.329 763.255 138.027 767.812 138.027H769.18C773.737 138.027 776.016 139.329 776.016 141.934V256.484C776.016 257.786 775.462 258.763 774.355 259.414C773.249 260 771.523 260.293 769.18 260.293H765.664C764.036 260.293 762.734 260.098 761.758 259.707C760.781 259.316 760.033 258.698 759.512 257.852L702.285 171.523L697.598 162.539V256.484C697.598 259.023 695.286 260.293 690.664 260.293H689.492ZM857.461 260.977C838.451 260.977 824.388 255.964 815.273 245.938C806.159 235.911 801.602 220.319 801.602 199.16C801.602 157.949 820.319 137.344 857.754 137.344C863.223 137.344 868.529 137.93 873.672 139.102C878.815 140.208 882.982 141.608 886.172 143.301C889.362 144.993 890.957 146.621 890.957 148.184C890.957 149.16 890.599 150.462 889.883 152.09C889.232 153.717 888.451 155.15 887.539 156.387C886.628 157.624 885.814 158.242 885.098 158.242C884.772 158.242 883.861 157.819 882.363 156.973C878.978 155.15 875.43 153.62 871.719 152.383C868.008 151.146 863.483 150.527 858.145 150.527C844.147 150.527 833.828 154.434 827.188 162.246C820.612 169.993 817.324 182.363 817.324 199.355C817.324 215.957 820.579 228.197 827.09 236.074C833.665 243.887 843.789 247.793 857.461 247.793C863.19 247.793 868.105 247.109 872.207 245.742C876.309 244.375 880.247 242.682 884.023 240.664C885.846 239.688 886.953 239.199 887.344 239.199C888.06 239.199 888.874 239.818 889.785 241.055C890.762 242.292 891.608 243.691 892.324 245.254C893.04 246.751 893.398 247.826 893.398 248.477C893.398 250.104 891.738 251.927 888.418 253.945C885.163 255.898 880.768 257.559 875.234 258.926C869.766 260.293 863.841 260.977 857.461 260.977ZM923.086 260.293C918.398 260.293 916.055 259.023 916.055 256.484V141.934C916.055 139.329 918.398 138.027 923.086 138.027H924.453C929.076 138.027 931.387 139.329 931.387 141.934V256.484C931.387 259.023 929.076 260.293 924.453 260.293H923.086ZM957.852 260.293C955.247 260.293 953.359 260.065 952.188 259.609C951.016 259.089 950.43 258.34 950.43 257.363C950.43 256.908 950.592 256.126 950.918 255.02L992.031 140.859C992.682 138.971 994.993 138.027 998.965 138.027H1004.04C1008.01 138.027 1010.33 138.971 1010.98 140.859L1052.09 255.117C1052.42 255.833 1052.58 256.582 1052.58 257.363C1052.58 259.316 1050.14 260.293 1045.25 260.293H1043.79C1039.75 260.293 1037.41 259.382 1036.76 257.559L1026.6 229.043H975.625L965.664 257.559C965.078 259.382 962.767 260.293 958.73 260.293H957.852ZM1021.91 215.859L1003.75 164.199C1003.23 162.767 1002.81 161.139 1002.48 159.316C1002.15 157.493 1001.86 155.736 1001.6 154.043H1001.21C1000.43 158.405 999.551 161.79 998.574 164.199L980.41 215.859H1021.91ZM1076.8 260C1074.97 260 1073.64 259.577 1072.79 258.73C1071.95 257.884 1071.52 256.582 1071.52 254.824V143.691C1071.52 141.868 1071.95 140.566 1072.79 139.785C1073.64 138.939 1074.97 138.516 1076.8 138.516H1111.86C1128.13 138.516 1141.15 143.333 1150.92 152.969C1160.68 162.604 1165.57 178.001 1165.57 199.16C1165.57 220.449 1160.68 235.911 1150.92 245.547C1141.15 255.182 1128.13 260 1111.86 260H1076.8ZM1110.68 246.816C1122.4 246.816 1131.84 243.008 1139 235.391C1146.17 227.708 1149.75 215.632 1149.75 199.16C1149.75 188.092 1148.05 179.043 1144.67 172.012C1141.28 164.915 1136.66 159.772 1130.8 156.582C1124.94 153.327 1118.24 151.699 1110.68 151.699H1086.86V246.816H1110.68ZM1238.81 260.977C1221.43 260.977 1208.18 255.703 1199.06 245.156C1189.95 234.609 1185.39 219.18 1185.39 198.867C1185.39 178.62 1189.92 163.32 1198.96 152.969C1208.08 142.552 1221.36 137.344 1238.81 137.344C1256.32 137.344 1269.64 142.552 1278.75 152.969C1287.86 163.32 1292.42 178.62 1292.42 198.867C1292.42 219.18 1287.86 234.609 1278.75 245.156C1269.64 255.703 1256.32 260.977 1238.81 260.977ZM1238.81 247.793C1251.05 247.793 1260.42 243.626 1266.93 235.293C1273.44 226.895 1276.7 214.753 1276.7 198.867C1276.7 182.982 1273.44 170.97 1266.93 162.832C1260.49 154.629 1251.11 150.527 1238.81 150.527C1226.57 150.527 1217.23 154.629 1210.78 162.832C1204.34 170.97 1201.11 182.982 1201.11 198.867C1201.11 214.818 1204.34 226.96 1210.78 235.293C1217.23 243.626 1226.57 247.793 1238.81 247.793ZM1326.21 260.293C1321.52 260.293 1319.18 259.023 1319.18 256.484V143.691C1319.18 141.868 1319.6 140.566 1320.45 139.785C1321.3 138.939 1322.63 138.516 1324.45 138.516H1353.65C1367.52 138.516 1377.94 140.957 1384.9 145.84C1391.93 150.723 1395.45 158.503 1395.45 169.18C1395.45 176.406 1393.69 182.493 1390.18 187.441C1386.73 192.324 1381.84 196.003 1375.53 198.477V199.16C1378.91 200.332 1381.68 202.611 1383.83 205.996C1386.04 209.316 1388.48 214.264 1391.15 220.84L1404.73 255.117C1405.05 256.289 1405.21 257.103 1405.21 257.559C1405.21 259.382 1402.77 260.293 1397.89 260.293H1396.13C1394.38 260.293 1392.85 260.065 1391.54 259.609C1390.31 259.089 1389.52 258.405 1389.2 257.559L1376.02 223.477C1374.32 219.049 1372.34 215.599 1370.06 213.125C1367.78 210.651 1365.08 208.926 1361.95 207.949C1358.83 206.973 1354.89 206.484 1350.14 206.484H1334.51V256.484C1334.51 259.023 1332.2 260.293 1327.58 260.293H1326.21ZM1357.36 193.301C1361.46 193.301 1365.21 192.324 1368.59 190.371C1372.04 188.418 1374.75 185.814 1376.7 182.559C1378.72 179.238 1379.73 175.723 1379.73 172.012C1379.73 165.176 1377.64 160.098 1373.48 156.777C1369.31 153.392 1363.55 151.699 1356.19 151.699H1334.51V193.301H1357.36ZM1472.3 260C1470.48 260 1469.15 259.577 1468.3 258.73C1467.45 257.884 1467.03 256.582 1467.03 254.824V143.691C1467.03 141.868 1467.45 140.566 1468.3 139.785C1469.15 138.939 1470.48 138.516 1472.3 138.516H1507.36C1523.64 138.516 1536.66 143.333 1546.43 152.969C1556.19 162.604 1561.07 178.001 1561.07 199.16C1561.07 220.449 1556.19 235.911 1546.43 245.547C1536.66 255.182 1523.64 260 1507.36 260H1472.3ZM1506.19 246.816C1517.91 246.816 1527.35 243.008 1534.51 235.391C1541.67 227.708 1545.25 215.632 1545.25 199.16C1545.25 188.092 1543.56 179.043 1540.18 172.012C1536.79 164.915 1532.17 159.772 1526.31 156.582C1520.45 153.327 1513.74 151.699 1506.19 151.699H1482.36V246.816H1506.19ZM1593.01 260C1591.18 260 1589.85 259.577 1589 258.73C1588.16 257.884 1587.73 256.582 1587.73 254.824V143.691C1587.73 141.868 1588.16 140.566 1589 139.785C1589.85 138.939 1591.18 138.516 1593.01 138.516H1653.55C1654.79 138.516 1655.67 138.906 1656.19 139.688C1656.78 140.469 1657.07 141.803 1657.07 143.691V146.523C1657.07 148.281 1656.78 149.583 1656.19 150.43C1655.67 151.276 1654.79 151.699 1653.55 151.699H1603.07V191.25H1648.38C1649.62 191.25 1650.49 191.673 1651.02 192.52C1651.6 193.366 1651.89 194.701 1651.89 196.523V199.16C1651.89 200.983 1651.6 202.318 1651.02 203.164C1650.49 203.945 1649.62 204.336 1648.38 204.336H1603.07V246.816H1653.75C1654.99 246.816 1655.87 247.24 1656.39 248.086C1656.97 248.867 1657.27 250.169 1657.27 251.992V254.824C1657.27 256.582 1656.97 257.884 1656.39 258.73C1655.87 259.577 1654.99 260 1653.75 260H1593.01ZM663.711 495.977C644.701 495.977 630.638 490.964 621.523 480.938C612.409 470.911 607.852 455.319 607.852 434.16C607.852 392.949 626.569 372.344 664.004 372.344C669.473 372.344 674.779 372.93 679.922 374.102C685.065 375.208 689.232 376.608 692.422 378.301C695.612 379.993 697.207 381.621 697.207 383.184C697.207 384.16 696.849 385.462 696.133 387.09C695.482 388.717 694.701 390.15 693.789 391.387C692.878 392.624 692.064 393.242 691.348 393.242C691.022 393.242 690.111 392.819 688.613 391.973C685.228 390.15 681.68 388.62 677.969 387.383C674.258 386.146 669.733 385.527 664.395 385.527C650.397 385.527 640.078 389.434 633.438 397.246C626.862 404.993 623.574 417.363 623.574 434.355C623.574 450.957 626.829 463.197 633.34 471.074C639.915 478.887 650.039 482.793 663.711 482.793C669.44 482.793 674.355 482.109 678.457 480.742C682.559 479.375 686.497 477.682 690.273 475.664C692.096 474.688 693.203 474.199 693.594 474.199C694.31 474.199 695.124 474.818 696.035 476.055C697.012 477.292 697.858 478.691 698.574 480.254C699.29 481.751 699.648 482.826 699.648 483.477C699.648 485.104 697.988 486.927 694.668 488.945C691.413 490.898 687.018 492.559 681.484 493.926C676.016 495.293 670.091 495.977 663.711 495.977ZM715.078 495.293C712.474 495.293 710.586 495.065 709.414 494.609C708.242 494.089 707.656 493.34 707.656 492.363C707.656 491.908 707.819 491.126 708.145 490.02L749.258 375.859C749.909 373.971 752.22 373.027 756.191 373.027H761.27C765.241 373.027 767.552 373.971 768.203 375.859L809.316 490.117C809.642 490.833 809.805 491.582 809.805 492.363C809.805 494.316 807.363 495.293 802.48 495.293H801.016C796.979 495.293 794.635 494.382 793.984 492.559L783.828 464.043H732.852L722.891 492.559C722.305 494.382 719.993 495.293 715.957 495.293H715.078ZM779.141 450.859L760.977 399.199C760.456 397.767 760.033 396.139 759.707 394.316C759.382 392.493 759.089 390.736 758.828 389.043H758.438C757.656 393.405 756.777 396.79 755.801 399.199L737.637 450.859H779.141ZM835.781 495.293C831.094 495.293 828.75 494.023 828.75 491.484V378.691C828.75 376.868 829.173 375.566 830.02 374.785C830.866 373.939 832.201 373.516 834.023 373.516H863.223C877.09 373.516 887.507 375.957 894.473 380.84C901.504 385.723 905.02 393.503 905.02 404.18C905.02 411.406 903.262 417.493 899.746 422.441C896.296 427.324 891.413 431.003 885.098 433.477V434.16C888.483 435.332 891.25 437.611 893.398 440.996C895.612 444.316 898.053 449.264 900.723 455.84L914.297 490.117C914.622 491.289 914.785 492.103 914.785 492.559C914.785 494.382 912.344 495.293 907.461 495.293H905.703C903.945 495.293 902.415 495.065 901.113 494.609C899.876 494.089 899.095 493.405 898.77 492.559L885.586 458.477C883.893 454.049 881.908 450.599 879.629 448.125C877.35 445.651 874.648 443.926 871.523 442.949C868.398 441.973 864.46 441.484 859.707 441.484H844.082V491.484C844.082 494.023 841.771 495.293 837.148 495.293H835.781ZM866.934 428.301C871.035 428.301 874.779 427.324 878.164 425.371C881.615 423.418 884.316 420.814 886.27 417.559C888.288 414.238 889.297 410.723 889.297 407.012C889.297 400.176 887.214 395.098 883.047 391.777C878.88 388.392 873.118 386.699 865.762 386.699H844.082V428.301H866.934ZM965.273 495.293C962.865 495.293 961.107 495 960 494.414C958.893 493.763 958.34 492.786 958.34 491.484V386.699H924.941C923.704 386.699 922.826 386.276 922.305 385.43C921.784 384.583 921.523 383.281 921.523 381.523V378.691C921.523 376.868 921.784 375.566 922.305 374.785C922.826 373.939 923.704 373.516 924.941 373.516H1006.39C1007.62 373.516 1008.5 373.939 1009.02 374.785C1009.54 375.566 1009.8 376.868 1009.8 378.691V381.523C1009.8 383.281 1009.54 384.583 1009.02 385.43C1008.5 386.276 1007.62 386.699 1006.39 386.699H973.672V491.484C973.672 494.023 971.328 495.293 966.641 495.293H965.273ZM1076.7 495.977C1059.32 495.977 1046.07 490.703 1036.95 480.156C1027.84 469.609 1023.28 454.18 1023.28 433.867C1023.28 413.62 1027.81 398.32 1036.86 387.969C1045.97 377.552 1059.25 372.344 1076.7 372.344C1094.21 372.344 1107.53 377.552 1116.64 387.969C1125.76 398.32 1130.31 413.62 1130.31 433.867C1130.31 454.18 1125.76 469.609 1116.64 480.156C1107.53 490.703 1094.21 495.977 1076.7 495.977ZM1076.7 482.793C1088.94 482.793 1098.31 478.626 1104.82 470.293C1111.33 461.895 1114.59 449.753 1114.59 433.867C1114.59 417.982 1111.33 405.97 1104.82 397.832C1098.38 389.629 1089 385.527 1076.7 385.527C1064.46 385.527 1055.12 389.629 1048.67 397.832C1042.23 405.97 1039 417.982 1039 433.867C1039 449.818 1042.23 461.96 1048.67 470.293C1055.12 478.626 1064.46 482.793 1076.7 482.793ZM1048.48 360.82C1047.37 360.365 1046.82 359.681 1046.82 358.77C1046.82 357.988 1047.01 357.24 1047.4 356.523C1049.23 352.227 1051.41 349.167 1053.95 347.344C1056.55 345.456 1059.71 344.512 1063.42 344.512C1065.76 344.512 1068.17 344.87 1070.64 345.586C1073.12 346.237 1076.21 347.214 1079.92 348.516C1082.98 349.688 1085.59 350.566 1087.73 351.152C1089.88 351.738 1091.84 352.031 1093.59 352.031C1095.16 352.031 1096.49 351.673 1097.6 350.957C1098.77 350.176 1099.94 348.841 1101.11 346.953C1102.29 345.26 1103.42 344.414 1104.53 344.414C1104.92 344.414 1105.51 344.577 1106.29 344.902L1107.66 345.391C1108.37 345.651 1108.89 345.944 1109.22 346.27C1109.54 346.595 1109.71 347.018 1109.71 347.539C1109.71 348.255 1109.45 349.036 1108.93 349.883C1107.1 354.115 1104.89 357.142 1102.29 358.965C1099.75 360.788 1096.69 361.699 1093.11 361.699C1090.63 361.699 1088.12 361.374 1085.59 360.723C1083.11 360.007 1079.86 358.965 1075.82 357.598C1072.63 356.426 1070.03 355.579 1068.01 355.059C1065.99 354.473 1064.13 354.18 1062.44 354.18C1061.01 354.18 1059.74 354.603 1058.63 355.449C1057.53 356.23 1056.35 357.565 1055.12 359.453C1054.53 360.365 1054.01 361.016 1053.55 361.406C1053.1 361.797 1052.58 361.992 1051.99 361.992C1051.6 361.992 1051.02 361.829 1050.23 361.504L1048.48 360.82ZM1162.34 495C1160.52 495 1159.19 494.577 1158.34 493.73C1157.49 492.884 1157.07 491.582 1157.07 489.824V378.691C1157.07 376.868 1157.49 375.566 1158.34 374.785C1159.19 373.939 1160.52 373.516 1162.34 373.516H1222.89C1224.13 373.516 1225.01 373.906 1225.53 374.688C1226.11 375.469 1226.41 376.803 1226.41 378.691V381.523C1226.41 383.281 1226.11 384.583 1225.53 385.43C1225.01 386.276 1224.13 386.699 1222.89 386.699H1172.4V426.25H1217.71C1218.95 426.25 1219.83 426.673 1220.35 427.52C1220.94 428.366 1221.23 429.701 1221.23 431.523V434.16C1221.23 435.983 1220.94 437.318 1220.35 438.164C1219.83 438.945 1218.95 439.336 1217.71 439.336H1172.4V481.816H1223.09C1224.32 481.816 1225.2 482.24 1225.72 483.086C1226.31 483.867 1226.6 485.169 1226.6 486.992V489.824C1226.6 491.582 1226.31 492.884 1225.72 493.73C1225.2 494.577 1224.32 495 1223.09 495H1162.34ZM1277.58 495.977C1271.2 495.977 1265.24 495.293 1259.71 493.926C1254.24 492.493 1249.84 490.801 1246.52 488.848C1243.27 486.829 1241.64 485.007 1241.64 483.379C1241.64 482.467 1242 481.263 1242.71 479.766C1243.5 478.268 1244.38 476.934 1245.35 475.762C1246.33 474.59 1247.11 474.004 1247.7 474.004C1248.22 474.004 1249.36 474.525 1251.11 475.566C1255.15 477.65 1259.15 479.375 1263.12 480.742C1267.1 482.109 1271.91 482.793 1277.58 482.793C1282.01 482.793 1285.94 481.947 1289.39 480.254C1292.85 478.561 1295.51 476.185 1297.4 473.125C1299.36 470 1300.33 466.419 1300.33 462.383C1300.33 458.086 1299.16 454.538 1296.82 451.738C1294.54 448.874 1291.74 446.628 1288.42 445C1285.16 443.307 1280.41 441.224 1274.16 438.75C1267.39 436.146 1262.02 433.737 1258.05 431.523C1254.14 429.245 1250.79 425.957 1247.99 421.66C1245.25 417.363 1243.89 411.667 1243.89 404.57C1243.89 398.385 1245.48 392.852 1248.67 387.969C1251.86 383.021 1256.39 379.18 1262.25 376.445C1268.11 373.711 1274.84 372.344 1282.46 372.344C1285.91 372.344 1289.85 372.832 1294.28 373.809C1298.7 374.72 1302.48 375.99 1305.61 377.617C1308.8 379.245 1310.39 381.035 1310.39 382.988C1310.39 383.835 1310.03 385.007 1309.32 386.504C1308.67 387.936 1307.88 389.238 1306.97 390.41C1306.06 391.582 1305.35 392.168 1304.82 392.168C1304.24 392.168 1303.07 391.68 1301.31 390.703C1298.38 389.141 1295.48 387.904 1292.62 386.992C1289.75 386.016 1286.27 385.527 1282.17 385.527C1275.46 385.527 1270.03 387.253 1265.86 390.703C1261.76 394.154 1259.71 398.971 1259.71 405.156C1259.71 408.867 1260.62 411.927 1262.44 414.336C1264.26 416.745 1266.58 418.665 1269.38 420.098C1272.17 421.53 1276.08 423.19 1281.09 425.078C1281.42 425.143 1282.17 425.404 1283.34 425.859C1290.24 428.529 1295.87 431.133 1300.23 433.672C1304.66 436.146 1308.4 439.727 1311.46 444.414C1314.59 449.102 1316.15 455.091 1316.15 462.383C1316.15 469.219 1314.56 475.176 1311.37 480.254C1308.24 485.332 1303.75 489.238 1297.89 491.973C1292.1 494.642 1285.33 495.977 1277.58 495.977Z" fill="white"/>
<path d="M959.835 808.479C981.098 808.479 998.334 791.238 998.334 769.971C998.334 748.703 981.098 731.462 959.835 731.462C938.573 731.462 921.336 748.703 921.336 769.971C921.336 791.238 938.573 808.479 959.835 808.479Z" fill="#00D8FF"/>
<path d="M959.836 691.681C1011.52 691.681 1059.53 699.1 1095.73 711.559C1139.34 726.575 1166.16 749.342 1166.16 769.958C1166.16 791.439 1137.74 815.631 1090.91 831.144C1055.5 842.877 1008.89 849.011 959.836 849.011C909.53 849.011 861.909 843.259 826.095 831.017C780.789 815.529 753.499 791.032 753.499 769.958C753.499 749.507 779.11 726.919 822.112 711.928C858.448 699.265 907.647 691.681 959.836 691.681Z" stroke="#00D8FF" stroke-width="10" stroke-miterlimit="10"/>
<path d="M891.705 731.055C917.519 686.272 947.939 648.374 976.82 623.241C1011.62 592.953 1044.73 581.092 1062.58 591.388C1081.18 602.116 1087.94 638.83 1077.98 687.176C1070.45 723.724 1052.48 767.158 1027.97 809.675C1002.84 853.262 974.059 891.656 945.573 916.573C909.529 948.095 874.669 959.497 856.425 948.973C838.715 938.754 831.946 905.285 840.432 860.528C847.608 822.681 865.623 776.27 891.705 731.055Z" stroke="#00D8FF" stroke-width="10" stroke-miterlimit="10"/>
<path d="M891.769 809.764C865.878 765.02 848.245 719.741 840.891 682.161C832.036 636.883 838.295 602.255 856.133 591.935C874.721 581.168 909.886 593.653 946.782 626.422C974.683 651.199 1003.32 688.461 1027.9 730.94C1053.11 774.488 1072 818.596 1079.34 855.717C1088.64 902.701 1081.11 938.601 1062.88 949.151C1045.18 959.395 1012.81 948.553 978.284 918.838C949.123 893.73 917.914 854.941 891.769 809.764Z" stroke="#00D8FF" stroke-width="10" stroke-miterlimit="10"/>
</g>
<defs>
<clipPath id="clip0_216_123">
<rect width="1920" height="1080" fill="white"/>
</clipPath>
</defs>
</svg>
