<svg width="1920" height="1080" viewBox="0 0 1920 1080" fill="none" xmlns="http://www.w3.org/2000/svg">
<g clip-path="url(#clip0_216_97)">
<rect width="1920" height="1080" fill="#151515"/>
<path d="M297.793 378.977C293.236 378.977 289.134 378.586 285.488 377.805C281.908 377.023 280.117 375.591 280.117 373.508C280.117 373.052 280.28 372.01 280.605 370.383C280.931 368.755 281.354 367.258 281.875 365.891C282.461 364.523 283.177 363.84 284.023 363.84C284.154 363.84 284.87 363.97 286.172 364.23C287.865 364.621 289.329 364.947 290.566 365.207C291.868 365.402 293.333 365.5 294.961 365.5C303.555 365.5 309.74 363.807 313.516 360.422C317.357 357.036 319.277 351.6 319.277 344.113V259.934C319.277 257.329 321.589 256.027 326.211 256.027H327.578C332.266 256.027 334.609 257.329 334.609 259.934V342.355C334.609 353.879 331.647 362.863 325.723 369.309C319.863 375.754 310.553 378.977 297.793 378.977ZM412.441 378.977C395.059 378.977 381.81 373.703 372.695 363.156C363.581 352.609 359.023 337.18 359.023 316.867C359.023 296.62 363.548 281.32 372.598 270.969C381.712 260.552 394.993 255.344 412.441 255.344C429.954 255.344 443.268 260.552 452.383 270.969C461.497 281.32 466.055 296.62 466.055 316.867C466.055 337.18 461.497 352.609 452.383 363.156C443.268 373.703 429.954 378.977 412.441 378.977ZM412.441 365.793C424.681 365.793 434.056 361.626 440.566 353.293C447.077 344.895 450.332 332.753 450.332 316.867C450.332 300.982 447.077 288.97 440.566 280.832C434.121 272.629 424.746 268.527 412.441 268.527C400.202 268.527 390.859 272.629 384.414 280.832C377.969 288.97 374.746 300.982 374.746 316.867C374.746 332.818 377.969 344.96 384.414 353.293C390.859 361.626 400.202 365.793 412.441 365.793ZM539.492 378.977C522.044 378.977 508.763 373.964 499.648 363.938C490.534 353.846 485.977 338.612 485.977 318.234C485.977 276.307 504.694 255.344 542.129 255.344C547.598 255.344 552.904 255.93 558.047 257.102C563.19 258.208 567.357 259.608 570.547 261.301C573.737 262.993 575.332 264.621 575.332 266.184C575.332 267.16 574.974 268.462 574.258 270.09C573.607 271.717 572.826 273.15 571.914 274.387C571.003 275.624 570.189 276.242 569.473 276.242C569.147 276.242 568.236 275.819 566.738 274.973C563.353 273.15 559.805 271.62 556.094 270.383C552.383 269.146 547.858 268.527 542.52 268.527C527.806 268.527 517.324 272.596 511.074 280.734C504.824 288.807 501.699 300.786 501.699 316.672C501.699 331.646 504.596 343.592 510.391 352.512C516.25 361.366 526.341 365.793 540.664 365.793C545.026 365.793 549.225 365.598 553.262 365.207C557.363 364.751 560.618 364.198 563.027 363.547V328.488H542.715C541.478 328.488 540.566 328.098 539.98 327.316C539.46 326.47 539.199 325.135 539.199 323.312V320.48C539.199 318.658 539.46 317.355 539.98 316.574C540.566 315.728 541.478 315.305 542.715 315.305H573.086C574.909 315.305 576.243 315.728 577.09 316.574C577.936 317.355 578.359 318.658 578.359 320.48V366.477C578.359 370.969 574.714 374.191 567.422 376.145C560.13 378.033 550.82 378.977 539.492 378.977ZM656.191 378.977C638.809 378.977 625.56 373.703 616.445 363.156C607.331 352.609 602.773 337.18 602.773 316.867C602.773 296.62 607.298 281.32 616.348 270.969C625.462 260.552 638.743 255.344 656.191 255.344C673.704 255.344 687.018 260.552 696.133 270.969C705.247 281.32 709.805 296.62 709.805 316.867C709.805 337.18 705.247 352.609 696.133 363.156C687.018 373.703 673.704 378.977 656.191 378.977ZM656.191 365.793C668.431 365.793 677.806 361.626 684.316 353.293C690.827 344.895 694.082 332.753 694.082 316.867C694.082 300.982 690.827 288.97 684.316 280.832C677.871 272.629 668.496 268.527 656.191 268.527C643.952 268.527 634.609 272.629 628.164 280.832C621.719 288.97 618.496 300.982 618.496 316.867C618.496 332.818 621.719 344.96 628.164 353.293C634.609 361.626 643.952 365.793 656.191 365.793ZM783.633 378C781.81 378 780.475 377.577 779.629 376.73C778.783 375.884 778.359 374.582 778.359 372.824V261.691C778.359 259.868 778.783 258.566 779.629 257.785C780.475 256.939 781.81 256.516 783.633 256.516H818.691C834.967 256.516 847.988 261.333 857.754 270.969C867.52 280.604 872.402 296.001 872.402 317.16C872.402 338.449 867.52 353.911 857.754 363.547C847.988 373.182 834.967 378 818.691 378H783.633ZM817.52 364.816C829.238 364.816 838.678 361.008 845.84 353.391C853.001 345.708 856.582 333.632 856.582 317.16C856.582 306.092 854.889 297.043 851.504 290.012C848.118 282.915 843.496 277.772 837.637 274.582C831.777 271.327 825.072 269.699 817.52 269.699H793.691V364.816H817.52ZM904.336 378C902.513 378 901.178 377.577 900.332 376.73C899.486 375.884 899.062 374.582 899.062 372.824V261.691C899.062 259.868 899.486 258.566 900.332 257.785C901.178 256.939 902.513 256.516 904.336 256.516H964.883C966.12 256.516 966.999 256.906 967.52 257.688C968.105 258.469 968.398 259.803 968.398 261.691V264.523C968.398 266.281 968.105 267.583 967.52 268.43C966.999 269.276 966.12 269.699 964.883 269.699H914.395V309.25H959.707C960.944 309.25 961.823 309.673 962.344 310.52C962.93 311.366 963.223 312.701 963.223 314.523V317.16C963.223 318.983 962.93 320.318 962.344 321.164C961.823 321.945 960.944 322.336 959.707 322.336H914.395V364.816H965.078C966.315 364.816 967.194 365.24 967.715 366.086C968.301 366.867 968.594 368.169 968.594 369.992V372.824C968.594 374.582 968.301 375.884 967.715 376.73C967.194 377.577 966.315 378 965.078 378H904.336ZM1041.05 378C1039.23 378 1037.9 377.577 1037.05 376.73C1036.2 375.884 1035.78 374.582 1035.78 372.824V261.691C1035.78 259.868 1036.2 258.566 1037.05 257.785C1037.9 256.939 1039.23 256.516 1041.05 256.516H1101.6C1102.84 256.516 1103.72 256.906 1104.24 257.688C1104.82 258.469 1105.12 259.803 1105.12 261.691V264.523C1105.12 266.281 1104.82 267.583 1104.24 268.43C1103.72 269.276 1102.84 269.699 1101.6 269.699H1051.11V309.25H1096.43C1097.66 309.25 1098.54 309.673 1099.06 310.52C1099.65 311.366 1099.94 312.701 1099.94 314.523V317.16C1099.94 318.983 1099.65 320.318 1099.06 321.164C1098.54 321.945 1097.66 322.336 1096.43 322.336H1051.11V364.816H1101.8C1103.03 364.816 1103.91 365.24 1104.43 366.086C1105.02 366.867 1105.31 368.169 1105.31 369.992V372.824C1105.31 374.582 1105.02 375.884 1104.43 376.73C1103.91 377.577 1103.03 378 1101.8 378H1041.05ZM1156.29 378.977C1149.91 378.977 1143.95 378.293 1138.42 376.926C1132.95 375.493 1128.55 373.801 1125.23 371.848C1121.98 369.829 1120.35 368.007 1120.35 366.379C1120.35 365.467 1120.71 364.263 1121.43 362.766C1122.21 361.268 1123.09 359.934 1124.06 358.762C1125.04 357.59 1125.82 357.004 1126.41 357.004C1126.93 357.004 1128.07 357.525 1129.82 358.566C1133.86 360.65 1137.86 362.375 1141.84 363.742C1145.81 365.109 1150.62 365.793 1156.29 365.793C1160.72 365.793 1164.65 364.947 1168.11 363.254C1171.56 361.561 1174.23 359.185 1176.11 356.125C1178.07 353 1179.04 349.419 1179.04 345.383C1179.04 341.086 1177.87 337.538 1175.53 334.738C1173.25 331.874 1170.45 329.628 1167.13 328C1163.87 326.307 1159.12 324.224 1152.87 321.75C1146.1 319.146 1140.73 316.737 1136.76 314.523C1132.85 312.245 1129.5 308.957 1126.7 304.66C1123.96 300.363 1122.6 294.667 1122.6 287.57C1122.6 281.385 1124.19 275.852 1127.38 270.969C1130.57 266.021 1135.1 262.18 1140.96 259.445C1146.82 256.711 1153.55 255.344 1161.17 255.344C1164.62 255.344 1168.56 255.832 1172.99 256.809C1177.42 257.72 1181.19 258.99 1184.32 260.617C1187.51 262.245 1189.1 264.035 1189.1 265.988C1189.1 266.835 1188.74 268.007 1188.03 269.504C1187.38 270.936 1186.6 272.238 1185.68 273.41C1184.77 274.582 1184.06 275.168 1183.54 275.168C1182.95 275.168 1181.78 274.68 1180.02 273.703C1177.09 272.141 1174.19 270.904 1171.33 269.992C1168.46 269.016 1164.98 268.527 1160.88 268.527C1154.17 268.527 1148.74 270.253 1144.57 273.703C1140.47 277.154 1138.42 281.971 1138.42 288.156C1138.42 291.867 1139.33 294.927 1141.15 297.336C1142.98 299.745 1145.29 301.665 1148.09 303.098C1150.89 304.53 1154.79 306.19 1159.8 308.078C1160.13 308.143 1160.88 308.404 1162.05 308.859C1168.95 311.529 1174.58 314.133 1178.95 316.672C1183.37 319.146 1187.12 322.727 1190.18 327.414C1193.3 332.102 1194.86 338.091 1194.86 345.383C1194.86 352.219 1193.27 358.176 1190.08 363.254C1186.95 368.332 1182.46 372.238 1176.6 374.973C1170.81 377.642 1164.04 378.977 1156.29 378.977ZM1222.5 378.293C1220.09 378.293 1218.33 378 1217.23 377.414C1216.18 376.763 1215.66 375.786 1215.66 374.484V261.691C1215.66 259.803 1216.05 258.469 1216.84 257.688C1217.68 256.906 1219.02 256.516 1220.84 256.516H1256C1266.15 256.516 1275.14 258.957 1282.95 263.84C1290.83 268.658 1294.77 277.544 1294.77 290.5C1294.77 300.135 1292.52 307.622 1288.03 312.961C1283.54 318.234 1278.49 321.783 1272.89 323.605C1267.29 325.363 1262.25 326.242 1257.75 326.242H1230.8V374.484C1230.8 375.786 1230.25 376.763 1229.14 377.414C1228.03 378 1226.31 378.293 1223.96 378.293H1222.5ZM1257.95 313.059C1260.88 313.059 1263.94 312.44 1267.13 311.203C1270.32 309.901 1273.09 307.59 1275.43 304.27C1277.77 300.884 1278.95 296.294 1278.95 290.5C1278.95 282.753 1276.63 277.349 1272.01 274.289C1267.45 271.229 1261.95 269.699 1255.51 269.699H1230.8V313.059H1257.95ZM1309.41 378.293C1306.81 378.293 1304.92 378.065 1303.75 377.609C1302.58 377.089 1301.99 376.34 1301.99 375.363C1301.99 374.908 1302.15 374.126 1302.48 373.02L1343.59 258.859C1344.24 256.971 1346.56 256.027 1350.53 256.027H1355.61C1359.58 256.027 1361.89 256.971 1362.54 258.859L1403.65 373.117C1403.98 373.833 1404.14 374.582 1404.14 375.363C1404.14 377.316 1401.7 378.293 1396.82 378.293H1395.35C1391.32 378.293 1388.97 377.382 1388.32 375.559L1378.16 347.043H1327.19L1317.23 375.559C1316.64 377.382 1314.33 378.293 1310.29 378.293H1309.41ZM1373.48 333.859L1355.31 282.199C1354.79 280.767 1354.37 279.139 1354.04 277.316C1353.72 275.493 1353.42 273.736 1353.16 272.043H1352.77C1351.99 276.405 1351.11 279.79 1350.14 282.199L1331.97 333.859H1373.48ZM1508.05 366.477C1508.05 368.104 1506.45 369.895 1503.26 371.848C1500.07 373.801 1495.77 375.461 1490.37 376.828C1484.97 378.195 1479.14 378.911 1472.89 378.977L1470.74 386.496H1471.43C1474.75 386.496 1478.03 387.375 1481.29 389.133C1484.54 390.891 1486.17 394.178 1486.17 398.996C1486.17 405.051 1484.25 409.152 1480.41 411.301C1476.63 413.449 1471.91 414.523 1466.25 414.523C1463.52 414.523 1460.55 414.198 1457.36 413.547C1454.24 412.961 1451.6 412.082 1449.45 410.91C1447.3 409.803 1446.23 408.501 1446.23 407.004C1446.23 405.767 1446.49 404.693 1447.01 403.781C1447.53 402.935 1448.38 402.512 1449.55 402.512C1450.14 402.512 1450.89 402.674 1451.8 403C1452.77 403.326 1453.49 403.553 1453.95 403.684C1455.83 404.4 1457.53 404.953 1459.02 405.344C1460.59 405.734 1462.21 405.93 1463.91 405.93C1466.71 405.93 1469.05 405.539 1470.94 404.758C1472.89 403.977 1473.87 402.382 1473.87 399.973C1473.87 398.02 1473.28 396.587 1472.11 395.676C1470.94 394.829 1469.24 394.048 1467.03 393.332C1465.47 392.811 1464.3 392.323 1463.52 391.867C1462.8 391.411 1462.44 390.728 1462.44 389.816C1462.44 389.1 1462.67 387.928 1463.12 386.301C1463.58 384.673 1464.36 382.167 1465.47 378.781C1448.67 377.674 1436.27 372.108 1428.26 362.082C1420.25 352.056 1416.25 337.082 1416.25 317.16C1416.25 275.949 1434.97 255.344 1472.4 255.344C1477.87 255.344 1483.18 255.93 1488.32 257.102C1493.46 258.208 1497.63 259.608 1500.82 261.301C1504.01 262.993 1505.61 264.621 1505.61 266.184C1505.61 267.16 1505.25 268.462 1504.53 270.09C1503.88 271.717 1503.1 273.15 1502.19 274.387C1501.28 275.624 1500.46 276.242 1499.75 276.242C1499.42 276.242 1498.51 275.819 1497.01 274.973C1493.63 273.15 1490.08 271.62 1486.37 270.383C1482.66 269.146 1478.13 268.527 1472.79 268.527C1458.8 268.527 1448.48 272.434 1441.84 280.246C1435.26 287.993 1431.97 300.363 1431.97 317.355C1431.97 333.957 1435.23 346.197 1441.74 354.074C1448.31 361.887 1458.44 365.793 1472.11 365.793C1477.84 365.793 1482.75 365.109 1486.86 363.742C1490.96 362.375 1494.9 360.682 1498.67 358.664C1500.49 357.688 1501.6 357.199 1501.99 357.199C1502.71 357.199 1503.52 357.818 1504.43 359.055C1505.41 360.292 1506.26 361.691 1506.97 363.254C1507.69 364.751 1508.05 365.826 1508.05 366.477ZM1577.29 378.977C1559.9 378.977 1546.65 373.703 1537.54 363.156C1528.42 352.609 1523.87 337.18 1523.87 316.867C1523.87 296.62 1528.39 281.32 1537.44 270.969C1546.56 260.552 1559.84 255.344 1577.29 255.344C1594.8 255.344 1608.11 260.552 1617.23 270.969C1626.34 281.32 1630.9 296.62 1630.9 316.867C1630.9 337.18 1626.34 352.609 1617.23 363.156C1608.11 373.703 1594.8 378.977 1577.29 378.977ZM1577.29 365.793C1589.52 365.793 1598.9 361.626 1605.41 353.293C1611.92 344.895 1615.18 332.753 1615.18 316.867C1615.18 300.982 1611.92 288.97 1605.41 280.832C1598.96 272.629 1589.59 268.527 1577.29 268.527C1565.05 268.527 1555.7 272.629 1549.26 280.832C1542.81 288.97 1539.59 300.982 1539.59 316.867C1539.59 332.818 1542.81 344.96 1549.26 353.293C1555.7 361.626 1565.05 365.793 1577.29 365.793Z" fill="white"/>
<path d="M960.598 613.908C1060.43 536.403 1009.2 486 1009.2 486C1016.82 566.124 926.704 585.043 902.547 640.102C886.064 677.673 913.835 710.569 960.565 752.032C956.434 742.849 950.062 733.926 943.612 724.893C921.611 694.082 898.692 661.985 960.598 613.908Z" fill="#E76F00"/>
<path d="M976.538 769.028C976.538 769.028 1006.57 744.796 982.788 717.866C902.157 626.504 1070.97 585.043 1070.97 585.043C967.904 634.697 983.291 664.17 1009.2 699.975C1036.94 738.369 976.538 769.028 976.538 769.028Z" fill="#E76F00"/>
<path d="M1064.97 841.291C1157.49 794.014 1114.71 748.583 1084.85 754.704C1077.53 756.201 1074.27 757.499 1074.27 757.499C1074.27 757.499 1076.99 753.314 1082.18 751.502C1141.25 731.082 1186.67 811.73 1063.11 843.673C1063.11 843.673 1064.54 842.416 1064.97 841.291Z" fill="#5382A1"/>
<path d="M872.453 781.453C814.567 773.852 904.193 752.919 904.193 752.919C904.193 752.919 869.387 750.611 826.581 770.958C775.965 795.036 951.785 805.986 1042.8 782.448C1052.26 776.094 1065.34 770.587 1065.34 770.587C1065.34 770.587 1028.09 777.127 991.003 780.205C945.619 783.943 896.894 784.672 872.453 781.453Z" fill="#5382A1"/>
<path d="M894.479 826.594C862.199 823.312 883.335 807.926 883.335 807.926C799.806 835.188 929.808 866.103 1046.52 832.541C1034.12 828.24 1026.23 820.374 1026.23 820.374C969.186 831.175 936.221 830.83 894.479 826.594Z" fill="#5382A1"/>
<path d="M908.543 875.44C876.288 871.794 895.132 861.018 895.132 861.018C819.308 881.852 941.251 924.893 1037.79 884.208C1021.98 878.162 1010.65 871.182 1010.65 871.182C967.591 879.195 947.618 879.824 908.543 875.44Z" fill="#5382A1"/>
<path d="M1110.46 900.287C1110.46 900.287 1124.4 911.586 1095.1 920.327C1039.37 936.926 863.179 941.939 814.232 920.989C796.637 913.462 829.633 903.017 840.012 900.824C850.836 898.516 857.022 898.946 857.022 898.946C837.455 885.391 730.546 925.562 802.718 937.067C999.542 968.455 1161.51 922.932 1110.46 900.287Z" fill="#5382A1"/>
<path d="M1141.69 924.974C1138.46 966.296 1002.09 974.988 913.285 969.398C855.351 965.744 843.74 956.614 843.57 956.48C899.018 965.47 992.502 967.106 1068.3 953.078C1135.48 940.639 1141.69 924.974 1141.69 924.974Z" fill="#5382A1"/>
</g>
<defs>
<clipPath id="clip0_216_97">
<rect width="1920" height="1080" fill="white"/>
</clipPath>
</defs>
</svg>
