<svg width="1920" height="1080" viewBox="0 0 1920 1080" fill="none" xmlns="http://www.w3.org/2000/svg">
<g clip-path="url(#clip0_216_10)">
<rect width="1920" height="1080" fill="#151515"/>
<path d="M551.699 260.293C549.29 260.293 547.533 260 546.426 259.414C545.384 258.763 544.863 257.786 544.863 256.484V143.691C544.863 141.803 545.254 140.469 546.035 139.688C546.882 138.906 548.216 138.516 550.039 138.516H585.195C595.352 138.516 604.336 140.957 612.148 145.84C620.026 150.658 623.965 159.544 623.965 172.5C623.965 182.135 621.719 189.622 617.227 194.961C612.734 200.234 607.689 203.783 602.09 205.605C596.491 207.363 591.445 208.242 586.953 208.242H560V256.484C560 257.786 559.447 258.763 558.34 259.414C557.233 260 555.508 260.293 553.164 260.293H551.699ZM587.148 195.059C590.078 195.059 593.138 194.44 596.328 193.203C599.518 191.901 602.285 189.59 604.629 186.27C606.973 182.884 608.145 178.294 608.145 172.5C608.145 164.753 605.833 159.349 601.211 156.289C596.654 153.229 591.152 151.699 584.707 151.699H560V195.059H587.148ZM638.613 260.293C636.009 260.293 634.121 260.065 632.949 259.609C631.777 259.089 631.191 258.34 631.191 257.363C631.191 256.908 631.354 256.126 631.68 255.02L672.793 140.859C673.444 138.971 675.755 138.027 679.727 138.027H684.805C688.776 138.027 691.087 138.971 691.738 140.859L732.852 255.117C733.177 255.833 733.34 256.582 733.34 257.363C733.34 259.316 730.898 260.293 726.016 260.293H724.551C720.514 260.293 718.171 259.382 717.52 257.559L707.363 229.043H656.387L646.426 257.559C645.84 259.382 643.529 260.293 639.492 260.293H638.613ZM702.676 215.859L684.512 164.199C683.991 162.767 683.568 161.139 683.242 159.316C682.917 157.493 682.624 155.736 682.363 154.043H681.973C681.191 158.405 680.312 161.79 679.336 164.199L661.172 215.859H702.676ZM679.336 127.676C676.667 127.676 675.332 127.122 675.332 126.016C675.332 125.234 675.918 123.737 677.09 121.523C678.262 119.31 681.061 114.362 685.488 106.68C686.4 105.117 687.702 103.978 689.395 103.262C691.152 102.546 693.431 102.188 696.23 102.188C699.16 102.188 701.276 102.35 702.578 102.676C703.88 103.001 704.531 103.62 704.531 104.531C704.531 105.117 704.271 105.801 703.75 106.582C703.229 107.363 701.96 108.893 699.941 111.172C697.988 113.451 695.482 116.348 692.422 119.863L688.223 124.648C687.311 125.625 686.074 126.374 684.512 126.895C682.949 127.415 681.224 127.676 679.336 127.676ZM798.965 260.977C781.517 260.977 768.236 255.964 759.121 245.938C750.007 235.846 745.449 220.612 745.449 200.234C745.449 158.307 764.167 137.344 801.602 137.344C807.07 137.344 812.376 137.93 817.52 139.102C822.663 140.208 826.829 141.608 830.02 143.301C833.21 144.993 834.805 146.621 834.805 148.184C834.805 149.16 834.447 150.462 833.73 152.09C833.079 153.717 832.298 155.15 831.387 156.387C830.475 157.624 829.661 158.242 828.945 158.242C828.62 158.242 827.708 157.819 826.211 156.973C822.826 155.15 819.277 153.62 815.566 152.383C811.855 151.146 807.331 150.527 801.992 150.527C787.279 150.527 776.797 154.596 770.547 162.734C764.297 170.807 761.172 182.786 761.172 198.672C761.172 213.646 764.069 225.592 769.863 234.512C775.723 243.366 785.814 247.793 800.137 247.793C804.499 247.793 808.698 247.598 812.734 247.207C816.836 246.751 820.091 246.198 822.5 245.547V210.488H802.188C800.951 210.488 800.039 210.098 799.453 209.316C798.932 208.47 798.672 207.135 798.672 205.312V202.48C798.672 200.658 798.932 199.355 799.453 198.574C800.039 197.728 800.951 197.305 802.188 197.305H832.559C834.382 197.305 835.716 197.728 836.562 198.574C837.409 199.355 837.832 200.658 837.832 202.48V248.477C837.832 252.969 834.186 256.191 826.895 258.145C819.603 260.033 810.293 260.977 798.965 260.977ZM876.113 260.293C871.426 260.293 869.082 259.023 869.082 256.484V141.934C869.082 139.329 871.426 138.027 876.113 138.027H877.48C882.103 138.027 884.414 139.329 884.414 141.934V256.484C884.414 259.023 882.103 260.293 877.48 260.293H876.113ZM923.965 260.293C921.491 260.293 919.701 260 918.594 259.414C917.487 258.763 916.934 257.786 916.934 256.484V141.934C916.934 139.329 919.277 138.027 923.965 138.027H927.578C929.401 138.027 930.833 138.288 931.875 138.809C932.982 139.329 933.958 140.176 934.805 141.348L990.273 225.039L995.449 234.805V141.934C995.449 139.329 997.728 138.027 1002.29 138.027H1003.65C1008.21 138.027 1010.49 139.329 1010.49 141.934V256.484C1010.49 257.786 1009.93 258.763 1008.83 259.414C1007.72 260 1006 260.293 1003.65 260.293H1000.14C998.509 260.293 997.207 260.098 996.23 259.707C995.254 259.316 994.505 258.698 993.984 257.852L936.758 171.523L932.07 162.539V256.484C932.07 259.023 929.759 260.293 925.137 260.293H923.965ZM1035.68 260.293C1033.08 260.293 1031.19 260.065 1030.02 259.609C1028.85 259.089 1028.26 258.34 1028.26 257.363C1028.26 256.908 1028.42 256.126 1028.75 255.02L1069.86 140.859C1070.51 138.971 1072.83 138.027 1076.8 138.027H1081.88C1085.85 138.027 1088.16 138.971 1088.81 140.859L1129.92 255.117C1130.25 255.833 1130.41 256.582 1130.41 257.363C1130.41 259.316 1127.97 260.293 1123.09 260.293H1121.62C1117.58 260.293 1115.24 259.382 1114.59 257.559L1104.43 229.043H1053.46L1043.5 257.559C1042.91 259.382 1040.6 260.293 1036.56 260.293H1035.68ZM1099.75 215.859L1081.58 164.199C1081.06 162.767 1080.64 161.139 1080.31 159.316C1079.99 157.493 1079.69 155.736 1079.43 154.043H1079.04C1078.26 158.405 1077.38 161.79 1076.41 164.199L1058.24 215.859H1099.75ZM1196.43 260C1194.6 260 1193.27 259.577 1192.42 258.73C1191.58 257.884 1191.15 256.582 1191.15 254.824V143.691C1191.15 141.868 1191.58 140.566 1192.42 139.785C1193.27 138.939 1194.6 138.516 1196.43 138.516H1231.48C1247.76 138.516 1260.78 143.333 1270.55 152.969C1280.31 162.604 1285.2 178.001 1285.2 199.16C1285.2 220.449 1280.31 235.911 1270.55 245.547C1260.78 255.182 1247.76 260 1231.48 260H1196.43ZM1230.31 246.816C1242.03 246.816 1251.47 243.008 1258.63 235.391C1265.79 227.708 1269.38 215.632 1269.38 199.16C1269.38 188.092 1267.68 179.043 1264.3 172.012C1260.91 164.915 1256.29 159.772 1250.43 156.582C1244.57 153.327 1237.86 151.699 1230.31 151.699H1206.48V246.816H1230.31ZM1317.13 260C1315.31 260 1313.97 259.577 1313.12 258.73C1312.28 257.884 1311.86 256.582 1311.86 254.824V143.691C1311.86 141.868 1312.28 140.566 1313.12 139.785C1313.97 138.939 1315.31 138.516 1317.13 138.516H1377.68C1378.91 138.516 1379.79 138.906 1380.31 139.688C1380.9 140.469 1381.19 141.803 1381.19 143.691V146.523C1381.19 148.281 1380.9 149.583 1380.31 150.43C1379.79 151.276 1378.91 151.699 1377.68 151.699H1327.19V191.25H1372.5C1373.74 191.25 1374.62 191.673 1375.14 192.52C1375.72 193.366 1376.02 194.701 1376.02 196.523V199.16C1376.02 200.983 1375.72 202.318 1375.14 203.164C1374.62 203.945 1373.74 204.336 1372.5 204.336H1327.19V246.816H1377.87C1379.11 246.816 1379.99 247.24 1380.51 248.086C1381.09 248.867 1381.39 250.169 1381.39 251.992V254.824C1381.39 256.582 1381.09 257.884 1380.51 258.73C1379.99 259.577 1379.11 260 1377.87 260H1317.13ZM653.555 495.977C634.544 495.977 620.482 490.964 611.367 480.938C602.253 470.911 597.695 455.319 597.695 434.16C597.695 392.949 616.413 372.344 653.848 372.344C659.316 372.344 664.622 372.93 669.766 374.102C674.909 375.208 679.076 376.608 682.266 378.301C685.456 379.993 687.051 381.621 687.051 383.184C687.051 384.16 686.693 385.462 685.977 387.09C685.326 388.717 684.544 390.15 683.633 391.387C682.721 392.624 681.908 393.242 681.191 393.242C680.866 393.242 679.954 392.819 678.457 391.973C675.072 390.15 671.523 388.62 667.812 387.383C664.102 386.146 659.577 385.527 654.238 385.527C640.241 385.527 629.922 389.434 623.281 397.246C616.706 404.993 613.418 417.363 613.418 434.355C613.418 450.957 616.673 463.197 623.184 471.074C629.759 478.887 639.883 482.793 653.555 482.793C659.284 482.793 664.199 482.109 668.301 480.742C672.402 479.375 676.341 477.682 680.117 475.664C681.94 474.688 683.047 474.199 683.438 474.199C684.154 474.199 684.967 474.818 685.879 476.055C686.855 477.292 687.702 478.691 688.418 480.254C689.134 481.751 689.492 482.826 689.492 483.477C689.492 485.104 687.832 486.927 684.512 488.945C681.257 490.898 676.862 492.559 671.328 493.926C665.859 495.293 659.935 495.977 653.555 495.977ZM704.922 495.293C702.318 495.293 700.43 495.065 699.258 494.609C698.086 494.089 697.5 493.34 697.5 492.363C697.5 491.908 697.663 491.126 697.988 490.02L739.102 375.859C739.753 373.971 742.064 373.027 746.035 373.027H751.113C755.085 373.027 757.396 373.971 758.047 375.859L799.16 490.117C799.486 490.833 799.648 491.582 799.648 492.363C799.648 494.316 797.207 495.293 792.324 495.293H790.859C786.823 495.293 784.479 494.382 783.828 492.559L773.672 464.043H722.695L712.734 492.559C712.148 494.382 709.837 495.293 705.801 495.293H704.922ZM768.984 450.859L750.82 399.199C750.299 397.767 749.876 396.139 749.551 394.316C749.225 392.493 748.932 390.736 748.672 389.043H748.281C747.5 393.405 746.621 396.79 745.645 399.199L727.48 450.859H768.984ZM823.477 495.293C821.068 495.293 819.31 495 818.203 494.414C817.161 493.763 816.641 492.786 816.641 491.484V378.691C816.641 376.803 817.031 375.469 817.812 374.688C818.659 373.906 819.993 373.516 821.816 373.516H856.973C867.129 373.516 876.113 375.957 883.926 380.84C891.803 385.658 895.742 394.544 895.742 407.5C895.742 417.135 893.496 424.622 889.004 429.961C884.512 435.234 879.466 438.783 873.867 440.605C868.268 442.363 863.223 443.242 858.73 443.242H831.777V491.484C831.777 492.786 831.224 493.763 830.117 494.414C829.01 495 827.285 495.293 824.941 495.293H823.477ZM858.926 430.059C861.855 430.059 864.915 429.44 868.105 428.203C871.296 426.901 874.062 424.59 876.406 421.27C878.75 417.884 879.922 413.294 879.922 407.5C879.922 399.753 877.611 394.349 872.988 391.289C868.431 388.229 862.93 386.699 856.484 386.699H831.777V430.059H858.926ZM948.086 495.293C945.677 495.293 943.919 495 942.812 494.414C941.706 493.763 941.152 492.786 941.152 491.484V386.699H907.754C906.517 386.699 905.638 386.276 905.117 385.43C904.596 384.583 904.336 383.281 904.336 381.523V378.691C904.336 376.868 904.596 375.566 905.117 374.785C905.638 373.939 906.517 373.516 907.754 373.516H989.199C990.436 373.516 991.315 373.939 991.836 374.785C992.357 375.566 992.617 376.868 992.617 378.691V381.523C992.617 383.281 992.357 384.583 991.836 385.43C991.315 386.276 990.436 386.699 989.199 386.699H956.484V491.484C956.484 494.023 954.141 495.293 949.453 495.293H948.086ZM1057.95 495.977C1047.86 495.977 1039.26 494.414 1032.17 491.289C1025.07 488.099 1019.7 483.509 1016.05 477.52C1012.41 471.53 1010.59 464.368 1010.59 456.035V376.934C1010.59 374.329 1012.9 373.027 1017.52 373.027H1018.89C1023.51 373.027 1025.82 374.329 1025.82 376.934V456.621C1025.82 461.699 1027.22 466.224 1030.02 470.195C1032.82 474.167 1036.66 477.259 1041.54 479.473C1046.43 481.686 1051.89 482.793 1057.95 482.793C1064.07 482.793 1069.57 481.686 1074.45 479.473C1079.34 477.194 1083.14 474.069 1085.88 470.098C1088.68 466.126 1090.08 461.634 1090.08 456.621V376.934C1090.08 374.329 1092.39 373.027 1097.01 373.027H1098.48C1103.03 373.027 1105.31 374.329 1105.31 376.934V456.035C1105.31 464.368 1103.49 471.53 1099.84 477.52C1096.2 483.509 1090.83 488.099 1083.73 491.289C1076.63 494.414 1068.04 495.977 1057.95 495.977ZM1143.59 495.293C1138.91 495.293 1136.56 494.023 1136.56 491.484V378.691C1136.56 376.868 1136.99 375.566 1137.83 374.785C1138.68 373.939 1140.01 373.516 1141.84 373.516H1171.04C1184.9 373.516 1195.32 375.957 1202.29 380.84C1209.32 385.723 1212.83 393.503 1212.83 404.18C1212.83 411.406 1211.07 417.493 1207.56 422.441C1204.11 427.324 1199.23 431.003 1192.91 433.477V434.16C1196.3 435.332 1199.06 437.611 1201.21 440.996C1203.42 444.316 1205.87 449.264 1208.54 455.84L1222.11 490.117C1222.43 491.289 1222.6 492.103 1222.6 492.559C1222.6 494.382 1220.16 495.293 1215.27 495.293H1213.52C1211.76 495.293 1210.23 495.065 1208.93 494.609C1207.69 494.089 1206.91 493.405 1206.58 492.559L1193.4 458.477C1191.71 454.049 1189.72 450.599 1187.44 448.125C1185.16 445.651 1182.46 443.926 1179.34 442.949C1176.21 441.973 1172.27 441.484 1167.52 441.484H1151.89V491.484C1151.89 494.023 1149.58 495.293 1144.96 495.293H1143.59ZM1174.75 428.301C1178.85 428.301 1182.59 427.324 1185.98 425.371C1189.43 423.418 1192.13 420.814 1194.08 417.559C1196.1 414.238 1197.11 410.723 1197.11 407.012C1197.11 400.176 1195.03 395.098 1190.86 391.777C1186.69 388.392 1180.93 386.699 1173.57 386.699H1151.89V428.301H1174.75ZM1235.39 495.293C1232.79 495.293 1230.9 495.065 1229.73 494.609C1228.55 494.089 1227.97 493.34 1227.97 492.363C1227.97 491.908 1228.13 491.126 1228.46 490.02L1269.57 375.859C1270.22 373.971 1272.53 373.027 1276.5 373.027H1281.58C1285.55 373.027 1287.86 373.971 1288.52 375.859L1329.63 490.117C1329.95 490.833 1330.12 491.582 1330.12 492.363C1330.12 494.316 1327.68 495.293 1322.79 495.293H1321.33C1317.29 495.293 1314.95 494.382 1314.3 492.559L1304.14 464.043H1253.16L1243.2 492.559C1242.62 494.382 1240.31 495.293 1236.27 495.293H1235.39ZM1299.45 450.859L1281.29 399.199C1280.77 397.767 1280.35 396.139 1280.02 394.316C1279.69 392.493 1279.4 390.736 1279.14 389.043H1278.75C1277.97 393.405 1277.09 396.79 1276.11 399.199L1257.95 450.859H1299.45Z" fill="white"/>
<path d="M580.835 828.479C602.098 828.479 619.334 811.238 619.334 789.971C619.334 768.703 602.098 751.462 580.835 751.462C559.573 751.462 542.336 768.703 542.336 789.971C542.336 811.238 559.573 828.479 580.835 828.479Z" fill="#00D8FF"/>
<path d="M580.836 711.681C632.516 711.681 680.531 719.1 716.727 731.558C760.341 746.575 787.16 769.342 787.16 789.958C787.16 811.439 758.738 835.631 711.906 851.144C676.498 862.877 629.895 869.011 580.836 869.011C530.53 869.011 482.909 863.259 447.095 851.017C401.789 835.529 374.499 811.032 374.499 789.958C374.499 769.507 400.11 746.919 443.113 731.927C479.449 719.265 528.647 711.681 580.836 711.681Z" stroke="#00D8FF" stroke-width="10" stroke-miterlimit="10"/>
<path d="M512.705 751.055C538.519 706.272 568.939 668.374 597.82 643.241C632.616 612.953 665.734 601.092 683.584 611.388C702.184 622.116 708.94 658.83 698.978 707.176C691.446 743.724 673.482 787.158 648.965 829.675C623.838 873.262 595.059 911.656 566.573 936.573C530.529 968.095 495.669 979.497 477.425 968.973C459.715 958.754 452.946 925.285 461.432 880.528C468.608 842.681 486.623 796.27 512.705 751.055Z" stroke="#00D8FF" stroke-width="10" stroke-miterlimit="10"/>
<path d="M512.769 829.764C486.878 785.02 469.245 739.741 461.891 702.161C453.036 656.883 459.295 622.255 477.133 611.935C495.721 601.168 530.886 613.653 567.782 646.422C595.683 671.199 624.322 708.461 648.902 750.94C674.106 794.488 692.999 838.596 700.34 875.717C709.64 922.701 702.109 958.601 683.877 969.151C666.18 979.395 633.813 968.553 599.284 938.838C570.123 913.73 538.914 874.941 512.769 829.764Z" stroke="#00D8FF" stroke-width="10" stroke-miterlimit="10"/>
<path d="M1156 914.605L1158.45 911.191L1274 691.993L1274.24 689.673L1223.31 594.006C1222.38 592.257 1220.92 590.845 1219.14 589.97C1217.36 589.095 1215.35 588.802 1213.4 589.132C1211.44 589.461 1209.64 590.398 1208.25 591.807C1206.86 593.217 1205.94 595.03 1205.63 596.988L1156 914.605Z" fill="#FFC24A"/>
<path d="M1157.44 912.012L1159.29 908.41L1273.64 691.489L1222.84 595.447C1222 593.777 1220.64 592.423 1218.97 591.588C1217.3 590.754 1215.4 590.483 1213.56 590.818C1211.73 591.152 1210.04 592.073 1208.77 593.442C1207.5 594.812 1206.71 596.557 1206.51 598.415L1157.44 912.012Z" fill="#FFA712"/>
<path d="M1311.37 762.028L1349.29 723.127L1311.36 650.786C1310.52 649.229 1309.28 647.928 1307.77 647.021C1306.25 646.114 1304.52 645.635 1302.75 645.635C1300.98 645.635 1299.25 646.114 1297.73 647.021C1296.22 647.928 1294.98 649.229 1294.14 650.786L1273.87 689.428V692.727L1311.37 762.028Z" fill="#F4BD62"/>
<path d="M1310.7 760.443L1347.56 722.695L1310.7 652.386C1310.09 650.864 1309.06 649.549 1307.73 648.6C1306.39 647.65 1304.81 647.107 1303.18 647.036C1301.54 646.964 1299.92 647.367 1298.51 648.196C1297.1 649.025 1295.96 650.245 1295.22 651.709L1274.85 691.027L1274.24 693.03L1310.7 760.443Z" fill="#FFA50E"/>
<path d="M1156.03 914.62L1157.14 913.496L1161.16 911.868L1308.98 764.593L1310.85 759.493L1273.98 689.212L1156.03 914.62Z" fill="#F6820C"/>
<path d="M1316.1 988.892L1449.92 914.274L1411.68 678.983C1411.4 677.324 1410.68 675.773 1409.58 674.5C1408.48 673.227 1407.06 672.281 1405.46 671.765C1403.85 671.25 1402.14 671.186 1400.51 671.58C1398.87 671.974 1397.38 672.81 1396.19 673.998L1156 914.606L1289.03 988.877C1293.16 991.185 1297.82 992.397 1302.55 992.397C1307.29 992.397 1311.95 991.185 1316.08 988.877" fill="#FDE068"/>
<path d="M1448.69 913.654L1410.77 680.135C1410.7 678.548 1410.17 677.017 1409.23 675.736C1408.29 674.454 1407 673.479 1405.5 672.935C1404.01 672.39 1402.39 672.3 1400.85 672.677C1399.31 673.053 1397.91 673.879 1396.84 675.049L1157.44 914.159L1289 987.638C1293.1 989.927 1297.72 991.128 1302.42 991.128C1307.12 991.128 1311.74 989.927 1315.84 987.638L1448.69 913.654Z" fill="#FCCA3F"/>
<path d="M1316.1 986.644C1311.96 988.952 1307.31 990.163 1302.57 990.163C1297.83 990.163 1293.18 988.952 1289.04 986.644L1157.09 913.482L1156 914.606L1289.03 988.877C1293.16 991.185 1297.82 992.396 1302.55 992.396C1307.29 992.396 1311.95 991.185 1316.08 988.877L1449.92 914.274L1449.59 912.257L1316.1 986.644Z" fill="#EEAB37"/>
</g>
<defs>
<clipPath id="clip0_216_10">
<rect width="1920" height="1080" fill="white"/>
</clipPath>
</defs>
</svg>
