<svg width="1920" height="1080" viewBox="0 0 1920 1080" fill="none" xmlns="http://www.w3.org/2000/svg">
<g clip-path="url(#clip0_216_140)">
<rect width="1920" height="1080" fill="#151515"/>
<path d="M530.898 378.293C528.49 378.293 526.732 378 525.625 377.414C524.583 376.763 524.062 375.786 524.062 374.484V261.691C524.062 259.803 524.453 258.469 525.234 257.688C526.081 256.906 527.415 256.516 529.238 256.516H564.395C574.551 256.516 583.535 258.957 591.348 263.84C599.225 268.658 603.164 277.544 603.164 290.5C603.164 300.135 600.918 307.622 596.426 312.961C591.934 318.234 586.888 321.783 581.289 323.605C575.69 325.363 570.645 326.242 566.152 326.242H539.199V374.484C539.199 375.786 538.646 376.763 537.539 377.414C536.432 378 534.707 378.293 532.363 378.293H530.898ZM566.348 313.059C569.277 313.059 572.337 312.44 575.527 311.203C578.717 309.901 581.484 307.59 583.828 304.27C586.172 300.884 587.344 296.294 587.344 290.5C587.344 282.753 585.033 277.349 580.41 274.289C575.853 271.229 570.352 269.699 563.906 269.699H539.199V313.059H566.348ZM671.621 378.977C654.238 378.977 640.99 373.703 631.875 363.156C622.76 352.609 618.203 337.18 618.203 316.867C618.203 296.62 622.728 281.32 631.777 270.969C640.892 260.552 654.173 255.344 671.621 255.344C689.134 255.344 702.448 260.552 711.562 270.969C720.677 281.32 725.234 296.62 725.234 316.867C725.234 337.18 720.677 352.609 711.562 363.156C702.448 373.703 689.134 378.977 671.621 378.977ZM671.621 365.793C683.861 365.793 693.236 361.626 699.746 353.293C706.257 344.895 709.512 332.753 709.512 316.867C709.512 300.982 706.257 288.97 699.746 280.832C693.301 272.629 683.926 268.527 671.621 268.527C659.382 268.527 650.039 272.629 643.594 280.832C637.148 288.97 633.926 300.982 633.926 316.867C633.926 332.818 637.148 344.96 643.594 353.293C650.039 361.626 659.382 365.793 671.621 365.793ZM759.023 378.293C754.336 378.293 751.992 377.023 751.992 374.484V261.691C751.992 259.868 752.415 258.566 753.262 257.785C754.108 256.939 755.443 256.516 757.266 256.516H786.465C800.332 256.516 810.749 258.957 817.715 263.84C824.746 268.723 828.262 276.503 828.262 287.18C828.262 294.406 826.504 300.493 822.988 305.441C819.538 310.324 814.655 314.003 808.34 316.477V317.16C811.725 318.332 814.492 320.611 816.641 323.996C818.854 327.316 821.296 332.264 823.965 338.84L837.539 373.117C837.865 374.289 838.027 375.103 838.027 375.559C838.027 377.382 835.586 378.293 830.703 378.293H828.945C827.188 378.293 825.658 378.065 824.355 377.609C823.118 377.089 822.337 376.405 822.012 375.559L808.828 341.477C807.135 337.049 805.15 333.599 802.871 331.125C800.592 328.651 797.891 326.926 794.766 325.949C791.641 324.973 787.702 324.484 782.949 324.484H767.324V374.484C767.324 377.023 765.013 378.293 760.391 378.293H759.023ZM790.176 311.301C794.277 311.301 798.021 310.324 801.406 308.371C804.857 306.418 807.559 303.814 809.512 300.559C811.53 297.238 812.539 293.723 812.539 290.012C812.539 283.176 810.456 278.098 806.289 274.777C802.122 271.392 796.361 269.699 789.004 269.699H767.324V311.301H790.176ZM888.516 378.293C886.107 378.293 884.349 378 883.242 377.414C882.135 376.763 881.582 375.786 881.582 374.484V269.699H848.184C846.947 269.699 846.068 269.276 845.547 268.43C845.026 267.583 844.766 266.281 844.766 264.523V261.691C844.766 259.868 845.026 258.566 845.547 257.785C846.068 256.939 846.947 256.516 848.184 256.516H929.629C930.866 256.516 931.745 256.939 932.266 257.785C932.786 258.566 933.047 259.868 933.047 261.691V264.523C933.047 266.281 932.786 267.583 932.266 268.43C931.745 269.276 930.866 269.699 929.629 269.699H896.914V374.484C896.914 377.023 894.57 378.293 889.883 378.293H888.516ZM960.391 378.293C955.703 378.293 953.359 377.023 953.359 374.484V261.691C953.359 259.868 953.783 258.566 954.629 257.785C955.475 256.939 956.81 256.516 958.633 256.516H1013.32C1014.56 256.516 1015.44 256.939 1015.96 257.785C1016.48 258.566 1016.74 259.868 1016.74 261.691V264.523C1016.74 266.281 1016.48 267.583 1015.96 268.43C1015.44 269.276 1014.56 269.699 1013.32 269.699H968.691V309.25H1010.2C1011.37 309.25 1012.25 309.673 1012.83 310.52C1013.42 311.366 1013.71 312.701 1013.71 314.523V317.16C1013.71 318.983 1013.42 320.318 1012.83 321.164C1012.25 321.945 1011.37 322.336 1010.2 322.336H968.691V374.484C968.691 377.023 966.38 378.293 961.758 378.293H960.391ZM1087.25 378.977C1069.86 378.977 1056.61 373.703 1047.5 363.156C1038.39 352.609 1033.83 337.18 1033.83 316.867C1033.83 296.62 1038.35 281.32 1047.4 270.969C1056.52 260.552 1069.8 255.344 1087.25 255.344C1104.76 255.344 1118.07 260.552 1127.19 270.969C1136.3 281.32 1140.86 296.62 1140.86 316.867C1140.86 337.18 1136.3 352.609 1127.19 363.156C1118.07 373.703 1104.76 378.977 1087.25 378.977ZM1087.25 365.793C1099.49 365.793 1108.86 361.626 1115.37 353.293C1121.88 344.895 1125.14 332.753 1125.14 316.867C1125.14 300.982 1121.88 288.97 1115.37 280.832C1108.93 272.629 1099.55 268.527 1087.25 268.527C1075.01 268.527 1065.66 272.629 1059.22 280.832C1052.77 288.97 1049.55 300.982 1049.55 316.867C1049.55 332.818 1052.77 344.96 1059.22 353.293C1065.66 361.626 1075.01 365.793 1087.25 365.793ZM1084.32 245.676C1081.65 245.676 1080.31 245.122 1080.31 244.016C1080.31 243.234 1080.9 241.737 1082.07 239.523C1083.24 237.31 1086.04 232.362 1090.47 224.68C1091.38 223.117 1092.68 221.978 1094.38 221.262C1096.13 220.546 1098.41 220.188 1101.21 220.188C1104.14 220.188 1106.26 220.35 1107.56 220.676C1108.86 221.001 1109.51 221.62 1109.51 222.531C1109.51 223.117 1109.25 223.801 1108.73 224.582C1108.21 225.363 1106.94 226.893 1104.92 229.172C1102.97 231.451 1100.46 234.348 1097.4 237.863L1093.2 242.648C1092.29 243.625 1091.05 244.374 1089.49 244.895C1087.93 245.415 1086.2 245.676 1084.32 245.676ZM1172.89 378C1171.07 378 1169.73 377.577 1168.89 376.73C1168.04 375.884 1167.62 374.582 1167.62 372.824V259.934C1167.62 257.329 1169.96 256.027 1174.65 256.027H1176.02C1180.64 256.027 1182.95 257.329 1182.95 259.934V364.816H1230.7C1231.94 364.816 1232.82 365.24 1233.34 366.086C1233.86 366.867 1234.12 368.169 1234.12 369.992V372.824C1234.12 374.582 1233.86 375.884 1233.34 376.73C1232.82 377.577 1231.94 378 1230.7 378H1172.89ZM1258.63 378.293C1253.95 378.293 1251.6 377.023 1251.6 374.484V259.934C1251.6 257.329 1253.95 256.027 1258.63 256.027H1260C1264.62 256.027 1266.93 257.329 1266.93 259.934V374.484C1266.93 377.023 1264.62 378.293 1260 378.293H1258.63ZM1347.21 378.977C1329.82 378.977 1316.58 373.703 1307.46 363.156C1298.35 352.609 1293.79 337.18 1293.79 316.867C1293.79 296.62 1298.31 281.32 1307.36 270.969C1316.48 260.552 1329.76 255.344 1347.21 255.344C1364.72 255.344 1378.03 260.552 1387.15 270.969C1396.26 281.32 1400.82 296.62 1400.82 316.867C1400.82 337.18 1396.26 352.609 1387.15 363.156C1378.03 373.703 1364.72 378.977 1347.21 378.977ZM1347.21 365.793C1359.45 365.793 1368.82 361.626 1375.33 353.293C1381.84 344.895 1385.1 332.753 1385.1 316.867C1385.1 300.982 1381.84 288.97 1375.33 280.832C1368.89 272.629 1359.51 268.527 1347.21 268.527C1334.97 268.527 1325.62 272.629 1319.18 280.832C1312.73 288.97 1309.51 300.982 1309.51 316.867C1309.51 332.818 1312.73 344.96 1319.18 353.293C1325.62 361.626 1334.97 365.793 1347.21 365.793Z" fill="white"/>
<path d="M729 540H1115V926H729V540Z" fill="#F7DF1E"/>
<path d="M830.494 862.57L860.033 844.693C865.732 854.797 870.916 863.346 883.351 863.346C895.27 863.346 902.785 858.683 902.785 840.547V717.211H939.059V841.06C939.059 878.631 917.036 895.732 884.906 895.732C855.888 895.732 839.043 880.703 830.493 862.567" fill="black"/>
<path d="M958.762 858.683L988.298 841.582C996.073 854.279 1006.18 863.606 1024.06 863.606C1039.09 863.606 1048.67 856.092 1048.67 845.727C1048.67 833.29 1038.82 828.885 1022.24 821.632L1013.18 817.743C987.004 806.603 969.643 792.612 969.643 763.073C969.643 735.867 990.371 715.137 1022.76 715.137C1045.82 715.137 1062.4 723.17 1074.32 744.158L1046.08 762.295C1039.86 751.154 1033.13 746.75 1022.76 746.75C1012.14 746.75 1005.4 753.487 1005.4 762.295C1005.4 773.178 1012.14 777.583 1027.68 784.321L1036.75 788.207C1067.58 801.422 1084.95 814.894 1084.95 845.209C1084.95 877.858 1059.29 895.735 1024.83 895.735C991.15 895.735 969.384 879.671 958.762 858.683Z" fill="black"/>
<path d="M240.125 868.562L216 567H505.5L481.375 868.562L360.75 904.75L240.125 868.562Z" fill="#1172B8"/>
<path d="M481.375 591.125H360.75V886.656L457.25 856.5L481.375 591.125Z" fill="#33AADD"/>
<path d="M402.969 741.906H282.344L276.312 699.688L372.812 669.531H276.312L270.281 633.344H457.25L451.219 675.562L372.812 705.719H445.188L433.125 820.312L360.75 844.438L288.375 820.312L282.344 760H318.531L324.562 790.156L360.75 802.219L396.938 790.156L402.969 741.906Z" fill="white"/>
<path d="M1363.12 865.562L1339 564H1628.5L1604.38 865.562L1483.75 901.75L1363.12 865.562Z" fill="#E44D26"/>
<path d="M1604.38 588.125H1483.75V883.656L1580.25 853.5L1604.38 588.125Z" fill="#F16529"/>
<path d="M1405.34 738.906L1393.28 624.312H1580.25L1574.22 660.5H1429.47L1435.5 702.719H1568.19L1556.12 817.312L1483.75 841.438L1411.38 817.312L1405.34 757H1441.53L1447.56 787.156L1483.75 799.219L1519.94 787.156L1525.97 738.906H1405.34Z" fill="white"/>
</g>
<defs>
<clipPath id="clip0_216_140">
<rect width="1920" height="1080" fill="white"/>
</clipPath>
</defs>
</svg>
