<svg width="1920" height="1080" viewBox="0 0 1920 1080" fill="none" xmlns="http://www.w3.org/2000/svg">
<g clip-path="url(#clip0_218_293)">
<rect width="1920" height="1080" fill="#E8E8E8"/>
<path d="M478.945 378.977C472.565 378.977 466.608 378.293 461.074 376.926C455.605 375.493 451.211 373.801 447.891 371.848C444.635 369.829 443.008 368.007 443.008 366.379C443.008 365.467 443.366 364.263 444.082 362.766C444.863 361.268 445.742 359.934 446.719 358.762C447.695 357.59 448.477 357.004 449.062 357.004C449.583 357.004 450.723 357.525 452.48 358.566C456.517 360.65 460.521 362.375 464.492 363.742C468.464 365.109 473.281 365.793 478.945 365.793C483.372 365.793 487.311 364.947 490.762 363.254C494.212 361.561 496.882 359.185 498.77 356.125C500.723 353 501.699 349.419 501.699 345.383C501.699 341.086 500.527 337.538 498.184 334.738C495.905 331.874 493.105 329.628 489.785 328C486.53 326.307 481.777 324.224 475.527 321.75C468.757 319.146 463.385 316.737 459.414 314.523C455.508 312.245 452.155 308.957 449.355 304.66C446.621 300.363 445.254 294.667 445.254 287.57C445.254 281.385 446.849 275.852 450.039 270.969C453.229 266.021 457.754 262.18 463.613 259.445C469.473 256.711 476.211 255.344 483.828 255.344C487.279 255.344 491.217 255.832 495.645 256.809C500.072 257.72 503.848 258.99 506.973 260.617C510.163 262.245 511.758 264.035 511.758 265.988C511.758 266.835 511.4 268.007 510.684 269.504C510.033 270.936 509.251 272.238 508.34 273.41C507.428 274.582 506.712 275.168 506.191 275.168C505.605 275.168 504.434 274.68 502.676 273.703C499.746 272.141 496.849 270.904 493.984 269.992C491.12 269.016 487.637 268.527 483.535 268.527C476.829 268.527 471.393 270.253 467.227 273.703C463.125 277.154 461.074 281.971 461.074 288.156C461.074 291.867 461.986 294.927 463.809 297.336C465.632 299.745 467.943 301.665 470.742 303.098C473.542 304.53 477.448 306.19 482.461 308.078C482.786 308.143 483.535 308.404 484.707 308.859C491.608 311.529 497.24 314.133 501.602 316.672C506.029 319.146 509.772 322.727 512.832 327.414C515.957 332.102 517.52 338.091 517.52 345.383C517.52 352.219 515.924 358.176 512.734 363.254C509.609 368.332 505.117 372.238 499.258 374.973C493.464 377.642 486.693 378.977 478.945 378.977ZM546.133 378.293C543.659 378.293 541.868 378 540.762 377.414C539.655 376.763 539.102 375.786 539.102 374.484V259.934C539.102 257.329 541.445 256.027 546.133 256.027H552.285C556.126 256.027 558.568 257.102 559.609 259.25L592.422 316.184L596.914 327.121L601.406 317.16L634.316 259.25C635.423 257.102 637.832 256.027 641.543 256.027H647.305C651.927 256.027 654.238 257.329 654.238 259.934V374.484C654.238 377.023 651.927 378.293 647.305 378.293H646.133C643.659 378.293 641.868 378 640.762 377.414C639.655 376.763 639.102 375.786 639.102 374.484V281.027L638.809 281.809L604.238 341.867C603.783 342.648 603.262 343.234 602.676 343.625C602.09 343.951 601.341 344.113 600.43 344.113H593.496C591.738 344.113 590.436 343.365 589.59 341.867L554.238 280.051V374.484C554.238 377.023 551.927 378.293 547.305 378.293H546.133ZM679.336 378.293C676.732 378.293 674.844 378.065 673.672 377.609C672.5 377.089 671.914 376.34 671.914 375.363C671.914 374.908 672.077 374.126 672.402 373.02L713.516 258.859C714.167 256.971 716.478 256.027 720.449 256.027H725.527C729.499 256.027 731.81 256.971 732.461 258.859L773.574 373.117C773.9 373.833 774.062 374.582 774.062 375.363C774.062 377.316 771.621 378.293 766.738 378.293H765.273C761.237 378.293 758.893 377.382 758.242 375.559L748.086 347.043H697.109L687.148 375.559C686.562 377.382 684.251 378.293 680.215 378.293H679.336ZM743.398 333.859L725.234 282.199C724.714 280.767 724.29 279.139 723.965 277.316C723.639 275.493 723.346 273.736 723.086 272.043H722.695C721.914 276.405 721.035 279.79 720.059 282.199L701.895 333.859H743.398ZM800.039 378.293C795.352 378.293 793.008 377.023 793.008 374.484V261.691C793.008 259.868 793.431 258.566 794.277 257.785C795.124 256.939 796.458 256.516 798.281 256.516H827.48C841.348 256.516 851.764 258.957 858.73 263.84C865.762 268.723 869.277 276.503 869.277 287.18C869.277 294.406 867.52 300.493 864.004 305.441C860.553 310.324 855.671 314.003 849.355 316.477V317.16C852.741 318.332 855.508 320.611 857.656 323.996C859.87 327.316 862.311 332.264 864.98 338.84L878.555 373.117C878.88 374.289 879.043 375.103 879.043 375.559C879.043 377.382 876.602 378.293 871.719 378.293H869.961C868.203 378.293 866.673 378.065 865.371 377.609C864.134 377.089 863.353 376.405 863.027 375.559L849.844 341.477C848.151 337.049 846.165 333.599 843.887 331.125C841.608 328.651 838.906 326.926 835.781 325.949C832.656 324.973 828.717 324.484 823.965 324.484H808.34V374.484C808.34 377.023 806.029 378.293 801.406 378.293H800.039ZM831.191 311.301C835.293 311.301 839.036 310.324 842.422 308.371C845.872 306.418 848.574 303.814 850.527 300.559C852.546 297.238 853.555 293.723 853.555 290.012C853.555 283.176 851.471 278.098 847.305 274.777C843.138 271.392 837.376 269.699 830.02 269.699H808.34V311.301H831.191ZM929.531 378.293C927.122 378.293 925.365 378 924.258 377.414C923.151 376.763 922.598 375.786 922.598 374.484V269.699H889.199C887.962 269.699 887.083 269.276 886.562 268.43C886.042 267.583 885.781 266.281 885.781 264.523V261.691C885.781 259.868 886.042 258.566 886.562 257.785C887.083 256.939 887.962 256.516 889.199 256.516H970.645C971.882 256.516 972.76 256.939 973.281 257.785C973.802 258.566 974.062 259.868 974.062 261.691V264.523C974.062 266.281 973.802 267.583 973.281 268.43C972.76 269.276 971.882 269.699 970.645 269.699H937.93V374.484C937.93 377.023 935.586 378.293 930.898 378.293H929.531ZM988.711 338.059C987.474 338.059 986.562 337.668 985.977 336.887C985.456 336.04 985.195 334.706 985.195 332.883V331.027C985.195 329.27 985.456 327.967 985.977 327.121C986.562 326.275 987.474 325.852 988.711 325.852H1021.52C1022.76 325.852 1023.64 326.275 1024.16 327.121C1024.75 327.967 1025.04 329.27 1025.04 331.027V332.883C1025.04 334.706 1024.75 336.04 1024.16 336.887C1023.64 337.668 1022.76 338.059 1021.52 338.059H988.711ZM1099.06 378.977C1080.05 378.977 1065.99 373.964 1056.88 363.938C1047.76 353.911 1043.2 338.319 1043.2 317.16C1043.2 275.949 1061.92 255.344 1099.36 255.344C1104.82 255.344 1110.13 255.93 1115.27 257.102C1120.42 258.208 1124.58 259.608 1127.77 261.301C1130.96 262.993 1132.56 264.621 1132.56 266.184C1132.56 267.16 1132.2 268.462 1131.48 270.09C1130.83 271.717 1130.05 273.15 1129.14 274.387C1128.23 275.624 1127.42 276.242 1126.7 276.242C1126.37 276.242 1125.46 275.819 1123.96 274.973C1120.58 273.15 1117.03 271.62 1113.32 270.383C1109.61 269.146 1105.08 268.527 1099.75 268.527C1085.75 268.527 1075.43 272.434 1068.79 280.246C1062.21 287.993 1058.93 300.363 1058.93 317.355C1058.93 333.957 1062.18 346.197 1068.69 354.074C1075.27 361.887 1085.39 365.793 1099.06 365.793C1104.79 365.793 1109.71 365.109 1113.81 363.742C1117.91 362.375 1121.85 360.682 1125.62 358.664C1127.45 357.688 1128.55 357.199 1128.95 357.199C1129.66 357.199 1130.48 357.818 1131.39 359.055C1132.36 360.292 1133.21 361.691 1133.93 363.254C1134.64 364.751 1135 365.826 1135 366.477C1135 368.104 1133.34 369.927 1130.02 371.945C1126.76 373.898 1122.37 375.559 1116.84 376.926C1111.37 378.293 1105.44 378.977 1099.06 378.977ZM1204.24 378.977C1186.86 378.977 1173.61 373.703 1164.49 363.156C1155.38 352.609 1150.82 337.18 1150.82 316.867C1150.82 296.62 1155.35 281.32 1164.39 270.969C1173.51 260.552 1186.79 255.344 1204.24 255.344C1221.75 255.344 1235.07 260.552 1244.18 270.969C1253.29 281.32 1257.85 296.62 1257.85 316.867C1257.85 337.18 1253.29 352.609 1244.18 363.156C1235.07 373.703 1221.75 378.977 1204.24 378.977ZM1204.24 365.793C1216.48 365.793 1225.85 361.626 1232.36 353.293C1238.87 344.895 1242.13 332.753 1242.13 316.867C1242.13 300.982 1238.87 288.97 1232.36 280.832C1225.92 272.629 1216.54 268.527 1204.24 268.527C1192 268.527 1182.66 272.629 1176.21 280.832C1169.77 288.97 1166.54 300.982 1166.54 316.867C1166.54 332.818 1169.77 344.96 1176.21 353.293C1182.66 361.626 1192 365.793 1204.24 365.793ZM1289.88 378C1288.06 378 1286.73 377.577 1285.88 376.73C1285.03 375.884 1284.61 374.582 1284.61 372.824V261.691C1284.61 259.868 1285.03 258.566 1285.88 257.785C1286.73 256.939 1288.06 256.516 1289.88 256.516H1324.94C1341.22 256.516 1354.24 261.333 1364 270.969C1373.77 280.604 1378.65 296.001 1378.65 317.16C1378.65 338.449 1373.77 353.911 1364 363.547C1354.24 373.182 1341.22 378 1324.94 378H1289.88ZM1323.77 364.816C1335.49 364.816 1344.93 361.008 1352.09 353.391C1359.25 345.708 1362.83 333.632 1362.83 317.16C1362.83 306.092 1361.14 297.043 1357.75 290.012C1354.37 282.915 1349.75 277.772 1343.89 274.582C1338.03 271.327 1331.32 269.699 1323.77 269.699H1299.94V364.816H1323.77ZM1410.59 378C1408.76 378 1407.43 377.577 1406.58 376.73C1405.74 375.884 1405.31 374.582 1405.31 372.824V261.691C1405.31 259.868 1405.74 258.566 1406.58 257.785C1407.43 256.939 1408.76 256.516 1410.59 256.516H1471.13C1472.37 256.516 1473.25 256.906 1473.77 257.688C1474.36 258.469 1474.65 259.803 1474.65 261.691V264.523C1474.65 266.281 1474.36 267.583 1473.77 268.43C1473.25 269.276 1472.37 269.699 1471.13 269.699H1420.64V309.25H1465.96C1467.19 309.25 1468.07 309.673 1468.59 310.52C1469.18 311.366 1469.47 312.701 1469.47 314.523V317.16C1469.47 318.983 1469.18 320.318 1468.59 321.164C1468.07 321.945 1467.19 322.336 1465.96 322.336H1420.64V364.816H1471.33C1472.57 364.816 1473.44 365.24 1473.96 366.086C1474.55 366.867 1474.84 368.169 1474.84 369.992V372.824C1474.84 374.582 1474.55 375.884 1473.96 376.73C1473.44 377.577 1472.57 378 1471.33 378H1410.59Z" fill="black"/>
<path d="M729 540H1115V926H729V540Z" fill="#F7DF1E"/>
<path d="M830.494 862.569L860.033 844.693C865.732 854.797 870.916 863.346 883.351 863.346C895.27 863.346 902.785 858.683 902.785 840.547V717.211H939.059V841.06C939.059 878.631 917.036 895.732 884.906 895.732C855.888 895.732 839.043 880.703 830.493 862.566" fill="white"/>
<path d="M958.762 858.682L988.298 841.581C996.073 854.279 1006.18 863.606 1024.06 863.606C1039.09 863.606 1048.67 856.091 1048.67 845.727C1048.67 833.289 1038.82 828.884 1022.24 821.632L1013.18 817.742C987.004 806.603 969.643 792.611 969.643 763.072C969.643 735.866 990.371 715.137 1022.76 715.137C1045.82 715.137 1062.4 723.17 1074.32 744.158L1046.08 762.294C1039.86 751.154 1033.13 746.75 1022.76 746.75C1012.14 746.75 1005.4 753.486 1005.4 762.294C1005.4 773.177 1012.14 777.583 1027.68 784.32L1036.75 788.207C1067.58 801.422 1084.95 814.894 1084.95 845.208C1084.95 877.858 1059.29 895.734 1024.83 895.734C991.15 895.734 969.384 879.671 958.762 858.682Z" fill="white"/>
<path d="M240.125 868.562L216 567H505.5L481.375 868.562L360.75 904.75L240.125 868.562Z" fill="#1172B8"/>
<path d="M481.375 591.125H360.75V886.656L457.25 856.5L481.375 591.125Z" fill="#33AADD"/>
<path d="M402.969 741.906H282.344L276.312 699.688L372.812 669.531H276.312L270.281 633.344H457.25L451.219 675.562L372.812 705.719H445.188L433.125 820.312L360.75 844.438L288.375 820.312L282.344 760H318.531L324.562 790.156L360.75 802.219L396.938 790.156L402.969 741.906Z" fill="white"/>
<path d="M1363.12 865.562L1339 564H1628.5L1604.38 865.562L1483.75 901.75L1363.12 865.562Z" fill="#E44D26"/>
<path d="M1604.38 588.125H1483.75V883.656L1580.25 853.5L1604.38 588.125Z" fill="#F16529"/>
<path d="M1405.34 738.906L1393.28 624.312H1580.25L1574.22 660.5H1429.47L1435.5 702.719H1568.19L1556.12 817.312L1483.75 841.438L1411.38 817.312L1405.34 757H1441.53L1447.56 787.156L1483.75 799.219L1519.94 787.156L1525.97 738.906H1405.34Z" fill="white"/>
</g>
<defs>
<clipPath id="clip0_218_293">
<rect width="1920" height="1080" fill="white"/>
</clipPath>
</defs>
</svg>
