<svg width="60" height="60" viewBox="0 0 60 60" fill="none" xmlns="http://www.w3.org/2000/svg">
<g clip-path="url(#clip0_316_176)">
<path d="M16.9672 19.3825C20.7582 28.4928 24.6939 37.9532 28.6881 47.5536C31.3462 48.1787 31.9313 48.7849 32.3028 51.7652C32.479 53.1734 32.5765 54.5901 32.5949 56.0087C32.6261 58.5828 31.5467 59.7761 28.9852 59.7461C24.5831 59.6942 20.1831 59.4622 15.7813 59.3597C14.0239 59.319 12.2606 59.3749 10.505 59.4743C9.19367 59.5487 8.44778 59.2075 8.34229 57.9282C8.10328 55.496 8.01946 53.0507 8.09128 50.6078C8.18387 48.5722 9.48811 47.5791 11.6393 47.439C12.3217 47.3942 13.0091 47.4166 13.6942 47.413C14.3736 47.4098 15.0531 47.413 15.9744 47.413C15.4833 45.647 15.0825 44.0163 14.5758 42.4191C12.7591 36.6927 10.9064 30.9776 9.06668 25.2584C9.00793 25.0723 8.92474 24.8925 8.87741 24.7038C8.54535 23.3775 8.53917 21.819 7.79741 20.7899C7.11767 19.8468 5.5968 19.5482 4.53149 18.8382C-1.03229 15.1297 -1.38494 6.23064 3.83823 2.04075C7.1538 -0.619177 13.0541 -0.328249 16.6515 2.7149C17.3752 3.29785 18.0105 3.9828 18.5374 4.74828C18.7223 5.08818 19.007 5.36315 19.3531 5.53612C19.6992 5.70913 20.09 5.77182 20.4729 5.71576C26.2277 5.31255 31.9884 4.98398 37.7382 4.51996C41.2124 4.23959 41.206 4.14965 42.4476 7.38264C44.1651 7.18459 45.8965 7.01592 47.615 6.75935C47.9427 6.71028 48.275 6.35906 48.5087 6.06931C49.4598 4.88964 50.3821 3.68589 51.3005 2.47921C52.4965 0.906054 53.5604 0.605122 55.3836 1.40007C56.3347 1.78838 57.2616 2.23325 58.1593 2.73227C59.2133 3.35089 59.5635 4.33952 59.1775 5.20088C58.7956 6.05315 57.8127 6.45546 56.662 6.1345C56.0459 5.976 55.4589 5.721 54.9224 5.37895C54.0829 4.81235 53.512 5.01541 52.9429 5.75628C52.5399 6.24891 52.1069 6.71601 51.6466 7.15491C50.1323 8.68867 50.0495 10.1137 51.3345 11.857C52.2632 13.1166 53.1645 14.3957 54.0386 15.6943C54.4939 16.3702 55.0039 16.5186 55.7821 16.265C56.6087 15.9649 57.4751 15.7908 58.3536 15.7486C58.8238 15.7442 59.615 16.1774 59.6911 16.5345C59.7936 17.0161 59.5044 17.8667 59.1059 18.1167C57.8123 18.905 56.4601 19.5922 55.0604 20.1721C53.885 20.6764 52.9308 20.084 52.2596 19.1538C51.0578 17.4901 49.8623 15.8121 48.8212 14.0482C48.348 13.2474 47.8317 12.9547 46.9698 12.9511C45.9914 12.9706 45.013 12.9116 44.044 12.7748C43.0075 12.6023 42.5282 13.0687 42.157 13.9324C41.3794 15.7433 41.3159 15.684 39.3046 15.6986C36.5667 15.7189 33.8286 15.9649 31.0926 15.9338C27.8684 15.8967 24.6437 15.7069 21.4239 15.4929C20.5554 15.4342 19.9918 15.5224 19.4716 16.3196C18.8104 17.3347 17.9396 18.2143 16.9672 19.3825ZM17.7071 11.2924C17.6105 6.59418 14.1688 3.27211 9.55277 3.42199C5.83429 3.54277 3.19609 6.47839 3.24811 10.4349C3.30248 14.5534 6.23016 17.4946 10.3363 17.3562C14.9114 17.2024 18.0895 13.8175 17.7071 11.2924ZM10.9329 20.7003C10.9324 20.9158 10.9548 21.1307 10.9996 21.3415C11.7613 23.5048 12.5598 25.6551 13.3001 27.8254C15.4243 34.0534 17.5155 40.2925 19.66 46.513C19.8069 46.9352 20.2545 47.5093 20.6169 47.5522C21.7548 47.687 22.9192 47.6015 24.2093 47.6015L13.993 20.1319L10.9329 20.7003ZM21.1167 13.1713L39.4662 12.6558C39.3348 12.016 39.2343 11.552 39.145 11.0858C39.0439 10.5587 38.9461 10.0306 38.8585 9.50095C38.5998 7.93603 38.6022 7.93486 37.007 7.94041C32.1697 7.95788 27.3325 7.97543 22.4954 7.99307C21.8832 7.9954 21.2708 7.99307 20.6477 7.99307C20.7999 9.67849 20.9401 11.2234 21.1167 13.1713ZM11.5121 55.7575H28.3404V51.1169H11.7895C11.6911 52.7561 11.602 54.2485 11.5121 55.7575Z" fill="white"/>
<path d="M9.92664 13.6937C8.3006 13.671 6.89817 12.812 6.53494 11.6124C6.10469 10.1932 6.69833 8.61241 8.03373 7.62412C10.4383 5.84288 12.9222 6.47646 13.7122 9.07262C14.4489 11.4986 12.621 13.7313 9.92664 13.6937Z" fill="white"/>
</g>
<defs>
<clipPath id="clip0_316_176">
<rect width="60" height="60" fill="white"/>
</clipPath>
</defs>
</svg>
