<svg width="60" height="60" viewBox="0 0 60 60" fill="none" xmlns="http://www.w3.org/2000/svg">
<g clip-path="url(#clip0_316_169)">
<path d="M7.5 48.78C7.5 50.82 8.5 52.7 10.5 54.42C12.5 56.14 15.24 57.5 18.72 58.5C22.2 59.5 25.96 60 30 60C34.04 60 37.8 59.5 41.28 58.5C44.76 57.5 47.5 56.14 49.5 54.42C51.5 52.7 52.5 50.82 52.5 48.78V42.42C52.5 44.46 51.48 46.26 49.44 47.82C47.4 49.38 44.7 50.54 41.34 51.3C37.98 52.06 34.2 52.46 30 52.5C25.8 52.54 22.02 52.14 18.66 51.3C15.3 50.46 12.6 49.3 10.56 47.82C8.52 46.34 7.5 44.54 7.5 42.42V48.78ZM7.5 37.5C7.5 39.54 8.5 41.42 10.5 43.14C12.5 44.86 15.24 46.24 18.72 47.28C22.2 48.32 25.96 48.82 30 48.78C34.04 48.74 37.8 48.24 41.28 47.28C44.76 46.32 47.5 44.94 49.5 43.14C51.5 41.34 52.5 39.46 52.5 37.5V31.2C52.5 33.2 51.48 34.98 49.44 36.54C47.4 38.1 44.7 39.28 41.34 40.08C37.98 40.88 34.2 41.28 30 41.28C25.8 41.28 22.02 40.88 18.66 40.08C15.3 39.28 12.6 38.1 10.56 36.54C8.52 34.98 7.5 33.2 7.5 31.2V37.5ZM7.5 26.28C7.5 28.32 8.5 30.2 10.5 31.92C12.5 33.64 15.24 35 18.72 36C22.2 37 25.96 37.5 30 37.5C34.04 37.5 37.8 37 41.28 36C44.76 35 47.5 33.64 49.5 31.92C51.5 30.2 52.5 28.32 52.5 26.28V19.92C52.5 21.96 51.48 23.76 49.44 25.32C47.4 26.88 44.7 28.04 41.34 28.8C37.98 29.56 34.2 29.96 30 30C25.8 30.04 22.02 29.64 18.66 28.8C15.3 27.96 12.6 26.8 10.56 25.32C8.52 23.84 7.5 22.04 7.5 19.92V26.28ZM7.5 15C7.5 17.04 8.5 18.92 10.5 20.64C12.5 22.36 15.24 23.74 18.72 24.78C22.2 25.82 25.96 26.32 30 26.28C34.04 26.24 37.8 25.74 41.28 24.78C44.76 23.82 47.5 22.44 49.5 20.64C51.5 18.84 52.5 16.96 52.5 15V11.28C52.5 9.24001 51.5 7.36001 49.5 5.64001C47.5 3.92001 44.76 2.56001 41.28 1.56001C37.8 0.560007 34.04 0.0400066 30 6.62643e-06C25.96 -0.0399934 22.2 0.480007 18.72 1.56001C15.24 2.64001 12.5 4.00001 10.5 5.64001C8.5 7.28001 7.5 9.16001 7.5 11.28V15Z" fill="white"/>
</g>
<defs>
<clipPath id="clip0_316_169">
<rect width="60" height="60" fill="white"/>
</clipPath>
</defs>
</svg>
