<svg width="102" height="90" viewBox="0 0 102 90" fill="none" xmlns="http://www.w3.org/2000/svg">
<path d="M0 0H102V90H0V0Z" fill="#F7DF1E"/>
<path d="M26.8195 75.2106L34.6253 71.0424C36.1311 73.3983 37.501 75.3916 40.7869 75.3916C43.9366 75.3916 45.9223 74.3044 45.9223 70.0759V41.3187H55.5077V70.1954C55.5077 78.9554 49.6882 82.9427 41.1978 82.9427C33.5298 82.9427 29.0787 79.4386 26.8193 75.2099" fill="black"/>
<path d="M60.7143 74.3043L68.5191 70.3171C70.5736 73.2776 73.2439 75.4523 77.968 75.4523C81.9397 75.4523 84.4724 73.7002 84.4724 71.2836C84.4724 68.3838 81.8707 67.3566 77.4886 65.6656L75.0929 64.7588C68.1771 62.1615 63.5896 58.8992 63.5896 52.0119C63.5896 45.6685 69.067 40.8352 77.6259 40.8352C83.7197 40.8352 88.1016 42.7082 91.2508 47.6018L83.7877 51.8305C82.1443 49.2329 80.3647 48.2061 77.6261 48.2061C74.8188 48.2061 73.0385 49.7768 73.0385 51.8305C73.0385 54.3679 74.8188 55.3952 78.9265 56.9661L81.3227 57.8722C89.4705 60.9535 94.0581 64.0946 94.0581 71.1628C94.0581 78.7753 87.2798 82.9435 78.1736 82.9435C69.2727 82.9435 63.5211 79.1981 60.7143 74.3043Z" fill="black"/>
</svg>
