<svg width="253" height="241" viewBox="0 0 253 241" fill="none" xmlns="http://www.w3.org/2000/svg">
<path d="M72.7557 0.721164C72.6684 0.830607 72.5592 1.39971 72.4937 1.99071C72.4064 2.55982 72.2536 3.23837 72.1226 3.47914C72.0135 3.69803 71.817 4.68302 71.7297 5.62424C71.6423 6.56545 71.4459 7.48478 71.293 7.65989C71.1621 7.835 70.9874 8.68866 70.9219 9.56421C70.8783 10.4179 70.6818 11.4029 70.5072 11.7531C70.3543 12.0814 70.1142 13.1102 70.0051 14.0514C69.9177 14.9707 69.6558 16.284 69.4811 16.9407C69.2847 17.5974 69.1318 18.5386 69.1318 19.0201C69.1318 19.5236 69.0227 20.027 68.8917 20.1584C68.7826 20.2678 68.5861 21.1652 68.4988 22.1065C68.4114 23.0696 68.1931 24.0764 68.0621 24.3391C67.9093 24.6237 67.7347 25.543 67.6692 26.4185C67.6037 27.2941 67.4291 28.2134 67.2544 28.4542C67.1016 28.7168 66.9051 29.5486 66.8396 30.3147C66.7523 31.0808 66.5559 32.0877 66.3812 32.5474C66.2066 32.9851 66.0756 33.7731 66.0756 34.2985C66.0756 34.8019 65.9228 35.5024 65.7263 35.8745C65.5298 36.2247 65.3333 37.1221 65.2679 37.8444C65.2024 38.5668 65.0059 39.3985 64.8312 39.6612C64.6566 39.9458 64.4601 40.7337 64.3946 41.4123C64.3292 42.1127 64.1327 42.8788 63.9799 43.1415C63.8052 43.4261 63.6087 44.1046 63.5214 44.6737C63.4559 45.2647 63.2595 45.9214 63.1066 46.1622C62.932 46.4029 62.801 46.9501 62.801 47.4098C62.801 47.8695 62.6045 48.6137 62.3644 49.0515C62.1243 49.5111 61.9278 50.1897 61.9278 50.5837C61.9278 50.9558 61.775 51.4154 61.6004 51.6124C61.4257 51.7876 61.2074 52.2691 61.1419 52.6631C61.0764 53.0571 60.8363 53.8451 60.5962 54.4142C60.3778 54.9833 60.1814 55.6181 60.1814 55.8589C60.1814 56.0996 60.0286 56.4061 59.8539 56.5593C59.6793 56.7125 59.5265 57.0627 59.5265 57.3473C59.5265 57.6318 59.33 58.2447 59.0899 58.6825C58.8497 59.1422 58.6532 59.7113 58.6532 59.952C58.6532 60.1928 58.4568 60.6744 58.2166 61.0465C57.9765 61.3967 57.78 61.922 57.78 62.1628C57.78 62.4255 57.6272 62.7538 57.4526 62.907C57.2779 63.0602 57.1251 63.4324 57.1251 63.7169C57.1251 64.0234 56.9286 64.5049 56.6885 64.8113C56.4484 65.1178 56.2519 65.5775 56.2519 65.7963C56.2519 66.0371 56.0554 66.4749 55.8153 66.7813C55.5752 67.0878 55.3787 67.5474 55.3787 67.7663C55.3787 68.0071 55.1822 68.4449 54.9421 68.7513C54.7019 69.0578 54.5055 69.4955 54.5055 69.6925C54.5055 69.9114 54.3527 70.196 54.178 70.3492C54.0034 70.5024 53.8506 70.7213 53.8506 70.8307C53.8506 70.9621 53.3048 72.1441 52.6499 73.4574C51.995 74.7707 51.4492 75.9746 51.4492 76.1278C51.4492 76.281 51.2527 76.675 51.0126 76.9815C50.7725 77.2879 50.576 77.7038 50.576 77.9227C50.576 78.1197 50.4232 78.4699 50.2485 78.6669C49.8556 79.1047 48.1747 82.3661 48.1747 82.7163C48.1747 82.8477 47.9782 83.1979 47.738 83.4824C47.4979 83.767 47.3014 84.0734 47.3014 84.2048C47.3014 84.3142 46.974 84.9709 46.5592 85.6494C46.1663 86.328 45.7515 87.0941 45.6642 87.3786C45.5987 87.6413 45.1839 88.3855 44.7691 89.0203C44.3543 89.6332 44.0269 90.2242 44.0269 90.3336C44.0269 90.443 43.8304 90.7714 43.5903 91.0778C43.3501 91.3843 43.1537 91.7564 43.1537 91.9096C43.1537 92.0847 42.8044 92.7195 42.3896 93.3542C41.9748 94.0109 41.6255 94.6895 41.6255 94.9083C41.6255 95.1053 41.5164 95.3461 41.4072 95.4118C41.1016 95.6088 40.2066 97.0534 40.0101 97.6663C39.9228 97.929 39.508 98.6732 39.0932 99.308C38.6784 99.9209 38.351 100.556 38.351 100.687C38.351 100.818 38.1545 101.103 37.9362 101.3C37.6961 101.519 37.3249 102.154 37.063 102.723C36.8228 103.292 36.4736 103.883 36.3207 104.036C36.1461 104.167 35.7532 104.868 35.4257 105.59C35.0982 106.312 34.749 106.903 34.6616 106.903C34.5743 106.903 34.2032 107.472 33.8757 108.151C33.5265 108.851 32.9152 109.858 32.5223 110.384C32.1293 110.909 31.8019 111.456 31.8019 111.609C31.8019 111.763 31.4526 112.332 31.0378 112.879C30.623 113.426 30.0554 114.302 29.7716 114.827C29.4878 115.352 28.8548 116.316 28.3745 116.972C27.8942 117.629 27.152 118.723 26.759 119.38C26.3661 120.037 25.8858 120.759 25.7112 120.956C25.2091 121.481 25.0126 121.744 23.0042 124.261C21.1268 126.625 18.4853 129.69 17.1973 131.003C16.7607 131.441 15.4727 132.798 14.3375 134.045C13.2024 135.293 11.7397 136.781 11.1285 137.394C10.4954 137.985 9.9278 138.664 9.86231 138.883C9.68767 139.408 10.1243 140.174 10.5827 140.174C11.1066 140.174 13.377 139.211 13.8573 138.817C14.0537 138.62 14.4249 138.423 14.665 138.336C14.927 138.27 15.5382 137.81 16.0621 137.329C16.5642 136.847 17.0663 136.453 17.1318 136.453C17.4593 136.453 19.1402 134.702 22.6549 130.675C24.0521 129.055 26.6935 125.64 27.2175 124.743C27.5013 124.261 27.8942 123.692 28.0689 123.495C28.9857 122.488 30.0554 121.022 30.0554 120.737C30.0554 120.649 30.5575 119.883 31.1688 119.052C31.78 118.198 32.3694 117.279 32.4786 116.994C32.5878 116.71 32.9589 116.119 33.3082 115.681C33.6574 115.243 34.2032 114.346 34.5525 113.689C34.8799 113.032 35.2292 112.441 35.3166 112.376C35.4039 112.31 35.775 111.719 36.1243 111.062C36.4517 110.406 37.0193 109.442 37.3468 108.917C37.6742 108.392 38.0017 107.801 38.0672 107.604C38.1545 107.429 38.5256 106.772 38.9404 106.159C39.3333 105.546 39.6608 104.933 39.6608 104.802C39.6608 104.671 39.8354 104.32 40.0756 104.036C40.534 103.445 41.4291 101.869 42.6079 99.6363C43.0227 98.8483 43.4593 98.126 43.5903 98.0384C43.6994 97.9728 43.8086 97.7101 43.8086 97.4912C43.8086 97.2723 43.9614 96.944 44.136 96.747C44.4635 96.4187 45.4677 94.6895 46.581 92.4568C46.9303 91.8001 47.3669 91.0122 47.5852 90.7057C47.7817 90.4212 47.9564 90.049 47.9564 89.9177C47.9564 89.7645 48.3056 89.1297 48.7204 88.4949C49.1352 87.8383 49.4845 87.1597 49.4845 86.9627C49.4845 86.7657 49.6373 86.4812 49.8119 86.328C49.9866 86.1966 50.1831 85.8683 50.2485 85.6494C50.3359 85.4086 50.7288 84.6206 51.1436 83.8983C51.5584 83.1541 51.8858 82.4318 51.8858 82.3004C51.8858 82.1472 52.0823 81.797 52.3224 81.5124C52.5626 81.2279 52.759 80.8339 52.759 80.615C52.759 80.3961 52.89 80.0897 53.0428 79.9365C53.1956 79.7832 53.7414 78.7545 54.2653 77.6819C54.7674 76.5875 55.3787 75.3398 55.6188 74.902C55.8371 74.4643 56.0336 73.9827 56.0336 73.8514C56.0336 73.6982 56.2301 73.348 56.4702 73.0415C56.7103 72.7351 56.9068 72.2754 56.9068 72.0565C56.9068 71.8157 57.1033 71.378 57.3434 71.0715C57.5836 70.7651 57.78 70.3273 57.78 70.1303C57.78 69.9114 57.9328 69.6269 58.1075 69.4736C58.2821 69.3204 58.4349 69.0578 58.4349 68.8826C58.4349 68.7075 58.6314 68.2041 58.8497 67.7663C59.6356 66.2341 60.1814 64.9427 60.1814 64.5925C60.1814 64.3955 60.2687 64.1766 60.3997 64.1109C60.5088 64.0452 60.7053 63.5856 60.8581 63.0821C60.9891 62.5787 61.2292 62.0534 61.4039 61.8783C61.5785 61.7031 61.7095 61.3748 61.7095 61.134C61.7095 60.9152 61.906 60.346 62.1461 59.9083C62.3862 59.4486 62.5827 58.9671 62.5827 58.8138C62.5827 58.6825 62.7137 58.2885 62.8883 57.9383C63.4123 56.9095 64.1108 54.9395 64.1108 54.5236C64.1108 54.3266 64.3073 53.7794 64.5475 53.3417C64.7876 52.882 64.9841 52.2034 64.9841 51.8313C64.9841 51.4592 65.115 51.0214 65.2897 50.8901C65.4643 50.7369 65.6826 50.2116 65.7481 49.7081C65.8354 49.2047 66.0538 48.5261 66.2066 48.1978C66.3812 47.8695 66.5122 47.366 66.5122 47.0815C66.5122 46.775 66.7087 46.1184 66.9488 45.593C67.1889 45.0677 67.3854 44.2797 67.3854 43.8638C67.3854 43.4261 67.5382 42.8788 67.7129 42.5943C67.9093 42.3316 68.1276 41.6093 68.1931 40.9745C68.2586 40.3397 68.4333 39.5736 68.5861 39.2672C68.7389 38.9608 68.9354 38.0852 69.0227 37.2972C69.11 36.5092 69.3065 35.6775 69.4593 35.4367C69.6121 35.174 69.8522 34.386 70.0051 33.6856C70.267 32.4379 70.2888 32.416 70.4635 33.0289C70.5726 33.401 70.5508 34.0139 70.4417 34.4517C70.3107 34.8676 70.1579 36.553 70.0924 38.1728C70.0269 39.8363 69.8304 41.5217 69.6558 42.0033C69.4811 42.4848 69.2628 43.8201 69.1537 44.9583C69.0445 46.0965 68.848 47.4317 68.7171 47.9132C68.5861 48.3948 68.4769 49.4673 68.4769 50.321C68.4769 51.306 68.3459 52.094 68.1276 52.5099C67.9312 52.8601 67.7129 53.8451 67.6692 54.6988C67.6037 55.5305 67.4072 56.4936 67.2544 56.822C67.0798 57.1503 66.8833 58.1791 66.796 59.1203C66.7305 60.0396 66.534 61.0465 66.3594 61.3748C66.2066 61.6813 66.0756 62.4036 66.0756 63.0165C66.0756 63.6075 65.9228 64.3955 65.7481 64.7457C65.5735 65.0959 65.3333 66.1466 65.2242 67.0878C65.115 68.0509 64.9186 68.9483 64.7876 69.1015C64.6566 69.2548 64.5038 69.9771 64.4165 70.6994C64.351 71.3999 64.1545 72.3411 64.0017 72.757C63.8489 73.1947 63.6524 74.0265 63.5651 74.6175C63.4778 75.2304 63.2813 76.1278 63.1066 76.6531C62.932 77.1566 62.801 77.9446 62.801 78.4042C62.801 78.842 62.6482 79.4987 62.4736 79.827C62.2989 80.1553 62.1025 80.812 62.0151 81.2498C61.9278 81.7532 61.4039 82.6069 60.7053 83.4824C60.0941 84.2704 59.33 85.3649 59.0244 85.934C58.7406 86.4812 58.042 87.5318 57.5181 88.2323C56.9723 88.9327 56.3392 89.8302 56.1209 90.246C55.4223 91.4937 55.2695 91.7126 54.9421 92.0628C54.7674 92.2379 54.2653 92.9602 53.8506 93.6388C53.4358 94.3392 52.7372 95.368 52.3006 95.9152C51.864 96.4843 51.2309 97.4256 50.9035 98.0384C50.5542 98.6294 49.8556 99.6801 49.3535 100.337C48.8514 100.993 48.262 101.869 48.0437 102.285C47.4324 103.357 47.2141 103.708 46.9085 104.058C46.2536 104.824 44.9001 106.772 44.9001 106.991C44.9001 107.1 44.7255 107.407 44.4853 107.648C43.9614 108.26 42.6079 110.209 42.4551 110.624C42.3896 110.821 41.7783 111.741 41.1016 112.682C40.4249 113.623 39.8791 114.499 39.8791 114.608C39.8791 114.74 39.5953 115.199 39.246 115.637C38.9186 116.075 38.3291 116.972 37.9799 117.629C37.6306 118.286 37.0412 119.271 36.6482 119.796C36.2553 120.321 35.9496 120.868 35.9496 121.022C35.9496 121.175 35.7532 121.503 35.513 121.788C35.2947 122.05 34.8799 122.729 34.618 123.276C34.3342 123.823 33.8103 124.765 33.3955 125.377C33.0025 125.99 32.6751 126.603 32.6751 126.756C32.6751 126.888 32.5223 127.15 32.3476 127.326C32.173 127.501 31.7364 128.223 31.3652 128.923C30.9723 129.646 30.4484 130.609 30.1864 131.09C28.5491 133.98 28.0034 135.03 27.0865 136.891C26.5407 138.029 25.995 139.124 25.8858 139.299C25.7767 139.474 25.1872 140.656 24.5542 141.925C23.9211 143.195 23.3535 144.267 23.2662 144.333C23.1789 144.399 23.0479 144.705 22.9605 145.034C22.8732 145.362 22.6768 145.734 22.5021 145.887C22.3275 146.019 22.1965 146.237 22.1965 146.347C22.1965 146.456 21.8909 147.201 21.5197 148.01C20.843 149.455 19.8825 151.556 19.2057 153.089C19.0311 153.504 18.6818 154.227 18.4635 154.665C18.2234 155.102 18.0487 155.606 18.0487 155.781C18.0487 155.956 17.9177 156.219 17.7431 156.35C17.5684 156.503 17.3501 156.941 17.2846 157.313C17.1973 157.707 17.0008 158.167 16.848 158.342C16.6952 158.517 16.4987 158.977 16.4114 159.371C16.3459 159.743 16.1276 160.181 15.953 160.334C15.7783 160.465 15.6474 160.772 15.6474 161.012C15.6474 161.231 15.4509 161.8 15.2326 162.238C14.5995 163.486 13.9009 165.04 13.9009 165.237C13.9009 165.346 13.7045 165.872 13.4425 166.419C13.2024 166.966 12.8531 167.71 12.7003 168.082C12.5474 168.433 12.22 169.199 11.958 169.79C11.7179 170.359 11.4996 171.059 11.4996 171.344C11.4996 171.628 11.3686 171.979 11.194 172.11C11.0193 172.263 10.801 172.701 10.7137 173.073C10.6482 173.467 10.4299 173.97 10.2771 174.211C10.1024 174.452 9.97146 174.802 9.97146 175.021C9.97146 175.24 9.77499 175.787 9.53485 176.225C9.29472 176.685 9.09824 177.21 9.09824 177.385C9.07641 177.56 8.90177 178.107 8.66164 178.589C8.4215 179.071 8.22503 179.661 8.22503 179.902C8.22503 180.143 8.07222 180.537 7.89757 180.756C7.72293 180.997 7.57012 181.369 7.57012 181.588C7.57012 181.807 7.37364 182.376 7.13351 182.857C6.89337 183.339 6.6969 183.908 6.6969 184.171C6.6969 184.411 6.50043 184.98 6.26029 185.418C6.02016 185.878 5.82368 186.447 5.82368 186.688C5.82368 186.929 5.67087 187.41 5.49623 187.738C5.32159 188.067 5.12511 188.702 5.03779 189.139C4.95047 189.577 4.754 190.19 4.60118 190.496C4.42654 190.803 4.29556 191.284 4.29556 191.569C4.29556 191.832 4.09908 192.423 3.85895 192.86C3.61881 193.32 3.42234 193.977 3.42234 194.349C3.42234 194.721 3.26953 195.224 3.09489 195.487C2.92024 195.728 2.70194 196.516 2.63645 197.216C2.54913 197.939 2.37448 198.748 2.22167 199.055C2.06886 199.361 1.89421 200.193 1.80689 200.894C1.71957 201.616 1.58859 202.294 1.47944 202.426C1.08649 202.951 0.977337 204.155 0.999167 208.204C0.999167 212.757 0.933676 212.473 2.39631 214.859C2.85475 215.625 3.18221 215.909 3.70614 216.019C4.09908 216.106 4.62301 216.369 4.88498 216.61C5.29976 217.004 5.53989 217.047 6.63141 216.916C7.30815 216.829 8.02855 216.632 8.22503 216.456C8.4215 216.281 8.72713 216.128 8.9236 216.128C9.09824 216.128 9.49119 215.953 9.77499 215.712C10.0588 215.493 10.5172 215.253 10.801 215.165C11.063 215.077 11.2813 214.924 11.2813 214.837C11.2813 214.727 11.8707 214.18 12.6129 213.611C14.1629 212.407 17.7213 208.292 18.8564 206.431C19.2712 205.731 19.8606 204.899 20.1444 204.571C20.4501 204.264 20.9958 203.455 21.3669 202.798C21.7599 202.119 22.3711 201.134 22.7641 200.587C23.1352 200.04 23.6809 199.164 23.9647 198.617C24.2485 198.07 24.5978 197.479 24.7288 197.304C24.8598 197.129 25.2527 196.45 25.5802 195.815C25.9076 195.181 26.2569 194.611 26.3661 194.546C26.5407 194.458 27.283 193.036 28.2653 191C28.4181 190.672 28.6364 190.256 28.7674 190.081C28.9857 189.73 30.0773 187.607 30.6448 186.469C30.8195 186.097 31.0378 185.659 31.1469 185.484C31.4089 185.068 32.7842 182.222 33.461 180.668C33.7666 180.012 34.2032 179.092 34.4215 178.655C34.6616 178.217 34.8581 177.713 34.8581 177.538C34.8581 177.363 35.0109 177.101 35.1856 176.947C35.3602 176.794 35.5567 176.356 35.644 175.94C35.7095 175.546 35.906 175.109 36.0806 174.955C36.2334 174.824 36.4299 174.386 36.5172 173.97C36.5827 173.576 36.7792 173.139 36.9538 172.985C37.1285 172.854 37.2595 172.548 37.2595 172.307C37.2595 172.088 37.4341 171.519 37.6742 171.081C38.3291 169.768 39.2679 167.645 40.0537 165.675C40.2939 165.062 40.6868 164.077 40.927 163.486C41.1671 162.873 41.5819 161.888 41.822 161.253C42.084 160.64 42.2804 159.94 42.2804 159.699C42.2804 159.458 42.4333 159.152 42.6079 158.999C42.7825 158.845 42.9354 158.539 42.9354 158.32C42.9354 158.101 43.11 157.488 43.3501 156.985C43.5684 156.459 43.8741 155.715 44.005 155.321C44.5071 153.855 44.7691 153.176 45.1621 152.301C45.3804 151.819 45.555 151.272 45.555 151.075C45.555 150.878 45.7078 150.44 45.8825 150.112C46.0571 149.761 46.2099 149.28 46.2099 149.039C46.2099 148.798 46.3627 148.383 46.5374 148.142C46.712 147.879 46.9522 147.288 47.0613 146.828C47.3233 145.734 47.9345 143.939 48.2838 143.239C48.4366 142.932 48.6331 142.297 48.7204 141.838C48.7859 141.356 49.0042 140.765 49.1789 140.524C49.3535 140.284 49.4845 139.824 49.4845 139.518C49.4845 139.211 49.6373 138.751 49.8119 138.489C49.9866 138.248 50.1831 137.613 50.2704 137.088C50.3577 136.563 50.5542 135.928 50.707 135.687C50.8598 135.446 51.0563 134.855 51.1436 134.374C51.2091 133.892 51.4056 133.257 51.5584 132.951C51.7112 132.645 51.8858 132.032 51.9731 131.594C52.0605 131.156 52.2569 130.499 52.4316 130.171C52.6062 129.843 52.759 129.339 52.759 129.099C52.759 128.836 52.9119 128.332 53.0865 128.004C53.2611 127.654 53.4794 127.019 53.5449 126.603C53.6104 126.187 53.8069 125.531 53.9597 125.18C54.1125 124.808 54.3308 124.13 54.3963 123.648C54.4836 123.167 54.6365 122.663 54.7456 122.554C54.8329 122.422 55.0076 121.788 55.1386 121.131C55.2477 120.474 55.4878 119.489 55.6843 118.942C56.3174 117.06 56.9068 115.002 56.9068 114.586C56.9068 114.367 57.0596 113.886 57.2343 113.558C57.4089 113.207 57.5617 112.704 57.5617 112.441C57.5617 112.179 57.7582 111.456 57.9983 110.843C58.2385 110.23 58.4349 109.442 58.4349 109.07C58.4349 108.72 58.5878 108.129 58.7624 107.801C58.937 107.451 59.1335 106.75 59.2208 106.225C59.2863 105.699 59.4828 104.955 59.6356 104.605C59.7884 104.233 60.0067 103.467 60.0722 102.876C60.1595 102.285 60.3778 101.541 60.5307 101.234C60.7053 100.928 60.8363 100.424 60.8363 100.118C60.8363 99.8114 61.0328 99.0015 61.2729 98.3011C61.513 97.6225 61.7095 96.8346 61.7095 96.55C61.7095 96.2873 61.906 95.4993 62.1461 94.7989C62.3862 94.1204 62.5827 93.2448 62.5827 92.8289C62.5827 92.4349 62.6919 91.9971 62.8229 91.8658C62.932 91.7564 63.1285 90.9684 63.2595 90.1585C63.3686 89.3267 63.5651 88.5387 63.6742 88.4074C63.7834 88.2761 63.9799 87.4881 64.089 86.6782C64.1982 85.8683 64.3946 85.0803 64.5256 84.9271C64.6566 84.7739 64.8312 84.0078 64.9186 83.2417C64.9841 82.4755 65.1805 81.6438 65.3333 81.403C65.4862 81.1622 65.6826 80.3742 65.77 79.6519C65.8791 78.7764 66.1629 77.9446 66.665 77.1128C67.058 76.4124 67.3854 75.7776 67.3854 75.6682C67.3854 75.5587 67.691 75.1209 68.0621 74.7051C68.4333 74.2892 68.9135 73.5668 69.1318 73.0853C69.3501 72.6037 69.7867 71.9033 70.136 71.5531L70.7691 70.8964L70.8346 71.9471C70.8783 72.6037 70.7691 73.2385 70.5508 73.6982C70.3325 74.1141 70.0924 75.3398 69.9832 76.6969C69.8741 77.9665 69.6776 80.0678 69.5248 81.3811C69.3283 83.2635 69.3283 84.1829 69.5466 85.6494C69.6994 86.6782 69.8959 88.2104 70.0051 89.0422C70.1142 89.8521 70.3543 90.7057 70.5508 90.9027C70.7255 91.1216 70.8783 91.4937 70.8783 91.7564C70.8783 92.2379 71.2712 92.6976 72.1008 93.2448C73.1705 93.9671 75.0697 93.201 76.4014 91.5375C78.6281 88.8014 79.4794 87.3348 79.7196 85.8902C79.8506 85.0584 79.8287 84.9709 79.5013 85.1022C79.2175 85.2116 79.152 85.146 79.2611 84.8833C79.3266 84.6863 79.4576 84.1391 79.5231 83.6357C79.6104 83.1322 79.7851 82.4755 79.9379 82.1691C80.0907 81.8627 80.2872 81.206 80.3745 80.7026C80.44 80.1991 80.6583 79.6738 80.8111 79.5425C80.9857 79.4111 81.1822 79.0171 81.2477 78.6669C81.3132 78.3167 81.5315 77.9227 81.7061 77.7695C81.8808 77.6381 82.0118 77.2879 82.0118 76.9815C82.0118 76.6969 82.1646 76.1497 82.3611 75.7995C82.5357 75.4274 82.7977 74.1797 82.9068 73.0196C83.016 71.8376 83.1906 70.3054 83.2998 69.5831C83.5617 67.8101 83.5617 64.1328 83.2998 62.907C83.1906 62.3598 83.016 61.134 82.9068 60.149C82.8195 59.0984 82.6012 58.1791 82.3829 57.8507C82.1864 57.5662 82.0118 57.0627 82.0118 56.7125C82.0118 56.3623 81.8153 55.837 81.5752 55.5305C81.1604 55.0052 81.1604 54.9176 81.466 54.5018C81.6407 54.2391 81.9026 53.8013 82.0336 53.4949C82.1428 53.2103 82.5794 52.5537 82.9723 52.0721C83.9983 50.8244 85.2863 48.942 85.2863 48.7012C85.2863 48.6137 85.8758 47.7381 86.618 46.7969C87.3602 45.8338 88.1025 44.7613 88.2771 44.4111C88.4736 44.0389 89.2813 42.9226 90.089 41.8938C90.8749 40.8651 91.8136 39.5518 92.1411 38.9608C92.4904 38.3917 92.9488 37.6912 93.1671 37.4286C94.4551 36.0277 95.6339 34.4517 96.3107 33.2478C96.6381 32.6349 97.0529 32.0658 97.2276 31.9783C97.3804 31.8907 97.5113 31.7156 97.5113 31.6062C97.5113 31.4967 97.7297 31.1684 98.0134 30.8838C99.3669 29.483 101.31 26.8563 101.528 26.1778C101.659 25.8275 101.594 25.6962 101.353 25.6962C101.157 25.6962 101.004 25.7838 101.004 25.9151C101.004 26.0245 100.83 26.2872 100.611 26.5061C99.8909 27.2284 97.1621 30.6212 96.398 31.7156C95.9832 32.3066 95.5248 32.9414 95.3938 33.0946C95.241 33.2478 95.11 33.4667 95.11 33.5543C95.11 33.6418 94.7171 34.1453 94.2368 34.6706C93.7565 35.2178 93.2763 35.7431 93.1889 35.8745C93.1016 35.9839 92.665 36.5311 92.2502 37.0783C91.8136 37.6256 91.2679 38.3917 91.0496 38.8075C90.2855 40.1646 90.1327 40.4273 89.9362 40.5586C89.5433 40.8213 87.3166 43.7763 86.7271 44.8269C86.3779 45.396 85.9631 46.0527 85.7448 46.2716C84.9152 47.1909 84.2603 48.0665 83.5399 49.2704C83.147 49.9708 82.3392 51.1309 81.7716 51.8751C81.204 52.5974 80.6146 53.4292 80.4836 53.7357C80.3527 54.0202 79.6978 54.6112 79.0428 55.0271C77.602 55.9464 76.8598 56.6687 76.4232 57.5443C76.2704 57.8945 75.9211 58.4855 75.681 58.8576C75.4408 59.2078 75.2007 59.6675 75.1352 59.8426C75.0697 60.0177 74.8077 60.543 74.5894 60.9808C74.3493 61.4186 74.1528 61.9877 74.1528 62.2066C74.1528 62.4474 74.0218 62.7538 73.8472 62.8851C73.6726 63.0384 73.4543 63.4542 73.3888 63.8045C73.236 64.5049 72.8867 65.0959 71.3585 67.3504C70.8564 68.0947 70.2888 69.0359 70.0924 69.4518C69.9177 69.8676 69.6339 70.3273 69.503 70.4805C69.3501 70.6556 69.0663 71.0059 68.8699 71.2685C68.6734 71.5531 68.2586 72.0565 67.9748 72.4067L67.4509 73.0415L67.4291 71.8595C67.4072 71.0715 67.5164 70.5681 67.7347 70.3054C67.9312 70.1084 68.1276 69.3423 68.1931 68.5543C68.2805 67.7882 68.4551 66.9783 68.5861 66.7376C68.7389 66.4968 68.9354 65.7526 69.0009 65.0959C69.0882 64.4392 69.3065 63.4761 69.4811 62.9508C69.6558 62.4474 69.7867 61.6375 69.7867 61.1559C69.7867 60.6744 69.9396 59.9083 70.1142 59.4486C70.3107 58.9889 70.5508 57.9164 70.66 57.0846C70.7691 56.2529 71.0093 54.9833 71.1839 54.261C71.3804 53.5387 71.5332 52.5099 71.5332 51.9408C71.5332 51.3936 71.6423 50.8463 71.7515 50.7369C71.8825 50.6056 72.0571 49.5111 72.1881 48.2854C72.2972 47.0377 72.5155 45.8338 72.6465 45.593C72.7775 45.3304 72.9303 44.1922 72.9958 43.0321C73.0613 41.8501 73.236 40.4273 73.4106 39.8144C73.5852 39.2234 73.7817 37.6037 73.8472 36.2028C73.9127 34.8238 74.1092 32.8976 74.2838 31.9345C74.4585 30.9714 74.6768 28.7606 74.8077 27.0095C74.9169 25.2584 75.1134 23.2447 75.2225 22.5223C75.3317 21.8 75.4408 20.224 75.4408 19.0201C75.4627 17.8163 75.6155 16.1308 75.7901 15.2991C75.9866 14.4454 76.2267 12.0376 76.3359 9.93632C76.4669 7.835 76.6415 5.47102 76.7506 4.68302C76.969 3.1727 76.838 2.69115 76.0302 2.03449C75.7683 1.8156 75.2443 1.59671 74.8732 1.50916C74.4803 1.44349 74.0655 1.18083 73.9345 0.96194C73.6944 0.502276 72.974 0.370944 72.7557 0.721164ZM79.9161 66.6281C79.8942 72.4724 79.8724 72.6694 79.3921 73.5231C79.1302 74.0046 78.7154 74.6394 78.4971 74.9239C78.2569 75.2085 78.0823 75.7119 78.0823 76.0184C78.0823 77.4193 77.0781 78.3605 76.314 77.66C76.0084 77.3974 75.8338 77.3755 75.4845 77.5725C74.9387 77.857 74.8951 78.4918 75.3535 78.8858C75.5281 79.039 75.681 79.3455 75.681 79.5643C75.681 79.7832 75.9866 80.3086 76.3577 80.7463C77.0126 81.4906 77.0344 81.5562 76.7943 82.4974C76.6633 83.0228 76.5542 83.7889 76.5542 84.1829C76.5542 84.5769 76.3577 85.1898 76.1176 85.5619C75.8774 85.9121 75.681 86.4155 75.681 86.6563C75.681 86.8971 75.5281 87.2692 75.3535 87.4881C75.2007 87.7288 75.0042 88.2761 74.9169 88.7357C74.6768 90.1147 73.8254 90.3993 73.3014 89.3048C72.843 88.3198 72.8867 77.3098 73.3669 76.1716C73.5416 75.7338 73.7599 74.7707 73.8254 74.0046C73.9127 73.2604 74.1092 72.3411 74.262 71.969C74.4366 71.6187 74.6331 70.8745 74.7204 70.3492C74.8077 69.8239 75.0042 69.1453 75.1789 68.8389C75.3317 68.5324 75.4627 68.029 75.4627 67.7225C75.4627 67.4161 75.6591 66.8689 75.8993 66.5187C76.1394 66.1466 76.3359 65.665 76.3359 65.4023C76.3359 65.1616 76.4232 64.877 76.5323 64.7457C76.6415 64.6362 76.9908 63.8482 77.3182 63.0165C77.6457 62.1628 78.2133 61.0027 78.5844 60.4336L79.2611 59.3829L79.5886 59.9958C79.8724 60.4993 79.9161 61.6375 79.9161 66.6281ZM60.6398 87.8383C60.5307 88.1447 60.356 88.8889 60.2687 89.5018C60.1814 90.0928 59.9849 90.7933 59.8321 91.034C59.6574 91.2748 59.5265 91.9096 59.5265 92.4568C59.5265 93.004 59.3737 93.6826 59.1772 93.9452C59.0025 94.2079 58.7842 94.9959 58.7187 95.6963C58.6532 96.3749 58.4786 97.1629 58.304 97.4037C58.1511 97.6663 57.9547 98.4105 57.8674 99.0453C57.78 99.702 57.6272 100.337 57.5181 100.49C57.4089 100.621 57.2343 101.322 57.1251 102.044C56.9941 102.766 56.754 103.642 56.5794 103.97C56.4047 104.32 56.2519 104.999 56.2519 105.481C56.2519 105.962 56.0991 106.575 55.9244 106.838C55.7498 107.078 55.5533 107.713 55.466 108.239C55.4005 108.764 55.204 109.486 55.0512 109.858C54.8984 110.209 54.7019 110.953 54.6146 111.5C54.5273 112.047 54.3745 112.66 54.2653 112.857C54.1344 113.076 53.9597 113.82 53.8287 114.499C53.6977 115.199 53.5013 115.878 53.3921 116.009C53.283 116.162 53.1302 116.797 53.0428 117.432C52.9773 118.089 52.7809 118.767 52.6281 118.964C52.4534 119.139 52.2569 119.774 52.1696 120.365C52.1041 120.956 51.9077 121.678 51.733 122.007C51.5802 122.313 51.4492 122.882 51.4492 123.276C51.4492 123.648 51.2527 124.349 51.0126 124.786C50.7725 125.246 50.576 125.881 50.576 126.209C50.576 126.559 50.3795 127.194 50.1394 127.632C49.8993 128.092 49.7028 128.726 49.7028 129.055C49.7028 129.405 49.5063 130.04 49.2662 130.478C49.026 130.937 48.8296 131.506 48.8296 131.769C48.8296 132.032 48.6768 132.535 48.5021 132.863C48.3275 133.214 48.1747 133.739 48.1747 134.045C48.1747 134.352 47.9782 134.987 47.738 135.468C47.4979 135.95 47.3233 136.606 47.3014 136.913C47.3014 137.219 47.1486 137.657 46.974 137.898C46.7993 138.117 46.6029 138.773 46.5155 139.342C46.4282 139.912 46.2318 140.503 46.0789 140.634C45.9043 140.765 45.7733 141.094 45.7733 141.356C45.7733 141.597 45.5768 142.254 45.3367 142.779C45.0966 143.304 44.9001 143.917 44.9001 144.136C44.9001 144.377 44.7036 144.924 44.4635 145.362C44.2234 145.822 44.0269 146.413 44.0269 146.675C44.0269 146.96 43.8304 147.551 43.5903 147.989C43.3501 148.448 43.1537 149.039 43.1537 149.302C43.1537 149.564 43.0663 149.827 42.9572 149.893C42.848 149.958 42.6297 150.549 42.4988 151.162C42.3459 151.797 42.084 152.519 41.9312 152.76C41.7565 153.001 41.6255 153.373 41.6255 153.592C41.6255 153.811 41.4727 154.271 41.2981 154.577C40.9488 155.212 40.4249 156.591 40.0101 158.014C39.8791 158.495 39.639 159.108 39.4862 159.371C39.3552 159.633 39.2242 160.027 39.2242 160.246C39.2242 160.465 39.0277 160.925 38.7876 161.297C38.5474 161.647 38.351 162.172 38.351 162.435C38.351 162.698 38.2637 162.982 38.1327 163.048C38.0235 163.114 37.7834 163.639 37.6087 164.208C37.4341 164.777 37.1503 165.521 36.9538 165.893C36.7574 166.244 36.6045 166.703 36.6045 166.878C36.6045 167.054 36.4517 167.404 36.2771 167.623C36.1024 167.863 35.9496 168.236 35.9496 168.476C35.9496 168.695 35.7532 169.133 35.513 169.439C35.2729 169.746 35.0764 170.206 35.0764 170.424C35.0764 170.665 34.8799 171.103 34.6398 171.409C34.3997 171.716 34.2032 172.197 34.2032 172.46C34.2032 172.723 34.0504 173.073 33.8757 173.226C33.7011 173.379 33.5483 173.598 33.5483 173.708C33.5483 173.927 31.5617 178.195 30.6885 179.837C30.4702 180.274 30.2737 180.756 30.2737 180.887C30.2737 181.04 30.0773 181.391 29.8371 181.697C29.597 182.004 29.4005 182.441 29.4005 182.66C29.4005 182.857 29.2695 183.186 29.1167 183.339C28.9639 183.492 28.5928 184.105 28.309 184.718C28.0034 185.309 27.6104 186.053 27.3921 186.338C27.1738 186.622 26.9992 187.016 26.9992 187.213C26.9992 187.432 26.8682 187.717 26.7372 187.848C26.4097 188.176 25.1654 190.387 24.1394 192.423C23.7683 193.189 23.3972 193.802 23.288 193.802C23.2007 193.802 22.8077 194.415 22.4366 195.159C22.0655 195.925 21.4324 196.997 21.0395 197.545C20.6465 198.092 20.0789 198.989 19.7296 199.515C16.8044 204.243 12.7221 209.277 9.99329 211.531C9.31655 212.079 8.61798 212.604 8.44333 212.692C8.26869 212.801 7.87574 212.998 7.57012 213.173C6.9807 213.523 6.17297 213.567 5.53989 213.304C5.32159 213.217 4.90681 212.56 4.60118 211.86C4.14274 210.7 4.07725 210.218 4.07725 207.57C4.07725 205.928 4.18641 204.308 4.29556 203.958C4.42654 203.608 4.66667 202.535 4.84132 201.572C5.34342 198.705 5.60538 197.479 6.04199 195.99C6.28212 195.202 6.67507 193.824 6.9152 192.926C7.15534 192.029 7.4828 190.978 7.59195 190.628C7.72293 190.256 7.89757 189.621 7.98489 189.205C8.18137 188.308 8.79262 186.447 9.36021 185.002C9.57851 184.433 9.75316 183.733 9.75316 183.426C9.75316 183.12 9.84048 182.835 9.94963 182.748C10.0588 182.682 10.4954 181.566 10.932 180.274C11.8489 177.451 12.1327 176.619 12.5256 175.678C12.7003 175.284 12.8967 174.627 12.9622 174.211C13.0277 173.795 13.2242 173.336 13.377 173.204C13.5516 173.073 13.6826 172.81 13.6826 172.635C13.6826 172.351 13.8791 171.803 14.9925 169.067C15.2108 168.52 15.7565 167.141 16.215 166.003C16.6516 164.865 17.1973 163.508 17.4156 163.004C17.6558 162.501 17.8304 161.975 17.8304 161.866C17.8304 161.735 18.0269 161.253 18.267 160.815C18.5071 160.356 18.7036 159.83 18.7036 159.633C18.7036 159.436 18.8564 159.152 19.0311 158.999C19.2057 158.845 19.3585 158.583 19.3585 158.386C19.3585 158.211 19.5768 157.598 19.817 157.05C20.4719 155.671 20.9958 154.489 21.5416 153.198C21.8035 152.585 22.1747 151.753 22.3493 151.337C22.5458 150.922 22.8732 150.155 23.0915 149.63C23.8556 147.923 24.445 146.631 24.6197 146.303C24.7288 146.128 24.9253 145.734 25.0344 145.428C25.1654 145.121 25.3401 144.727 25.471 144.552C25.6893 144.202 26.3224 142.91 27.6977 139.955C28.178 138.927 28.6583 137.942 28.7456 137.766C28.8548 137.591 29.4442 136.453 30.0773 135.249C30.7103 134.045 31.5617 132.404 31.9983 131.616C32.4349 130.806 33.1117 129.536 33.5265 128.77C33.9412 128.004 34.5307 126.91 34.8363 126.362C35.1419 125.793 35.6658 124.852 35.9715 124.283C36.2989 123.692 36.9102 122.663 37.3468 122.007C37.7834 121.35 38.1327 120.693 38.1327 120.54C38.1327 120.409 38.2637 120.146 38.4383 119.971C38.6129 119.818 39.0277 119.139 39.3552 118.483C39.7045 117.826 40.2939 116.819 40.6868 116.206C41.0798 115.615 41.4072 115.046 41.4072 114.937C41.4072 114.849 41.691 114.389 42.0621 113.952C42.4114 113.514 42.9572 112.66 43.2628 112.069C43.5903 111.456 44.0924 110.69 44.3762 110.34C44.6818 109.99 45.1402 109.289 45.4022 108.808C46.1226 107.494 46.2536 107.275 46.9958 106.356C47.3669 105.875 47.9345 104.977 48.2838 104.386C48.6113 103.773 49.2443 102.832 49.681 102.263C50.1176 101.716 50.8161 100.687 51.2309 100.008C51.6457 99.308 52.1696 98.5419 52.3879 98.2792C52.6281 98.0384 53.1302 97.2286 53.5668 96.5281C53.9815 95.8277 54.6365 94.8427 55.0294 94.3392C55.4223 93.8358 56.0336 92.9384 56.3829 92.3474C56.7103 91.7345 57.2998 90.8589 57.6927 90.3774C58.0857 89.8958 58.6314 89.0641 58.9152 88.5168C59.2208 87.9696 59.7448 87.2035 60.0941 86.8095L60.7271 86.0872L60.7926 86.6782C60.8363 86.9846 60.7708 87.51 60.6398 87.8383Z" fill="#FF003D"/>
<path d="M110.762 13.5917C110.544 13.7887 110.566 14.0952 110.806 14.0952C110.915 14.0952 111.046 13.942 111.134 13.7669C111.243 13.4385 111.024 13.3291 110.762 13.5917Z" fill="#FF003D"/>
<path d="M136.544 14.4016C136.195 14.8175 135.933 15.2991 135.933 15.4523C135.933 15.6055 135.736 16.0214 135.496 16.3935C135.256 16.7437 135.06 17.4004 135.06 17.8163C135.06 18.254 134.907 18.8232 134.71 19.0858C134.536 19.3485 134.317 20.2678 134.252 21.1652C134.186 22.0189 134.055 22.8507 133.946 22.9601C133.706 23.2666 133.313 25.7838 133.313 27.0314C133.313 27.5786 133.204 28.1259 133.073 28.2572C132.942 28.3885 132.789 29.6581 132.724 31.059C132.593 33.4448 132.549 33.6856 132.025 34.2766C131.676 34.6706 131.152 34.9551 130.694 35.0208C130.279 35.0865 129.515 35.3273 129.013 35.568C128.511 35.7869 127.812 35.9839 127.484 35.9839C127.135 35.9839 126.524 36.159 126.109 36.3779C125.694 36.6187 124.778 36.8595 124.079 36.9251C123.38 36.9908 122.594 37.1878 122.333 37.3629C122.071 37.538 121.285 37.735 120.586 37.8007C119.888 37.8663 119.08 38.0852 118.774 38.2822C118.49 38.4573 117.792 38.6762 117.224 38.7419C116.635 38.8294 115.871 39.0702 115.5 39.2891C115.128 39.5299 114.626 39.705 114.386 39.705C113.95 39.705 113.011 40.4492 113.011 40.7994C113.011 40.9089 113.535 41.281 114.146 41.5874C115.259 42.1565 115.39 42.1784 117.988 42.0471C119.473 41.9814 120.826 41.8063 120.979 41.675C121.132 41.5437 122.114 41.3467 123.14 41.2372C124.188 41.1278 125.236 40.887 125.498 40.7119C125.76 40.5149 126.371 40.3617 126.851 40.3617C127.332 40.3617 128.118 40.1647 128.598 39.9458C129.1 39.7269 129.929 39.4861 130.453 39.4204L131.392 39.311L131.261 39.9896C131.174 40.3835 131.065 41.3248 130.999 42.1128C130.934 42.9008 130.737 43.842 130.563 44.236C130.388 44.6081 130.257 45.4836 130.257 46.2059C130.257 46.9939 130.126 47.6725 129.929 47.9571C129.755 48.2197 129.515 49.2704 129.406 50.2991C129.296 51.3279 129.1 52.3129 128.969 52.488C128.838 52.6412 128.663 53.473 128.598 54.2829C128.532 55.1147 128.336 56.0997 128.161 56.4937C127.987 56.8658 127.79 57.807 127.725 58.5731C127.637 59.3173 127.484 60.0834 127.353 60.2147C127.244 60.368 127.092 61.156 127.048 61.9658C126.982 62.7976 126.786 63.6732 126.611 63.9577C126.458 64.2204 126.262 65.1178 126.175 65.9277C126.109 66.7376 125.913 67.6569 125.738 67.9852C125.585 68.3136 125.389 69.211 125.301 69.9552C125.236 70.7213 125.083 71.4655 124.974 71.5969C124.843 71.7501 124.668 72.6256 124.559 73.545C124.472 74.4643 124.275 75.3398 124.144 75.4931C124.013 75.6463 123.817 76.4562 123.708 77.2879C123.62 78.0978 123.38 79.1704 123.184 79.6519C123.009 80.1335 122.856 80.9215 122.835 81.4249C122.835 81.9065 122.682 82.6288 122.507 83.0009C122.311 83.373 122.114 84.2048 122.049 84.8396C121.983 85.4743 121.787 86.3061 121.612 86.7001C121.437 87.0941 121.306 88.101 121.306 89.2173C121.306 90.7933 121.372 91.1216 121.809 91.6688C122.267 92.2161 122.354 92.2598 122.769 91.9972C123.446 91.5813 124.69 88.6701 125.018 86.7658C125.127 86.2185 125.345 85.3868 125.542 84.9052C125.716 84.4237 125.869 83.7889 125.891 83.4825C125.891 83.176 126.087 82.388 126.327 81.7314C126.568 81.0747 126.742 80.1335 126.764 79.63C126.764 79.1485 126.873 78.645 126.982 78.5356C127.113 78.4043 127.332 77.6163 127.441 76.7845C127.572 75.9527 127.768 75.1647 127.877 75.0334C127.987 74.9021 128.161 74.0703 128.27 73.2166C128.38 72.3411 128.598 71.5093 128.729 71.3342C128.882 71.1591 129.056 70.3492 129.122 69.5393C129.187 68.7076 129.362 67.8539 129.515 67.5912C129.689 67.3505 129.886 66.5187 129.951 65.7307C130.039 64.9646 130.191 64.1985 130.301 64.0672C130.432 63.9139 130.606 63.0822 130.694 62.2066C130.803 61.3311 131.043 60.3023 131.217 59.9521C131.414 59.58 131.567 58.8139 131.567 58.2448C131.567 57.6756 131.72 56.8877 131.916 56.4937C132.113 56.1215 132.331 55.1584 132.396 54.3704C132.462 53.5825 132.636 52.7507 132.789 52.5099C132.942 52.2691 133.139 51.3717 133.204 50.5399C133.291 49.6863 133.466 48.8764 133.575 48.745C133.706 48.5918 133.859 47.8038 133.903 46.9939C133.968 46.1622 134.165 45.221 134.339 44.8707C134.514 44.5424 134.71 43.4917 134.776 42.5724C134.841 41.6531 135.016 40.6681 135.169 40.3617C135.322 40.0552 135.518 39.311 135.605 38.72C135.758 37.6256 136.391 36.6406 136.959 36.6406C137.134 36.6406 137.308 36.4874 137.374 36.3122C137.439 36.1371 137.701 35.9401 137.919 35.8745C138.4 35.7213 139.644 34.4517 139.644 34.1234C139.644 33.992 140.037 33.3135 140.517 32.5912C140.997 31.8688 141.39 31.0152 141.39 30.7087C141.39 30.3804 141.543 29.7675 141.718 29.3516C141.893 28.9139 142.045 28.301 142.045 27.9945C142.045 27.2722 141.325 27.2503 140.539 27.9945C140.233 28.301 139.273 29.1984 138.4 29.9864L136.828 31.4311L136.675 30.8401C136.588 30.5117 136.653 30.0083 136.806 29.68C136.937 29.3516 137.155 27.6662 137.243 25.9151C137.352 24.164 137.526 22.391 137.657 21.9751C137.767 21.5592 137.985 20.1146 138.094 18.8013C138.225 17.4661 138.4 16.0433 138.465 15.6055C138.618 14.6862 138.094 13.6574 137.483 13.6574C137.286 13.6574 136.872 14.0076 136.544 14.4016Z" fill="#FF003D"/>
<path d="M109.955 14.7518C109.955 14.8613 110.064 14.9707 110.173 14.9707C110.304 14.9707 110.391 14.8613 110.391 14.7518C110.391 14.6205 110.304 14.533 110.173 14.533C110.064 14.533 109.955 14.6205 109.955 14.7518Z" fill="#FF003D"/>
<path d="M245.325 14.6862C245.041 14.7518 244.648 14.927 244.495 15.1021C244.321 15.2772 244.015 15.4085 243.819 15.4085C243.622 15.4085 243.273 15.6055 243.011 15.8244C242.771 16.0652 241.854 16.9188 240.981 17.7506C240.086 18.5605 238.885 19.9833 238.274 20.8807C237.684 21.7781 236.92 22.8507 236.571 23.2885C236.243 23.7043 235.698 24.5799 235.37 25.2147C235.043 25.8494 234.672 26.4185 234.563 26.4842C234.432 26.5718 234.06 27.2284 233.711 27.9508C233.384 28.6731 233.013 29.3297 232.903 29.3954C232.641 29.5924 231.768 31.0808 231.768 31.3654C231.768 31.4967 231.441 32.0439 231.026 32.5912C230.611 33.1165 230.196 33.7732 230.131 34.0358C230.044 34.2985 229.629 34.977 229.236 35.5461C228.821 36.1152 228.494 36.7281 228.494 36.9032C228.494 37.1002 228.341 37.3629 228.166 37.5161C227.992 37.6475 227.38 38.5668 226.813 39.5518C226.245 40.5368 225.459 41.8282 225.066 42.4192C224.673 42.9883 224.346 43.6012 224.346 43.7763C224.346 43.9295 224.215 44.1484 224.084 44.236C223.756 44.4549 222.818 45.7463 222.818 45.9871C222.818 46.0746 222.272 46.9939 221.617 48.0227C220.962 49.0515 220.416 49.9927 220.416 50.124C220.416 50.2554 220.264 50.4961 220.089 50.6494C219.893 50.8026 219.434 51.5468 219.063 52.2691C218.277 53.8451 217.928 54.5018 216.967 56.1434C216.596 56.822 216.269 57.5224 216.269 57.6975C216.269 57.8726 216.072 58.201 215.832 58.4199C215.592 58.6387 215.395 58.9452 215.395 59.0984C215.395 59.2516 215.046 59.974 214.631 60.6963C214.217 61.3967 213.867 62.1409 213.867 62.316C213.867 62.4911 213.736 62.7538 213.562 62.8851C213.387 63.0384 213.169 63.4761 213.081 63.8483C213.016 64.2422 212.754 64.7895 212.536 65.074C212.296 65.3586 212.121 65.7745 212.121 65.9715C212.121 66.1903 211.968 66.4749 211.793 66.6281C211.619 66.7813 211.466 67.0002 211.466 67.1097C211.466 67.2191 210.964 68.3573 210.353 69.6488C209.741 70.9402 209.065 72.4067 208.825 72.9102C208.104 74.5081 207.558 75.7776 207.1 76.8502C206.838 77.4411 206.445 78.2729 206.227 78.7107C205.987 79.1485 205.79 79.6519 205.79 79.8051C205.79 79.9584 205.572 80.5275 205.332 81.0747C204.175 83.5043 203.17 86.0215 203.17 86.5031C203.17 86.7439 203.018 87.0503 202.843 87.2035C202.668 87.3567 202.516 87.707 202.516 87.9915C202.516 88.2761 202.319 88.889 202.079 89.3267C201.839 89.7864 201.642 90.3774 201.642 90.6401C201.642 90.9246 201.446 91.5156 201.206 91.9534C200.966 92.413 200.769 92.9821 200.769 93.2448C200.769 93.5075 200.616 94.0109 200.442 94.3392C200.267 94.6895 200.114 95.4337 200.114 96.0028C200.114 96.5719 200.005 97.5131 199.896 98.1041C199.721 98.8921 199.721 99.3737 199.94 100.008C200.18 100.775 200.332 100.884 201.053 101.015C202.865 101.3 203.432 100.753 203.716 98.3887C203.782 97.732 204.044 96.8346 204.284 96.3749C204.502 95.9152 204.699 95.368 204.699 95.1491C204.699 94.7989 204.982 94.0109 206.03 91.3186C206.27 90.7495 206.445 90.0491 206.445 89.7645C206.445 89.4581 206.598 89.1078 206.772 88.9546C206.947 88.8014 207.1 88.4074 207.1 88.0791C207.1 87.7507 207.253 87.3567 207.427 87.2035C207.602 87.0503 207.798 86.5906 207.886 86.131C207.973 85.6932 208.213 84.9928 208.432 84.5769C208.672 84.161 208.846 83.6138 208.846 83.3511C208.846 83.0884 208.977 82.7601 209.152 82.6288C209.305 82.4974 209.501 82.0378 209.567 81.6219C209.632 81.206 209.851 80.7026 210.025 80.5056C210.222 80.3305 210.374 79.9802 210.374 79.7395C210.374 79.4987 210.571 78.9296 210.811 78.4918C211.029 78.054 211.444 77.1785 211.684 76.5875C211.946 75.9746 212.296 75.2304 212.47 74.9021C212.645 74.5956 212.776 74.136 212.776 73.8952C212.776 73.6544 212.929 73.348 213.103 73.1947C213.278 73.0415 213.474 72.6037 213.562 72.1879C213.627 71.7939 213.824 71.3561 213.998 71.2029C214.151 71.0715 214.348 70.6338 214.435 70.2179C214.5 69.8239 214.697 69.3861 214.872 69.2329C215.046 69.1015 215.177 68.7951 215.177 68.5543C215.177 68.3136 215.374 67.8758 215.614 67.5693C215.854 67.2629 216.05 66.8032 216.05 66.5843C216.05 66.3436 216.247 65.9058 216.487 65.5993C216.727 65.2929 216.924 64.8551 216.924 64.6362C216.924 64.4174 217.011 64.1985 217.142 64.1109C217.36 63.9796 219.325 60.0834 219.325 59.777C219.325 59.6675 219.521 59.3392 219.762 59.0327C220.002 58.7263 220.198 58.3542 220.198 58.201C220.198 58.0259 220.547 57.3911 220.962 56.7563C221.377 56.0997 221.726 55.443 221.726 55.2679C221.726 55.0928 221.857 54.7863 222.032 54.6112C222.207 54.4142 222.643 53.67 223.036 52.9477C223.669 51.7657 224.215 50.7807 225.044 49.4017C225.197 49.139 225.656 48.351 226.071 47.6506C226.485 46.9502 227.162 45.9433 227.555 45.418C227.948 44.8926 228.275 44.3454 228.275 44.1922C228.275 44.0609 228.821 43.2291 229.476 42.3316C230.131 41.4561 230.742 40.5368 230.808 40.2741C230.895 40.0114 231.004 39.7707 231.092 39.705C231.419 39.4423 233.078 36.8814 233.078 36.6406C233.078 36.5092 233.406 35.962 233.82 35.4586C234.235 34.9551 234.694 34.2985 234.825 34.0139C234.934 33.7075 235.217 33.204 235.436 32.8976C236.746 30.9276 237.051 30.4242 237.226 29.9426C237.335 29.6581 237.531 29.286 237.662 29.1327C238.296 28.3885 239.627 26.4623 239.627 26.2872C239.627 26.0902 240.784 24.6018 242.138 23.0915C243.273 21.8219 244.364 20.7931 245.194 20.224C245.631 19.9176 246.133 19.5455 246.307 19.3923C246.482 19.2171 246.766 19.1296 246.919 19.1953C247.311 19.3485 247.792 21.9532 247.617 23.0039C247.552 23.4636 247.377 24.952 247.268 26.331C247.159 27.6881 246.962 28.9357 246.831 29.0671C246.722 29.2203 246.526 29.9645 246.416 30.7525C246.307 31.5186 246.067 32.4379 245.871 32.81C245.674 33.1603 245.521 33.7294 245.521 34.0796C245.521 34.4079 245.325 35.0427 245.085 35.4805C244.845 35.9401 244.648 36.5749 244.648 36.8814C244.648 37.2097 244.495 37.5818 244.321 37.735C244.146 37.8882 243.993 38.2603 243.993 38.5449C243.993 38.8513 243.797 39.3329 243.557 39.6393C243.317 39.9458 243.12 40.4054 243.12 40.6243C243.12 40.8651 242.924 41.3029 242.683 41.6093C242.443 41.9158 242.247 42.3535 242.247 42.5505C242.247 42.7694 242.116 43.054 241.941 43.1853C241.57 43.4917 240.719 45.0677 240.719 45.418C240.719 45.5493 240.391 46.0527 239.976 46.5562C239.584 47.0596 239.169 47.7163 239.081 48.0008C238.994 48.3073 238.448 49.139 237.881 49.8614C237.313 50.6056 236.571 51.6781 236.243 52.2691C235.894 52.8382 235.348 53.6262 234.999 54.0202C234.257 54.8082 232.86 56.8658 232.51 57.6538C232.358 57.9602 231.899 58.595 231.463 59.0765C230.589 60.0177 229.258 61.8783 228.69 62.9289C228.385 63.4761 227.642 64.4392 226.638 65.5993C226.507 65.7526 226.136 66.2122 225.787 66.6281C225.459 67.044 224.608 67.9852 223.931 68.7294C223.254 69.4518 222.163 70.6775 221.508 71.4217C220.853 72.1879 220.111 73.0196 219.871 73.2823C218.888 74.3767 217.36 76.2154 216.705 77.0253C216.334 77.5068 215.941 77.9446 215.832 78.0103C215.57 78.1854 213.867 80.6807 213.867 80.8996C213.867 81.0309 213.54 81.5343 213.125 82.0378C212.71 82.5412 212.252 83.1979 212.121 83.4824C212.012 83.7889 211.728 84.2923 211.51 84.5988C210.222 86.5469 209.72 87.3349 209.72 87.5537C209.72 87.6851 209.567 87.9258 209.392 88.0791C208.912 88.4731 208.41 89.5894 208.41 90.2679C208.41 90.6182 208.715 91.2092 209.196 91.7564C209.916 92.61 210.047 92.6757 211.029 92.6757C211.881 92.6757 212.208 92.5663 212.732 92.0628C213.081 91.7345 213.453 91.231 213.54 90.9465C213.627 90.6401 214.173 89.8083 214.741 89.086C215.308 88.3417 215.963 87.4224 216.181 87.0065C216.88 85.7589 217.011 85.5619 217.644 84.9052C217.993 84.5331 218.757 83.5043 219.347 82.6069C219.936 81.7095 220.547 80.7901 220.7 80.5712C220.853 80.3523 221.29 79.8051 221.683 79.3674C222.076 78.9296 223.058 77.5725 223.866 76.3686C224.673 75.1647 225.394 74.136 225.459 74.0703C225.547 74.0046 226.223 73.1728 226.966 72.2097C228.319 70.4368 231.135 67.3942 232.532 66.1466L233.296 65.4899L232.772 66.6281C232.489 67.2629 232.139 67.8758 232.008 68.0071C231.877 68.1384 231.768 68.3792 231.768 68.5543C231.768 68.7294 231.375 69.3423 230.895 69.9114C230.415 70.4805 230.022 71.0496 230.022 71.181C230.022 71.2904 229.869 71.5093 229.694 71.6625C229.52 71.8157 229.367 72.1222 229.367 72.3411C229.367 72.56 229.192 72.9102 228.974 73.1291C228.406 73.6982 227.62 75.0334 227.62 75.4712C227.62 75.6682 227.489 75.887 227.337 75.9527C227.184 75.9965 226.835 76.5218 226.551 77.0909C225.852 78.448 225.852 78.4699 225.197 79.4549C224.892 79.9146 224.542 80.5493 224.455 80.8558C224.368 81.1622 224.171 81.5562 224.018 81.7313C223.887 81.9064 223.516 82.4974 223.233 83.0447C222.949 83.5919 222.534 84.2704 222.338 84.555C222.119 84.8395 221.945 85.1898 221.945 85.343C221.945 85.5181 221.595 86.1529 221.181 86.7876C220.766 87.4443 220.416 88.101 220.416 88.2542C220.416 88.4293 220.22 88.8014 219.98 89.1078C219.74 89.4143 219.543 89.8521 219.543 90.0709C219.543 90.2679 219.412 90.5963 219.259 90.7495C218.845 91.1873 218.015 92.6538 218.015 92.9821C218.015 93.1354 217.819 93.4856 217.578 93.7701C217.338 94.0547 217.142 94.4487 217.142 94.6457C217.142 94.8646 216.945 95.2805 216.705 95.5869C216.465 95.8933 216.007 96.7032 215.701 97.3599C215.395 98.0384 215.046 98.6294 214.937 98.6951C214.828 98.7827 214.741 99.0453 214.741 99.3299C214.741 99.6144 214.544 100.052 214.304 100.337C214.064 100.621 213.867 101.015 213.867 101.234C213.867 101.453 213.736 101.76 213.584 101.913C213.234 102.263 211.466 105.787 211.466 106.137C211.466 106.29 211.27 106.619 211.029 106.903C210.789 107.188 210.593 107.626 210.593 107.888C210.593 108.173 210.44 108.501 210.265 108.654C210.003 108.873 209.065 110.712 207.711 113.689C207.449 114.236 207.165 114.827 207.056 115.002C206.969 115.177 206.772 115.571 206.641 115.878C206.51 116.184 206.314 116.578 206.205 116.753C206.118 116.928 205.768 117.629 205.463 118.286C205.157 118.942 204.808 119.643 204.699 119.818C204.568 119.993 204.371 120.387 204.262 120.693C204.131 121 203.891 121.503 203.716 121.831C203.542 122.138 203.389 122.554 203.389 122.729C203.389 122.904 203.192 123.298 202.952 123.604C202.712 123.911 202.516 124.349 202.516 124.589C202.516 124.808 202.319 125.224 202.079 125.509C201.839 125.793 201.642 126.122 201.642 126.253C201.642 126.45 200.071 129.777 198.783 132.316C198.542 132.754 198.368 133.257 198.368 133.454C198.368 133.63 198.237 133.892 198.062 134.024C197.909 134.155 197.713 134.571 197.626 134.943C197.56 135.315 197.342 135.753 197.167 135.928C196.992 136.125 196.84 136.497 196.84 136.76C196.84 137.044 196.643 137.438 196.403 137.657C196.163 137.876 195.966 138.27 195.966 138.533C195.966 138.795 195.77 139.233 195.53 139.518C195.29 139.802 195.093 140.13 195.093 140.262C195.093 140.393 194.744 141.247 194.307 142.144C193.849 143.042 193.303 144.224 193.063 144.771C192.823 145.318 192.539 145.909 192.43 146.084C192.343 146.259 192.19 146.566 192.124 146.741C192.059 146.916 191.797 147.507 191.557 148.054C191.317 148.601 190.902 149.477 190.662 150.024C190.421 150.571 190.05 151.381 189.832 151.819C189.592 152.257 189.417 152.76 189.417 152.935C189.417 153.11 189.264 153.373 189.09 153.526C188.915 153.68 188.719 154.117 188.631 154.533C188.566 154.927 188.369 155.365 188.195 155.518C188.02 155.65 187.889 155.912 187.889 156.087C187.889 156.262 187.715 156.766 187.474 157.204C187.016 158.101 186.47 159.305 185.531 161.406C185.182 162.194 184.615 163.42 184.287 164.142C183.96 164.865 183.523 165.85 183.305 166.331C183.086 166.813 182.563 167.973 182.126 168.914C181.689 169.855 181.34 170.687 181.34 170.753C181.34 170.84 181.144 171.344 180.882 171.891C180.641 172.438 180.27 173.248 180.096 173.664C179.899 174.08 179.572 174.824 179.353 175.306C179.135 175.787 178.764 176.641 178.524 177.21C178.262 177.801 177.869 178.72 177.607 179.289C177.367 179.88 177.018 180.668 176.843 181.062C176.668 181.434 176.406 182.091 176.232 182.485C176.057 182.857 175.642 183.82 175.315 184.608C174.987 185.396 174.529 186.469 174.311 187.016C173.11 189.796 171.626 193.32 171.058 194.787C170.774 195.509 170.425 196.297 170.272 196.538C170.119 196.778 169.988 197.172 169.988 197.413C169.988 197.654 169.792 198.136 169.552 198.508C169.311 198.858 169.115 199.383 169.115 199.624C169.115 199.887 168.962 200.215 168.788 200.368C168.613 200.521 168.46 200.806 168.46 201.003C168.46 201.2 168.264 201.725 168.023 202.185C167.783 202.623 167.587 203.192 167.587 203.411C167.587 203.652 167.5 203.914 167.369 203.98C167.259 204.046 167.019 204.571 166.845 205.14C166.67 205.709 166.386 206.453 166.19 206.825C165.993 207.176 165.84 207.679 165.84 207.92C165.84 208.161 165.688 208.555 165.513 208.774C165.338 209.014 165.186 209.386 165.186 209.605C165.186 209.824 164.989 210.371 164.749 210.809C164.509 211.269 164.312 211.794 164.312 211.969C164.29 212.144 164.116 212.692 163.876 213.173C163.636 213.655 163.461 214.246 163.439 214.508C163.439 214.749 163.352 215.034 163.243 215.165C162.959 215.45 161.911 218.58 161.911 219.105C161.911 219.346 161.758 219.74 161.584 220.002C161.409 220.243 161.212 220.878 161.125 221.403C161.06 221.929 160.863 222.585 160.688 222.848C160.536 223.111 160.317 223.745 160.252 224.271C160.165 224.796 159.99 225.453 159.837 225.759C159.684 226.066 159.51 226.897 159.422 227.598C159.335 228.32 159.182 229.021 159.051 229.174C158.92 229.327 158.767 230.093 158.724 230.837C158.658 231.603 158.462 232.72 158.287 233.355C157.872 234.777 157.982 237.492 158.527 238.958C158.833 239.768 159.095 240.096 159.75 240.425C160.601 240.884 161.256 240.994 161.256 240.687C161.256 240.6 160.95 240.206 160.601 239.79C159.968 239.089 159.946 238.958 159.946 237.054C159.946 235.719 160.099 234.558 160.383 233.53C160.623 232.698 160.819 231.713 160.819 231.385C160.819 231.056 160.972 230.487 161.147 230.159C161.322 229.809 161.518 229.108 161.605 228.583C161.693 228.057 161.824 227.51 161.933 227.401C162.02 227.269 162.217 226.678 162.348 226.087C162.5 225.475 162.741 224.687 162.893 224.336C163.286 223.417 163.657 222.323 163.985 221.141C164.138 220.572 164.378 219.937 164.487 219.718C164.727 219.236 165.513 217.135 165.753 216.347C165.819 216.041 166.037 215.603 166.19 215.362C166.364 215.121 166.495 214.727 166.495 214.486C166.495 214.246 166.692 213.742 166.932 213.392C167.172 213.02 167.369 212.516 167.369 212.254C167.369 211.991 167.456 211.728 167.565 211.641C167.674 211.575 167.893 211.159 168.023 210.7C168.264 209.934 168.438 209.518 169.202 207.745C169.377 207.373 169.792 206.41 170.097 205.622C170.403 204.834 170.796 203.892 170.971 203.542C171.123 203.17 171.473 202.338 171.735 201.682C171.997 201.025 172.39 200.084 172.63 199.58C172.848 199.077 173.044 198.595 173.044 198.486C173.044 198.376 173.263 197.851 173.525 197.304C173.787 196.757 174.114 196.078 174.245 195.772C174.398 195.465 174.573 194.94 174.66 194.59C174.747 194.261 174.966 193.824 175.118 193.648C175.293 193.473 175.446 193.123 175.446 192.882C175.446 192.642 175.642 192.204 175.882 191.897C176.123 191.591 176.319 191.109 176.319 190.847C176.319 190.584 176.472 190.234 176.646 190.081C176.821 189.927 177.018 189.49 177.105 189.074C177.17 188.68 177.367 188.242 177.542 188.089C177.716 187.957 177.847 187.607 177.847 187.344C177.847 187.082 178.044 186.6 178.284 186.294C178.524 185.987 178.72 185.571 178.72 185.374C178.72 185.177 178.917 184.652 179.135 184.214C179.594 183.339 180.336 181.697 180.86 180.449C181.209 179.596 181.537 178.852 182.868 175.962C184.222 173.007 184.331 172.81 185.051 171.147C185.706 169.724 186.165 168.717 187.3 166.222C187.54 165.675 187.933 164.887 188.151 164.449C188.369 164.011 188.544 163.508 188.544 163.311C188.544 163.136 188.697 162.873 188.872 162.72C189.046 162.566 189.199 162.238 189.199 161.954C189.199 161.691 189.395 161.253 189.636 160.969C189.876 160.684 190.072 160.268 190.072 160.049C190.072 159.808 190.269 159.371 190.509 159.064C190.749 158.758 190.945 158.298 190.945 158.079C190.945 157.838 191.142 157.401 191.382 157.094C191.622 156.788 191.819 156.35 191.819 156.153C191.819 155.934 191.971 155.65 192.146 155.496C192.321 155.343 192.474 155.146 192.474 155.037C192.474 154.949 192.866 154.008 193.369 152.935C193.871 151.885 194.613 150.265 195.028 149.368C195.442 148.47 195.966 147.354 196.207 146.916C196.425 146.478 196.621 145.975 196.621 145.8C196.621 145.625 196.774 145.362 196.949 145.209C197.123 145.055 197.32 144.618 197.407 144.202C197.473 143.786 197.626 143.392 197.735 143.348C197.822 143.282 198.368 142.276 198.914 141.094C199.459 139.933 200.049 138.708 200.223 138.379C200.398 138.073 200.551 137.657 200.551 137.482C200.551 137.307 200.747 136.913 200.987 136.606C201.228 136.3 201.424 135.884 201.424 135.687C201.424 135.49 201.62 135.074 201.861 134.768C202.101 134.461 202.297 134.024 202.297 133.805C202.297 133.586 202.385 133.367 202.494 133.301C202.69 133.17 203.651 131.222 205.07 128.135C205.375 127.479 205.725 126.778 205.812 126.603C205.921 126.428 206.118 126.034 206.249 125.728C206.379 125.421 206.576 125.027 206.663 124.852C206.772 124.677 207.296 123.583 207.864 122.444C208.41 121.306 208.955 120.212 209.065 120.037C209.196 119.861 209.392 119.468 209.501 119.161C209.632 118.855 209.807 118.461 209.916 118.286C210.047 118.11 210.571 117.016 211.139 115.878C211.684 114.74 212.23 113.645 212.339 113.47C212.47 113.295 212.667 112.901 212.776 112.594C212.907 112.288 213.081 111.894 213.212 111.719C213.627 111.062 215.133 108.063 215.286 107.582C215.374 107.297 215.701 106.663 216.05 106.181C216.378 105.678 216.727 105.021 216.814 104.715C216.902 104.408 217.098 104.014 217.251 103.839C217.404 103.664 217.6 103.27 217.688 102.963C217.775 102.657 217.971 102.263 218.124 102.088C218.277 101.913 218.626 101.256 218.91 100.665C219.194 100.052 219.587 99.3299 219.805 99.0453C220.023 98.7608 220.198 98.3887 220.198 98.2354C220.198 98.0822 220.482 97.535 220.831 97.0097C221.181 96.4843 221.617 95.7182 221.814 95.3023C221.988 94.8865 222.228 94.383 222.338 94.2079C222.447 94.0328 222.643 93.6826 222.774 93.4418C222.905 93.201 223.276 92.5663 223.582 92.0409C223.887 91.5156 224.128 90.9684 224.128 90.7933C224.128 90.6401 224.259 90.3774 224.433 90.2023C224.608 90.0491 225.023 89.3705 225.372 88.7138C225.721 88.0572 226.267 87.116 226.616 86.5906C226.944 86.0653 227.293 85.4305 227.38 85.1679C227.489 84.8833 227.882 84.2048 228.254 83.6575C228.625 83.1103 228.93 82.5631 228.93 82.4756C228.93 82.3661 229.323 81.6876 229.804 80.9652C230.284 80.2429 230.677 79.5644 230.677 79.4549C230.677 79.3455 230.873 79.039 231.092 78.7982C231.332 78.5356 231.79 77.8351 232.139 77.2223C232.772 76.0622 233.253 75.2961 235.217 72.2973C235.851 71.3342 236.462 70.3273 236.593 70.0646C236.702 69.802 237.182 69.0359 237.662 68.3792C238.165 67.7226 238.645 66.9783 238.732 66.7376C238.841 66.4749 239.474 65.5118 240.151 64.5706C240.828 63.6294 241.374 62.7538 241.374 62.6444C241.374 62.513 241.679 62.0315 242.072 61.5499C242.858 60.5431 243.775 59.2079 243.775 59.0546C243.775 58.9452 244.976 57.216 246.154 55.6619C246.635 55.0052 247.05 54.3923 247.05 54.3048C247.05 54.0859 247.945 52.7945 248.316 52.5099C248.49 52.3786 248.621 51.7219 248.643 50.912C248.665 49.6644 248.621 49.4893 247.988 48.8764C247.508 48.3729 247.05 48.154 246.307 48.0884C244.997 47.9352 244.801 47.6725 245.303 46.7094C245.543 46.2935 245.827 45.7025 245.98 45.3961C246.111 45.0896 246.307 44.6956 246.416 44.5205C246.613 44.1703 248.338 40.6681 249.036 39.1359C249.254 38.6324 249.451 38.0633 249.451 37.8663C249.451 37.6693 249.582 37.2753 249.756 37.0127C249.931 36.75 250.128 36.159 250.193 35.7212C250.28 35.2835 250.477 34.6268 250.652 34.2985C250.826 33.9702 250.979 33.4448 250.979 33.1384C250.979 32.8319 251.175 32.0221 251.416 31.3216C251.656 30.6431 251.852 29.6581 251.852 29.1327C251.852 28.5855 252.005 27.7319 252.201 27.2065C252.463 26.5061 252.573 25.3679 252.594 22.9601C252.616 19.9833 252.573 19.5674 252.114 18.5167C251.852 17.86 251.481 17.1815 251.306 17.0064C251.132 16.8313 250.979 16.5029 250.979 16.2841C250.979 16.0433 250.586 15.5836 250.018 15.1896C249.145 14.5986 248.905 14.533 247.442 14.5549C246.569 14.5767 245.609 14.6424 245.325 14.6862Z" fill="#FF003D"/>
<path d="M109.212 15.6055C109.125 15.7587 109.103 15.9338 109.169 15.9995C109.365 16.1965 109.584 15.9119 109.474 15.6055C109.387 15.3647 109.343 15.3647 109.212 15.6055Z" fill="#FF003D"/>
<path d="M108.339 16.6124C108.274 16.7875 108.317 16.9407 108.427 16.9407C108.71 16.9407 108.907 16.5467 108.667 16.4154C108.558 16.3497 108.427 16.4373 108.339 16.6124Z" fill="#FF003D"/>
<path d="M107.553 17.7287C107.553 17.9038 107.662 17.9914 107.772 17.9257C107.903 17.86 107.99 17.7068 107.99 17.5755C107.99 17.466 107.903 17.3785 107.772 17.3785C107.662 17.3785 107.553 17.5317 107.553 17.7287Z" fill="#FF003D"/>
<path d="M105.523 20.1365C104.191 21.8657 103.777 22.6318 104.235 22.6318C104.519 22.6318 107.335 18.845 107.335 18.451C107.335 17.9695 106.898 18.3854 105.523 20.1365Z" fill="#FF003D"/>
<path d="M103.493 22.9382C103.318 23.4198 103.558 23.6605 103.886 23.3322C104.082 23.1352 104.082 23.0039 103.886 22.8069C103.689 22.6099 103.602 22.6537 103.493 22.9382Z" fill="#FF003D"/>
<path d="M102.642 23.967C102.554 24.0983 102.576 24.2953 102.707 24.4267C102.838 24.558 102.947 24.5142 103.034 24.2953C103.187 23.9013 102.838 23.6168 102.642 23.967Z" fill="#FF003D"/>
<path d="M101.768 25.0176C101.637 25.2584 101.965 25.5211 102.183 25.3241C102.38 25.1271 102.336 24.8206 102.118 24.8206C101.987 24.8206 101.856 24.9082 101.768 25.0176Z" fill="#FF003D"/>
<path d="M136.675 45.8776C135.54 46.6875 135.234 47.4536 135.103 49.8832C135.06 51.109 134.863 52.3348 134.688 52.685C134.536 53.0133 134.339 54.2391 134.274 55.4211C134.208 56.5812 134.012 57.8507 133.837 58.2228C133.684 58.5949 133.488 59.7113 133.4 60.7182C133.313 61.725 133.117 62.7976 132.942 63.104C132.789 63.4105 132.658 64.2204 132.658 64.877C132.658 65.6212 132.527 66.2779 132.331 66.5624C132.134 66.847 131.938 67.7225 131.872 68.5324C131.807 69.3423 131.61 70.4149 131.414 70.8964C131.13 71.6625 130.912 73.5231 130.541 78.5575C130.497 79.3892 130.541 80.418 130.65 80.8558C130.781 81.2717 130.955 81.9721 131.065 82.388C131.196 82.9352 131.37 83.1541 131.676 83.1541C132.003 83.1541 132.178 82.9133 132.353 82.1472C132.505 81.6 132.702 80.9433 132.833 80.7244C132.942 80.5056 133.117 79.8051 133.204 79.2141C133.291 78.6012 133.444 78.0102 133.553 77.8789C133.662 77.7476 133.815 77.1566 133.881 76.5656C133.968 75.9746 134.165 75.2523 134.339 74.9677C134.514 74.6832 134.71 73.8514 134.776 73.1072C134.841 72.3848 135.038 71.5969 135.212 71.3999C135.387 71.2029 135.584 70.6119 135.649 70.0865C135.715 69.5612 135.889 68.8389 136.064 68.4449C136.238 68.0728 136.369 67.4161 136.369 67.0002C136.369 66.5843 136.566 65.6212 136.806 64.877C137.046 64.1328 137.243 63.0821 137.243 62.5349C137.243 62.0096 137.395 61.2654 137.592 60.8933C137.788 60.5212 137.985 59.4267 138.05 58.4417C138.116 57.4567 138.269 56.5593 138.378 56.428C138.487 56.2747 138.662 55.2898 138.793 54.2391C138.902 53.1665 139.12 51.9846 139.251 51.6343C139.36 51.2622 139.513 49.9708 139.579 48.7231C139.688 46.5999 139.666 46.4467 139.207 45.9433C138.552 45.2647 137.57 45.2209 136.675 45.8776Z" fill="#FF003D"/>
<path d="M87.6877 55.6181C87.1201 55.837 87.0328 56.1653 87.0328 58.2666C87.0328 59.3829 86.9236 60.5212 86.7926 60.7619C86.6616 61.0246 86.4652 62.2066 86.3778 63.3886C86.2905 64.5706 86.094 65.6869 85.9412 65.862C85.7884 66.0371 85.6356 67.044 85.5701 68.0947C85.5046 69.1891 85.33 70.2398 85.1553 70.5243C84.9807 70.787 84.7842 71.8157 84.6969 72.8226C84.6314 73.8076 84.4349 74.9021 84.2603 75.2304C83.4526 76.8501 83.2561 86.8752 84.0202 87.7945C84.3913 88.2542 84.9589 88.1228 85.461 87.4224C86.0504 86.6344 86.5088 84.1391 86.7271 80.7463C86.8145 79.1485 87.0109 78.0321 87.2729 77.4193C87.513 76.9158 87.6877 76.0403 87.6877 75.493C87.6877 74.9458 87.8405 74.2016 88.0151 73.8295C88.2116 73.4793 88.4299 72.5162 88.4954 71.7063C88.5609 70.8964 88.7574 69.9771 88.9102 69.6706C89.063 69.3642 89.2595 68.4887 89.3249 67.7007C89.4123 66.9346 89.6087 65.8839 89.7834 65.3586C89.958 64.8551 90.089 63.9577 90.089 63.4105C90.089 62.8414 90.2418 61.5499 90.4383 60.5212C90.8531 58.3542 90.7003 57.6975 89.5869 56.2747C88.9538 55.4868 88.4736 55.3335 87.6877 55.6181Z" fill="#FF003D"/>
<path d="M116.307 55.9902C115.893 56.3185 115.434 56.5593 115.303 56.5593C115.063 56.5593 112.334 59.4267 111.112 60.9589C110.784 61.3967 110.348 61.9002 110.173 62.0753C108.885 63.4543 108.317 64.3517 108.208 65.1397C108.121 65.9277 108.012 66.059 107.226 66.3436C106.746 66.5187 106.134 66.7157 105.851 66.7813C105.152 66.9565 103.668 68.7294 103.406 69.7144C103.275 70.1522 103.034 70.8089 102.86 71.1591C102.685 71.4874 102.532 72.1879 102.532 72.7132C102.532 73.2166 102.38 73.8952 102.183 74.2016C101.659 75.0115 101.637 79.8051 102.161 80.7901C102.358 81.1841 102.532 81.797 102.532 82.1691C102.532 82.5631 102.729 83.1103 102.969 83.4168C103.209 83.7232 103.406 84.1172 103.406 84.2704C103.406 84.4455 103.624 84.9052 103.886 85.3211C104.344 86.0215 104.432 86.0653 106.156 86.1966C108.929 86.3936 109.103 86.328 111.003 84.0953C111.941 83.0228 112.924 81.6657 113.229 81.0966C113.535 80.5275 114.081 79.6738 114.452 79.1922C115.456 77.8789 116.94 75.2523 116.94 74.7707C116.94 74.53 117.159 74.1797 117.443 74.0046C117.923 73.6982 117.966 73.7201 118.272 74.136C118.425 74.3986 118.687 74.8802 118.84 75.2085C118.992 75.6025 119.276 75.8214 119.56 75.8214C119.888 75.8214 119.997 75.6901 119.997 75.2085C119.975 74.8802 119.844 74.3767 119.669 74.0703C119.211 73.2604 119.233 68.423 119.691 67.3286C119.888 66.8689 120.106 65.4024 120.215 63.8483C120.302 62.3817 120.455 61.0903 120.521 60.9589C120.608 60.8276 120.564 59.8645 120.411 58.8138C120.106 56.3623 119.691 55.7932 118.141 55.5962C117.181 55.4649 116.962 55.5086 116.307 55.9902ZM116.286 61.9658C116.286 63.4761 116.155 64.6581 115.958 65.2054C115.783 65.6869 115.652 66.5187 115.631 67.0659C115.631 67.6131 115.478 68.2698 115.303 68.5106C115.129 68.7732 114.888 69.4518 114.757 70.0428C114.626 70.6338 114.43 71.1591 114.343 71.2248C114.233 71.2904 113.884 71.9033 113.557 72.6037C113.229 73.3042 112.64 74.3986 112.225 75.0115C111.81 75.6244 111.483 76.2154 111.483 76.3248C111.483 76.4343 111.155 76.9158 110.741 77.4193C110.348 77.9227 109.562 79.039 108.994 79.9146C107.881 81.6219 107.073 82.3223 106.746 81.8846C106.636 81.7313 106.331 81.206 106.069 80.6807C105.654 79.8708 105.589 79.3892 105.589 76.8939C105.589 74.8802 105.676 73.8733 105.894 73.4574C106.069 73.1291 106.265 72.363 106.353 71.772C106.44 71.1591 106.68 70.5024 106.877 70.3054C107.073 70.1084 107.357 69.7801 107.51 69.5831C107.706 69.3642 108.186 69.2548 109.125 69.2548H110.435L110.086 68.7075C109.889 68.423 109.736 68.0071 109.736 67.8101C109.736 67.4599 110.522 65.9933 110.85 65.7526C110.915 65.6869 111.286 65.0521 111.657 64.3298C112.64 62.4036 115.259 59.6237 116.133 59.6237C116.22 59.6237 116.286 60.6744 116.286 61.9658Z" fill="#FF003D"/>
<path d="M100.677 56.4936C100.24 56.5812 98.8648 58.3104 98.0571 59.7988C97.817 60.2366 97.293 61.0465 96.9219 61.5718C96.529 62.0753 96.1579 62.7319 96.0705 62.9946C95.9832 63.2354 95.6558 63.8045 95.3283 64.2203C95.0008 64.6362 94.4114 65.5774 93.9966 66.2998C93.6037 67.0221 93.2108 67.6569 93.1016 67.7225C93.0143 67.7882 92.6868 68.4011 92.3812 69.1015C92.0537 69.7801 91.7263 70.393 91.6171 70.4586C91.508 70.5243 91.3552 70.8964 91.2678 71.2904C91.2024 71.6625 90.9404 72.2316 90.7221 72.5162C90.482 72.8007 90.3073 73.2604 90.3073 73.5668C90.3073 73.8514 90.1545 74.1359 89.9799 74.2016C89.8052 74.2673 89.6087 74.6613 89.5214 75.0772C89.4559 75.4712 89.2594 75.9089 89.0848 76.0621C88.9102 76.1935 88.7792 76.478 88.7792 76.675C88.7792 76.872 88.6264 77.3098 88.4517 77.66C88.2771 77.9884 88.1243 78.5794 88.1243 78.9515V79.6081L88.67 79.0171C88.9757 78.6888 89.4559 77.9008 89.7834 77.2441C90.089 76.5875 90.4383 75.9965 90.5474 75.9308C90.6566 75.8433 91.246 74.7926 91.8573 73.5668C93.2108 70.8526 94.1276 69.2329 95.0227 67.9414C95.3938 67.3942 95.7649 66.7594 95.8522 66.4968C95.9177 66.256 96.3543 65.665 96.8128 65.1835L97.6205 64.3298L97.686 65.3804C97.7296 66.1247 97.6205 66.6938 97.3149 67.3067C97.0529 67.7882 96.8564 68.5762 96.8564 69.0796C96.8564 69.5831 96.7036 70.1522 96.529 70.3492C96.3325 70.5681 96.136 71.2466 96.0487 71.9033C95.9832 72.56 95.7867 73.2823 95.6558 73.5231C95.5029 73.7638 95.3283 74.4424 95.2628 75.0553C95.1973 75.6463 94.979 76.4343 94.8044 76.8064C94.6079 77.1566 94.4551 77.857 94.4551 78.3386C94.4551 78.8201 94.3023 79.433 94.1276 79.6957C93.953 79.9583 93.7347 80.6369 93.6692 81.2279C93.6037 81.797 93.4072 82.6069 93.2326 83.0009C93.0579 83.373 92.8396 84.2266 92.7741 84.8614C92.7087 85.4743 92.5122 86.1966 92.3594 86.4374C92.1847 86.6782 92.0537 87.2254 92.0537 87.6851C92.0537 88.1447 91.8573 88.8889 91.6171 89.3267C91.377 89.7864 91.1805 90.5087 91.1805 90.9246C91.1805 91.3624 91.0277 91.9096 90.8531 92.1723C90.6784 92.413 90.5038 93.0478 90.482 93.5731L90.4165 94.5362H91.4643C92.272 94.5362 92.5995 94.6457 92.8396 94.974C93.1671 95.4118 93.1889 95.4118 93.7128 94.7989C93.9966 94.4706 94.2368 93.9671 94.2368 93.7045C94.2368 93.4199 94.3896 93.004 94.5642 92.7414C94.7389 92.5006 94.9354 91.8658 95.0227 91.3405C95.11 90.8152 95.3065 90.1804 95.4593 89.9396C95.6339 89.6988 95.7649 89.2611 95.7649 88.9546C95.7649 88.6482 95.9614 88.0353 96.2015 87.5756C96.4416 87.1378 96.6381 86.3499 96.6381 85.8245C96.6381 85.3211 96.7909 84.6863 96.9656 84.4018C97.1621 84.1391 97.3804 83.4168 97.4458 82.782C97.5113 82.1472 97.7078 81.4249 97.8388 81.1841C97.9916 80.9433 98.1881 80.2429 98.2536 79.6081C98.3409 78.9952 98.5374 78.2072 98.712 77.857C98.8867 77.5287 99.0395 76.8501 99.0395 76.3686C99.0395 75.887 99.1923 75.2742 99.3669 75.0115C99.5416 74.7488 99.7817 73.9608 99.8909 73.2604C100 72.56 100.24 71.5968 100.437 71.1153C100.611 70.6337 100.764 69.8895 100.786 69.4736C100.786 69.0578 100.939 68.5105 101.113 68.2917C101.288 68.0509 101.441 67.5037 101.441 67.0878C101.441 66.65 101.594 65.9933 101.79 65.6431C101.987 65.271 102.183 64.3955 102.249 63.6731C102.314 62.9508 102.489 62.119 102.641 61.8126C103.144 60.8276 103.427 57.1503 103.056 56.7782C102.816 56.5593 101.266 56.3623 100.677 56.4936Z" fill="#FF003D"/>
<path d="M174.223 57.5224C173.83 57.6975 173.437 58.0915 173.285 58.4855C173.132 58.8576 172.87 59.2078 172.695 59.2735C172.521 59.3392 172.39 59.6237 172.39 59.9083C172.39 60.1928 172.237 60.7619 172.04 61.134C171.8 61.6156 171.625 62.8414 171.495 64.8332C171.407 66.4968 171.233 68.3135 171.102 68.9264C170.992 69.5174 170.883 70.5681 170.883 71.2247C170.861 71.8814 170.709 72.7132 170.512 73.0853C170.316 73.4355 170.119 74.3329 170.054 75.0553C169.988 75.7776 169.792 76.6094 169.617 76.8939C169.421 77.1785 169.246 78.1854 169.18 79.1922C169.115 80.1553 168.919 81.2498 168.744 81.5781C168.526 82.0378 168.416 83.1322 168.395 85.4524C168.373 87.2473 168.416 88.7576 168.482 88.8233C168.744 89.1078 169.311 88.6919 169.639 87.9915C169.835 87.5975 170.119 87.1597 170.272 87.0065C170.447 86.8752 170.752 86.3498 170.971 85.8464C171.189 85.3211 171.56 84.4893 171.778 83.9859C171.997 83.4824 172.171 82.9352 172.171 82.782C172.171 82.6288 172.368 82.1253 172.608 81.6657C172.848 81.2279 173.044 80.6807 173.044 80.4618C173.044 80.2429 173.241 79.6957 173.481 79.2141C173.721 78.7326 173.918 78.1635 173.918 77.9008C173.918 77.463 175.249 75.8214 175.62 75.8214C175.73 75.8214 177.105 74.3548 178.677 72.5818C182.322 68.423 182.148 68.5543 182.17 69.8457C182.191 70.4586 182.06 71.0934 181.864 71.4217C181.667 71.7063 181.449 72.5381 181.384 73.2823C181.318 74.0046 181.144 74.8145 180.991 75.0772C180.816 75.3179 180.62 75.9965 180.532 76.5875C180.467 77.1785 180.27 77.9008 180.096 78.2291C179.943 78.5356 179.812 79.0609 179.812 79.433C179.812 79.7832 179.615 80.4837 179.375 80.9652C179.135 81.4468 178.961 82.1472 178.939 82.5193C178.939 82.8914 178.808 83.3292 178.633 83.4605C178.458 83.6138 178.218 84.1391 178.087 84.6425C177.847 85.6713 177.236 87.5318 176.93 88.1447C176.843 88.3417 176.69 88.9765 176.603 89.5237C176.494 90.443 176.537 90.5744 177.17 91.1654C177.563 91.5156 178.131 91.8001 178.437 91.8001C179.091 91.8001 180.838 90.0928 181.034 89.2173C181.122 88.8889 181.362 88.3855 181.602 88.1009C181.82 87.8164 181.995 87.3567 181.995 87.0941C181.995 86.8314 182.148 86.4812 182.322 86.328C182.497 86.1747 182.65 85.934 182.65 85.8026C182.65 85.54 183.261 83.3511 183.981 81.1841C184.2 80.4618 184.396 79.5206 184.396 79.1047C184.396 78.6888 184.549 78.1635 184.724 77.9227C184.877 77.7038 185.095 76.9596 185.16 76.281C185.248 75.6025 185.444 74.6613 185.597 74.1797C185.772 73.6982 185.968 72.7569 186.034 72.1003C186.099 71.4436 186.274 70.787 186.383 70.6556C186.514 70.5024 186.667 69.6706 186.732 68.7732C186.798 67.8977 186.994 66.8908 187.191 66.5405C187.365 66.1684 187.562 64.877 187.649 63.4761C187.736 62.1409 187.867 60.937 187.955 60.7838C188.107 60.543 187.845 59.9083 187.169 58.967C186.885 58.5512 186.601 58.4198 185.924 58.4198C185.16 58.4198 184.898 58.5731 184.091 59.4048C183.108 60.4336 181.842 62.1628 181.275 63.2572C180.991 63.8045 180.576 64.3517 179.332 65.7307C178.524 66.65 177.192 68.4668 177.192 68.6419C177.192 68.7732 176.887 69.2329 176.494 69.6487L175.817 70.4367L175.948 69.0359C176.035 68.2479 176.144 65.3804 176.232 62.6444L176.385 57.6756L175.795 57.4348C175.075 57.1722 175.053 57.1722 174.223 57.5224Z" fill="#FF003D"/>
<path d="M143.639 60.2147C142.504 60.3023 142.504 60.3242 142.373 61.1122C142.22 62.1628 140.583 65.4242 139.797 66.2779C139.033 67.1316 137.461 69.4955 137.461 69.8239C137.461 69.9552 137.33 70.196 137.155 70.3273C136.762 70.6775 135.933 72.2316 135.933 72.6475C135.933 73.1947 136.937 73.0196 137.941 72.3411C138.945 71.6406 141.259 69.2767 142.482 67.6569C142.897 67.1097 143.421 66.6062 143.639 66.5625C143.988 66.453 144.01 66.7157 144.01 69.5612C144.01 71.7282 143.901 73.0196 143.683 73.8076C143.486 74.4643 143.268 76.4999 143.159 78.6013C143.05 80.6369 142.875 82.6507 142.744 83.1103C142.547 83.8545 142.591 83.9859 143.093 84.5769C143.639 85.1898 143.77 85.2335 145.233 85.2335H146.804L146.935 84.555C147.001 84.1829 147.066 83.5262 147.066 83.0884C147.066 82.6726 147.219 81.5781 147.394 80.6588C147.568 79.7395 147.809 77.6163 147.94 75.9308C148.049 74.2454 148.245 72.3192 148.354 71.6625C148.616 70.1522 148.638 65.5337 148.376 64.2204C147.656 60.5212 147.481 60.2366 145.822 60.1709C145.254 60.1491 144.272 60.1709 143.639 60.2147Z" fill="#FF003D"/>
<path d="M161.081 63.4543C160.71 63.7607 160.274 64.0015 160.077 64.0015C159.903 64.0015 159.401 64.1766 158.964 64.3736C158.331 64.68 158.134 64.7019 157.676 64.4611C157.239 64.2204 157.065 64.2204 156.65 64.5268C156.366 64.7238 155.995 64.877 155.82 64.877C155.078 64.877 152.589 66.8689 151.956 67.9852C151.127 69.4518 150.559 70.787 150.559 71.2467C150.537 71.5312 150.406 72.0128 150.232 72.3192C149.773 73.1072 149.773 78.1635 150.232 79.0172C150.406 79.3674 150.559 79.9146 150.559 80.2648C150.559 80.5931 150.756 81.2279 150.996 81.6657C151.236 82.1253 151.432 82.6069 151.432 82.7382C151.432 82.979 152.087 83.5919 153.594 84.7301C154.554 85.4743 156.475 85.4305 157.414 84.6644C158.178 84.0297 161.693 79.9584 161.693 79.7176C161.693 79.5863 162.653 78.054 162.893 77.8133C162.959 77.7695 163.505 78.2729 164.094 78.9515C164.705 79.6081 165.6 80.3743 166.102 80.615C166.91 81.009 167.041 81.0309 167.5 80.7026C168.373 80.1335 168.133 79.4768 166.081 77.0034C165.775 76.6094 165.142 74.2892 165.033 73.0415C164.945 72.2098 165.033 71.772 165.317 71.3342C165.797 70.59 165.819 68.9921 165.338 68.4887C165.076 68.226 164.967 67.7445 164.967 66.7595C164.967 65.7307 164.858 65.2273 164.553 64.8551C164.334 64.5706 164.072 64.1109 164.007 63.8264C163.679 62.8195 162.064 62.6225 161.081 63.4543ZM160.317 69.2767C160.23 71.9471 160.099 72.8883 159.859 73.1729C159.684 73.3699 159.466 73.8076 159.379 74.1797C159.291 74.53 158.615 75.6244 157.872 76.5875C157.152 77.5506 156.366 78.6013 156.17 78.9296C155.689 79.6957 155.406 79.6957 154.772 78.9515C154.227 78.3386 154.118 76.9815 154.249 73.4355C154.314 71.9909 154.401 71.6844 155.056 70.7651C155.449 70.196 155.842 69.4737 155.93 69.1453C156.082 68.5543 158.113 66.6281 158.571 66.6281C158.724 66.6281 158.964 66.4311 159.117 66.1904C159.27 65.9496 159.641 65.7526 159.924 65.7526H160.448L160.317 69.2767Z" fill="#FF003D"/>
<path d="M193.216 91.9972C192.015 92.5006 190.509 94.6019 190.465 95.8277C190.443 96.8564 191.513 98.9359 192.343 99.4174C192.997 99.8114 193.085 99.8114 193.478 99.4831C193.696 99.2642 194.002 98.9578 194.111 98.7827C194.242 98.5857 194.657 97.9947 195.05 97.4912L195.77 96.5281L195.704 94.2298L195.639 91.9096L194.657 91.8658C194.111 91.8439 193.478 91.9096 193.216 91.9972Z" fill="#FF003D"/>
<path d="M165.207 234.69C164.902 235.259 164.902 235.609 165.186 235.609C165.426 235.609 165.731 234.558 165.557 234.383C165.491 234.318 165.338 234.449 165.207 234.69Z" fill="#FF003D"/>
<path d="M164.443 235.937C164.203 236.594 164.312 236.813 164.683 236.419C164.945 236.156 164.989 235.981 164.814 235.806C164.662 235.653 164.553 235.675 164.443 235.937Z" fill="#FF003D"/>
<path d="M163.177 237.886C162.522 238.892 162.435 239.221 162.762 239.418C163.003 239.571 164.094 237.776 164.094 237.273C164.094 236.682 163.788 236.879 163.177 237.886Z" fill="#FF003D"/>
<path d="M161.889 239.899C161.627 240.206 161.649 240.25 161.998 240.184C162.238 240.14 162.457 239.965 162.522 239.812C162.631 239.44 162.238 239.483 161.889 239.899Z" fill="#FF003D"/>
</svg>
